<?xml version="1.0" encoding="UTF-8" standalone="no"?>
<!-- generated by Grace-5.1.25 -->

<svg
   xml:space="preserve"
   width="10.962077in"
   height="7.0849051in"
   viewBox="0 0 789.26727 510.11385"
   version="1.1"
   id="svg342"
   sodipodi:docname="IIR_filter.svg"
   inkscape:version="1.1.2 (0a00cf5339, 2022-02-04)"
   xmlns:inkscape="http://www.inkscape.org/namespaces/inkscape"
   xmlns:sodipodi="http://sodipodi.sourceforge.net/DTD/sodipodi-0.dtd"
   xmlns="http://www.w3.org/2000/svg"
   xmlns:svg="http://www.w3.org/2000/svg"
   xmlns:rdf="http://www.w3.org/1999/02/22-rdf-syntax-ns#"
   xmlns:cc="http://creativecommons.org/ns#"
   xmlns:dc="http://purl.org/dc/elements/1.1/"><title
   id="title2684">Infinite Impulse Response filter types in MeteoIO</title><defs
   id="defs346" /><sodipodi:namedview
   id="namedview344"
   pagecolor="#ffffff"
   bordercolor="#666666"
   borderopacity="1.0"
   inkscape:pageshadow="2"
   inkscape:pageopacity="0.0"
   inkscape:pagecheckerboard="0"
   inkscape:document-units="in"
   showgrid="false"
   fit-margin-top="0"
   fit-margin-left="0"
   fit-margin-right="0"
   fit-margin-bottom="0"
   inkscape:zoom="0.63870236"
   inkscape:cx="548.76891"
   inkscape:cy="318.61476"
   inkscape:window-width="1920"
   inkscape:window-height="1005"
   inkscape:window-x="0"
   inkscape:window-y="0"
   inkscape:window-maximized="1"
   inkscape:current-layer="svg342" />
 <g
   transform="matrix(1,0,0,-1,-7.7095385,535.92375)"
   id="g340">
  <g
   style="fill:none;stroke:#b4b4b4;stroke-width:5.337;stroke-linecap:butt;stroke-linejoin:miter;stroke-dasharray:none"
   id="g4">
   <path
   d="m 88.8907,106.74 h 0.0593 9.6045 9.6044 9.6045 9.6045 9.6044 9.6045 9.6045 9.6044 9.6045 9.6045 9.6044 9.6045 9.6045 9.6044 9.6045 9.6045 9.6044 9.6045 9.6045 9.6044 9.6045 9.6045 9.6044 9.6045 9.6045 9.6044 9.6045 9.6045 9.6044 9.6045 9.6045 9.6044 9.6045 9.6045 9.6044 4.6422 l 0.3201,395.3333 h 4.6422 9.6045 9.6044 9.6045 9.6045 9.6044 9.6045 9.6045 9.6044 9.6045 9.6045 9.6044 9.6045 9.6045 9.6044 9.6045 9.6045 9.6044 9.6045 9.6045 9.6044 9.6045 9.6045 9.6044 9.6045 9.6045 9.6044 9.6045 9.6045 9.6044 9.6045 9.6045 9.6044 9.6045 9.6045 9.6044 9.6045 0.0593"
   id="path2" />
  </g>
  <g
   style="fill:none;stroke:#008b00;stroke-width:5.337;stroke-linecap:butt;stroke-linejoin:miter;stroke-dasharray:none"
   id="g8">
   <path
   d="m 88.8907,107.1353 h 0.0593 9.6045 9.6044 9.6045 l 9.6045,-0.3953 9.6044,-0.3953 9.6045,-0.3954 9.6045,-0.3953 9.6044,-0.7907 9.6045,-0.7906 9.6045,-0.7907 9.6044,-0.7907 9.6045,-1.186 9.6045,-1.186 9.6044,-1.186 9.6045,-1.5813 9.6045,-1.186 9.6044,-1.186 9.6045,-0.7907 9.6045,-0.7906 h 9.6044 l 9.6045,0.7906 9.6045,1.186 9.6044,2.372 9.6045,3.9534 9.6045,5.5346 9.6044,7.116 9.6045,9.0927 9.6045,11.86 9.6044,14.232 9.6045,16.9993 9.6045,19.7667 9.6044,22.534 9.6045,25.3013 9.6045,27.278 9.6044,28.464 9.6045,29.2547 9.6045,28.464 9.6044,27.278 9.6045,25.3013 9.6045,22.534 9.6044,19.7667 9.6045,16.9993 9.6045,14.232 9.6044,11.86 9.6045,9.0927 9.6045,7.116 9.6044,5.5347 9.6045,3.9533 9.6045,2.372 9.6044,1.186 9.6045,0.7907 h 9.6045 l 9.6044,-0.7907 9.6045,-0.7907 9.6045,-1.186 9.6044,-1.186 9.6045,-1.5813 9.6045,-1.186 9.6044,-1.186 9.6045,-1.186 9.6045,-0.7907 9.6044,-0.7906 9.6045,-0.7907 9.6045,-0.7907 9.6044,-0.3953 9.6045,-0.3953 9.6045,-0.3954 9.6044,-0.3953 h 9.6045 9.6045 9.6044 9.6045 0.0593"
   id="path6" />
  </g>
  <g
   style="fill:none;stroke:#0000ff;stroke-width:5.337;stroke-linecap:butt;stroke-linejoin:miter;stroke-dasharray:none"
   id="g12">
   <path
   d="m 88.8907,106.74 h 0.0593 9.6045 9.6044 9.6045 9.6045 9.6044 9.6045 9.6045 9.6044 9.6045 9.6045 9.6044 9.6045 9.6045 9.6044 9.6045 9.6045 9.6044 9.6045 9.6045 9.6044 9.6045 l 9.6045,0.3953 h 9.6044 l 9.6045,0.3954 9.6045,0.3953 9.6044,0.7907 9.6045,1.5813 9.6045,2.372 9.6044,4.3487 9.6045,7.116 9.6045,11.4646 9.6044,18.5807 9.6045,28.0687 9.6045,40.7193 9.6044,52.5793 9.6045,57.7187 9.6045,52.5793 9.6044,40.7194 9.6045,28.0686 9.6045,18.5807 9.6044,11.4647 9.6045,7.116 9.6045,4.3486 9.6044,2.372 9.6045,1.5814 9.6045,0.7906 9.6044,0.3954 9.6045,0.3953 h 9.6045 l 9.6044,0.3953 h 9.6045 9.6045 9.6044 9.6045 9.6045 9.6044 9.6045 9.6045 9.6044 9.6045 9.6045 9.6044 9.6045 9.6045 9.6044 9.6045 9.6045 9.6044 9.6045 9.6045 9.6044 9.6045 0.0593"
   id="path10" />
  </g>
  <g
   style="fill:none;stroke:#670748;stroke-width:5.337;stroke-linecap:butt;stroke-linejoin:miter;stroke-dasharray:none"
   id="g16">
   <path
   d="m 88.8907,106.74 h 0.0593 9.6045 9.6044 9.6045 9.6045 9.6044 9.6045 9.6045 9.6044 9.6045 9.6045 9.6044 9.6045 9.6045 9.6044 9.6045 9.6045 9.6044 9.6045 9.6045 9.6044 9.6045 9.6045 9.6044 9.6045 9.6045 9.6044 9.6045 9.6045 9.6044 9.6045 l 9.6045,-0.7907 9.6044,-2.7673 9.6045,1.186 9.6045,33.6033 9.6044,98.438 9.6045,135.9947 9.6045,98.438 9.6044,33.6033 9.6045,1.186 9.6045,-2.7673 9.6044,-0.7907 h 9.6045 9.6045 9.6044 9.6045 9.6045 9.6044 9.6045 9.6045 9.6044 9.6045 9.6045 9.6044 9.6045 9.6045 9.6044 9.6045 9.6045 9.6044 9.6045 9.6045 9.6044 9.6045 9.6045 9.6044 9.6045 9.6045 9.6044 9.6045 9.6045 9.6044 9.6045 0.0593"
   id="path14" />
  </g>
  <g
   style="fill:none;stroke:#000000;stroke-width:0.8895;stroke-linecap:butt;stroke-linejoin:miter;stroke-dasharray:none"
   id="g22">
   <path
   d="M 88.95,88.95 H 780.4716"
   id="path18" />
   <path
   d="M 88.95,533.7 H 780.4716"
   id="path20" />
  </g>
  <g
   style="fill:none;stroke:#000000;stroke-width:4.4475;stroke-linecap:butt;stroke-linejoin:miter;stroke-dasharray:none"
   id="g172">
   <path
   d="m 108.1589,88.95 v 5.93"
   id="path24" />
   <path
   d="m 108.1589,533.7 v -5.93"
   id="path26" />
   <path
   d="m 127.3679,88.95 v 5.93"
   id="path28" />
   <path
   d="m 127.3679,533.7 v -5.93"
   id="path30" />
   <path
   d="m 146.5768,88.95 v 5.93"
   id="path32" />
   <path
   d="m 146.5768,533.7 v -5.93"
   id="path34" />
   <path
   d="m 165.7857,88.95 v 5.93"
   id="path36" />
   <path
   d="m 165.7857,533.7 v -5.93"
   id="path38" />
   <path
   d="m 184.9947,88.95 v 5.93"
   id="path40" />
   <path
   d="m 184.9947,533.7 v -5.93"
   id="path42" />
   <path
   d="m 223.4125,88.95 v 5.93"
   id="path44" />
   <path
   d="m 223.4125,533.7 v -5.93"
   id="path46" />
   <path
   d="m 242.6215,88.95 v 5.93"
   id="path48" />
   <path
   d="m 242.6215,533.7 v -5.93"
   id="path50" />
   <path
   d="m 261.8304,88.95 v 5.93"
   id="path52" />
   <path
   d="m 261.8304,533.7 v -5.93"
   id="path54" />
   <path
   d="m 281.0393,88.95 v 5.93"
   id="path56" />
   <path
   d="m 281.0393,533.7 v -5.93"
   id="path58" />
   <path
   d="m 300.2483,88.95 v 5.93"
   id="path60" />
   <path
   d="m 300.2483,533.7 v -5.93"
   id="path62" />
   <path
   d="m 338.6661,88.95 v 5.93"
   id="path64" />
   <path
   d="m 338.6661,533.7 v -5.93"
   id="path66" />
   <path
   d="m 357.8751,88.95 v 5.93"
   id="path68" />
   <path
   d="m 357.8751,533.7 v -5.93"
   id="path70" />
   <path
   d="m 377.084,88.95 v 5.93"
   id="path72" />
   <path
   d="m 377.084,533.7 v -5.93"
   id="path74" />
   <path
   d="m 396.2929,88.95 v 5.93"
   id="path76" />
   <path
   d="m 396.2929,533.7 v -5.93"
   id="path78" />
   <path
   d="m 415.5019,88.95 v 5.93"
   id="path80" />
   <path
   d="m 415.5019,533.7 v -5.93"
   id="path82" />
   <path
   d="m 453.9197,88.95 v 5.93"
   id="path84" />
   <path
   d="m 453.9197,533.7 v -5.93"
   id="path86" />
   <path
   d="m 473.1287,88.95 v 5.93"
   id="path88" />
   <path
   d="m 473.1287,533.7 v -5.93"
   id="path90" />
   <path
   d="m 492.3376,88.95 v 5.93"
   id="path92" />
   <path
   d="m 492.3376,533.7 v -5.93"
   id="path94" />
   <path
   d="m 511.5465,88.95 v 5.93"
   id="path96" />
   <path
   d="m 511.5465,533.7 v -5.93"
   id="path98" />
   <path
   d="m 530.7555,88.95 v 5.93"
   id="path100" />
   <path
   d="m 530.7555,533.7 v -5.93"
   id="path102" />
   <path
   d="m 569.1733,88.95 v 5.93"
   id="path104" />
   <path
   d="m 569.1733,533.7 v -5.93"
   id="path106" />
   <path
   d="m 588.3823,88.95 v 5.93"
   id="path108" />
   <path
   d="m 588.3823,533.7 v -5.93"
   id="path110" />
   <path
   d="m 607.5912,88.95 v 5.93"
   id="path112" />
   <path
   d="m 607.5912,533.7 v -5.93"
   id="path114" />
   <path
   d="m 626.8001,88.95 v 5.93"
   id="path116" />
   <path
   d="m 626.8001,533.7 v -5.93"
   id="path118" />
   <path
   d="m 646.0091,88.95 v 5.93"
   id="path120" />
   <path
   d="m 646.0091,533.7 v -5.93"
   id="path122" />
   <path
   d="m 684.4269,88.95 v 5.93"
   id="path124" />
   <path
   d="m 684.4269,533.7 v -5.93"
   id="path126" />
   <path
   d="m 703.6359,88.95 v 5.93"
   id="path128" />
   <path
   d="m 703.6359,533.7 v -5.93"
   id="path130" />
   <path
   d="m 722.8448,88.95 v 5.93"
   id="path132" />
   <path
   d="m 722.8448,533.7 v -5.93"
   id="path134" />
   <path
   d="m 742.0537,88.95 v 5.93"
   id="path136" />
   <path
   d="m 742.0537,533.7 v -5.93"
   id="path138" />
   <path
   d="m 761.2627,88.95 v 5.93"
   id="path140" />
   <path
   d="m 761.2627,533.7 v -5.93"
   id="path142" />
   <path
   d="m 88.95,88.95 v 11.86"
   id="path144" />
   <path
   d="M 88.95,533.7 V 521.84"
   id="path146" />
   <path
   d="m 204.2036,88.95 v 11.86"
   id="path148" />
   <path
   d="M 204.2036,533.7 V 521.84"
   id="path150" />
   <path
   d="m 319.4572,88.95 v 11.86"
   id="path152" />
   <path
   d="M 319.4572,533.7 V 521.84"
   id="path154" />
   <path
   d="m 434.7108,88.95 v 11.86"
   id="path156" />
   <path
   d="M 434.7108,533.7 V 521.84"
   id="path158" />
   <path
   d="m 549.9644,88.95 v 11.86"
   id="path160" />
   <path
   d="M 549.9644,533.7 V 521.84"
   id="path162" />
   <path
   d="m 665.218,88.95 v 11.86"
   id="path164" />
   <path
   d="M 665.218,533.7 V 521.84"
   id="path166" />
   <path
   d="m 780.4716,88.95 v 11.86"
   id="path168" />
   <path
   d="M 780.4716,533.7 V 521.84"
   id="path170" />
  </g>
  <g
   style="fill:#000000;fill-rule:nonzero"
   id="g190">
   <text
   style="font-style:italic;font-weight:bold;font-size:593px;font-family:Times, 'Nimbus Roman No9 L'"
   transform="matrix(0.056,0,0,-0.056,66.45,61.02)"
   id="text174">-36</text>
   <text
   style="font-style:italic;font-weight:bold;font-size:593px;font-family:Times, 'Nimbus Roman No9 L'"
   transform="matrix(0.056,0,0,-0.056,181.7036,61.02)"
   id="text176">-24</text>
   <text
   style="font-style:italic;font-weight:bold;font-size:593px;font-family:Times, 'Nimbus Roman No9 L'"
   transform="matrix(0.056,0,0,-0.056,297.9572,60.02)"
   id="text178">-12</text>
   <text
   style="font-style:italic;font-weight:bold;font-size:593px;font-family:Times, 'Nimbus Roman No9 L'"
   transform="matrix(0.056,0,0,-0.056,426.7108,61.02)"
   id="text180">0</text>
   <text
   style="font-style:italic;font-weight:bold;font-size:593px;font-family:Times, 'Nimbus Roman No9 L'"
   transform="matrix(0.056,0,0,-0.056,533.9644,60.02)"
   id="text182">12</text>
   <text
   style="font-style:italic;font-weight:bold;font-size:593px;font-family:Times, 'Nimbus Roman No9 L'"
   transform="matrix(0.056,0,0,-0.056,648.718,61.02)"
   id="text184">24</text>
   <text
   style="font-style:italic;font-weight:bold;font-size:593px;font-family:Times, 'Nimbus Roman No9 L'"
   transform="matrix(0.056,0,0,-0.056,763.4716,61.02)"
   id="text186">36</text>
   <text
   style="font-style:italic;font-weight:bold;font-size:593px;font-family:Times, 'Nimbus Roman No9 L'"
   transform="matrix(0.056,0,0,-0.056,380.7108,31.09)"
   id="text188">time [h]</text>
  </g>
  <g
   style="fill:none;stroke:#000000;stroke-width:0.8895;stroke-linecap:butt;stroke-linejoin:miter;stroke-dasharray:none"
   id="g196">
   <path
   d="M 88.95,88.95 V 533.7"
   id="path192" />
   <path
   d="M 780.4716,88.95 V 533.7"
   id="path194" />
  </g>
  <g
   style="fill:none;stroke:#000000;stroke-width:4.4475;stroke-linecap:butt;stroke-linejoin:miter;stroke-dasharray:none"
   id="g286">
   <path
   d="m 88.95,126.5067 h 5.93"
   id="path198" />
   <path
   d="m 780.4716,126.5067 h -5.93"
   id="path200" />
   <path
   d="m 88.95,146.2733 h 5.93"
   id="path202" />
   <path
   d="m 780.4716,146.2733 h -5.93"
   id="path204" />
   <path
   d="m 88.95,166.04 h 5.93"
   id="path206" />
   <path
   d="m 780.4716,166.04 h -5.93"
   id="path208" />
   <path
   d="m 88.95,205.5733 h 5.93"
   id="path210" />
   <path
   d="m 780.4716,205.5733 h -5.93"
   id="path212" />
   <path
   d="m 88.95,225.34 h 5.93"
   id="path214" />
   <path
   d="m 780.4716,225.34 h -5.93"
   id="path216" />
   <path
   d="m 88.95,245.1067 h 5.93"
   id="path218" />
   <path
   d="m 780.4716,245.1067 h -5.93"
   id="path220" />
   <path
   d="m 88.95,284.64 h 5.93"
   id="path222" />
   <path
   d="m 780.4716,284.64 h -5.93"
   id="path224" />
   <path
   d="m 88.95,304.4067 h 5.93"
   id="path226" />
   <path
   d="m 780.4716,304.4067 h -5.93"
   id="path228" />
   <path
   d="m 88.95,324.1733 h 5.93"
   id="path230" />
   <path
   d="m 780.4716,324.1733 h -5.93"
   id="path232" />
   <path
   d="m 88.95,363.7067 h 5.93"
   id="path234" />
   <path
   d="m 780.4716,363.7067 h -5.93"
   id="path236" />
   <path
   d="m 88.95,383.4733 h 5.93"
   id="path238" />
   <path
   d="m 780.4716,383.4733 h -5.93"
   id="path240" />
   <path
   d="m 88.95,403.24 h 5.93"
   id="path242" />
   <path
   d="m 780.4716,403.24 h -5.93"
   id="path244" />
   <path
   d="m 88.95,442.7733 h 5.93"
   id="path246" />
   <path
   d="m 780.4716,442.7733 h -5.93"
   id="path248" />
   <path
   d="m 88.95,462.54 h 5.93"
   id="path250" />
   <path
   d="m 780.4716,462.54 h -5.93"
   id="path252" />
   <path
   d="m 88.95,482.3067 h 5.93"
   id="path254" />
   <path
   d="m 780.4716,482.3067 h -5.93"
   id="path256" />
   <path
   d="m 88.95,521.84 h 5.93"
   id="path258" />
   <path
   d="m 780.4716,521.84 h -5.93"
   id="path260" />
   <path
   d="m 88.95,106.74 h 11.86"
   id="path262" />
   <path
   d="m 780.4716,106.74 h -11.86"
   id="path264" />
   <path
   d="m 88.95,185.8067 h 11.86"
   id="path266" />
   <path
   d="m 780.4716,185.8067 h -11.86"
   id="path268" />
   <path
   d="m 88.95,264.8733 h 11.86"
   id="path270" />
   <path
   d="m 780.4716,264.8733 h -11.86"
   id="path272" />
   <path
   d="m 88.95,343.94 h 11.86"
   id="path274" />
   <path
   d="m 780.4716,343.94 h -11.86"
   id="path276" />
   <path
   d="m 88.95,423.0067 h 11.86"
   id="path278" />
   <path
   d="m 780.4716,423.0067 h -11.86"
   id="path280" />
   <path
   d="m 88.95,502.0733 h 11.86"
   id="path282" />
   <path
   d="m 780.4716,502.0733 h -11.86"
   id="path284" />
  </g>
  <g
   style="fill:#000000;fill-rule:nonzero"
   id="g302">
   <text
   style="font-style:italic;font-weight:bold;font-size:593px;font-family:Times, 'Nimbus Roman No9 L'"
   transform="matrix(0.056,0,0,-0.056,67.02,95.74)"
   id="text288">0</text>
   <text
   style="font-style:italic;font-weight:bold;font-size:593px;font-family:Times, 'Nimbus Roman No9 L'"
   transform="matrix(0.056,0,0,-0.056,43.02,174.8067)"
   id="text290">0.2</text>
   <text
   style="font-style:italic;font-weight:bold;font-size:593px;font-family:Times, 'Nimbus Roman No9 L'"
   transform="matrix(0.056,0,0,-0.056,41.02,253.8733)"
   id="text292">0.4</text>
   <text
   style="font-style:italic;font-weight:bold;font-size:593px;font-family:Times, 'Nimbus Roman No9 L'"
   transform="matrix(0.056,0,0,-0.056,41.02,332.94)"
   id="text294">0.6</text>
   <text
   style="font-style:italic;font-weight:bold;font-size:593px;font-family:Times, 'Nimbus Roman No9 L'"
   transform="matrix(0.056,0,0,-0.056,42.02,412.0067)"
   id="text296">0.8</text>
   <text
   style="font-style:italic;font-weight:bold;font-size:593px;font-family:Times, 'Nimbus Roman No9 L'"
   transform="matrix(0.056,0,0,-0.056,69.02,490.5733)"
   id="text298">1</text>
   <text
   style="font-style:italic;font-weight:bold;font-size:593px;font-family:Times, 'Nimbus Roman No9 L'"
   transform="matrix(0,0.056,0.056,0,30.09,278.825)"
   id="text300">[a.u]</text>
  </g>
  <g
   style="fill:none;stroke:#000000;stroke-width:4.4475;stroke-linecap:butt;stroke-linejoin:miter;stroke-dasharray:none"
   id="g306">
   <path
   d="M 88.95,88.95 V 533.7 H 780.4716 V 88.95 Z"
   id="path304" />
  </g>
  <g
   style="fill:#000000;fill-rule:nonzero"
   id="g310">
   <text
   style="font-style:normal;font-weight:normal;font-size:593px;font-family:Times, 'Nimbus Roman No9 L'"
   transform="matrix(0.056,0,0,-0.056,162.7785,446.47)"
   id="text308">input</text>
  </g>
  <g
   style="fill:none;stroke:#b4b4b4;stroke-width:5.337;stroke-linecap:butt;stroke-linejoin:miter;stroke-dasharray:none"
   id="g314">
   <path
   d="m 127.1985,453.97 h 23.72"
   id="path312" />
  </g>
  <g
   style="fill:#000000;fill-rule:nonzero"
   id="g318">
   <text
   style="font-style:normal;font-weight:normal;font-size:593px;font-family:Times, 'Nimbus Roman No9 L'"
   transform="matrix(0.056,0,0,-0.056,162.7785,410.54)"
   id="text316">Butterworth</text>
  </g>
  <g
   style="fill:none;stroke:#008b00;stroke-width:5.337;stroke-linecap:butt;stroke-linejoin:miter;stroke-dasharray:none"
   id="g322">
   <path
   d="m 127.1985,422.04 h 23.72"
   id="path320" />
  </g>
  <g
   style="fill:#000000;fill-rule:nonzero"
   id="g326">
   <text
   style="font-style:normal;font-weight:normal;font-size:593px;font-family:Times, 'Nimbus Roman No9 L'"
   transform="matrix(0.056,0,0,-0.056,162.7785,381.61)"
   id="text324">Critically damped</text>
  </g>
  <g
   style="fill:none;stroke:#0000ff;stroke-width:5.337;stroke-linecap:butt;stroke-linejoin:miter;stroke-dasharray:none"
   id="g330">
   <path
   d="m 127.1985,389.61 h 23.72"
   id="path328" />
  </g>
  <g
   style="fill:#000000;fill-rule:nonzero"
   id="g334">
   <text
   style="font-style:normal;font-weight:normal;font-size:593px;font-family:Times, 'Nimbus Roman No9 L'"
   transform="matrix(0.056,0,0,-0.056,162.7785,345.68)"
   id="text332">Bessel</text>
  </g>
  <g
   style="fill:none;stroke:#670748;stroke-width:5.337;stroke-linecap:butt;stroke-linejoin:miter;stroke-dasharray:none"
   id="g338">
   <path
   d="m 127.1985,357.18 h 23.72"
   id="path336" />
  </g>
 </g>
<metadata
   id="metadata2682"><rdf:RDF><cc:Work
       rdf:about=""><dc:title>Infinite Impulse Response filter types in MeteoIO</dc:title></cc:Work></rdf:RDF></metadata></svg>
