<?xml version="1.0" encoding="UTF-8" standalone="no"?>
<!-- Creator: fig2dev Version 3.2.8b -->

<!-- CreationDate: 2024-04-26 10:29:59 -->

<!-- Magnification: 0.42 -->

<svg
   width="400pt"
   height="306pt"
   viewBox="340 339 15855 12118"
   version="1.1"
   id="svg5258"
   sodipodi:docname="library_analogy.svg"
   inkscape:version="1.1.2 (0a00cf5339, 2022-02-04)"
   xmlns:inkscape="http://www.inkscape.org/namespaces/inkscape"
   xmlns:sodipodi="http://sodipodi.sourceforge.net/DTD/sodipodi-0.dtd"
   xmlns="http://www.w3.org/2000/svg"
   xmlns:svg="http://www.w3.org/2000/svg"
   xmlns:rdf="http://www.w3.org/1999/02/22-rdf-syntax-ns#"
   xmlns:cc="http://creativecommons.org/ns#"
   xmlns:dc="http://purl.org/dc/elements/1.1/">
  <title
     id="title5346">Library analogy</title>
  <defs
     id="defs5262" />
  <sodipodi:namedview
     id="namedview5260"
     pagecolor="#505050"
     bordercolor="#eeeeee"
     borderopacity="1"
     inkscape:pageshadow="0"
     inkscape:pageopacity="0"
     inkscape:pagecheckerboard="0"
     inkscape:document-units="pt"
     showgrid="false"
     inkscape:zoom="2.6985294"
     inkscape:cx="249.20981"
     inkscape:cy="204"
     inkscape:window-width="3440"
     inkscape:window-height="1357"
     inkscape:window-x="0"
     inkscape:window-y="0"
     inkscape:window-maximized="1"
     inkscape:current-layer="svg5258" />
  <g
     fill="none"
     id="g5256">
    <!-- Ellipse -->
    <ellipse
       transform="translate(6373,7212) rotate(-330)"
       rx="900"
       ry="1418"
       stroke="#000000"
       stroke-width="75px"
       id="ellipse4963" />
    <!-- Ellipse -->
    <ellipse
       transform="translate(3827,5168) rotate(-330)"
       rx="900"
       ry="1418"
       stroke="#000000"
       stroke-width="75px"
       id="ellipse4965" />
    <!-- Ellipse -->
    <ellipse
       transform="translate(3318,4882) rotate(-330)"
       rx="900"
       ry="1418"
       stroke="#000000"
       stroke-width="75px"
       id="ellipse4967" />
    <!-- Ellipse -->
    <ellipse
       transform="translate(12825,4770) rotate(-330)"
       rx="630"
       ry="1350"
       stroke="#000000"
       stroke-width="30px"
       id="ellipse4969" />
    <!-- Line -->
    <polygon
       points=" 6210,8775 5625,8460 5400,8100 5940,8235"
       fill="#919798"
       id="polygon4971" />
    <!-- Line -->
    <polygon
       points=" 12690,6165 12060,5895 11970,5490 12555,5670"
       fill="#919798"
       id="polygon4973" />
    <!-- Ellipse -->
    <ellipse
       transform="translate(6975,7582) rotate(-330)"
       rx="900"
       ry="1418"
       fill="#919798"
       stroke="#000000"
       stroke-width="75px"
       id="ellipse4975" />
    <!-- Ellipse -->
    <ellipse
       transform="translate(13410,5040) rotate(-330)"
       rx="630"
       ry="1350"
       fill="#919798"
       stroke="#000000"
       stroke-width="75px"
       id="ellipse4977" />
    <!-- Ellipse -->
    <ellipse
       transform="translate(7068,7606) rotate(-330)"
       rx="612"
       ry="964"
       fill="#f4f4f4"
       stroke="#000000"
       stroke-width="30px"
       id="ellipse4979" />
    <!-- Ellipse -->
    <ellipse
       transform="translate(13455,5040) rotate(-330)"
       rx="495"
       ry="990"
       fill="#f4f4f4"
       stroke="#000000"
       stroke-width="30px"
       id="ellipse4981" />
    <!-- Line -->
    <polyline
       points=" 4667,4039 3858,3587"
       stroke="#000000"
       stroke-width="30px"
       id="polyline4983" />
    <!-- Line -->
    <defs
       id="defs4988">
      <clipPath
         id="cp0">
        <path
           clip-rule="evenodd"
           d="M 340,339 H 16195 V 12457 H 340 z   M 3167,6376 3258,6461 3138,6429 3279,6493 3296,6462z"
           id="path4985" />
      </clipPath>
    </defs>
    <polyline
       points=" 3272,6469 2463,6017"
       clip-path="url(#cp0)"
       stroke="#000000"
       stroke-width="30px"
       id="polyline4990" />
    <!-- Backward arrow to point 3272,6469 -->
    <polyline
       points=" 3167,6376 3258,6461 3138,6429"
       stroke="#000000"
       stroke-width="8px"
       stroke-miterlimit="8"
       id="polyline4992" />
    <!-- Line -->
    <polyline
       points=" 6344,8867 5535,8415"
       stroke="#000000"
       stroke-width="30px"
       id="polyline4994" />
    <!-- Line -->
    <polyline
       points=" 7639,6320 6830,5868"
       stroke="#000000"
       stroke-width="30px"
       id="polyline4996" />
    <!-- Line -->
    <polyline
       points=" 13995,3825 13275,3510"
       stroke="#000000"
       stroke-width="75px"
       id="polyline4998" />
    <!-- Line -->
    <polyline
       points=" 12821,6219 12101,5904"
       stroke="#000000"
       stroke-width="75px"
       id="polyline5000" />
    <!-- Ellipse -->
    <ellipse
       transform="translate(7132,7650) rotate(-330)"
       rx="427"
       ry="630"
       stroke="#000000"
       stroke-width="30px"
       id="ellipse5002" />
    <!-- Ellipse -->
    <ellipse
       transform="translate(7065,7605) rotate(-330)"
       rx="495"
       ry="675"
       stroke="#000000"
       stroke-width="30px"
       id="ellipse5004" />
    <!-- Ellipse -->
    <ellipse
       transform="translate(13410,5040) rotate(-330)"
       rx="360"
       ry="675"
       stroke="#000000"
       stroke-width="30px"
       id="ellipse5006" />
    <!-- Ellipse -->
    <ellipse
       transform="translate(13387,5040) rotate(-330)"
       rx="337"
       ry="585"
       stroke="#000000"
       stroke-width="30px"
       id="ellipse5008" />
    <!-- Ellipse -->
    <ellipse
       transform="translate(7071,7596) rotate(-330)"
       rx="608"
       ry="878"
       stroke="#000000"
       stroke-width="30px"
       id="ellipse5010" />
    <!-- Ellipse -->
    <ellipse
       transform="translate(13410,5062) rotate(-330)"
       rx="450"
       ry="832"
       stroke="#000000"
       stroke-width="30px"
       id="ellipse5012" />
    <!-- Line -->
    <polyline
       points=" 8100,7650 8101,7649 8102,7646 8104,7642 8107,7635 8111,7626 8116,7614 8122,7600  8129,7584 8135,7566 8142,7546 8149,7524 8155,7501 8162,7475 8168,7446 8173,7414  8179,7378 8183,7338 8187,7293 8190,7245 8191,7204 8192,7163 8193,7125 8193,7091  8194,7061 8194,7035 8195,7013 8196,6994 8197,6978 8199,6965 8200,6953 8201,6941  8202,6930 8203,6918 8203,6905 8202,6890 8201,6872 8198,6851 8194,6827 8188,6798  8181,6767 8171,6733 8159,6696 8145,6660 8128,6623 8110,6589 8094,6561 8079,6538  8067,6519 8057,6505 8049,6495 8043,6487 8039,6482 8036,6479 8032,6476 8029,6474  8025,6472 8018,6469 8010,6465 7998,6459 7982,6451 7961,6441 7936,6430 7905,6417  7869,6403 7830,6390 7792,6380 7755,6371 7719,6364 7688,6358 7660,6354 7637,6350  7618,6347 7602,6344 7589,6342 7578,6340 7569,6339 7560,6337 7551,6337 7542,6336  7530,6336 7516,6337 7498,6338 7476,6340 7450,6344 7418,6349 7381,6356 7339,6365  7293,6376 7245,6390 7200,6405 7158,6420 7119,6436 7084,6450 7053,6463 7028,6475  7007,6484 6990,6493 6977,6499 6966,6505 6958,6509 6951,6514 6945,6518 6939,6522  6932,6527 6924,6533 6914,6541 6901,6551 6885,6563 6865,6579 6840,6598 6812,6621  6778,6648 6741,6679 6701,6713 6660,6750 6622,6786 6585,6822 6550,6858 6517,6893  6486,6927 6458,6960 6431,6993 6406,7024 6382,7054 6360,7084 6338,7114 6318,7142  6299,7170 6280,7197 6263,7223 6247,7248 6232,7272 6218,7294 6206,7313 6195,7330  6186,7345 6179,7357 6173,7366 6169,7372 6167,7377 6166,7379 6165,7380 6164,7381  6163,7384 6161,7390 6157,7399 6152,7410 6146,7425 6139,7442 6132,7462 6123,7484  6114,7508 6105,7533 6096,7560 6088,7587 6079,7616 6071,7647 6062,7680 6055,7714  6047,7751 6041,7791 6035,7832 6030,7875 6026,7922 6024,7966 6024,8007 6025,8044  6027,8079 6030,8110 6033,8139 6037,8167 6042,8193 6047,8217 6052,8239 6057,8259  6061,8277 6066,8293 6069,8305 6072,8314 6074,8320 6075,8323 6075,8325 6073,8325  6070,8326 6063,8327 6053,8330 6039,8333 6020,8336 5997,8341 5971,8347 5941,8353  5908,8361 5872,8368 5835,8377 5797,8385 5757,8395 5717,8404 5677,8414 5637,8424  5597,8435 5557,8446 5518,8457 5479,8469 5440,8481 5402,8494 5365,8507 5330,8521  5296,8535 5265,8550 5210,8582 5184,8608 5183,8625 5203,8636 5237,8641 5276,8644  5316,8646 5348,8651 5366,8661 5362,8678 5329,8701 5265,8730 5232,8742 5196,8754  5160,8766 5125,8777 5091,8788 5060,8799 5032,8810 5006,8820 4983,8831 4962,8841  4944,8850 4927,8860 4912,8869 4897,8879 4882,8888 4868,8896 4852,8905 4835,8913  4815,8920 4793,8927 4767,8933 4737,8938 4702,8942 4663,8944 4618,8945 4567,8944  4512,8940 4451,8933 4387,8923 4320,8910 4261,8896 4203,8879 4148,8863 4097,8846  4051,8830 4011,8815 3977,8802 3948,8790 3924,8780 3905,8772 3891,8765 3880,8760  3873,8756 3868,8753 3865,8750 3864,8747 3862,8745 3861,8742 3859,8738 3854,8733  3848,8726 3838,8717 3824,8706 3805,8691 3780,8672 3749,8649 3712,8622 3667,8589  3614,8551 3553,8508 3485,8459 3409,8404 3327,8344 3240,8280 3179,8234 3118,8188  3057,8141 2996,8094 2938,8049 2881,8004 2826,7960 2774,7919 2724,7879 2677,7841  2633,7805 2591,7771 2553,7739 2516,7708 2483,7680 2451,7653 2422,7628 2394,7604  2368,7581 2344,7560 2320,7539 2298,7519 2277,7500 2256,7481 2235,7463 2214,7444  2194,7425 2172,7406 2151,7386 2128,7365 2104,7344 2079,7322 2052,7298 2024,7273  1994,7246 1962,7218 1927,7188 1891,7157 1852,7123 1810,7088 1767,7050 1721,7011  1673,6970 1623,6928 1571,6884 1518,6840 1465,6794 1411,6749 1357,6704 1305,6660  1217,6586 1138,6519 1068,6461 1009,6413 960,6373 921,6342 890,6320 867,6304 852,6295  841,6291 836,6291 834,6295 834,6301 836,6308 839,6315 842,6322 843,6327 843,6330  841,6331 836,6327 827,6319 815,6306 798,6288 778,6264 755,6234 729,6200 702,6161  675,6120 649,6075 626,6032 607,5991 592,5954 579,5921 570,5892 563,5868 557,5847  554,5829 552,5814 551,5801 551,5790 551,5779 552,5768 553,5757 555,5745 556,5731  557,5715 559,5696 560,5674 562,5650 565,5622 568,5591 572,5558 577,5524 585,5490  597,5453 611,5420 627,5392 644,5368 662,5348 681,5332 701,5318 721,5306 742,5297  763,5289 783,5283 804,5278 823,5274 841,5271 857,5269 871,5267 882,5266 890,5266  896,5265 899,5265 900,5265 900,5263 899,5260 897,5254 895,5245 892,5233 889,5218  885,5201 880,5181 876,5160 872,5137 868,5113 864,5087 860,5061 858,5032 855,5002  854,4970 853,4935 853,4898 855,4860 858,4818 863,4779 868,4743 874,4711 881,4682  888,4655 895,4630 902,4607 910,4586 917,4566 924,4549 930,4533 936,4521 940,4512  943,4505 944,4502 945,4500 946,4500 947,4499 950,4497 954,4495 960,4492 968,4487  979,4481 992,4474 1008,4466 1027,4455 1048,4444 1073,4430 1100,4415 1130,4399  1163,4381 1198,4362 1236,4342 1276,4320 1318,4298 1362,4274 1408,4250 1455,4225  1504,4199 1554,4172 1605,4145 1658,4118 1711,4090 1765,4062 1821,4033 1877,4004  1934,3975 1992,3945 2052,3915 2112,3884 2174,3854 2237,3822 2301,3791 2367,3758  2435,3726 2504,3692 2575,3659 2647,3624 2722,3589 2798,3554 2875,3518 2954,3482  3034,3446 3115,3410 3195,3375 3290,3334 3382,3294 3470,3257 3554,3222 3632,3190  3705,3160 3772,3134 3833,3110 3888,3089 3938,3070 3982,3054 4022,3040 4056,3028  4087,3018 4114,3010 4138,3003 4159,2997 4178,2992 4195,2988 4211,2984 4226,2981  4241,2978 4256,2975 4272,2972 4288,2968 4306,2964 4326,2959 4348,2953 4373,2946  4400,2938 4430,2929 4464,2918 4501,2906 4542,2893 4585,2877 4632,2861 4682,2843  4735,2825 4788,2805 4843,2785 4897,2765 4950,2745 5050,2707 5134,2675 5198,2651  5245,2633 5276,2622 5292,2616 5298,2614 5296,2616 5288,2620 5276,2625 5264,2630  5252,2635 5243,2639 5239,2639 5241,2637 5250,2631 5267,2620 5291,2606 5321,2587  5355,2565 5391,2540 5423,2517 5448,2497 5467,2482 5480,2471 5488,2464 5492,2460  5494,2458 5494,2456 5494,2455 5495,2452 5499,2446 5507,2436 5519,2421 5537,2399  5561,2371 5591,2336 5625,2295 5651,2263 5676,2231 5699,2202 5718,2176 5733,2154  5745,2136 5753,2122 5758,2111 5760,2103 5761,2097 5761,2093 5760,2089 5759,2084  5760,2079 5762,2072 5767,2061 5776,2047 5789,2029 5806,2005 5830,1976 5860,1940  5896,1898 5938,1851 5985,1800 6022,1760 6060,1721 6096,1683 6130,1646 6161,1612  6190,1581 6214,1553 6236,1527 6254,1504 6270,1484 6283,1465 6293,1449 6302,1434  6309,1420 6316,1407 6323,1395 6329,1383 6337,1370 6345,1357 6356,1342 6369,1327  6385,1310 6405,1291 6429,1270 6457,1246 6490,1221 6529,1193 6573,1163 6622,1132  6676,1099 6734,1067 6795,1035 6854,1007 6911,981 6967,958 7019,938 7067,921 7110,906  7148,895 7181,886 7209,879 7233,875 7252,872 7269,871 7282,872 7292,873 7301,875  7309,878 7316,881 7324,885 7332,888 7342,891 7354,893 7369,895 7388,896 7411,895  7439,894 7473,891 7513,886 7559,880 7612,872 7671,862 7737,851 7809,838 7885,824  7965,810 8038,797 8109,784 8179,772 8246,760 8309,749 8368,738 8422,729 8471,720  8515,712 8555,705 8590,699 8621,693 8649,688 8674,684 8696,680 8716,677 8734,673  8751,670 8768,667 8784,665 8801,662 8819,658 8839,655 8860,651 8884,647 8911,643  8942,638 8976,632 9015,625 9058,618 9105,610 9157,602 9213,593 9274,583 9338,572  9404,562 9472,551 9540,540 9624,527 9703,515 9775,503 9839,493 9895,484 9943,476  9982,468 10015,462 10040,457 10060,452 10074,448 10085,444 10093,441 10098,438  10103,435 10107,432 10111,430 10117,427 10126,425 10138,422 10153,420 10174,417  10199,415 10231,412 10268,410 10312,407 10361,406 10414,404 10471,404 10530,405  10592,407 10650,411 10703,415 10751,420 10792,425 10826,431 10855,436 10877,441  10895,446 10908,451 10918,455 10925,460 10931,464 10935,469 10939,473 10944,478  10951,483 10960,489 10972,495 10988,502 11009,509 11035,518 11066,527 11102,537  11145,548 11192,560 11242,572 11295,585 11351,599 11405,612 11454,624 11497,634  11533,643 11563,650 11587,656 11605,660 11619,663 11628,665 11635,666 11640,667  11644,668 11648,668 11653,669 11660,671 11670,673 11684,676 11703,681 11728,688  11760,696 11798,706 11844,718 11896,732 11954,748 12015,765 12069,780 12122,795  12172,809 12219,823 12261,835 12299,846 12331,856 12360,864 12384,872 12405,878  12422,883 12437,888 12450,892 12462,896 12473,900 12483,904 12495,908 12508,912  12522,917 12539,922 12560,928 12583,936 12611,944 12643,954 12679,965 12720,977  12765,991 12813,1005 12864,1020 12915,1035 12977,1053 13035,1070 13087,1085 13131,1098  13169,1108 13199,1117 13223,1123 13242,1128 13256,1131 13267,1133 13275,1135  13283,1136 13289,1137 13297,1139 13306,1141 13317,1144 13332,1147 13351,1153  13374,1159 13401,1168 13433,1178 13469,1189 13507,1202 13545,1215 13592,1232  13632,1246 13662,1256 13683,1263 13696,1265 13702,1264 13702,1260 13700,1255  13695,1249 13690,1243 13687,1239 13687,1238 13691,1240 13701,1248 13719,1262  13744,1284 13777,1313 13815,1350 13843,1379 13871,1409 13897,1438 13922,1467  13944,1494 13963,1519 13980,1542 13995,1562 14008,1582 14020,1599 14030,1615  14039,1631 14048,1646 14056,1661 14065,1677 14075,1693 14086,1711 14099,1729  14113,1750 14129,1773 14148,1797 14168,1823 14191,1851 14215,1879 14240,1908  14265,1935 14302,1973 14330,2001 14349,2019 14359,2028 14361,2030 14358,2026  14350,2019 14340,2010 14330,2000 14323,1992 14321,1986 14325,1983 14339,1985  14363,1993 14399,2007 14445,2025 14480,2038 14516,2052 14550,2065 14583,2077  14613,2087 14639,2096 14663,2104 14684,2111 14702,2116 14719,2121 14734,2126  14749,2130 14764,2134 14779,2139 14796,2144 14815,2150 14837,2157 14861,2166  14890,2176 14921,2188 14957,2202 14995,2217 15035,2233 15075,2250 15125,2272  15167,2291 15201,2308 15225,2320 15241,2329 15250,2336 15253,2340 15253,2342  15251,2344 15249,2345 15248,2348 15251,2351 15257,2357 15270,2366 15290,2378  15317,2393 15351,2410 15390,2430 15426,2448 15460,2464 15492,2478 15519,2489  15542,2497 15562,2503 15578,2506 15592,2508 15604,2509 15615,2509 15626,2509  15637,2510 15650,2512 15664,2517 15681,2524 15700,2534 15722,2548 15746,2565  15771,2586 15795,2610 15820,2641 15839,2671 15850,2698 15857,2720 15858,2737  15857,2752 15853,2764 15848,2775 15842,2786 15836,2798 15832,2811 15829,2828  15829,2849 15831,2872 15835,2899 15840,2925 15847,2955 15853,2976 15856,2988  15857,2992 15856,2992 15855,2989 15854,2985 15854,2983 15857,2984 15862,2990  15872,3001 15885,3015 15901,3029 15916,3041 15930,3050 15941,3055 15951,3058  15960,3060 15969,3062 15978,3065 15988,3070 15999,3079 16011,3091 16020,3105  16025,3122 16024,3135 16018,3142 16008,3145 15997,3146 15987,3147 15977,3151  15971,3160 15970,3174 15975,3195 15984,3213 15996,3228 16008,3237 16019,3241  16029,3242 16039,3240 16049,3239 16059,3241 16071,3249 16084,3266 16097,3293  16110,3330 16117,3358 16122,3386 16125,3411 16128,3433 16129,3451 16130,3465  16130,3477 16129,3486 16129,3495 16128,3504 16127,3514 16126,3527 16124,3542  16123,3563 16121,3588 16118,3618 16114,3653 16110,3690 16105,3727 16099,3760  16094,3788 16090,3811 16088,3829 16086,3843 16085,3852 16084,3860 16084,3866  16083,3872 16082,3879 16080,3888 16076,3899 16070,3914 16062,3933 16050,3955  16036,3979 16020,4005 16000,4031 15981,4053 15964,4068 15951,4079 15942,4084  15935,4086 15930,4086 15926,4084 15922,4082 15916,4081 15908,4082 15896,4086  15879,4093 15856,4105 15827,4121 15795,4140 15765,4157 15737,4174 15712,4189  15691,4201 15674,4212 15660,4220 15650,4227 15641,4232 15634,4238 15626,4243  15618,4248 15608,4254 15595,4262 15578,4271 15558,4282 15534,4294 15508,4307  15480,4320 15442,4337 15412,4348 15393,4356 15382,4360 15377,4361 15375,4361  15373,4361 15370,4361 15362,4361 15347,4362 15326,4364 15300,4365 15271,4363  15251,4358 15242,4350 15241,4341 15244,4331 15246,4322 15243,4314 15231,4310  15205,4311 15165,4320 15139,4329 15115,4339 15092,4349 15073,4358 15058,4367  15046,4375 15037,4382 15029,4389 15022,4395 15016,4402 15007,4409 14997,4417  14984,4426 14966,4437 14944,4451 14916,4466 14884,4482 14850,4500 14815,4517  14783,4533 14752,4547 14724,4559 14699,4570 14676,4580 14654,4590 14633,4598  14614,4605 14596,4612 14580,4618 14566,4624 14554,4628 14546,4631 14540,4633  14537,4634 14535,4635 14535,4632 14536,4625 14537,4612 14539,4593 14542,4568  14545,4535 14549,4497 14553,4455 14558,4410 14562,4365 14566,4323 14570,4285  14573,4252 14576,4227 14578,4208 14579,4195 14580,4188 14580,4185 14580,4183  14579,4178 14578,4169 14577,4157 14574,4140 14571,4120 14568,4098 14563,4074  14558,4049 14551,4022 14543,3996 14533,3968 14521,3941 14507,3912 14489,3883  14469,3854 14445,3825 14422,3802 14400,3781 14379,3764 14362,3750 14348,3738  14337,3729 14329,3722 14323,3717 14318,3712 14314,3709 14309,3706 14304,3703  14296,3700 14286,3697 14272,3694 14253,3691 14230,3688 14201,3687 14167,3687  14130,3690 14095,3695 14061,3702 14030,3710 14003,3718 13980,3726 13961,3733  13945,3739 13932,3744 13922,3749 13913,3753 13905,3758 13897,3762 13888,3768  13878,3774 13865,3783 13849,3793 13830,3806 13807,3821 13780,3840 13749,3862  13715,3887 13680,3915 13646,3944 13615,3972 13588,3998 13565,4021 13547,4040  13533,4055 13523,4067 13515,4077 13510,4084 13507,4090 13504,4095 13501,4100  13498,4107 13493,4115 13487,4126 13479,4140 13467,4159 13452,4182 13434,4210  13413,4243 13390,4280 13365,4320 13341,4361 13319,4400 13300,4435 13283,4466  13270,4493 13259,4514 13251,4532 13245,4546 13240,4557 13237,4566 13234,4575  13231,4584 13228,4593 13224,4604 13219,4617 13213,4634 13204,4655 13194,4680  13183,4709 13169,4742 13155,4778 13140,4815 13124,4858 13110,4896 13100,4926  13093,4949 13090,4964 13089,4974 13090,4978 13092,4980 13095,4980 13098,4980  13100,4981 13101,4986 13100,4994 13097,5008 13090,5029 13080,5057 13066,5091  13050,5130 13034,5166 13018,5200 13004,5231 12992,5258 12982,5280 12975,5298  12969,5313 12965,5325 12963,5335 12960,5344 12957,5353 12954,5362 12949,5374  12941,5388 12931,5404 12918,5425 12900,5448 12879,5476 12853,5505 12825,5535  12796,5563 12769,5586 12746,5605 12729,5618 12717,5625 12711,5629 12709,5628  12711,5625 12715,5620 12720,5614 12724,5608 12726,5603 12724,5600 12716,5601  12701,5605 12677,5615 12641,5631 12594,5653 12535,5681 12465,5715 12420,5737  12375,5759 12330,5780 12287,5801 12247,5820 12211,5838 12178,5854 12149,5868  12124,5880 12102,5891 12084,5900 12069,5907 12056,5914 12045,5919 12036,5924  12027,5928 12019,5933 12010,5937 12000,5942 11989,5947 11975,5954 11959,5962  11938,5972 11914,5984 11884,5998 11849,6015 11808,6034 11760,6057 11706,6083  11645,6112 11577,6144 11503,6179 11423,6216 11340,6255 11271,6287 11202,6320  11134,6351 11068,6382 11005,6411 10945,6439 10890,6465 10838,6489 10790,6511  10746,6532 10706,6550 10670,6567 10638,6582 10608,6595 10581,6608 10557,6619  10535,6629 10514,6638 10495,6647 10477,6656 10459,6664 10441,6672 10422,6680  10403,6689 10383,6698 10361,6708 10336,6719 10310,6732 10281,6745 10248,6760  10212,6776 10173,6795 10129,6815 10082,6836 10030,6860 9975,6885 9916,6913 9853,6941  9788,6971 9721,7002 9653,7034 9585,7065 9503,7103 9425,7139 9353,7172 9286,7202  9227,7230 9174,7254 9128,7275 9089,7293 9055,7309 9027,7322 9004,7332 8985,7341  8970,7348 8958,7353 8948,7358 8940,7362 8932,7365 8926,7368 8918,7372 8910,7375  8901,7380 8889,7385 8875,7391 8858,7399 8838,7408 8814,7419 8787,7432 8755,7446  8720,7462 8681,7480 8639,7499 8595,7519 8550,7540 8505,7560 8435,7592 8374,7620  8325,7642 8286,7660 8257,7674 8238,7683 8225,7690 8217,7694 8214,7697 8212,7699  8212,7700 8211,7701 8208,7703 8203,7706 8194,7710 8181,7715 8164,7721 8144,7728  8122,7734 8100,7740 8085,7743 8072,7744 8063,7743 8056,7742 8051,7739 8048,7735  8048,7730 8048,7725 8050,7718 8053,7712 8057,7705 8062,7698 8067,7691 8072,7683  8078,7677 8083,7670 8087,7665 8091,7660 8095,7656 8097,7653 8099,7651 8100,7650 "
       fill="#fffbf3"
       stroke="#000000"
       stroke-width="75px"
       stroke-linejoin="bevel"
       id="polyline5014" />
    <!-- Text -->
    <g
       transform="translate(8895,6401) rotate(-10)"
       id="g5018">
      <text
         xml:space="preserve"
         x="0"
         y="0"
         fill="#000000"
         font-family="Helvetica"
         font-style="normal"
         font-weight="bold"
         font-size="504"
         text-anchor="middle"
         id="text5016">S</text>
    </g>
    <!-- Text -->
    <g
       transform="translate(9331,6243) rotate(-10)"
       id="g5022">
      <text
         xml:space="preserve"
         x="0"
         y="0"
         fill="#000000"
         font-family="Helvetica"
         font-style="normal"
         font-weight="bold"
         font-size="504"
         text-anchor="middle"
         id="text5020">n</text>
    </g>
    <!-- Text -->
    <g
       transform="translate(9712,6041) rotate(-10)"
       id="g5026">
      <text
         xml:space="preserve"
         x="0"
         y="0"
         fill="#000000"
         font-family="Helvetica"
         font-style="normal"
         font-weight="bold"
         font-size="480"
         text-anchor="middle"
         id="text5024">o</text>
    </g>
    <!-- Text -->
    <g
       transform="translate(10156,5891) rotate(-10)"
       id="g5030">
      <text
         xml:space="preserve"
         x="0"
         y="0"
         fill="#000000"
         font-family="Helvetica"
         font-style="normal"
         font-weight="bold"
         font-size="480"
         text-anchor="middle"
         id="text5028">w</text>
    </g>
    <!-- Text -->
    <g
       transform="translate(10582,5672) rotate(-10)"
       id="g5034">
      <text
         xml:space="preserve"
         x="0"
         y="0"
         fill="#000000"
         font-family="Helvetica"
         font-style="normal"
         font-weight="bold"
         font-size="456"
         text-anchor="middle"
         id="text5032">p</text>
    </g>
    <!-- Text -->
    <g
       transform="translate(11505,5307) rotate(-10)"
       id="g5038">
      <text
         xml:space="preserve"
         x="0"
         y="0"
         fill="#000000"
         font-family="Helvetica"
         font-style="normal"
         font-weight="bold"
         font-size="432"
         text-anchor="middle"
         id="text5036">k</text>
    </g>
    <!-- Text -->
    <g
       transform="translate(10920,5550) rotate(-10)"
       id="g5042">
      <text
         xml:space="preserve"
         x="0"
         y="0"
         fill="#000000"
         font-family="Helvetica"
         font-style="normal"
         font-weight="bold"
         font-size="456"
         text-anchor="middle"
         id="text5040">a</text>
    </g>
    <!-- Text -->
    <g
       transform="translate(11215,5402) rotate(-10)"
       id="g5046">
      <text
         xml:space="preserve"
         x="0"
         y="0"
         fill="#000000"
         font-family="Helvetica"
         font-style="normal"
         font-weight="bold"
         font-size="432"
         text-anchor="middle"
         id="text5044">c</text>
    </g>
    <!-- Line -->
    <polygon
       points=" 8134,1896 8405,2007 12505,945 12238,869"
       fill="#c5c5ff"
       id="polygon5048" />
    <!-- Line -->
    <polygon
       points=" 7960,1813 8050,1862 12162,841 12043,806"
       fill="#ffc8c8"
       id="polygon5050" />
    <!-- Line -->
    <polyline
       points=" 6885,5895 7560,6300"
       stroke="#000000"
       stroke-width="30px"
       stroke-dasharray="80 80"
       id="polyline5052" />
    <!-- Line -->
    <polyline
       points=" 13320,3555 13905,3825"
       stroke="#000000"
       stroke-width="30px"
       stroke-dasharray="80 80"
       id="polyline5054" />
    <!-- Line -->
    <polyline
       points=" 9765,2295 9765,2296 9764,2297 9764,2298 9763,2300 9762,2302 9761,2305 9759,2309  9758,2313 9756,2317 9755,2323 9753,2328 9752,2334 9751,2339 9751,2345 9751,2351  9752,2357 9753,2363 9755,2368 9758,2373 9762,2378 9767,2382 9773,2386 9781,2390  9791,2393 9802,2395 9815,2396 9831,2397 9848,2397 9869,2395 9892,2393 9917,2390  9945,2385 9982,2378 10019,2369 10056,2360 10090,2351 10121,2343 10149,2334 10173,2327  10193,2320 10210,2313 10224,2307 10236,2302 10246,2297 10255,2292 10264,2287  10273,2283 10283,2277 10295,2271 10310,2265 10328,2257 10351,2248 10380,2237  10414,2225 10454,2211 10502,2196 10556,2178 10617,2158 10684,2137 10755,2115  10815,2096 10874,2078 10932,2060 10987,2044 11037,2028 11084,2014 11125,2001  11163,1989 11195,1979 11224,1970 11249,1963 11270,1956 11289,1950 11306,1945  11321,1940 11334,1935 11348,1931 11361,1927 11375,1923 11390,1918 11407,1913  11426,1907 11448,1900 11474,1893 11503,1884 11538,1874 11576,1863 11620,1851  11669,1837 11722,1822 11780,1806 11841,1790 11905,1772 11970,1755 12043,1736  12112,1718 12177,1701 12236,1687 12289,1674 12335,1662 12375,1653 12409,1645  12438,1639 12462,1633 12482,1629 12498,1626 12513,1624 12525,1622 12536,1620  12547,1618 12559,1617 12571,1615 12586,1612 12603,1609 12623,1605 12646,1601  12673,1595 12704,1588 12740,1580 12779,1572 12822,1562 12867,1551 12914,1541  12960,1530 13031,1513 13091,1499 13141,1487 13181,1477 13214,1469 13240,1463  13260,1458 13276,1453 13289,1450 13299,1447 13306,1445 13312,1443 13315,1442  13318,1441 13319,1440 13320,1440"
       stroke="#000000"
       stroke-width="45px"
       stroke-linejoin="bevel"
       id="polyline5056" />
    <!-- Line -->
    <polyline
       points=" 15435,3780 15435,3778 15434,3773 15432,3765 15429,3752 15426,3736 15422,3715  15418,3692 15414,3666 15410,3638 15406,3609 15403,3579 15401,3549 15400,3519  15401,3488 15403,3456 15407,3424 15414,3392 15423,3360 15435,3330 15453,3296  15473,3270 15491,3251 15508,3239 15522,3233 15534,3232 15545,3233 15555,3236  15565,3240 15577,3243 15590,3243 15606,3241 15626,3235 15650,3225 15677,3211  15705,3195 15736,3176 15763,3159 15786,3143 15805,3129 15821,3116 15836,3104  15848,3094 15859,3084 15869,3076 15876,3069 15881,3064 15884,3061 15885,3060 "
       stroke="#000000"
       stroke-width="45px"
       stroke-linejoin="bevel"
       id="polyline5058" />
    <!-- Line -->
    <polyline
       points=" 15525,3735 15525,3733 15524,3728 15522,3719 15520,3705 15517,3688 15514,3668  15511,3645 15508,3620 15505,3594 15503,3567 15502,3540 15502,3513 15503,3485  15505,3457 15510,3429 15516,3401 15525,3375 15537,3349 15550,3330 15561,3316  15571,3309 15578,3306 15584,3307 15588,3310 15593,3315 15597,3320 15602,3324  15610,3326 15621,3326 15635,3322 15655,3313 15678,3301 15705,3285 15730,3270  15755,3254 15779,3239 15801,3224 15823,3210 15843,3197 15863,3184 15881,3171  15899,3158 15916,3147 15931,3136 15945,3126 15956,3119 15964,3113 15970,3108  15973,3106 15975,3105"
       stroke="#000000"
       stroke-width="45px"
       stroke-linejoin="bevel"
       id="polyline5060" />
    <!-- Line -->
    <polyline
       points=" 1080,5490 1035,5670"
       stroke="#000000"
       stroke-width="45px"
       stroke-linejoin="bevel"
       id="polyline5062" />
    <!-- Line -->
    <polyline
       points=" 13995,1575 13997,1577 14001,1583 14008,1592 14019,1606 14033,1625 14051,1649  14072,1676 14094,1706 14119,1738 14143,1771 14168,1803 14191,1834 14214,1863  14235,1891 14255,1917 14274,1941 14291,1963 14308,1984 14323,2003 14337,2021  14351,2038 14364,2054 14378,2070 14393,2088 14408,2106 14423,2124 14438,2141  14454,2158 14469,2175 14484,2192 14500,2209 14515,2225 14530,2241 14544,2256  14559,2270 14573,2284 14586,2297 14599,2310 14611,2322 14623,2333 14634,2343  14645,2353 14655,2363 14670,2376 14684,2388 14699,2401 14713,2413 14728,2425  14743,2436 14758,2447 14773,2458 14787,2468 14800,2477 14813,2485 14826,2492  14838,2499 14850,2505 14864,2512 14878,2518 14892,2524 14907,2529 14923,2534  14938,2538 14953,2542 14967,2545 14980,2547 14993,2549 15004,2550 15015,2550  15027,2550 15039,2548 15051,2546 15064,2542 15078,2537 15093,2531 15106,2526  15115,2522 15119,2520 15120,2520"
       stroke="#000000"
       stroke-width="75px"
       stroke-linejoin="bevel"
       id="polyline5064" />
    <!-- Line -->
    <polyline
       points=" 5220,8595 5221,8593 5222,8588 5225,8580 5229,8568 5234,8552 5241,8532 5248,8508  5256,8482 5263,8453 5271,8423 5277,8393 5283,8363 5287,8333 5289,8304 5290,8276  5287,8249 5282,8224 5273,8200 5260,8178 5242,8160 5220,8145 5194,8135 5165,8130  5137,8129 5110,8132 5085,8137 5062,8144 5042,8153 5024,8163 5007,8174 4991,8186  4976,8198 4961,8210 4945,8222 4927,8234 4907,8247 4884,8259 4858,8272 4828,8284  4795,8295 4758,8306 4719,8316 4680,8325 4635,8334 4596,8341 4565,8347 4544,8352  4531,8356 4524,8360 4523,8364 4526,8367 4530,8370 4534,8372 4536,8374 4535,8375  4528,8374 4513,8371 4490,8365 4457,8356 4415,8343 4365,8325 4328,8310 4292,8295  4258,8280 4227,8266 4201,8254 4180,8244 4162,8236 4149,8229 4139,8225 4132,8222  4128,8219 4124,8218 4121,8216 4118,8214 4113,8212 4107,8207 4097,8201 4082,8192  4063,8180 4038,8164 4006,8143 3966,8117 3919,8087 3864,8051 3802,8010 3735,7965  3687,7933 3639,7900 3592,7867 3546,7836 3503,7806 3463,7778 3426,7752 3392,7729  3362,7708 3335,7689 3311,7672 3289,7657 3271,7644 3254,7633 3239,7623 3226,7614  3214,7605 3202,7598 3191,7590 3180,7582 3168,7574 3156,7565 3142,7555 3126,7544  3108,7531 3087,7515 3064,7498 3037,7478 3007,7455 2973,7429 2934,7400 2892,7367  2846,7331 2795,7292 2741,7250 2684,7205 2625,7158 2565,7110 2505,7061 2446,7014  2390,6967 2337,6923 2287,6882 2241,6844 2200,6809 2163,6778 2130,6750 2101,6725  2075,6702 2053,6683 2034,6666 2017,6651 2002,6638 1989,6626 1978,6616 1967,6606  1957,6596 1948,6587 1937,6577 1927,6567 1915,6555 1901,6543 1886,6528 1869,6512  1849,6494 1826,6473 1800,6449 1771,6423 1739,6393 1703,6361 1665,6326 1623,6288  1579,6248 1533,6206 1487,6163 1440,6120 1379,6063 1322,6010 1270,5962 1224,5919  1184,5881 1150,5849 1121,5822 1097,5800 1077,5783 1061,5768 1048,5757 1037,5748  1028,5740 1020,5734 1012,5727 1005,5721 997,5714 987,5705 977,5694 964,5681 950,5666  933,5648 915,5626 895,5602 873,5576 851,5547 829,5518 810,5490 795,5466 784,5444  776,5425 770,5408 768,5394 768,5382 770,5372 774,5364 780,5357 787,5352 796,5348  806,5345 816,5344 828,5343 840,5342 852,5343 864,5343 876,5344 888,5346 899,5347  909,5349 918,5350 926,5351 932,5353 937,5353 941,5354 943,5355 944,5355 945,5355 "
       stroke="#000000"
       stroke-width="75px"
       stroke-linejoin="bevel"
       id="polyline5066" />
    <!-- Line -->
    <polyline
       points=" 15158,4326 15158,4324 15157,4319 15155,4311 15154,4299 15151,4283 15148,4263  15145,4241 15141,4216 15138,4189 15135,4162 15133,4134 15132,4105 15131,4077  15132,4048 15134,4019 15137,3991 15143,3962 15150,3935 15160,3909 15175,3882  15190,3861 15204,3848 15215,3841 15223,3840 15230,3843 15235,3848 15239,3855  15243,3862 15250,3868 15258,3873 15271,3874 15289,3872 15313,3865 15343,3854  15378,3839 15407,3826 15436,3812 15462,3800 15484,3790 15503,3781 15519,3774  15531,3768 15542,3764 15550,3760 15558,3757 15566,3753 15575,3749 15585,3744  15598,3738 15614,3729 15633,3718 15656,3704 15683,3688 15712,3669 15743,3649  15776,3626 15805,3605 15830,3586 15850,3570 15866,3557 15879,3547 15888,3539  15896,3533 15902,3527 15908,3522 15915,3515 15922,3508 15930,3499 15941,3488  15952,3474 15965,3459 15977,3441 15988,3424 15997,3404 16000,3389 15998,3380  15994,3375 15987,3374 15980,3375 15971,3378 15962,3381 15953,3383 15944,3382  15935,3379 15926,3372 15918,3360 15910,3345 15903,3326 15897,3307 15894,3289  15892,3272 15890,3256 15890,3241 15889,3227 15889,3215 15890,3206 15890,3201  15890,3198"
       stroke="#000000"
       stroke-width="75px"
       stroke-linejoin="bevel"
       id="polyline5068" />
    <!-- Line -->
    <polyline
       points=" 5580,8415 5579,8414 5577,8412 5573,8408 5567,8401 5559,8393 5549,8381 5536,8367  5522,8351 5507,8333 5491,8312 5475,8290 5458,8266 5441,8240 5424,8212 5408,8183  5392,8151 5377,8116 5363,8078 5349,8036 5337,7991 5326,7941 5317,7887 5310,7830  5306,7780 5304,7731 5303,7684 5304,7642 5305,7603 5306,7569 5308,7540 5310,7515  5312,7494 5315,7476 5317,7461 5320,7448 5322,7436 5325,7425 5328,7414 5331,7402  5335,7389 5339,7374 5344,7356 5350,7335 5357,7310 5365,7281 5375,7247 5386,7208  5398,7166 5412,7119 5428,7070 5445,7020 5464,6967 5484,6918 5502,6874 5519,6835  5534,6802 5546,6775 5556,6753 5564,6736 5570,6723 5575,6714 5578,6707 5581,6702  5584,6697 5587,6693 5590,6689 5595,6683 5601,6674 5610,6663 5621,6649 5636,6631  5654,6608 5677,6581 5703,6549 5734,6513 5768,6475 5805,6435 5844,6396 5882,6359  5918,6325 5951,6295 5981,6269 6007,6246 6030,6228 6049,6212 6065,6199 6079,6188  6091,6180 6102,6172 6113,6165 6123,6158 6134,6151 6146,6144 6160,6135 6177,6125  6197,6113 6220,6099 6248,6084 6279,6066 6314,6046 6352,6026 6393,6005 6435,5985  6483,5964 6527,5947 6565,5933 6596,5923 6622,5915 6641,5910 6655,5907 6665,5905  6671,5905 6676,5905 6679,5906 6682,5908 6686,5909 6691,5911 6700,5913 6712,5915  6729,5918 6751,5920 6778,5923 6810,5927 6846,5933 6885,5940 6927,5950 6966,5961  7000,5973 7029,5984 7053,5994 7072,6003 7087,6010 7099,6017 7109,6024 7118,6030  7126,6036 7135,6043 7145,6052 7158,6061 7173,6073 7192,6087 7213,6103 7238,6122  7264,6143 7290,6165 7315,6190 7336,6213 7352,6235 7365,6255 7374,6273 7380,6290  7384,6305 7386,6320 7387,6334 7387,6346 7386,6358 7385,6368 7383,6376 7382,6382  7381,6387 7380,6389 7380,6390"
       stroke="#000000"
       stroke-width="30px"
       stroke-linejoin="bevel"
       stroke-dasharray="80 80"
       id="polyline5070" />
    <!-- Line -->
    <polyline
       points=" 12150,5940 12149,5940 12148,5939 12145,5938 12141,5936 12135,5933 12128,5929  12119,5924 12109,5918 12098,5911 12087,5902 12075,5892 12064,5881 12052,5868  12041,5853 12030,5837 12019,5818 12009,5796 12000,5770 11991,5741 11984,5708  11978,5670 11973,5627 11970,5580 11969,5537 11970,5495 11971,5453 11973,5414  11975,5378 11977,5346 11980,5317 11982,5292 11985,5270 11987,5250 11989,5233  11992,5218 11994,5204 11996,5190 11999,5176 12002,5162 12005,5146 12009,5129  12013,5108 12018,5085 12025,5059 12032,5028 12041,4994 12051,4955 12062,4912  12075,4866 12089,4819 12105,4770 12124,4715 12143,4665 12161,4620 12177,4582  12192,4551 12204,4526 12214,4507 12222,4494 12229,4484 12234,4478 12239,4473  12244,4470 12248,4467 12254,4463 12260,4458 12267,4450 12277,4438 12289,4423  12304,4402 12322,4377 12342,4346 12366,4310 12392,4271 12420,4230 12448,4189  12475,4151 12499,4117 12519,4087 12537,4061 12550,4041 12561,4024 12568,4010  12574,4000 12577,3991 12579,3985 12581,3979 12583,3973 12586,3967 12590,3959  12596,3950 12605,3939 12618,3925 12634,3907 12655,3887 12680,3863 12710,3837  12743,3809 12780,3780 12818,3753 12855,3728 12889,3706 12921,3687 12948,3671  12972,3658 12992,3648 13009,3639 13024,3633 13036,3627 13047,3623 13058,3619  13068,3615 13079,3612 13091,3608 13105,3604 13121,3599 13141,3593 13164,3587  13190,3580 13219,3573 13252,3566 13286,3560 13320,3555 13359,3552 13393,3552  13421,3554 13444,3557 13461,3561 13473,3566 13482,3570 13487,3575 13490,3580  13493,3585 13494,3590 13496,3596 13500,3603 13505,3611 13513,3620 13524,3630  13537,3643 13553,3657 13571,3673 13590,3690 13614,3716 13632,3742 13647,3766  13657,3789 13665,3810 13671,3831 13674,3850 13677,3868 13678,3884 13679,3897  13680,3907 13680,3912 13680,3915"
       stroke="#000000"
       stroke-width="30px"
       stroke-linejoin="bevel"
       stroke-dasharray="80 80"
       id="polyline5072" />
    <!-- Ellipse -->
    <ellipse
       transform="translate(4230,7425) rotate(-20)"
       rx="405"
       ry="720"
       stroke="#000000"
       stroke-width="30px"
       stroke-dasharray="105 105"
       id="ellipse5074" />
    <!-- Ellipse -->
    <ellipse
       transform="translate(4185,7425) rotate(-20)"
       rx="360"
       ry="630"
       stroke="#000000"
       stroke-width="30px"
       stroke-dasharray="105 105"
       id="ellipse5076" />
    <!-- Ellipse -->
    <ellipse
       transform="translate(1350,5175) rotate(-30)"
       rx="405"
       ry="765"
       stroke="#000000"
       stroke-width="75px"
       id="ellipse5078" />
    <!-- Ellipse -->
    <ellipse
       transform="translate(1305,5130) rotate(-30)"
       rx="360"
       ry="675"
       fill="#ffffcc"
       stroke="#000000"
       stroke-width="75px"
       id="ellipse5080" />
    <!-- Line -->
    <polygon
       points=" 9855,3465 9845,3525 9836,3584 9826,3638 9817,3688 9808,3733 9799,3773 9790,3808  9781,3838 9772,3864 9764,3887 9755,3907 9747,3925 9739,3941 9731,3956 9724,3971  9716,3986 9709,4002 9703,4019 9697,4037 9693,4057 9689,4080 9687,4104 9686,4131  9688,4160 9691,4190 9698,4220 9707,4249 9720,4275 9739,4300 9760,4318 9782,4331  9803,4339 9822,4343 9839,4343 9854,4340 9866,4335 9877,4328 9887,4320 9895,4311  9904,4301 9913,4291 9923,4280 9936,4269 9951,4257 9970,4245 9994,4233 10023,4219  10058,4205 10100,4191 10148,4175 10202,4158 10260,4140 10308,4125 10357,4109  10403,4094 10446,4080 10485,4068 10521,4056 10552,4046 10579,4037 10602,4029  10621,4023 10638,4017 10653,4013 10665,4009 10677,4005 10688,4001 10698,3998  10710,3994 10723,3989 10738,3984 10756,3978 10777,3970 10802,3961 10831,3950  10865,3938 10904,3923 10947,3907 10996,3889 11048,3869 11103,3847 11160,3825  11220,3801 11279,3778 11333,3757 11383,3738 11428,3723 11467,3710 11502,3700  11532,3693 11558,3688 11580,3685 11600,3684 11617,3684 11633,3685 11648,3686  11662,3687 11676,3688 11692,3687 11708,3684 11727,3679 11747,3672 11769,3661  11794,3646 11821,3627 11850,3603 11881,3575 11912,3542 11942,3505 11970,3465  11993,3422 12012,3380 12027,3338 12037,3299 12044,3264 12047,3232 12048,3204  12046,3179 12043,3158 12038,3139 12031,3123 12024,3109 12016,3095 12007,3082  11999,3070 11989,3056 11980,3041 11971,3024 11962,3004 11952,2981 11943,2955  11934,2924 11925,2889 11916,2849 11907,2805 11899,2757 11889,2707 11880,2655  11869,2596 11858,2541 11848,2490 11840,2446 11835,2407 11831,2374 11829,2347  11829,2324 11830,2305 11833,2288 11836,2274 11839,2261 11842,2249 11844,2236  11844,2222 11843,2207 11839,2190 11832,2171 11822,2149 11807,2125 11787,2100  11763,2073 11734,2048 11700,2025 11666,2008 11631,1996 11597,1987 11565,1982  11536,1980 11510,1981 11487,1984 11467,1988 11450,1994 11434,2001 11421,2008  11408,2016 11396,2025 11384,2034 11371,2043 11356,2053 11340,2063 11320,2072  11297,2082 11271,2093 11240,2103 11204,2114 11164,2125 11120,2136 11073,2148  11025,2160 10973,2173 10925,2186 10881,2197 10843,2208 10811,2216 10785,2223  10764,2229 10748,2233 10736,2236 10727,2239 10720,2241 10714,2243 10708,2244  10701,2246 10692,2249 10681,2253 10667,2258 10648,2264 10625,2272 10596,2282  10563,2294 10525,2308 10483,2323 10440,2340 10398,2357 10358,2372 10322,2386  10291,2396 10265,2404 10243,2409 10226,2410 10211,2410 10200,2407 10191,2403  10184,2398 10177,2392 10171,2388 10165,2384 10157,2382 10148,2382 10136,2386  10123,2394 10106,2407 10087,2426 10065,2451 10041,2482 10015,2521 9990,2565 9971,2604  9954,2643 9939,2683 9927,2721 9916,2756 9908,2789 9902,2818 9897,2845 9894,2868  9892,2889 9892,2907 9892,2923 9893,2938 9894,2953 9896,2966 9898,2980 9900,2995  9902,3011 9903,3029 9903,3049 9903,3073 9902,3100 9900,3131 9897,3166 9892,3206  9887,3251 9880,3300 9872,3353 9864,3408"
       fill="#f3faff"
       stroke="#000000"
       stroke-width="75px"
       stroke-linejoin="bevel"
       id="polygon5082" />
    <!-- Line -->
    <polyline
       points=" 13464,2859 13466,2858 13470,2857 13477,2854 13488,2850 13503,2844 13523,2837  13547,2827 13575,2816 13607,2804 13642,2790 13679,2774 13718,2758 13758,2741  13798,2723 13838,2705 13878,2686 13918,2666 13956,2646 13994,2626 14030,2604  14064,2582 14097,2559 14128,2534 14156,2509 14182,2483 14203,2457 14220,2430  14234,2397 14239,2367 14239,2340 14233,2318 14223,2300 14211,2286 14197,2275  14181,2268 14165,2262 14147,2259 14129,2255 14111,2253 14091,2249 14071,2244  14050,2238 14027,2229 14003,2217 13977,2202 13950,2184 13921,2163 13891,2140  13860,2115 13823,2086 13790,2060 13762,2038 13740,2021 13723,2008 13711,1999  13702,1992 13696,1987 13691,1984 13687,1980 13681,1976 13673,1971 13662,1963  13647,1953 13627,1941 13603,1925 13575,1908 13545,1890 13508,1869 13479,1853  13458,1841 13445,1834 13439,1830 13438,1828 13440,1828 13441,1828 13440,1827  13433,1825 13419,1821 13396,1816 13362,1808 13320,1800 13288,1795 13256,1791  13224,1787 13194,1785 13165,1783 13137,1781 13110,1780 13084,1780 13058,1779  13034,1779 13010,1779 12989,1779 12969,1780 12952,1780 12939,1780 12928,1781  12922,1781 12918,1781 12916,1781"
       fill="#f3faff"
       stroke="#000000"
       stroke-width="75px"
       stroke-linejoin="bevel"
       id="polyline5084" />
    <!-- Line -->
    <polygon
       points=" 7159,1348 7200,1374 7241,1400 7280,1425 7317,1448 7350,1469 7380,1489 7405,1506  7427,1521 7445,1534 7460,1546 7473,1555 7483,1564 7491,1571 7499,1578 7506,1585  7513,1592 7522,1599 7531,1607 7543,1616 7558,1626 7576,1638 7599,1652 7626,1668  7658,1687 7696,1708 7740,1731 7790,1757 7844,1785 7903,1815 7965,1845 8024,1873  8082,1900 8138,1925 8191,1948 8239,1968 8283,1986 8322,2002 8356,2016 8386,2027  8412,2036 8434,2044 8453,2050 8470,2055 8485,2060 8499,2063 8512,2066 8525,2070  8539,2073 8554,2077 8571,2081 8590,2087 8612,2094 8637,2102 8666,2112 8700,2123  8738,2137 8780,2152 8827,2169 8878,2188 8932,2208 8988,2229 9045,2250 9108,2274  9167,2295 9222,2314 9271,2330 9314,2341 9352,2350 9383,2355 9410,2356 9433,2355  9451,2352 9467,2347 9480,2340 9492,2333 9503,2325 9513,2318 9523,2311 9534,2306  9546,2303 9559,2302 9575,2306 9593,2313 9613,2325 9636,2342 9661,2365 9687,2395  9714,2431 9741,2473 9765,2520 9783,2565 9798,2611 9810,2658 9819,2703 9826,2746  9830,2787 9832,2825 9833,2859 9831,2891 9829,2920 9826,2946 9822,2970 9817,2992  9811,3013 9805,3033 9799,3053 9792,3072 9785,3092 9778,3114 9771,3137 9764,3162  9757,3190 9749,3220 9742,3254 9734,3292 9727,3333 9719,3379 9711,3428 9702,3480  9694,3534 9685,3590 9675,3645 9662,3716 9648,3781 9636,3838 9625,3887 9616,3928  9608,3962 9602,3988 9598,4009 9594,4024 9592,4036 9590,4046 9589,4054 9587,4061  9585,4069 9582,4077 9577,4088 9570,4102 9562,4118 9551,4138 9536,4162 9519,4189  9499,4218 9475,4247 9450,4275 9426,4297 9402,4316 9380,4331 9360,4342 9344,4351  9331,4357 9321,4360 9314,4362 9310,4362 9308,4361 9307,4359 9307,4357 9308,4354  9308,4350 9307,4346 9304,4342 9299,4338 9291,4333 9279,4328 9263,4323 9241,4318  9214,4311 9180,4304 9140,4296 9095,4286 9045,4275 8999,4264 8953,4252 8908,4240  8866,4229 8828,4218 8793,4208 8762,4199 8736,4192 8713,4185 8694,4179 8677,4174  8663,4170 8651,4166 8640,4162 8629,4159 8618,4155 8606,4151 8592,4146 8576,4141  8558,4134 8535,4126 8508,4116 8476,4104 8438,4090 8395,4074 8346,4055 8291,4035  8231,4011 8167,3986 8100,3960 8041,3936 7982,3912 7927,3889 7874,3867 7826,3847  7783,3829 7744,3812 7711,3797 7681,3784 7656,3773 7634,3764 7616,3756 7601,3749  7588,3743 7576,3737 7566,3732 7556,3727 7547,3723 7536,3718 7525,3712 7512,3706  7497,3698 7478,3689 7457,3679 7432,3667 7403,3653 7370,3636 7332,3618 7289,3597  7242,3574 7190,3549 7135,3522 7078,3494 7020,3465 6959,3434 6900,3404 6845,3376  6794,3350 6748,3326 6708,3305 6672,3286 6642,3270 6616,3256 6594,3244 6577,3235  6562,3226 6549,3219 6539,3213 6530,3208 6521,3203 6513,3197 6504,3192 6495,3186  6484,3180 6471,3172 6455,3163 6437,3152 6415,3139 6389,3125 6360,3108 6327,3089  6290,3068 6251,3045 6208,3021 6164,2996 6120,2970 6064,2937 6012,2907 5967,2880  5929,2858 5897,2839 5872,2824 5852,2813 5837,2805 5827,2799 5819,2795 5813,2792  5809,2790 5805,2788 5800,2786 5795,2783 5787,2778 5777,2771 5764,2762 5748,2751  5728,2736 5705,2719 5679,2699 5652,2678 5625,2655 5605,2637 5586,2621 5570,2606  5554,2594 5541,2583 5529,2575 5518,2570 5508,2567 5499,2565 5491,2566 5484,2568  5477,2571 5471,2575 5465,2579 5460,2584 5455,2588 5450,2592 5446,2595 5443,2597  5440,2597 5437,2595 5436,2591 5436,2583 5437,2573 5439,2559 5444,2541 5451,2519  5461,2493 5474,2463 5490,2430 5508,2397 5529,2363 5550,2329 5572,2296 5594,2264  5614,2235 5634,2208 5653,2184 5671,2161 5687,2141 5702,2123 5716,2107 5730,2092  5743,2078 5755,2064 5768,2051 5780,2038 5793,2024 5807,2010 5822,1994 5839,1977  5857,1957 5877,1936 5899,1911 5924,1884 5952,1854 5982,1821 6015,1784 6050,1746  6087,1705 6126,1662 6165,1620 6209,1573 6252,1528 6291,1487 6326,1450 6357,1416  6384,1387 6406,1362 6424,1341 6439,1322 6451,1306 6460,1293 6468,1281 6474,1270  6480,1260 6485,1251 6491,1241 6498,1231 6507,1221 6518,1210 6531,1198 6547,1184  6567,1170 6590,1154 6616,1138 6647,1122 6679,1106 6714,1092 6750,1080 6790,1071  6827,1067 6860,1067 6886,1069 6907,1074 6922,1080 6933,1087 6939,1094 6941,1102  6941,1110 6939,1119 6936,1128 6933,1137 6932,1147 6932,1158 6936,1171 6943,1185  6955,1201 6973,1219 6997,1239 7028,1262 7066,1288 7110,1317"
       fill="#f3faff"
       stroke="#000000"
       stroke-width="75px"
       stroke-linejoin="bevel"
       id="polygon5086" />
    <!-- Line -->
    <polygon
       points=" 12105,2565 12115,2615 12124,2665 12133,2712 12140,2757 12146,2799 12150,2837  12153,2872 12155,2904 12154,2932 12153,2958 12151,2982 12149,3004 12146,3025  12142,3045 12140,3065 12137,3085 12136,3105 12136,3126 12137,3148 12141,3171  12147,3196 12156,3222 12168,3249 12184,3277 12204,3304 12227,3331 12254,3355  12285,3375 12318,3390 12352,3400 12386,3405 12418,3406 12448,3404 12475,3399  12500,3392 12521,3383 12540,3373 12557,3362 12572,3350 12586,3338 12599,3325  12611,3311 12624,3297 12637,3283 12652,3268 12668,3253 12687,3237 12708,3221  12733,3203 12761,3185 12793,3166 12830,3147 12870,3126 12913,3105 12958,3082  13005,3060 13059,3034 13109,3010 13155,2988 13197,2969 13233,2954 13263,2942  13290,2934 13312,2928 13331,2924 13348,2922 13363,2922 13376,2921 13389,2921  13403,2920 13416,2917 13431,2912 13448,2905 13466,2895 13486,2880 13507,2862  13530,2839 13552,2811 13573,2780 13590,2745 13602,2712 13609,2679 13612,2648  13613,2619 13611,2594 13607,2571 13602,2552 13595,2536 13588,2522 13580,2510  13571,2500 13562,2491 13552,2482 13543,2474 13532,2465 13522,2454 13510,2442  13498,2428 13485,2411 13472,2391 13457,2368 13441,2341 13423,2310 13405,2277  13385,2241 13365,2205 13340,2163 13317,2124 13296,2089 13279,2059 13265,2034  13255,2013 13247,1996 13243,1983 13240,1972 13238,1962 13237,1954 13236,1946  13234,1937 13230,1928 13224,1918 13213,1906 13199,1891 13180,1875 13155,1857  13125,1837 13089,1818 13050,1800 13012,1787 12974,1776 12939,1769 12907,1764  12879,1761 12854,1760 12834,1761 12817,1763 12802,1766 12790,1769 12779,1773  12769,1778 12758,1782 12747,1787 12735,1792 12720,1797 12702,1803 12680,1808  12654,1813 12624,1819 12589,1825 12550,1831 12508,1838 12465,1845 12419,1853  12376,1861 12338,1868 12304,1873 12276,1877 12253,1878 12234,1878 12218,1876  12205,1874 12194,1871 12184,1867 12174,1865 12164,1862 12154,1862 12142,1863  12128,1867 12112,1875 12094,1886 12074,1902 12054,1923 12033,1949 12015,1980  12002,2011 11992,2043 11986,2073 11982,2101 11981,2126 11982,2147 11984,2164  11987,2178 11991,2190 11996,2200 12002,2208 12008,2216 12014,2225 12020,2234  12027,2246 12034,2260 12041,2279 12049,2302 12057,2331 12065,2366 12074,2408  12084,2455 12094,2508"
       fill="#f3faff"
       stroke="#000000"
       stroke-width="75px"
       stroke-linejoin="bevel"
       id="polygon5088" />
    <!-- Line -->
    <polyline
       points=" 5535,2475 5537,2474 5540,2473 5546,2471 5556,2467 5568,2463 5584,2457 5602,2451  5623,2445 5645,2438 5668,2432 5693,2427 5718,2422 5745,2418 5773,2415 5803,2414  5835,2415 5869,2417 5904,2422 5940,2430 5979,2441 6012,2454 6039,2465 6057,2475  6068,2483 6073,2489 6072,2494 6069,2498 6064,2501 6059,2505 6057,2510 6059,2518  6067,2528 6083,2543 6110,2563 6147,2588 6196,2619 6255,2655 6293,2678 6332,2701  6370,2723 6405,2744 6438,2763 6468,2781 6495,2796 6518,2810 6538,2822 6555,2832  6570,2841 6583,2849 6594,2856 6605,2862 6615,2869 6625,2875 6636,2882 6649,2889  6663,2897 6680,2907 6700,2918 6723,2931 6751,2945 6783,2962 6819,2981 6861,3003  6907,3026 6957,3051 7010,3078 7065,3105 7120,3132 7174,3157 7224,3181 7270,3202  7311,3221 7347,3237 7378,3250 7403,3262 7425,3271 7442,3278 7456,3284 7468,3288  7477,3291 7485,3294 7493,3296 7500,3299 7508,3301 7517,3304 7529,3308 7543,3313  7560,3320 7582,3328 7607,3338 7638,3351 7674,3365 7715,3382 7761,3400 7811,3421  7865,3443 7920,3465 7979,3489 8035,3512 8088,3533 8135,3552 8177,3568 8212,3583  8242,3595 8267,3605 8287,3613 8304,3620 8316,3626 8327,3630 8336,3634 8344,3638  8352,3641 8360,3645 8370,3649 8382,3654 8398,3660 8417,3667 8440,3676 8468,3686  8500,3698 8538,3712 8581,3728 8628,3744 8679,3762 8730,3780 8789,3800 8844,3818  8894,3834 8938,3846 8975,3856 9006,3864 9032,3869 9053,3871 9069,3872 9083,3872  9095,3871 9105,3870 9115,3869 9125,3868 9137,3868 9151,3869 9167,3871 9186,3876  9209,3884 9235,3894 9264,3906 9296,3922 9329,3940 9360,3960 9390,3983 9416,4006  9436,4028 9452,4050 9464,4071 9472,4091 9477,4111 9480,4130 9481,4148 9480,4166  9478,4184 9475,4200 9471,4216 9467,4230 9463,4242 9459,4253 9456,4261 9453,4268  9451,4272 9450,4274 9450,4275"
       stroke="#000000"
       stroke-width="45px"
       stroke-linejoin="bevel"
       id="polyline5090" />
    <!-- Ellipse -->
    <ellipse
       cx="5062"
       cy="4514"
       rx="538"
       ry="194"
       stroke="#000000"
       stroke-width="30px"
       id="ellipse5092" />
    <!-- Ellipse -->
    <ellipse
       cx="5076"
       cy="4551"
       rx="766"
       ry="294"
       stroke="#000000"
       stroke-width="30px"
       id="ellipse5094" />
    <!-- Circle -->
    <circle
       cx="10482"
       cy="4218"
       r="61"
       stroke="#000000"
       stroke-width="60px"
       id="circle5096" />
    <!-- Circle -->
    <circle
       cx="10634"
       cy="4189"
       r="71"
       stroke="#000000"
       stroke-width="60px"
       id="circle5098" />
    <!-- Circle -->
    <circle
       cx="10695"
       cy="4387"
       r="72"
       stroke="#000000"
       stroke-width="60px"
       id="circle5100" />
    <!-- Line -->
    <polyline
       points=" 2475,5265 2475,6300 3699,7380 3690,6255 3555,5940 2700,5265 2655,5220 2475,5265 "
       stroke="#000000"
       stroke-width="30px"
       id="polyline5102" />
    <!-- Line -->
    <polyline
       points=" 3962,7258 3960,6210 3780,5850 3264,5477"
       stroke="#000000"
       stroke-width="30px"
       id="polyline5104" />
    <!-- Line -->
    <polyline
       points=" 3105,5310 2925,5130 2655,5220"
       stroke="#000000"
       stroke-width="30px"
       id="polyline5106" />
    <!-- Line -->
    <polyline
       points=" 3285,5445 3465,5490 3735,5670 3780,5715 3780,5850"
       stroke="#000000"
       stroke-width="30px"
       id="polyline5108" />
    <!-- Line -->
    <polyline
       points=" 3870,5985 3960,5940 3960,5715 3915,5625 3330,5220 3240,5220 3195,5220 3195,5310 "
       stroke="#000000"
       stroke-width="30px"
       id="polyline5110" />
    <!-- Line -->
    <polyline
       points=" 4185,5715 5130,5445"
       stroke="#000000"
       stroke-width="30px"
       id="polyline5112" />
    <!-- Line -->
    <polyline
       points=" 4455,6390 4995,6210 5040,6255 6030,5895"
       stroke="#000000"
       stroke-width="30px"
       id="polyline5114" />
    <!-- Line -->
    <polyline
       points=" 4770,6660 5850,6210 5940,6345 6615,5940 7380,5580 8145,5130 10580,4462"
       stroke="#000000"
       stroke-width="30px"
       id="polyline5116" />
    <!-- Line -->
    <polyline
       points=" 5850,5310 6165,5310 7155,5040 8010,4950 9135,4635 10530,4275"
       stroke="#000000"
       stroke-width="30px"
       id="polyline5118" />
    <!-- Line -->
    <polyline
       points=" 3825,4975 4005,4995 4005,5310"
       stroke="#000000"
       stroke-width="30px"
       id="polyline5120" />
    <!-- Line -->
    <polyline
       points=" 4005,4995 4323,4845"
       stroke="#000000"
       stroke-width="30px"
       id="polyline5122" />
    <!-- Line -->
    <polyline
       points=" 4545,5130 4815,5220 4815,5400"
       stroke="#000000"
       stroke-width="30px"
       id="polyline5124" />
    <!-- Line -->
    <polyline
       points=" 5843,4548 5843,4906"
       stroke="#000000"
       stroke-width="30px"
       id="polyline5126" />
    <!-- Line -->
    <polyline
       points=" 4320,4500 4320,4874"
       stroke="#000000"
       stroke-width="30px"
       id="polyline5128" />
    <!-- Line -->
    <polyline
       points=" 3690,6255 3960,6210"
       stroke="#000000"
       stroke-width="30px"
       id="polyline5130" />
    <!-- Line -->
    <polyline
       points=" 5850,6255 5940,6165 5940,6075"
       stroke="#000000"
       stroke-width="30px"
       id="polyline5132" />
    <!-- Line -->
    <polyline
       points=" 6066,6272 6075,5985"
       stroke="#000000"
       stroke-width="30px"
       id="polyline5134" />
    <!-- Line -->
    <polyline
       points=" 6241,6146 6232,5890"
       stroke="#000000"
       stroke-width="30px"
       id="polyline5136" />
    <!-- Line -->
    <polyline
       points=" 6390,6072 6390,5805"
       stroke="#000000"
       stroke-width="30px"
       id="polyline5138" />
    <!-- Line -->
    <polyline
       points=" 4641,5012 4950,5175 4950,5310 4860,5310 4860,5400 4590,5490"
       stroke="#000000"
       stroke-width="30px"
       id="polyline5140" />
    <!-- Line -->
    <polyline
       points=" 5175,5310 5175,5085"
       stroke="#000000"
       stroke-width="30px"
       id="polyline5142" />
    <!-- Line -->
    <polyline
       points=" 5310,5355 5310,5085"
       stroke="#000000"
       stroke-width="30px"
       id="polyline5144" />
    <!-- Line -->
    <polyline
       points=" 5175,5220 5310,5220"
       stroke="#000000"
       stroke-width="30px"
       id="polyline5146" />
    <!-- Line -->
    <polyline
       points=" 4185,5625 4185,5760"
       stroke="#000000"
       stroke-width="30px"
       id="polyline5148" />
    <!-- Line -->
    <polyline
       points=" 4365,5580 4365,5670"
       stroke="#000000"
       stroke-width="30px"
       id="polyline5150" />
    <!-- Line -->
    <polyline
       points=" 4545,5490 4545,5625"
       stroke="#000000"
       stroke-width="30px"
       id="polyline5152" />
    <!-- Line -->
    <polyline
       points=" 3690,7380 3960,7245"
       stroke="#000000"
       stroke-width="30px"
       stroke-linejoin="bevel"
       stroke-linecap="round"
       id="polyline5154" />
    <!-- Line -->
    <polygon
       points=" 3015,5400 3020,5415 3026,5427 3032,5437 3037,5443 3041,5449 3045,5453 3049,5456  3054,5461 3062,5466 3073,5473 3087,5482 3105,5490 3127,5497 3145,5502 3158,5504  3167,5505 3173,5505 3178,5505 3187,5504 3200,5502 3218,5497 3240,5490 3261,5480  3277,5470 3288,5461 3295,5455 3300,5449 3304,5443 3310,5435 3316,5426 3324,5414  3330,5400 3332,5390 3332,5382 3330,5377 3328,5375 3325,5374 3322,5374 3319,5374  3316,5373 3311,5372 3304,5368 3295,5362 3285,5355 3271,5346 3260,5339 3252,5335  3247,5331 3244,5329 3240,5326 3235,5324 3226,5320 3212,5315 3195,5310 3174,5306  3159,5304 3151,5305 3146,5306 3142,5308 3134,5309 3122,5310 3105,5310 3090,5310  3082,5308 3079,5306 3079,5303 3079,5300 3077,5299 3070,5302 3060,5310 3053,5318  3046,5327 3040,5334 3035,5339 3030,5344 3026,5348 3022,5351 3019,5357 3016,5363  3014,5373 3013,5385"
       stroke="#000000"
       stroke-width="30px"
       stroke-linejoin="bevel"
       id="polygon5156" />
    <!-- Line -->
    <polygon
       points=" 3465,5760 3457,5770 3451,5779 3448,5786 3446,5792 3445,5796 3446,5799 3446,5801  3447,5804 3449,5807 3450,5811 3452,5818 3455,5826 3459,5837 3465,5850 3475,5867  3485,5882 3492,5892 3498,5900 3503,5906 3507,5912 3514,5918 3524,5926 3538,5934  3555,5940 3570,5942 3582,5942 3591,5940 3597,5938 3601,5935 3604,5932 3607,5929  3610,5926 3616,5921 3624,5914 3634,5905 3645,5895 3657,5881 3666,5870 3672,5861  3676,5855 3679,5850 3681,5845 3683,5839 3686,5830 3689,5819 3690,5805 3688,5790  3684,5782 3679,5779 3675,5779 3670,5779 3664,5777 3656,5770 3645,5760 3635,5749  3629,5741 3628,5735 3630,5730 3631,5726 3628,5721 3619,5717 3600,5715 3581,5716  3564,5719 3550,5722 3538,5724 3529,5726 3519,5729 3509,5733 3495,5739 3480,5748 "
       stroke="#000000"
       stroke-width="30px"
       stroke-linejoin="bevel"
       id="polygon5158" />
    <!-- Line -->
    <polyline
       points=" 3375,5265 3375,5263 3374,5258 3374,5249 3373,5237 3371,5220 3370,5200 3368,5178  3367,5154 3365,5129 3364,5102 3364,5076 3363,5048 3364,5021 3365,4992 3367,4963  3371,4934 3375,4905 3380,4879 3386,4857 3391,4840 3395,4826 3399,4816 3401,4809  3403,4805 3404,4802 3405,4800 3406,4798 3408,4797 3411,4795 3415,4792 3420,4788  3428,4784 3438,4779 3451,4774 3465,4770 3482,4769 3499,4770 3513,4771 3525,4774  3535,4776 3543,4778 3549,4779 3555,4781 3561,4784 3567,4787 3575,4792 3585,4799  3597,4809 3611,4822 3628,4839 3645,4860 3661,4883 3674,4905 3683,4924 3689,4938  3692,4948 3693,4954 3692,4958 3690,4961 3688,4965 3687,4970 3688,4980 3691,4994  3697,5016 3706,5046 3719,5085 3735,5130 3747,5165 3760,5200 3771,5232 3782,5261  3791,5286 3799,5307 3806,5325 3812,5340 3816,5353 3821,5364 3825,5374 3829,5384  3834,5395 3838,5408 3844,5423 3851,5441 3859,5463 3868,5488 3879,5518 3890,5552  3903,5588 3915,5625 3929,5668 3942,5708 3953,5743 3962,5773 3970,5799 3976,5822  3982,5843 3987,5862 3991,5878 3995,5893 3998,5906 4000,5917 4002,5926 4003,5932  4004,5936 4005,5939 4005,5940"
       stroke="#000000"
       stroke-width="30px"
       stroke-linejoin="bevel"
       id="polyline5160" />
    <!-- Line -->
    <polyline
       points=" 3510,4770 3513,4769 3519,4768 3528,4766 3540,4764 3555,4764 3574,4766 3600,4770  3622,4775 3640,4778 3653,4780 3662,4779 3668,4777 3673,4777 3682,4778 3695,4784  3713,4796 3735,4815 3746,4827 3755,4837 3763,4845 3768,4851 3771,4852 3772,4851  3772,4847 3770,4841 3768,4834 3765,4826 3762,4819 3760,4814 3760,4812 3760,4815  3763,4823 3769,4839 3778,4863 3790,4897 3806,4941 3825,4995 3838,5033 3852,5073  3865,5115 3879,5157 3893,5199 3907,5242 3921,5285 3935,5327 3948,5369 3962,5412  3975,5454 3988,5496 4002,5538 4015,5580 4028,5621 4040,5662 4052,5701 4064,5740  4076,5776 4087,5811 4096,5843 4106,5873 4114,5899 4121,5922 4126,5941 4131,5956  4135,5967 4137,5976 4139,5981 4140,5984 4140,5985"
       stroke="#000000"
       stroke-width="30px"
       stroke-linejoin="bevel"
       id="polyline5162" />
    <!-- Line -->
    <polyline
       points=" 3870,5985 3873,5983 3880,5979 3891,5973 3904,5965 3919,5958 3936,5951 3956,5946  3979,5942 4005,5940 4031,5941 4051,5944 4064,5947 4071,5949 4076,5951 4081,5954  4088,5958 4100,5964 4118,5973 4140,5985 4158,5996 4172,6006 4182,6013 4189,6016  4193,6018 4196,6019 4199,6020 4202,6022 4207,6028 4214,6039 4222,6054 4230,6075  4236,6098 4240,6119 4242,6135 4242,6148 4242,6157 4241,6165 4240,6173 4239,6182  4237,6195 4235,6211 4233,6232 4230,6255 4226,6276 4222,6291 4220,6302 4219,6308  4219,6310 4219,6311 4219,6312 4218,6314 4214,6317 4208,6324 4198,6334 4185,6345  4166,6357 4150,6366 4137,6371 4128,6374 4121,6375 4114,6376 4105,6378 4091,6381  4072,6385 4050,6390 4024,6394 4005,6396 3990,6396 3978,6394 3969,6392 3963,6391  3960,6390"
       stroke="#000000"
       stroke-width="30px"
       stroke-linejoin="bevel"
       id="polyline5164" />
    <!-- Line -->
    <polygon
       points=" 4005,6165 4006,6180 4008,6192 4010,6202 4013,6210 4014,6216 4016,6221 4018,6226  4021,6231 4025,6237 4031,6243 4040,6250 4050,6255 4061,6257 4072,6257 4081,6255  4088,6253 4094,6250 4099,6247 4104,6244 4109,6241 4115,6236 4123,6229 4132,6220  4140,6210 4147,6196 4151,6185 4152,6176 4152,6170 4151,6165 4150,6160 4148,6154  4146,6145 4144,6134 4140,6120 4134,6105 4128,6096 4124,6092 4121,6090 4118,6089  4113,6086 4106,6081 4095,6075 4088,6072 4082,6070 4078,6068 4075,6066 4073,6065  4072,6064 4072,6063 4070,6063 4067,6063 4063,6065 4057,6069 4050,6075 4041,6085  4034,6095 4028,6102 4024,6108 4020,6113 4017,6117 4013,6124 4010,6134 4006,6148 "
       stroke="#000000"
       stroke-width="30px"
       stroke-linejoin="bevel"
       id="polygon5166" />
    <!-- Line -->
    <polyline
       points=" 3977,7056 3979,7056 3983,7057 3991,7058 4002,7060 4017,7062 4035,7064 4055,7067  4077,7070 4100,7072 4124,7075 4149,7078 4175,7080 4202,7083 4230,7085 4259,7086  4289,7087 4319,7088 4360,7088 4391,7087 4411,7086 4421,7085 4426,7085 4427,7085  4430,7083 4438,7081 4454,7076 4477,7070 4506,7060 4531,7051 4552,7042 4569,7035  4581,7030 4589,7027 4595,7025 4599,7024 4603,7023 4608,7021 4615,7016 4626,7008  4641,6996 4659,6980 4679,6960 4698,6938 4714,6918 4727,6902 4736,6889 4743,6880  4748,6873 4752,6868 4755,6862 4759,6855 4763,6845 4769,6831 4775,6811 4783,6787  4789,6760 4793,6729 4795,6702 4795,6683 4794,6671 4793,6663 4791,6657 4789,6652  4786,6644 4781,6633 4775,6616 4765,6594 4752,6568 4737,6544 4721,6523 4705,6507  4689,6493 4674,6482 4659,6473 4645,6465 4634,6458 4624,6454 4619,6451 4616,6450 "
       stroke="#000000"
       stroke-width="30px"
       stroke-linejoin="bevel"
       id="polyline5168" />
    <!-- Line -->
    <polyline
       points=" 4163,5992 4162,5989 4161,5982 4159,5970 4156,5954 4153,5935 4150,5914 4148,5892  4146,5869 4145,5846 4146,5824 4148,5802 4153,5780 4160,5761 4168,5747 4177,5737  4185,5731 4192,5727 4198,5725 4202,5725 4206,5725 4210,5727 4214,5729 4218,5731  4224,5733 4231,5735 4241,5737 4253,5739 4267,5743 4283,5747 4304,5755 4322,5762  4335,5768 4344,5772 4350,5774 4354,5775 4358,5777 4364,5780 4372,5787 4385,5800  4401,5818 4420,5843 4435,5867 4448,5889 4458,5908 4465,5922 4470,5933 4473,5941  4475,5948 4477,5955 4480,5964 4483,5976 4488,5992 4495,6014 4503,6041 4511,6071  4518,6101 4523,6126 4527,6146 4529,6159 4531,6168 4531,6174 4532,6178 4532,6182  4532,6188 4532,6196 4532,6208 4531,6226 4531,6247 4529,6272 4526,6299 4522,6322  4519,6338 4517,6348 4515,6355 4514,6360 4512,6364 4510,6370 4506,6378 4500,6389  4491,6403 4479,6418 4468,6429 4458,6437 4450,6442 4444,6446 4439,6448 4436,6449  4433,6450 4431,6450 4427,6450 4422,6450 4415,6449 4405,6447 4393,6445 4378,6440  4361,6432 4347,6424 4336,6417 4328,6411 4323,6408 4319,6404 4315,6401 4310,6395  4304,6387 4294,6375 4282,6358 4269,6336 4257,6313 4249,6292 4243,6277 4240,6265  4239,6258 4240,6252 4240,6246 4239,6238 4238,6226 4234,6209 4229,6187 4223,6162  4216,6133 4210,6108 4205,6088 4201,6071 4198,6056 4196,6044 4194,6035 4193,6029  4192,6026"
       stroke="#000000"
       stroke-width="30px"
       stroke-linejoin="bevel"
       id="polyline5170" />
    <!-- Line -->
    <polyline
       points=" 4679,5575 4681,5576 4684,5579 4691,5583 4699,5589 4710,5597 4721,5606 4734,5616  4747,5628 4761,5642 4775,5657 4790,5675 4806,5696 4821,5720 4835,5745 4846,5767  4854,5784 4860,5797 4863,5806 4865,5812 4865,5817 4866,5822 4867,5828 4869,5838  4872,5851 4877,5870 4883,5894 4889,5921 4895,5952 4900,5978 4903,5996 4905,6008  4906,6015 4906,6019 4906,6024 4906,6030 4907,6041 4907,6058 4907,6081 4907,6108  4906,6135 4904,6158 4901,6177 4898,6194 4894,6208 4891,6221 4888,6232 4885,6241  4882,6247 4881,6251 4880,6253"
       stroke="#000000"
       stroke-width="30px"
       stroke-linejoin="bevel"
       id="polyline5172" />
    <!-- Line -->
    <polyline
       points=" 4803,5543 4805,5545 4808,5548 4814,5554 4822,5562 4832,5573 4843,5585 4855,5599  4868,5614 4881,5631 4895,5650 4909,5672 4924,5697 4939,5725 4953,5753 4964,5778  4972,5798 4978,5812 4981,5822 4983,5829 4984,5834 4985,5839 4986,5846 4988,5856  4992,5870 4996,5890 5002,5915 5008,5943 5014,5975 5018,6001 5020,6020 5021,6032  5022,6040 5022,6045 5022,6050 5022,6057 5022,6067 5021,6083 5020,6103 5017,6126  5013,6147 5008,6164 5003,6178 4997,6188 4991,6196 4985,6203 4979,6208 4974,6212  4971,6215 4968,6216 4967,6217"
       stroke="#000000"
       stroke-width="30px"
       stroke-linejoin="bevel"
       id="polyline5174" />
    <!-- Line -->
    <polyline
       points=" 5860,5360 5862,5362 5865,5365 5871,5371 5879,5379 5889,5389 5901,5401 5913,5414  5926,5428 5940,5444 5954,5461 5969,5480 5985,5501 6002,5524 6020,5550 6033,5571  6042,5584 6047,5590 6049,5592 6050,5591 6051,5590 6052,5593 6056,5602 6064,5620  6075,5649 6088,5688 6097,5717 6106,5745 6113,5771 6119,5793 6124,5812 6128,5827  6131,5839 6134,5850 6136,5860 6138,5870 6140,5881 6143,5894 6146,5909 6150,5928  6154,5950 6159,5976 6165,6005 6170,6034 6176,6074 6180,6107 6182,6132 6183,6152  6182,6168 6181,6181 6179,6191 6178,6198 6176,6204 6175,6207 6175,6208"
       stroke="#000000"
       stroke-width="30px"
       stroke-linejoin="bevel"
       id="polyline5176" />
    <!-- Line -->
    <polyline
       points=" 6157,5301 6159,5303 6162,5307 6168,5313 6177,5323 6187,5335 6200,5349 6213,5365  6228,5382 6242,5400 6257,5419 6272,5439 6287,5460 6302,5482 6316,5505 6330,5529  6345,5558 6355,5581 6360,5595 6361,5602 6360,5605 6357,5604 6355,5604 6353,5606  6352,5613 6353,5628 6357,5650 6362,5679 6367,5706 6371,5730 6375,5750 6378,5765  6380,5776 6381,5784 6383,5790 6384,5797 6386,5805 6388,5816 6390,5831 6393,5851  6395,5875 6398,5902 6400,5932 6401,5957 6401,5978 6401,5995 6400,6009 6399,6022  6397,6033 6396,6041 6395,6048 6394,6051 6394,6053"
       stroke="#000000"
       stroke-width="30px"
       stroke-linejoin="bevel"
       id="polyline5178" />
    <!-- Line -->
    <polyline
       points=" 5783,5396 5785,5398 5788,5401 5794,5407 5803,5415 5813,5426 5825,5438 5837,5451  5851,5466 5865,5483 5881,5501 5897,5521 5915,5545 5933,5570 5950,5595 5965,5617  5976,5634 5985,5644 5990,5651 5994,5654 5997,5655 5999,5656 6002,5660 6006,5668  6012,5681 6020,5700 6029,5728 6038,5761 6045,5792 6050,5821 6054,5846 6056,5866  6057,5881 6057,5893 6057,5902 6056,5910 6055,5918 6054,5927 6053,5939 6053,5955  6053,5975 6054,6001 6055,6030 6056,6062 6057,6097 6058,6128 6058,6154 6058,6176  6058,6195 6057,6212 6057,6227 6057,6240 6056,6250 6056,6259 6055,6265 6055,6268  6055,6270"
       stroke="#000000"
       stroke-width="30px"
       stroke-linejoin="bevel"
       id="polyline5180" />
    <!-- Line -->
    <polyline
       points=" 5901,5310 5903,5312 5906,5315 5913,5322 5922,5331 5933,5343 5946,5357 5961,5373  5976,5389 5992,5406 6008,5424 6024,5443 6041,5463 6059,5484 6076,5506 6093,5529  6112,5556 6127,5577 6135,5589 6139,5593 6140,5592 6140,5589 6139,5587 6140,5593  6145,5607 6152,5631 6161,5665 6167,5694 6173,5721 6177,5746 6180,5766 6182,5783  6183,5797 6184,5808 6184,5818 6184,5828 6185,5839 6186,5853 6187,5870 6190,5891  6193,5917 6197,5945 6202,5975 6208,6011 6214,6041 6219,6064 6223,6083 6227,6097  6230,6109 6233,6118 6236,6126 6237,6131 6238,6134 6239,6135"
       stroke="#000000"
       stroke-width="30px"
       stroke-linejoin="bevel"
       id="polyline5182" />
    <!-- Line -->
    <polyline
       points=" 7155,5045 7157,5047 7161,5052 7167,5061 7176,5072 7186,5085 7197,5099 7209,5115  7222,5133 7236,5153 7252,5175 7269,5200 7285,5224 7299,5244 7309,5257 7316,5265  7321,5269 7325,5271 7328,5273 7332,5277 7338,5286 7344,5300 7352,5320 7360,5346  7365,5373 7368,5395 7369,5413 7369,5425 7368,5434 7366,5441 7364,5447 7362,5455  7360,5467 7357,5482 7354,5502 7351,5524 7346,5547 7341,5564 7336,5577 7331,5585  7327,5592 7322,5596 7319,5599 7316,5601 7315,5602"
       stroke="#000000"
       stroke-width="30px"
       stroke-linejoin="bevel"
       id="polyline5184" />
    <!-- Line -->
    <polyline
       points=" 4319,4831 4320,4832 4322,4835 4326,4839 4333,4846 4341,4854 4350,4864 4362,4874  4375,4886 4390,4898 4406,4910 4425,4923 4448,4937 4474,4951 4504,4966 4538,4981  4570,4994 4600,5005 4627,5014 4649,5021 4667,5026 4681,5030 4693,5033 4702,5034  4710,5036 4718,5037 4727,5038 4739,5040 4753,5043 4772,5046 4794,5051 4822,5056  4852,5062 4885,5068 4925,5074 4957,5079 4980,5082 4995,5083 5003,5084 5006,5084  5006,5083 5007,5082 5009,5081 5017,5081 5031,5081 5053,5081 5084,5081 5122,5082  5156,5082 5188,5082 5215,5082 5236,5082 5252,5082 5265,5082 5274,5083 5282,5083  5290,5083 5299,5083 5311,5083 5327,5082 5348,5081 5373,5079 5404,5076 5436,5073  5471,5069 5499,5064 5520,5061 5533,5059 5540,5058 5543,5058 5544,5058 5545,5058  5548,5057 5554,5055 5566,5051 5584,5044 5608,5034 5637,5022 5663,5010 5688,4997  5711,4985 5731,4973 5750,4961 5768,4949 5785,4938 5800,4927 5815,4917 5827,4908  5838,4900 5846,4893 5852,4889 5855,4886 5857,4885"
       stroke="#000000"
       stroke-width="30px"
       stroke-linejoin="bevel"
       id="polyline5186" />
    <!-- Line -->
    <polyline
       points=" 4160,5387 4159,5387 4156,5387 4152,5387 4146,5387 4140,5387 4133,5389 4125,5392  4117,5397 4109,5404 4100,5414 4091,5428 4083,5444 4076,5460 4070,5473 4064,5483  4060,5491 4055,5498 4052,5505 4049,5513 4046,5524 4046,5538 4049,5555 4055,5574  4064,5589 4074,5602 4084,5612 4093,5620 4101,5625 4108,5630 4115,5634 4122,5637  4130,5640 4139,5643 4151,5647 4164,5650 4180,5652 4196,5652 4217,5647 4232,5639  4241,5630 4245,5622 4248,5614 4249,5606 4253,5596 4259,5584 4270,5568 4283,5551  4292,5539 4300,5529 4307,5522 4313,5518 4319,5515 4324,5514 4328,5514 4333,5513  4336,5512 4339,5510 4340,5505 4340,5499 4336,5489 4328,5478 4316,5466 4301,5455  4284,5445 4266,5436 4248,5427 4229,5419 4209,5411 4191,5405 4174,5398 4160,5394  4150,5390 4144,5388 4141,5387"
       stroke="#000000"
       stroke-width="30px"
       stroke-linejoin="bevel"
       id="polyline5188" />
    <!-- Line -->
    <polyline
       points=" 5670,5040 5672,5040 5676,5040 5683,5041 5691,5041 5701,5043 5711,5045 5722,5049  5732,5054 5742,5061 5752,5071 5760,5085 5767,5104 5770,5120 5768,5133 5765,5142  5760,5149 5755,5156 5752,5165 5750,5179 5753,5198 5760,5220 5770,5241 5782,5258  5794,5272 5807,5283 5819,5292 5831,5299 5840,5305 5847,5308 5850,5310"
       stroke="#000000"
       stroke-width="30px"
       stroke-linejoin="bevel"
       id="polyline5190" />
    <!-- Line -->
    <polyline
       points=" 5670,5040 5671,5042 5673,5047 5676,5055 5679,5066 5683,5078 5686,5092 5687,5106  5687,5121 5685,5138 5679,5156 5670,5175 5658,5193 5645,5207 5634,5216 5626,5222  5619,5226 5614,5228 5608,5229 5600,5232 5590,5237 5575,5244 5557,5254 5535,5265  5510,5277 5492,5286 5484,5291 5483,5294 5486,5295 5488,5296 5485,5298 5472,5301  5443,5305 5400,5310 5372,5312 5344,5314 5318,5315 5296,5315 5278,5316 5263,5315  5251,5315 5241,5314 5231,5314 5222,5313 5211,5312 5198,5312 5182,5311 5162,5311  5137,5310 5108,5310 5075,5310 5040,5310 5002,5310 4969,5310 4942,5309 4923,5308  4909,5307 4900,5306 4894,5304 4890,5303 4886,5301 4881,5300 4873,5299 4862,5299  4845,5300 4824,5302 4798,5305 4770,5310 4740,5317 4714,5325 4696,5331 4684,5337  4677,5343 4674,5347 4672,5351 4671,5355 4668,5360 4662,5366 4652,5373 4636,5381  4615,5390 4590,5400 4561,5410 4537,5418 4519,5423 4506,5425 4498,5426 4492,5426  4487,5426 4479,5427 4469,5428 4453,5432 4433,5438 4410,5445 4385,5454 4366,5461  4353,5468 4342,5474 4334,5479 4328,5483 4324,5487 4321,5489 4320,5490"
       stroke="#000000"
       stroke-width="30px"
       stroke-linejoin="bevel"
       id="polyline5192" />
    <!-- Line -->
    <polygon
       points=" 3812,4769 3829,4757 3846,4744 3861,4733 3873,4723 3883,4714 3891,4707 3899,4700  3906,4693 3914,4686 3924,4677 3935,4665 3947,4652 3960,4636 3973,4620 3987,4595  3990,4580 3985,4573 3976,4571 3966,4569 3960,4564 3962,4556 3973,4544 3987,4536  4001,4531 4012,4528 4020,4527 4026,4526 4033,4525 4042,4525 4056,4526 4076,4527  4102,4531 4124,4536 4142,4542 4156,4547 4165,4553 4171,4557 4176,4562 4180,4566  4186,4571 4195,4577 4207,4583 4223,4589 4241,4595 4258,4599 4270,4601 4279,4599  4285,4595 4288,4589 4290,4582 4292,4576 4294,4571 4297,4570 4303,4572 4309,4581  4316,4596 4320,4613 4323,4632 4323,4649 4321,4663 4318,4676 4313,4686 4309,4696  4304,4706 4301,4718 4298,4731 4298,4748 4300,4769 4306,4793 4316,4818 4329,4842  4342,4861 4355,4875 4367,4885 4378,4890 4387,4893 4396,4895 4405,4896 4415,4898  4425,4902 4437,4909 4450,4919 4464,4932 4477,4947 4492,4969 4496,4981 4493,4984  4486,4982 4478,4980 4473,4984 4473,4997 4481,5023 4489,5044 4497,5062 4504,5076  4509,5087 4514,5094 4518,5100 4522,5106 4527,5114 4534,5125 4542,5142 4551,5163  4562,5189 4572,5214 4579,5235 4584,5250 4587,5260 4588,5267 4589,5271 4589,5275  4590,5281 4592,5290 4596,5302 4600,5319 4606,5338 4614,5363 4620,5378 4624,5385  4628,5388 4632,5390 4634,5394 4634,5403 4630,5415 4626,5420 4621,5425 4616,5429  4611,5432 4606,5436 4602,5439 4598,5441 4595,5444 4591,5446 4587,5448 4582,5449  4577,5449 4571,5448 4564,5445 4557,5439 4550,5431 4542,5416 4536,5399 4532,5384  4531,5370 4532,5357 4533,5345 4534,5333 4534,5320 4534,5306 4531,5290 4525,5273  4518,5257 4514,5251 4510,5245 4506,5241 4502,5238 4499,5236 4495,5234 4493,5233  4490,5232 4488,5232 4485,5232 4483,5232 4481,5232 4480,5233 4478,5233 4476,5234  4473,5235 4471,5237 4469,5238 4466,5240 4463,5243 4461,5246 4458,5250 4455,5255  4453,5261 4450,5275 4449,5289 4449,5301 4450,5310 4451,5316 4453,5322 4455,5329  4457,5337 4459,5348 4462,5364 4465,5385 4469,5410 4473,5435 4478,5457 4482,5474  4487,5486 4492,5495 4497,5501 4502,5508 4505,5516 4508,5526 4509,5539 4507,5555  4501,5572 4494,5583 4486,5591 4477,5597 4469,5602 4461,5606 4454,5609 4447,5612  4441,5614 4434,5615 4427,5616 4419,5617 4411,5616 4402,5614 4392,5611 4382,5605  4372,5596 4362,5580 4355,5562 4352,5547 4351,5534 4352,5523 4354,5513 4356,5502  4358,5490 4360,5475 4359,5455 4358,5430 4356,5402 4354,5376 4353,5354 4354,5337  4357,5325 4360,5317 4364,5311 4368,5305 4370,5298 4370,5290 4367,5280 4358,5270  4344,5261 4328,5257 4312,5256 4297,5257 4284,5260 4273,5264 4264,5268 4255,5272  4246,5277 4236,5282 4224,5288 4210,5295 4194,5302 4175,5310 4155,5318 4132,5330  4116,5339 4108,5346 4106,5350 4106,5353 4107,5356 4106,5359 4102,5365 4092,5373  4078,5382 4066,5389 4057,5394 4050,5399 4046,5402 4043,5405 4041,5408 4040,5410  4037,5412 4033,5413 4027,5413 4019,5411 4010,5406 4001,5398 3993,5390 3987,5382  3981,5375 3977,5369 3973,5364 3969,5358 3966,5351 3963,5343 3961,5333 3962,5320  3965,5306 3972,5293 3979,5282 3986,5275 3990,5271 3993,5270 3995,5269 3998,5268  4003,5266 4012,5263 4026,5257 4047,5248 4074,5237 4100,5228 4125,5220 4147,5214  4165,5211 4180,5210 4193,5209 4204,5210 4215,5211 4227,5210 4242,5208 4258,5203  4278,5195 4299,5184 4320,5169 4335,5155 4346,5141 4354,5129 4359,5120 4362,5112  4363,5106 4362,5102 4361,5098 4360,5094 4358,5089 4357,5083 4355,5074 4353,5063  4351,5049 4348,5033 4344,5015 4336,4992 4327,4973 4318,4960 4311,4951 4304,4947  4298,4944 4291,4941 4284,4937 4276,4929 4265,4916 4252,4899 4239,4878 4225,4854  4216,4835 4211,4822 4210,4815 4210,4810 4211,4806 4210,4800 4206,4789 4198,4775  4187,4757 4178,4745 4171,4736 4165,4729 4162,4723 4161,4720 4161,4717 4162,4715  4163,4713 4162,4711 4160,4709 4154,4707 4145,4705 4131,4704 4114,4705 4094,4708  4076,4712 4059,4717 4046,4722 4035,4726 4027,4731 4019,4735 4011,4740 4002,4745  3992,4750 3978,4757 3961,4764 3942,4772 3921,4781 3891,4794 3873,4802 3867,4806  3866,4808 3866,4809 3862,4812 3851,4816 3832,4822 3814,4826 3801,4828 3794,4829  3791,4829 3787,4829 3782,4828 3772,4826 3760,4822 3753,4818 3747,4813 3743,4809  3739,4806 3737,4803 3735,4800 3733,4797 3732,4794 3731,4791 3731,4786 3732,4782  3735,4777 3743,4772 3751,4772 3755,4776 3758,4782 3762,4787 3770,4789 3786,4784 "
       fill="#000000"
       stroke="#000000"
       stroke-width="30px"
       stroke-linejoin="bevel"
       id="polygon5194" />
    <!-- Line -->
    <polyline
       points=" 3630,4777 3632,4775 3635,4772 3642,4766 3650,4758 3661,4749 3673,4738 3687,4726  3701,4714 3716,4701 3732,4687 3749,4673 3768,4659 3788,4644 3813,4626 3831,4613  3841,4606 3845,4603 3845,4602 3846,4601 3850,4599 3860,4594 3878,4586 3905,4576  3929,4568 3949,4561 3964,4556 3974,4553 3979,4550 3983,4548 3987,4546 3994,4544  4005,4542 4022,4540 4047,4539 4078,4540 4106,4542 4132,4546 4156,4550 4179,4555  4199,4561 4219,4567 4237,4573 4253,4579 4268,4584 4279,4589 4288,4592 4293,4594  4295,4595"
       stroke="#000000"
       stroke-width="30px"
       stroke-linejoin="bevel"
       id="polyline5196" />
    <!-- Line -->
    <polyline
       points=" 3552,4766 3553,4764 3557,4760 3562,4754 3570,4744 3581,4732 3593,4718 3607,4703  3622,4686 3638,4669 3655,4651 3673,4633 3693,4615 3715,4595 3739,4576 3764,4556  3792,4536 3816,4520 3835,4509 3848,4501 3857,4497 3862,4496 3866,4495 3870,4495  3875,4494 3883,4492 3895,4487 3912,4481 3933,4472 3957,4463 3984,4453 4005,4446  4020,4441 4029,4437 4034,4435 4037,4434 4040,4433 4044,4432 4052,4431 4065,4429  4082,4428 4102,4427 4125,4428 4141,4431 4150,4433 4154,4436 4156,4438 4157,4441  4160,4444 4169,4449 4183,4455 4203,4463 4224,4471 4242,4479 4258,4486 4271,4492  4284,4498 4295,4503 4304,4507 4309,4510 4312,4511"
       stroke="#000000"
       stroke-width="30px"
       stroke-linejoin="bevel"
       id="polyline5198" />
    <!-- Line -->
    <polyline
       points=" 4715,5584 4716,5582 4718,5577 4721,5570 4726,5560 4732,5549 4740,5537 4749,5525  4760,5512 4775,5498 4792,5484 4814,5470 4837,5458 4858,5448 4874,5442 4886,5438  4895,5435 4901,5434 4908,5432 4917,5431 4929,5429 4946,5427 4967,5425 4992,5423  5019,5424 5038,5428 5049,5434 5054,5442 5055,5450 5056,5458 5060,5465 5069,5469  5086,5469 5110,5463 5131,5453 5150,5441 5167,5427 5182,5411 5196,5396 5208,5379  5220,5364 5229,5350 5236,5340 5241,5333 5243,5330"
       stroke="#000000"
       stroke-width="30px"
       stroke-linejoin="bevel"
       id="polyline5200" />
    <!-- Line -->
    <polyline
       points=" 4320,5588 4322,5588 4327,5589 4335,5590 4347,5591 4361,5592 4377,5593 4394,5593  4412,5592 4431,5589 4451,5584 4472,5577 4495,5566 4518,5552 4539,5535 4557,5518  4569,5503 4577,5490 4581,5479 4582,5470 4582,5462 4581,5454 4582,5444 4586,5433  4593,5420 4604,5403 4620,5385 4639,5366 4659,5349 4676,5336 4688,5326 4696,5320  4700,5316 4701,5315 4701,5314 4702,5314 4704,5313 4710,5312 4722,5309 4740,5305  4767,5299 4800,5294 4828,5291 4856,5288 4881,5287 4902,5286 4920,5286 4934,5286  4945,5286 4955,5287 4964,5287 4972,5288 4982,5289 4994,5290 5009,5291 5027,5292  5050,5293 5077,5295 5107,5296 5139,5298 5178,5301 5210,5304 5234,5306 5250,5308  5259,5310 5264,5311 5267,5312 5269,5314 5274,5315 5282,5317 5295,5319 5315,5322  5342,5326 5372,5330 5402,5334 5428,5337 5447,5340 5461,5341 5470,5343 5475,5343  5479,5344 5482,5345 5487,5345 5495,5346 5508,5348 5526,5349 5548,5352 5574,5354  5603,5356 5626,5358 5642,5360 5651,5361 5655,5362 5657,5362 5658,5363 5662,5363  5671,5363 5687,5363 5710,5363 5739,5362 5765,5360 5790,5358 5813,5356 5833,5354  5852,5351 5870,5348 5887,5346 5902,5343 5916,5341 5927,5339 5934,5337 5939,5336  5941,5336"
       stroke="#000000"
       stroke-width="75px"
       stroke-linejoin="bevel"
       id="polyline5202" />
    <!-- Line -->
    <polyline
       points=" 3969,6717 3971,6717 3975,6715 3983,6714 3994,6711 4008,6707 4024,6703 4042,6698  4061,6693 4081,6687 4102,6681 4123,6674 4145,6666 4168,6657 4191,6647 4215,6636  4243,6622 4264,6609 4276,6599 4282,6592 4283,6587 4281,6582 4279,6578 4280,6573  4285,6567 4295,6559 4313,6550 4336,6540 4361,6532 4383,6527 4400,6525 4412,6526  4422,6527 4429,6530 4436,6532 4445,6534 4457,6535 4473,6534 4493,6531 4514,6527  4530,6523 4544,6519 4553,6516 4559,6514 4563,6514 4565,6515 4566,6515 4566,6516  4567,6516 4569,6514 4572,6510 4576,6503 4581,6493 4586,6479 4590,6463 4593,6447  4594,6433 4596,6419 4597,6407 4599,6397 4600,6386 4600,6377 4601,6366 4600,6356  4598,6345 4594,6334 4587,6325 4578,6318 4564,6316 4551,6319 4539,6326 4530,6334  4522,6344 4516,6354 4509,6364 4501,6374 4490,6385 4476,6396 4458,6406 4437,6415  4414,6422 4397,6425 4386,6424 4381,6422 4379,6418 4377,6414 4372,6410 4363,6408  4348,6408 4328,6410 4308,6413 4293,6417 4284,6421 4278,6425 4275,6428 4273,6432  4268,6435 4259,6439 4245,6441 4227,6443 4206,6442 4191,6437 4183,6429 4178,6421  4174,6413 4167,6408 4156,6407 4143,6415 4135,6427 4131,6441 4132,6453 4136,6463  4142,6473 4147,6483 4150,6494 4149,6508 4141,6525 4126,6544 4109,6558 4089,6569  4070,6577 4050,6583 4030,6587 4011,6590 3993,6593 3977,6594 3964,6595 3957,6596  3954,6596 3953,6596"
       fill="#000000"
       stroke="#000000"
       stroke-width="30px"
       stroke-linejoin="bevel"
       id="polyline5204" />
    <!-- Line -->
    <polyline
       points=" 4680,6480 4682,6480 4686,6480 4693,6479 4701,6479 4711,6477 4721,6475 4732,6471  4742,6466 4752,6459 4762,6449 4770,6435 4777,6416 4781,6397 4782,6378 4781,6360  4778,6342 4776,6326 4773,6313 4771,6305 4770,6301 4770,6300"
       stroke="#000000"
       stroke-width="30px"
       stroke-linejoin="bevel"
       id="polyline5206" />
    <!-- Line -->
    <polyline
       points=" 4808,6275 4808,6276 4809,6279 4811,6287 4814,6300 4817,6315 4822,6330 4829,6346  4837,6362 4847,6377 4860,6390 4872,6398 4883,6403 4891,6406 4897,6407 4902,6407  4906,6407 4909,6406 4914,6405 4920,6403 4928,6401 4939,6396 4950,6390 4960,6382  4968,6374 4974,6367 4977,6362 4979,6359 4980,6356 4981,6353 4982,6349 4984,6342  4987,6332 4991,6318 4995,6300 4999,6277 5000,6256 5001,6237 5000,6219 4999,6203  4998,6188 4996,6177 4996,6169 4995,6166 4995,6165"
       stroke="#000000"
       stroke-width="30px"
       stroke-linejoin="bevel"
       id="polyline5208" />
    <!-- Line -->
    <polyline
       points=" 7990,4917 7987,4920 7980,4927 7971,4936 7960,4948 7949,4962 7939,4975 7932,4990  7928,5005 7928,5021 7933,5032 7940,5042 7949,5049 7960,5054 7972,5058 7984,5061  7996,5063 8006,5065 8014,5066 8019,5067 8022,5067"
       stroke="#000000"
       stroke-width="60px"
       stroke-linejoin="bevel"
       id="polyline5210" />
    <!-- Line -->
    <polyline
       points=" 10547,4251 10548,4251 10552,4253 10560,4258 10571,4265 10583,4273 10596,4283  10607,4296 10618,4312 10624,4326 10627,4337 10629,4344 10630,4348 10629,4351  10629,4354 10628,4358 10627,4366 10624,4377 10620,4391 10612,4408 10603,4422  10594,4433 10585,4442 10576,4450 10570,4455 10567,4458 10566,4458"
       stroke="#000000"
       stroke-width="60px"
       stroke-linejoin="bevel"
       id="polyline5212" />
    <!-- Line -->
    <defs
       id="defs5217">
      <clipPath
         id="cp1">
        <path
           clip-rule="evenodd"
           d="M 340,339 H 16195 V 12457 H 340 z   M 2713,6748 3028,6535 2903,6894 3162,6428 3098,6378z"
           id="path5214" />
      </clipPath>
    </defs>
    <polyline
       points=" 3105,6435 405,9945 4050,12015"
       clip-path="url(#cp1)"
       stroke="#000000"
       stroke-width="75px"
       id="polyline5219" />
    <!-- Backward arrow to point 3105,6435 -->
    <polyline
       points=" 2713,6748 3028,6535 2903,6894"
       stroke="#000000"
       stroke-width="75px"
       stroke-miterlimit="8"
       id="polyline5221" />
    <!-- Line -->
    <defs
       id="defs5226">
      <clipPath
         id="cp2">
        <path
           clip-rule="evenodd"
           d="M 340,339 H 16195 V 12457 H 340 z   M 7496,8143 7295,7821 7649,7958 7192,7683 7140,7745z"
           id="path5223" />
      </clipPath>
    </defs>
    <polyline
       points=" 7197,7740 9810,9900 8235,10980"
       clip-path="url(#cp2)"
       stroke="#000000"
       stroke-width="75px"
       id="polyline5228" />
    <!-- Backward arrow to point 7197,7740 -->
    <polyline
       points=" 7496,8143 7295,7821 7649,7958"
       stroke="#000000"
       stroke-width="75px"
       stroke-miterlimit="8"
       id="polyline5230" />
    <!-- Line -->
    <defs
       id="defs5235">
      <clipPath
         id="cp3">
        <path
           clip-rule="evenodd"
           d="M 340,339 H 16195 V 12457 H 340 z   M 13037,5644 13307,5378 13251,5753 13419,5247 13347,5211z"
           id="path5232" />
      </clipPath>
    </defs>
    <polyline
       points=" 13365,5265 11025,9855 8235,11025"
       clip-path="url(#cp3)"
       stroke="#000000"
       stroke-width="75px"
       id="polyline5237" />
    <!-- Backward arrow to point 13365,5265 -->
    <polyline
       points=" 13037,5644 13307,5378 13251,5753"
       stroke="#000000"
       stroke-width="75px"
       stroke-miterlimit="8"
       id="polyline5239" />
    <!-- Line -->
    <defs
       id="defs5244">
      <clipPath
         id="cp4">
        <path
           clip-rule="evenodd"
           d="M 340,339 H 16195 V 12457 H 340 z   M 14377,3606 14425,3229 14613,3559 14432,3057 14352,3073z"
           id="path5241" />
      </clipPath>
    </defs>
    <polyline
       points=" 14400,3105 15750,9900 14400,11880"
       clip-path="url(#cp4)"
       stroke="#000000"
       stroke-width="75px"
       id="polyline5246" />
    <!-- Backward arrow to point 14400,3105 -->
    <polyline
       points=" 14377,3606 14425,3229 14613,3559"
       stroke="#000000"
       stroke-width="75px"
       stroke-miterlimit="8"
       id="polyline5248" />
    <!-- Text -->
    <text
       xml:space="preserve"
       x="14265"
       y="12105"
       fill="#000000"
       font-family="Helvetica"
       font-style="normal"
       font-weight="bold"
       font-size="504"
       text-anchor="end"
       id="text5250">Snowpack-app</text>
    <!-- Text -->
    <text
       xml:space="preserve"
       x="8100"
       y="11115"
       fill="#000000"
       font-family="Helvetica"
       font-style="normal"
       font-weight="bold"
       font-size="504"
       text-anchor="end"
       id="text5252">MeteoIO</text>
    <!-- Text -->
    <text
       xml:space="preserve"
       x="4185"
       y="12240"
       fill="#000000"
       font-family="Helvetica"
       font-style="normal"
       font-weight="bold"
       font-size="504"
       text-anchor="start"
       id="text5254">libSnowpack</text>
  </g>
  <metadata
     id="metadata5344">
    <rdf:RDF>
      <cc:Work
         rdf:about="">
        <dc:title>Library analogy</dc:title>
        <dc:date>2024-04-26</dc:date>
        <dc:creator>
          <cc:Agent>
            <dc:title>Mathias Bavay</dc:title>
          </cc:Agent>
        </dc:creator>
        <dc:publisher>
          <cc:Agent>
            <dc:title>SLF</dc:title>
          </cc:Agent>
        </dc:publisher>
        <dc:source>https://code.wsl.ch/snow-models/meteoio</dc:source>
        <cc:license
           rdf:resource="http://creativecommons.org/licenses/by-sa/4.0/" />
      </cc:Work>
      <cc:License
         rdf:about="http://creativecommons.org/licenses/by-sa/4.0/">
        <cc:permits
           rdf:resource="http://creativecommons.org/ns#Reproduction" />
        <cc:permits
           rdf:resource="http://creativecommons.org/ns#Distribution" />
        <cc:requires
           rdf:resource="http://creativecommons.org/ns#Notice" />
        <cc:requires
           rdf:resource="http://creativecommons.org/ns#Attribution" />
        <cc:permits
           rdf:resource="http://creativecommons.org/ns#DerivativeWorks" />
        <cc:requires
           rdf:resource="http://creativecommons.org/ns#ShareAlike" />
      </cc:License>
    </rdf:RDF>
  </metadata>
</svg>
