<?xml version="1.0" encoding="UTF-8" standalone="no"?>
<!-- generated by Grace-5.1.25 -->

<svg
   xml:space="preserve"
   width="10.217991in"
   height="7.8771176in"
   viewBox="0 0 735.69534 567.15247"
   version="1.1"
   id="svg698"
   sodipodi:docname="matrix_inv.svg"
   inkscape:version="1.1.2 (0a00cf5339, 2022-02-04)"
   xmlns:inkscape="http://www.inkscape.org/namespaces/inkscape"
   xmlns:sodipodi="http://sodipodi.sourceforge.net/DTD/sodipodi-0.dtd"
   xmlns="http://www.w3.org/2000/svg"
   xmlns:svg="http://www.w3.org/2000/svg"
   xmlns:rdf="http://www.w3.org/1999/02/22-rdf-syntax-ns#"
   xmlns:cc="http://creativecommons.org/ns#"
   xmlns:dc="http://purl.org/dc/elements/1.1/"><title
   id="title1523">Scaling of the MeteoIO's internal matrix inversion code</title><defs
   id="defs702" /><sodipodi:namedview
   id="namedview700"
   pagecolor="#ffffff"
   bordercolor="#666666"
   borderopacity="1.0"
   inkscape:pageshadow="2"
   inkscape:pageopacity="0.0"
   inkscape:pagecheckerboard="0"
   inkscape:document-units="in"
   showgrid="false"
   fit-margin-top="0"
   fit-margin-left="0"
   fit-margin-right="0"
   fit-margin-bottom="0"
   inkscape:zoom="0.61887255"
   inkscape:cx="519.49307"
   inkscape:cy="369.2198"
   inkscape:window-width="1920"
   inkscape:window-height="1005"
   inkscape:window-x="0"
   inkscape:window-y="0"
   inkscape:window-maximized="1"
   inkscape:current-layer="svg698" />
 <g
   transform="matrix(1,0,0,-1,-6.119024,582.318)"
   id="g696">
  <g
   style="fill:none;stroke:#b4b4b4;stroke-width:1.836;stroke-linecap:butt;stroke-linejoin:miter;stroke-dasharray:2, 6"
   id="g4">
   <path
   d="m 61.2,62.0316 34.6881,22.2314 24.6116,15.7735 19.0903,12.2348 15.5979,9.9966 13.1878,8.452 11.4238,7.3215 10.0765,6.4579 9.0137,5.7769 8.154,5.2258 7.4439,4.7708 6.8478,4.3887 6.34,4.0633 5.9025,3.7828 5.5213,3.5386 5.1866,3.3241 4.8899,3.1339 4.6256,2.9645 4.3882,2.8124 4.1741,2.6751 3.9798,2.5507 3.8029,2.4373 3.6411,2.3335 3.4923,2.2382 3.3554,2.1505 3.2288,2.0693 3.1113,1.994 3.0021,1.924 2.9003,1.8588 2.8052,1.7979 2.7162,1.7407 2.6325,1.6872 2.554,1.6368 2.4799,1.5894 2.4101,1.5446 2.344,1.5023 2.2815,1.4622 2.2223,1.4242 2.1659,1.3882 2.1125,1.3539 2.0616,1.3212 2.0131,1.2902 1.9668,1.2605 1.9225,1.2322 1.8804,1.205 1.8399,1.1792 1.8011,1.1544 1.764,1.1305 1.7284,1.1077 1.6941,1.0858 8.0013,5.128 7.3166,4.6891 6.7398,4.3195 6.2474,4.0039 5.8221,3.7314 5.4509,3.4935 5.1244,3.2842 4.8347,3.0985 4.5761,2.9328 4.3436,2.7838"
   id="path2" />
  </g>
  <g
   style="fill:none;stroke:#b4b4b4;stroke-width:1.836;stroke-linecap:butt;stroke-linejoin:miter;stroke-dasharray:9, 6"
   id="g8">
   <path
   d="m 80.887,61.1388 15.0011,11.537 24.6116,18.9281 19.0903,14.6818 15.5979,11.9959 13.1878,10.1424 11.4238,8.7858 10.0765,7.7496 9.0137,6.9322 8.154,6.271 7.4439,5.7249 6.8478,5.2664 6.34,4.876 5.9025,4.5394 5.5213,4.2463 5.1866,3.9889 4.8899,3.7607 4.6256,3.5574 4.3882,3.3749 4.1741,3.2101 3.9798,3.0608 3.8029,2.9247 3.6411,2.8003 3.4923,2.6859 3.3554,2.5805 3.2288,2.4831 3.1113,2.3929 3.0021,2.3088 2.9003,2.2306 2.8052,2.1574 2.7162,2.0889 2.6325,2.0246 2.554,1.9642 2.4799,1.9073 2.4101,1.8535 2.344,1.8027 2.2815,1.7547 2.2223,1.709 2.1659,1.6658 2.1125,1.6247 2.0616,1.5855 2.0131,1.5482 1.9668,1.5126 1.9225,1.4786 1.8804,1.4461 1.8399,1.415 1.8011,1.3852 1.764,1.3567 1.7284,1.3292 1.6941,1.303 8.0013,6.1535 7.3166,5.627 6.7398,5.1834 6.2474,4.8047 5.8221,4.4776 5.4509,4.1922 5.1244,3.9411 4.8347,3.7182 4.5761,3.5193 4.3436,3.3406 18.9207,14.5514 15.4846,11.9088 13.1069,10.0801 11.363,8.739 19.0051,14.6163 15.541,11.9522 13.1472,10.1112 11.3933,8.7623 10.0528,7.7314 8.8239,6.7861 59.2997,45.6059 34.6882,26.6777 103.0016,79.2159"
   id="path6" />
  </g>
  <g
   style="fill:none;stroke:#0000ff;stroke-width:2.754;stroke-linecap:butt;stroke-linejoin:miter;stroke-dasharray:none"
   id="g12">
   <path
   d="m 61.2,65.8292 34.6881,18.5319 24.6116,15.9887 19.0903,11.9236 15.5979,10.6078 13.1878,8.4401 11.4238,10.0039 10.0765,6.2204 9.0137,5.4994 8.154,6.0461 7.4439,7.2674 6.8478,5.428 6.34,2.3442 5.9025,4.7127 5.5213,4.165 5.1866,3.4057 4.8899,3.6721 4.6256,4.1121 4.3882,3.8563 4.1741,1.9033 3.9798,3.8878 3.8029,1.5183 3.6411,2.6272 3.4923,2.388 3.3554,2.6076 3.2288,2.5385 3.1113,1.9244 3.0021,2.7204 2.9003,2.3662 2.8052,1.4914 2.7162,2.4709 2.6325,1.7074 2.554,2.0206 2.4799,2.2405 2.4101,1.5532 2.344,2.0617 2.2815,1.6096 2.2223,1.5275 2.1659,1.5162 2.1125,2.6095 2.0616,0.7397 2.0131,1.794 1.9668,1.436 1.9225,1.4457 1.8804,1.3479 1.8399,1.5943 1.8011,1.3378 1.764,1.5829 1.7284,1.2053 1.6941,3.37 8.0013,5.6531 7.3166,5.7546 6.7398,4.715 6.2474,4.8121 5.8221,5.6975 5.4509,4.5315 5.1244,3.6225 4.8347,3.5551 4.5761,3.521 4.3436,4.32 18.9207,14.8845 15.4846,12.0346 13.1069,12.368 11.363,7.7031 19.0051,16.618 15.541,12.5533 13.1472,11.1331 11.3933,9.6364 10.0528,8.7316 8.8239,5.7123 34.6881,24.2359 24.6116,23.9908 34.6882,29.4697 103.0016,84.0157"
   id="path10" />
  </g>
  <g
   style="fill:none;stroke:#000000;stroke-width:0.918;stroke-linecap:butt;stroke-linejoin:miter;stroke-dasharray:none"
   id="g18">
   <path
   d="M 61.2,61.2 H 730.5585"
   id="path14" />
   <path
   d="M 61.2,581.4 H 730.5585"
   id="path16" />
  </g>
  <g
   style="fill:none;stroke:#000000;stroke-width:1.836;stroke-linecap:butt;stroke-linejoin:miter;stroke-dasharray:none"
   id="g172">
   <path
   d="m 61.2,61.2 v 6.12"
   id="path20" />
   <path
   d="m 61.2,581.4 v -6.12"
   id="path22" />
   <path
   d="m 80.2903,61.2 v 6.12"
   id="path24" />
   <path
   d="m 80.2903,581.4 v -6.12"
   id="path26" />
   <path
   d="m 95.8881,61.2 v 6.12"
   id="path28" />
   <path
   d="m 95.8881,581.4 v -6.12"
   id="path30" />
   <path
   d="m 109.0759,61.2 v 6.12"
   id="path32" />
   <path
   d="m 109.0759,581.4 v -6.12"
   id="path34" />
   <path
   d="m 120.4997,61.2 v 6.12"
   id="path36" />
   <path
   d="m 120.4997,581.4 v -6.12"
   id="path38" />
   <path
   d="m 130.5763,61.2 v 6.12"
   id="path40" />
   <path
   d="m 130.5763,581.4 v -6.12"
   id="path42" />
   <path
   d="m 139.59,61.2 v 6.12"
   id="path44" />
   <path
   d="m 139.59,581.4 v -6.12"
   id="path46" />
   <path
   d="m 198.8897,61.2 v 6.12"
   id="path48" />
   <path
   d="m 198.8897,581.4 v -6.12"
   id="path50" />
   <path
   d="m 233.5779,61.2 v 6.12"
   id="path52" />
   <path
   d="m 233.5779,581.4 v -6.12"
   id="path54" />
   <path
   d="m 258.1895,61.2 v 6.12"
   id="path56" />
   <path
   d="m 258.1895,581.4 v -6.12"
   id="path58" />
   <path
   d="m 277.2797,61.2 v 6.12"
   id="path60" />
   <path
   d="m 277.2797,581.4 v -6.12"
   id="path62" />
   <path
   d="m 292.8776,61.2 v 6.12"
   id="path64" />
   <path
   d="m 292.8776,581.4 v -6.12"
   id="path66" />
   <path
   d="m 306.0654,61.2 v 6.12"
   id="path68" />
   <path
   d="m 306.0654,581.4 v -6.12"
   id="path70" />
   <path
   d="m 317.4892,61.2 v 6.12"
   id="path72" />
   <path
   d="m 317.4892,581.4 v -6.12"
   id="path74" />
   <path
   d="m 327.5657,61.2 v 6.12"
   id="path76" />
   <path
   d="m 327.5657,581.4 v -6.12"
   id="path78" />
   <path
   d="m 336.5795,61.2 v 6.12"
   id="path80" />
   <path
   d="m 336.5795,581.4 v -6.12"
   id="path82" />
   <path
   d="m 395.8792,61.2 v 6.12"
   id="path84" />
   <path
   d="m 395.8792,581.4 v -6.12"
   id="path86" />
   <path
   d="m 430.5674,61.2 v 6.12"
   id="path88" />
   <path
   d="m 430.5674,581.4 v -6.12"
   id="path90" />
   <path
   d="m 455.179,61.2 v 6.12"
   id="path92" />
   <path
   d="m 455.179,581.4 v -6.12"
   id="path94" />
   <path
   d="m 474.2692,61.2 v 6.12"
   id="path96" />
   <path
   d="m 474.2692,581.4 v -6.12"
   id="path98" />
   <path
   d="m 489.8671,61.2 v 6.12"
   id="path100" />
   <path
   d="m 489.8671,581.4 v -6.12"
   id="path102" />
   <path
   d="m 503.0549,61.2 v 6.12"
   id="path104" />
   <path
   d="m 503.0549,581.4 v -6.12"
   id="path106" />
   <path
   d="m 514.4787,61.2 v 6.12"
   id="path108" />
   <path
   d="m 514.4787,581.4 v -6.12"
   id="path110" />
   <path
   d="m 524.5552,61.2 v 6.12"
   id="path112" />
   <path
   d="m 524.5552,581.4 v -6.12"
   id="path114" />
   <path
   d="m 533.569,61.2 v 6.12"
   id="path116" />
   <path
   d="m 533.569,581.4 v -6.12"
   id="path118" />
   <path
   d="m 592.8687,61.2 v 6.12"
   id="path120" />
   <path
   d="m 592.8687,581.4 v -6.12"
   id="path122" />
   <path
   d="m 627.5569,61.2 v 6.12"
   id="path124" />
   <path
   d="m 627.5569,581.4 v -6.12"
   id="path126" />
   <path
   d="m 652.1685,61.2 v 6.12"
   id="path128" />
   <path
   d="m 652.1685,581.4 v -6.12"
   id="path130" />
   <path
   d="m 671.2587,61.2 v 6.12"
   id="path132" />
   <path
   d="m 671.2587,581.4 v -6.12"
   id="path134" />
   <path
   d="m 686.8566,61.2 v 6.12"
   id="path136" />
   <path
   d="m 686.8566,581.4 v -6.12"
   id="path138" />
   <path
   d="m 700.0444,61.2 v 6.12"
   id="path140" />
   <path
   d="m 700.0444,581.4 v -6.12"
   id="path142" />
   <path
   d="m 711.4682,61.2 v 6.12"
   id="path144" />
   <path
   d="m 711.4682,581.4 v -6.12"
   id="path146" />
   <path
   d="m 721.5447,61.2 v 6.12"
   id="path148" />
   <path
   d="m 721.5447,581.4 v -6.12"
   id="path150" />
   <path
   d="m 730.5585,61.2 v 6.12"
   id="path152" />
   <path
   d="m 730.5585,581.4 v -6.12"
   id="path154" />
   <path
   d="M 139.59,61.2 V 73.44"
   id="path156" />
   <path
   d="M 139.59,581.4 V 569.16"
   id="path158" />
   <path
   d="M 336.5795,61.2 V 73.44"
   id="path160" />
   <path
   d="M 336.5795,581.4 V 569.16"
   id="path162" />
   <path
   d="M 533.569,61.2 V 73.44"
   id="path164" />
   <path
   d="M 533.569,581.4 V 569.16"
   id="path166" />
   <path
   d="M 730.5585,61.2 V 73.44"
   id="path168" />
   <path
   d="M 730.5585,581.4 V 569.16"
   id="path170" />
  </g>
  <g
   style="fill:#000000;fill-rule:nonzero"
   id="g194">
   <text
   style="font-style:normal;font-weight:bold;font-size:612px;font-family:Times, 'Nimbus Roman No9 L'"
   transform="matrix(0.028,0,0,-0.028,128.59,36.7984)"
   id="text174">10</text>
   <text
   style="font-style:normal;font-weight:bold;font-size:612px;font-family:Times, 'Nimbus Roman No9 L'"
   transform="matrix(0.0198,0,0,-0.0198,145.59,47.08)"
   id="text176">1</text>
   <text
   style="font-style:normal;font-weight:bold;font-size:612px;font-family:Times, 'Nimbus Roman No9 L'"
   transform="matrix(0.028,0,0,-0.028,325.0795,36.7984)"
   id="text178">10</text>
   <text
   style="font-style:normal;font-weight:bold;font-size:612px;font-family:Times, 'Nimbus Roman No9 L'"
   transform="matrix(0.0198,0,0,-0.0198,342.0795,47.08)"
   id="text180">2</text>
   <text
   style="font-style:normal;font-weight:bold;font-size:612px;font-family:Times, 'Nimbus Roman No9 L'"
   transform="matrix(0.028,0,0,-0.028,522.569,36.7984)"
   id="text182">10</text>
   <text
   style="font-style:normal;font-weight:bold;font-size:612px;font-family:Times, 'Nimbus Roman No9 L'"
   transform="matrix(0.0198,0,0,-0.0198,539.569,47.08)"
   id="text184">3</text>
   <text
   style="font-style:normal;font-weight:bold;font-size:612px;font-family:Times, 'Nimbus Roman No9 L'"
   transform="matrix(0.028,0,0,-0.028,719.0585,36.7984)"
   id="text186">10</text>
   <text
   style="font-style:normal;font-weight:bold;font-size:612px;font-family:Times, 'Nimbus Roman No9 L'"
   transform="matrix(0.0198,0,0,-0.0198,736.0585,47.08)"
   id="text188">4</text>
   <text
   style="font-style:normal;font-weight:bold;font-size:612px;font-family:Times, 'Nimbus Roman No9 L'"
   transform="matrix(0.028,0,0,-0.028,321.3792,18.6784)"
   id="text190">square matrix size </text>
   <text
   style="font-style:normal;font-weight:bold;font-size:612px;font-family:Times, 'Nimbus Roman No9 L'"
   transform="matrix(0.0333,0,0,-0.0333,459.3792,18.6784)"
   id="text192">n</text>
  </g>
  <g
   style="fill:none;stroke:#000000;stroke-width:0.918;stroke-linecap:butt;stroke-linejoin:miter;stroke-dasharray:none"
   id="g200">
   <path
   d="M 61.2,61.2 V 581.4"
   id="path196" />
   <path
   d="M 730.5585,61.2 V 581.4"
   id="path198" />
  </g>
  <g
   style="fill:none;stroke:#000000;stroke-width:1.836;stroke-linecap:butt;stroke-linejoin:miter;stroke-dasharray:none"
   id="g614">
   <path
   d="m 61.2,61.2 h 6.12"
   id="path202" />
   <path
   d="m 730.5585,61.2 h -6.12"
   id="path204" />
   <path
   d="m 61.2,70.0926 h 6.12"
   id="path206" />
   <path
   d="m 730.5585,70.0926 h -6.12"
   id="path208" />
   <path
   d="m 61.2,76.402 h 6.12"
   id="path210" />
   <path
   d="m 730.5585,76.402 h -6.12"
   id="path212" />
   <path
   d="m 61.2,81.2959 h 6.12"
   id="path214" />
   <path
   d="m 730.5585,81.2959 h -6.12"
   id="path216" />
   <path
   d="m 61.2,85.2945 h 6.12"
   id="path218" />
   <path
   d="m 730.5585,85.2945 h -6.12"
   id="path220" />
   <path
   d="m 61.2,88.6753 h 6.12"
   id="path222" />
   <path
   d="m 730.5585,88.6753 h -6.12"
   id="path224" />
   <path
   d="m 61.2,91.6039 h 6.12"
   id="path226" />
   <path
   d="m 730.5585,91.6039 h -6.12"
   id="path228" />
   <path
   d="m 61.2,94.1871 h 6.12"
   id="path230" />
   <path
   d="m 730.5585,94.1871 h -6.12"
   id="path232" />
   <path
   d="m 61.2,96.4978 h 6.12"
   id="path234" />
   <path
   d="m 730.5585,96.4978 h -6.12"
   id="path236" />
   <path
   d="m 61.2,111.6998 h 6.12"
   id="path238" />
   <path
   d="m 730.5585,111.6998 h -6.12"
   id="path240" />
   <path
   d="m 61.2,120.5924 h 6.12"
   id="path242" />
   <path
   d="m 730.5585,120.5924 h -6.12"
   id="path244" />
   <path
   d="m 61.2,126.9018 h 6.12"
   id="path246" />
   <path
   d="m 730.5585,126.9018 h -6.12"
   id="path248" />
   <path
   d="m 61.2,131.7957 h 6.12"
   id="path250" />
   <path
   d="m 730.5585,131.7957 h -6.12"
   id="path252" />
   <path
   d="m 61.2,135.7943 h 6.12"
   id="path254" />
   <path
   d="m 730.5585,135.7943 h -6.12"
   id="path256" />
   <path
   d="m 61.2,139.1751 h 6.12"
   id="path258" />
   <path
   d="m 730.5585,139.1751 h -6.12"
   id="path260" />
   <path
   d="m 61.2,142.1037 h 6.12"
   id="path262" />
   <path
   d="m 730.5585,142.1037 h -6.12"
   id="path264" />
   <path
   d="m 61.2,144.6869 h 6.12"
   id="path266" />
   <path
   d="m 730.5585,144.6869 h -6.12"
   id="path268" />
   <path
   d="m 61.2,146.9977 h 6.12"
   id="path270" />
   <path
   d="m 730.5585,146.9977 h -6.12"
   id="path272" />
   <path
   d="m 61.2,162.1996 h 6.12"
   id="path274" />
   <path
   d="m 730.5585,162.1996 h -6.12"
   id="path276" />
   <path
   d="m 61.2,171.0922 h 6.12"
   id="path278" />
   <path
   d="m 730.5585,171.0922 h -6.12"
   id="path280" />
   <path
   d="m 61.2,177.4016 h 6.12"
   id="path282" />
   <path
   d="m 730.5585,177.4016 h -6.12"
   id="path284" />
   <path
   d="m 61.2,182.2955 h 6.12"
   id="path286" />
   <path
   d="m 730.5585,182.2955 h -6.12"
   id="path288" />
   <path
   d="m 61.2,186.2941 h 6.12"
   id="path290" />
   <path
   d="m 730.5585,186.2941 h -6.12"
   id="path292" />
   <path
   d="m 61.2,189.6749 h 6.12"
   id="path294" />
   <path
   d="m 730.5585,189.6749 h -6.12"
   id="path296" />
   <path
   d="m 61.2,192.6035 h 6.12"
   id="path298" />
   <path
   d="m 730.5585,192.6035 h -6.12"
   id="path300" />
   <path
   d="m 61.2,195.1867 h 6.12"
   id="path302" />
   <path
   d="m 730.5585,195.1867 h -6.12"
   id="path304" />
   <path
   d="m 61.2,197.4975 h 6.12"
   id="path306" />
   <path
   d="m 730.5585,197.4975 h -6.12"
   id="path308" />
   <path
   d="m 61.2,212.6994 h 6.12"
   id="path310" />
   <path
   d="m 730.5585,212.6994 h -6.12"
   id="path312" />
   <path
   d="m 61.2,221.592 h 6.12"
   id="path314" />
   <path
   d="m 730.5585,221.592 h -6.12"
   id="path316" />
   <path
   d="m 61.2,227.9014 h 6.12"
   id="path318" />
   <path
   d="m 730.5585,227.9014 h -6.12"
   id="path320" />
   <path
   d="m 61.2,232.7953 h 6.12"
   id="path322" />
   <path
   d="m 730.5585,232.7953 h -6.12"
   id="path324" />
   <path
   d="m 61.2,236.7939 h 6.12"
   id="path326" />
   <path
   d="m 730.5585,236.7939 h -6.12"
   id="path328" />
   <path
   d="m 61.2,240.1747 h 6.12"
   id="path330" />
   <path
   d="m 730.5585,240.1747 h -6.12"
   id="path332" />
   <path
   d="m 61.2,243.1033 h 6.12"
   id="path334" />
   <path
   d="m 730.5585,243.1033 h -6.12"
   id="path336" />
   <path
   d="m 61.2,245.6865 h 6.12"
   id="path338" />
   <path
   d="m 730.5585,245.6865 h -6.12"
   id="path340" />
   <path
   d="m 61.2,247.9973 h 6.12"
   id="path342" />
   <path
   d="m 730.5585,247.9973 h -6.12"
   id="path344" />
   <path
   d="m 61.2,263.1992 h 6.12"
   id="path346" />
   <path
   d="m 730.5585,263.1992 h -6.12"
   id="path348" />
   <path
   d="m 61.2,272.0918 h 6.12"
   id="path350" />
   <path
   d="m 730.5585,272.0918 h -6.12"
   id="path352" />
   <path
   d="m 61.2,278.4012 h 6.12"
   id="path354" />
   <path
   d="m 730.5585,278.4012 h -6.12"
   id="path356" />
   <path
   d="m 61.2,283.2951 h 6.12"
   id="path358" />
   <path
   d="m 730.5585,283.2951 h -6.12"
   id="path360" />
   <path
   d="m 61.2,287.2937 h 6.12"
   id="path362" />
   <path
   d="m 730.5585,287.2937 h -6.12"
   id="path364" />
   <path
   d="m 61.2,290.6745 h 6.12"
   id="path366" />
   <path
   d="m 730.5585,290.6745 h -6.12"
   id="path368" />
   <path
   d="m 61.2,293.6031 h 6.12"
   id="path370" />
   <path
   d="m 730.5585,293.6031 h -6.12"
   id="path372" />
   <path
   d="m 61.2,296.1863 h 6.12"
   id="path374" />
   <path
   d="m 730.5585,296.1863 h -6.12"
   id="path376" />
   <path
   d="m 61.2,298.4971 h 6.12"
   id="path378" />
   <path
   d="m 730.5585,298.4971 h -6.12"
   id="path380" />
   <path
   d="m 61.2,313.699 h 6.12"
   id="path382" />
   <path
   d="m 730.5585,313.699 h -6.12"
   id="path384" />
   <path
   d="m 61.2,322.5916 h 6.12"
   id="path386" />
   <path
   d="m 730.5585,322.5916 h -6.12"
   id="path388" />
   <path
   d="m 61.2,328.901 h 6.12"
   id="path390" />
   <path
   d="m 730.5585,328.901 h -6.12"
   id="path392" />
   <path
   d="m 61.2,333.7949 h 6.12"
   id="path394" />
   <path
   d="m 730.5585,333.7949 h -6.12"
   id="path396" />
   <path
   d="m 61.2,337.7936 h 6.12"
   id="path398" />
   <path
   d="m 730.5585,337.7936 h -6.12"
   id="path400" />
   <path
   d="m 61.2,341.1744 h 6.12"
   id="path402" />
   <path
   d="m 730.5585,341.1744 h -6.12"
   id="path404" />
   <path
   d="m 61.2,344.1029 h 6.12"
   id="path406" />
   <path
   d="m 730.5585,344.1029 h -6.12"
   id="path408" />
   <path
   d="m 61.2,346.6861 h 6.12"
   id="path410" />
   <path
   d="m 730.5585,346.6861 h -6.12"
   id="path412" />
   <path
   d="m 61.2,348.9969 h 6.12"
   id="path414" />
   <path
   d="m 730.5585,348.9969 h -6.12"
   id="path416" />
   <path
   d="m 61.2,364.1988 h 6.12"
   id="path418" />
   <path
   d="m 730.5585,364.1988 h -6.12"
   id="path420" />
   <path
   d="m 61.2,373.0914 h 6.12"
   id="path422" />
   <path
   d="m 730.5585,373.0914 h -6.12"
   id="path424" />
   <path
   d="m 61.2,379.4008 h 6.12"
   id="path426" />
   <path
   d="m 730.5585,379.4008 h -6.12"
   id="path428" />
   <path
   d="m 61.2,384.2947 h 6.12"
   id="path430" />
   <path
   d="m 730.5585,384.2947 h -6.12"
   id="path432" />
   <path
   d="m 61.2,388.2934 h 6.12"
   id="path434" />
   <path
   d="m 730.5585,388.2934 h -6.12"
   id="path436" />
   <path
   d="m 61.2,391.6742 h 6.12"
   id="path438" />
   <path
   d="m 730.5585,391.6742 h -6.12"
   id="path440" />
   <path
   d="m 61.2,394.6027 h 6.12"
   id="path442" />
   <path
   d="m 730.5585,394.6027 h -6.12"
   id="path444" />
   <path
   d="m 61.2,397.1859 h 6.12"
   id="path446" />
   <path
   d="m 730.5585,397.1859 h -6.12"
   id="path448" />
   <path
   d="m 61.2,399.4967 h 6.12"
   id="path450" />
   <path
   d="m 730.5585,399.4967 h -6.12"
   id="path452" />
   <path
   d="m 61.2,414.6986 h 6.12"
   id="path454" />
   <path
   d="m 730.5585,414.6986 h -6.12"
   id="path456" />
   <path
   d="m 61.2,423.5912 h 6.12"
   id="path458" />
   <path
   d="m 730.5585,423.5912 h -6.12"
   id="path460" />
   <path
   d="m 61.2,429.9006 h 6.12"
   id="path462" />
   <path
   d="m 730.5585,429.9006 h -6.12"
   id="path464" />
   <path
   d="m 61.2,434.7945 h 6.12"
   id="path466" />
   <path
   d="m 730.5585,434.7945 h -6.12"
   id="path468" />
   <path
   d="m 61.2,438.7932 h 6.12"
   id="path470" />
   <path
   d="m 730.5585,438.7932 h -6.12"
   id="path472" />
   <path
   d="m 61.2,442.174 h 6.12"
   id="path474" />
   <path
   d="m 730.5585,442.174 h -6.12"
   id="path476" />
   <path
   d="m 61.2,445.1025 h 6.12"
   id="path478" />
   <path
   d="m 730.5585,445.1025 h -6.12"
   id="path480" />
   <path
   d="m 61.2,447.6857 h 6.12"
   id="path482" />
   <path
   d="m 730.5585,447.6857 h -6.12"
   id="path484" />
   <path
   d="m 61.2,449.9965 h 6.12"
   id="path486" />
   <path
   d="m 730.5585,449.9965 h -6.12"
   id="path488" />
   <path
   d="m 61.2,465.1984 h 6.12"
   id="path490" />
   <path
   d="m 730.5585,465.1984 h -6.12"
   id="path492" />
   <path
   d="m 61.2,474.091 h 6.12"
   id="path494" />
   <path
   d="m 730.5585,474.091 h -6.12"
   id="path496" />
   <path
   d="m 61.2,480.4004 h 6.12"
   id="path498" />
   <path
   d="m 730.5585,480.4004 h -6.12"
   id="path500" />
   <path
   d="m 61.2,485.2943 h 6.12"
   id="path502" />
   <path
   d="m 730.5585,485.2943 h -6.12"
   id="path504" />
   <path
   d="m 61.2,489.293 h 6.12"
   id="path506" />
   <path
   d="m 730.5585,489.293 h -6.12"
   id="path508" />
   <path
   d="m 61.2,492.6738 h 6.12"
   id="path510" />
   <path
   d="m 730.5585,492.6738 h -6.12"
   id="path512" />
   <path
   d="m 61.2,495.6023 h 6.12"
   id="path514" />
   <path
   d="m 730.5585,495.6023 h -6.12"
   id="path516" />
   <path
   d="m 61.2,498.1855 h 6.12"
   id="path518" />
   <path
   d="m 730.5585,498.1855 h -6.12"
   id="path520" />
   <path
   d="m 61.2,500.4963 h 6.12"
   id="path522" />
   <path
   d="m 730.5585,500.4963 h -6.12"
   id="path524" />
   <path
   d="m 61.2,515.6982 h 6.12"
   id="path526" />
   <path
   d="m 730.5585,515.6982 h -6.12"
   id="path528" />
   <path
   d="m 61.2,524.5908 h 6.12"
   id="path530" />
   <path
   d="m 730.5585,524.5908 h -6.12"
   id="path532" />
   <path
   d="m 61.2,530.9002 h 6.12"
   id="path534" />
   <path
   d="m 730.5585,530.9002 h -6.12"
   id="path536" />
   <path
   d="m 61.2,535.7941 h 6.12"
   id="path538" />
   <path
   d="m 730.5585,535.7941 h -6.12"
   id="path540" />
   <path
   d="m 61.2,539.7928 h 6.12"
   id="path542" />
   <path
   d="m 730.5585,539.7928 h -6.12"
   id="path544" />
   <path
   d="m 61.2,543.1736 h 6.12"
   id="path546" />
   <path
   d="m 730.5585,543.1736 h -6.12"
   id="path548" />
   <path
   d="m 61.2,546.1022 h 6.12"
   id="path550" />
   <path
   d="m 730.5585,546.1022 h -6.12"
   id="path552" />
   <path
   d="m 61.2,548.6853 h 6.12"
   id="path554" />
   <path
   d="m 730.5585,548.6853 h -6.12"
   id="path556" />
   <path
   d="m 61.2,550.9961 h 6.12"
   id="path558" />
   <path
   d="m 730.5585,550.9961 h -6.12"
   id="path560" />
   <path
   d="m 61.2,566.198 h 6.12"
   id="path562" />
   <path
   d="m 730.5585,566.198 h -6.12"
   id="path564" />
   <path
   d="m 61.2,575.0906 h 6.12"
   id="path566" />
   <path
   d="m 730.5585,575.0906 h -6.12"
   id="path568" />
   <path
   d="m 61.2,581.4 h 6.12"
   id="path570" />
   <path
   d="m 730.5585,581.4 h -6.12"
   id="path572" />
   <path
   d="M 61.2,96.4978 H 73.44"
   id="path574" />
   <path
   d="m 730.5585,96.4978 h -12.24"
   id="path576" />
   <path
   d="M 61.2,146.9977 H 73.44"
   id="path578" />
   <path
   d="m 730.5585,146.9977 h -12.24"
   id="path580" />
   <path
   d="M 61.2,197.4975 H 73.44"
   id="path582" />
   <path
   d="m 730.5585,197.4975 h -12.24"
   id="path584" />
   <path
   d="M 61.2,247.9973 H 73.44"
   id="path586" />
   <path
   d="m 730.5585,247.9973 h -12.24"
   id="path588" />
   <path
   d="M 61.2,298.4971 H 73.44"
   id="path590" />
   <path
   d="m 730.5585,298.4971 h -12.24"
   id="path592" />
   <path
   d="M 61.2,348.9969 H 73.44"
   id="path594" />
   <path
   d="m 730.5585,348.9969 h -12.24"
   id="path596" />
   <path
   d="M 61.2,399.4967 H 73.44"
   id="path598" />
   <path
   d="m 730.5585,399.4967 h -12.24"
   id="path600" />
   <path
   d="M 61.2,449.9965 H 73.44"
   id="path602" />
   <path
   d="m 730.5585,449.9965 h -12.24"
   id="path604" />
   <path
   d="M 61.2,500.4963 H 73.44"
   id="path606" />
   <path
   d="m 730.5585,500.4963 h -12.24"
   id="path608" />
   <path
   d="M 61.2,550.9961 H 73.44"
   id="path610" />
   <path
   d="m 730.5585,550.9961 h -12.24"
   id="path612" />
  </g>
  <g
   style="fill:#000000;fill-rule:nonzero"
   id="g658">
   <text
   style="font-style:normal;font-weight:bold;font-size:612px;font-family:Times, 'Nimbus Roman No9 L'"
   transform="matrix(0.028,0,0,-0.028,28.08,87.357)"
   id="text616">10</text>
   <text
   style="font-style:normal;font-weight:bold;font-size:612px;font-family:Times, 'Nimbus Roman No9 L'"
   transform="matrix(0.0198,0,0,-0.0198,45.08,97.6386)"
   id="text618">-5</text>
   <text
   style="font-style:normal;font-weight:bold;font-size:612px;font-family:Times, 'Nimbus Roman No9 L'"
   transform="matrix(0.028,0,0,-0.028,28.08,137.8569)"
   id="text620">10</text>
   <text
   style="font-style:normal;font-weight:bold;font-size:612px;font-family:Times, 'Nimbus Roman No9 L'"
   transform="matrix(0.0198,0,0,-0.0198,45.08,148.1385)"
   id="text622">-4</text>
   <text
   style="font-style:normal;font-weight:bold;font-size:612px;font-family:Times, 'Nimbus Roman No9 L'"
   transform="matrix(0.028,0,0,-0.028,29.08,188.3567)"
   id="text624">10</text>
   <text
   style="font-style:normal;font-weight:bold;font-size:612px;font-family:Times, 'Nimbus Roman No9 L'"
   transform="matrix(0.0198,0,0,-0.0198,46.08,198.6383)"
   id="text626">-3</text>
   <text
   style="font-style:normal;font-weight:bold;font-size:612px;font-family:Times, 'Nimbus Roman No9 L'"
   transform="matrix(0.028,0,0,-0.028,28.08,238.8565)"
   id="text628">10</text>
   <text
   style="font-style:normal;font-weight:bold;font-size:612px;font-family:Times, 'Nimbus Roman No9 L'"
   transform="matrix(0.0198,0,0,-0.0198,45.08,249.1381)"
   id="text630">-2</text>
   <text
   style="font-style:normal;font-weight:bold;font-size:612px;font-family:Times, 'Nimbus Roman No9 L'"
   transform="matrix(0.028,0,0,-0.028,29.08,289.3563)"
   id="text632">10</text>
   <text
   style="font-style:normal;font-weight:bold;font-size:612px;font-family:Times, 'Nimbus Roman No9 L'"
   transform="matrix(0.0198,0,0,-0.0198,46.08,299.6379)"
   id="text634">-1</text>
   <text
   style="font-style:normal;font-weight:bold;font-size:612px;font-family:Times, 'Nimbus Roman No9 L'"
   transform="matrix(0.028,0,0,-0.028,32.08,339.8561)"
   id="text636">10</text>
   <text
   style="font-style:normal;font-weight:bold;font-size:612px;font-family:Times, 'Nimbus Roman No9 L'"
   transform="matrix(0.0198,0,0,-0.0198,49.08,350.1377)"
   id="text638">0</text>
   <text
   style="font-style:normal;font-weight:bold;font-size:612px;font-family:Times, 'Nimbus Roman No9 L'"
   transform="matrix(0.028,0,0,-0.028,33.08,390.3559)"
   id="text640">10</text>
   <text
   style="font-style:normal;font-weight:bold;font-size:612px;font-family:Times, 'Nimbus Roman No9 L'"
   transform="matrix(0.0198,0,0,-0.0198,50.08,400.6375)"
   id="text642">1</text>
   <text
   style="font-style:normal;font-weight:bold;font-size:612px;font-family:Times, 'Nimbus Roman No9 L'"
   transform="matrix(0.028,0,0,-0.028,32.08,440.8557)"
   id="text644">10</text>
   <text
   style="font-style:normal;font-weight:bold;font-size:612px;font-family:Times, 'Nimbus Roman No9 L'"
   transform="matrix(0.0198,0,0,-0.0198,49.08,451.1373)"
   id="text646">2</text>
   <text
   style="font-style:normal;font-weight:bold;font-size:612px;font-family:Times, 'Nimbus Roman No9 L'"
   transform="matrix(0.028,0,0,-0.028,33.08,491.3555)"
   id="text648">10</text>
   <text
   style="font-style:normal;font-weight:bold;font-size:612px;font-family:Times, 'Nimbus Roman No9 L'"
   transform="matrix(0.0198,0,0,-0.0198,50.08,501.6371)"
   id="text650">3</text>
   <text
   style="font-style:normal;font-weight:bold;font-size:612px;font-family:Times, 'Nimbus Roman No9 L'"
   transform="matrix(0.028,0,0,-0.028,32.08,541.8553)"
   id="text652">10</text>
   <text
   style="font-style:normal;font-weight:bold;font-size:612px;font-family:Times, 'Nimbus Roman No9 L'"
   transform="matrix(0.0198,0,0,-0.0198,49.08,552.1369)"
   id="text654">4</text>
   <text
   style="font-style:normal;font-weight:bold;font-size:612px;font-family:Times, 'Nimbus Roman No9 L'"
   transform="matrix(0,0.028,0.028,0,17.96,258.3)"
   id="text656">Compute time [s]</text>
  </g>
  <g
   style="fill:none;stroke:#000000;stroke-width:0.918;stroke-linecap:butt;stroke-linejoin:miter;stroke-dasharray:none"
   id="g662">
   <path
   d="M 61.2,61.2 V 581.4 H 730.5585 V 61.2 Z"
   id="path660" />
  </g>
  <g
   style="fill:#000000;fill-rule:nonzero"
   id="g670">
   <text
   style="font-style:normal;font-weight:bold;font-size:612px;font-family:Times, 'Nimbus Roman No9 L'"
   transform="matrix(0.028,0,0,-0.028,136.017,527.3984)"
   id="text664">O(n</text>
   <text
   style="font-style:normal;font-weight:bold;font-size:612px;font-family:Times, 'Nimbus Roman No9 L'"
   transform="matrix(0.0166,0,0,-0.0166,165.017,537.68)"
   id="text666">2.5</text>
   <text
   style="font-style:normal;font-weight:bold;font-size:612px;font-family:Times, 'Nimbus Roman No9 L'"
   transform="matrix(0.028,0,0,-0.028,178.017,527.3984)"
   id="text668">)</text>
  </g>
  <g
   style="fill:none;stroke:#b4b4b4;stroke-width:1.836;stroke-linecap:butt;stroke-linejoin:miter;stroke-dasharray:2, 6"
   id="g674">
   <path
   d="m 99.297,534.5392 h 24.48"
   id="path672" />
  </g>
  <g
   style="fill:#000000;fill-rule:nonzero"
   id="g682">
   <text
   style="font-style:normal;font-weight:bold;font-size:612px;font-family:Times, 'Nimbus Roman No9 L'"
   transform="matrix(0.028,0,0,-0.028,136.017,500.9968)"
   id="text676">O(n</text>
   <text
   style="font-style:normal;font-weight:bold;font-size:612px;font-family:Times, 'Nimbus Roman No9 L'"
   transform="matrix(0.0166,0,0,-0.0166,165.017,511.2784)"
   id="text678">3</text>
   <text
   style="font-style:normal;font-weight:bold;font-size:612px;font-family:Times, 'Nimbus Roman No9 L'"
   transform="matrix(0.028,0,0,-0.028,170.017,500.9968)"
   id="text680">)</text>
  </g>
  <g
   style="fill:none;stroke:#b4b4b4;stroke-width:1.836;stroke-linecap:butt;stroke-linejoin:miter;stroke-dasharray:9, 6"
   id="g686">
   <path
   d="m 99.297,508.1376 h 24.48"
   id="path684" />
  </g>
  <g
   style="fill:#000000;fill-rule:nonzero"
   id="g690">
   <text
   style="font-style:normal;font-weight:bold;font-size:612px;font-family:Times, 'Nimbus Roman No9 L'"
   transform="matrix(0.028,0,0,-0.028,136.017,479.8768)"
   id="text688">mio::matrix::inv</text>
  </g>
  <g
   style="fill:none;stroke:#0000ff;stroke-width:2.754;stroke-linecap:butt;stroke-linejoin:miter;stroke-dasharray:none"
   id="g694">
   <path
   d="m 99.297,485.8768 h 24.48"
   id="path692" />
  </g>
 </g>
<metadata
   id="metadata1519"><rdf:RDF><cc:Work
       rdf:about=""><dc:title>Scaling of the MeteoIO's internal matrix inversion code</dc:title><dc:date>2024-05-31</dc:date><dc:creator><cc:Agent><dc:title>Mathias Bavay</dc:title></cc:Agent></dc:creator><dc:publisher><cc:Agent><dc:title>SLF</dc:title></cc:Agent></dc:publisher><dc:source>https://code.wsl.ch/snow-models/meteoio</dc:source><cc:license
         rdf:resource="http://creativecommons.org/licenses/by-sa/4.0/" /></cc:Work><cc:License
       rdf:about="http://creativecommons.org/licenses/by-sa/4.0/"><cc:permits
         rdf:resource="http://creativecommons.org/ns#Reproduction" /><cc:permits
         rdf:resource="http://creativecommons.org/ns#Distribution" /><cc:requires
         rdf:resource="http://creativecommons.org/ns#Notice" /><cc:requires
         rdf:resource="http://creativecommons.org/ns#Attribution" /><cc:permits
         rdf:resource="http://creativecommons.org/ns#DerivativeWorks" /><cc:requires
         rdf:resource="http://creativecommons.org/ns#ShareAlike" /></cc:License></rdf:RDF></metadata></svg>
