<?xml version="1.0" encoding="UTF-8" standalone="no"?>
<!-- Creator: fig2dev Version 3.2.8b -->

<!-- CreationDate: 2024-04-26 10:34:05 -->

<!-- Magnification: 0.84 -->

<svg
   width="1121pt"
   height="739pt"
   viewBox="7694 9304 22235 14658"
   version="1.1"
   id="svg7791"
   sodipodi:docname="workflow_meteoreading.svg"
   inkscape:version="1.1.2 (0a00cf5339, 2022-02-04)"
   xmlns:inkscape="http://www.inkscape.org/namespaces/inkscape"
   xmlns:sodipodi="http://sodipodi.sourceforge.net/DTD/sodipodi-0.dtd"
   xmlns="http://www.w3.org/2000/svg"
   xmlns:svg="http://www.w3.org/2000/svg"
   xmlns:rdf="http://www.w3.org/1999/02/22-rdf-syntax-ns#"
   xmlns:cc="http://creativecommons.org/ns#"
   xmlns:dc="http://purl.org/dc/elements/1.1/">
  <title
     id="title7858">Reading meteorological timeseries with MeteoIO</title>
  <defs
     id="defs7795">
    <defs
       id="defs7432">
      <clipPath
         id="cp0">
        <path
           clip-rule="evenodd"
           d="M 7694,9304 H 29929 V 23962 H 7694 Z m 8821,13608 -90,240 -90,-240 65,334 h 51 z"
           id="path7429" />
      </clipPath>
    </defs>
    <defs
       id="defs7441">
      <clipPath
         id="cp1">
        <path
           clip-rule="evenodd"
           d="M 7694,9304 H 29929 V 23962 H 7694 Z m 8416,12874 90,-240 90,240 -64,-333 h -51 z"
           id="path7438" />
      </clipPath>
    </defs>
    <defs
       id="defs7462">
      <clipPath
         id="cp2">
        <path
           clip-rule="evenodd"
           d="M 7694,9304 H 29929 V 23962 H 7694 Z m 11701,12649 90,-240 90,240 -64,-333 h -51 z"
           id="path7459" />
      </clipPath>
    </defs>
    <defs
       id="defs7471">
      <clipPath
         id="cp3">
        <path
           clip-rule="evenodd"
           d="M 7694,9304 H 29929 V 23962 H 7694 Z m 12106,13608 -90,240 -90,-240 65,334 h 51 z"
           id="path7468" />
      </clipPath>
    </defs>
    <defs
       id="defs7486">
      <clipPath
         id="cp4">
        <path
           clip-rule="evenodd"
           d="M 7694,9304 H 29929 V 23962 H 7694 Z m 10059,9762 171,-87 -71,178 127,-213 -26,-24 z"
           id="path7483" />
      </clipPath>
    </defs>
    <defs
       id="defs7495">
      <clipPath
         id="cp5">
        <path
           clip-rule="evenodd"
           d="M 7694,9304 H 29929 V 23962 H 7694 Z m 8800,11098 -173,85 74,-178 -130,212 26,24 z"
           id="path7492" />
      </clipPath>
    </defs>
    <defs
       id="defs7536">
      <clipPath
         id="cp6">
        <path
           clip-rule="evenodd"
           d="M 7694,9304 H 29929 V 23962 H 7694 Z m 1884,5321 -240,-90 240,-90 -333,65 v 51 z"
           id="path7533" />
      </clipPath>
    </defs>
    <defs
       id="defs7553">
      <clipPath
         id="cp7">
        <path
           clip-rule="evenodd"
           d="M 7694,9304 H 29929 V 23962 H 7694 Z m 3473,4196 240,90 -240,90 334,-64 v -51 z"
           id="path7550" />
      </clipPath>
    </defs>
    <defs
       id="defs7566">
      <clipPath
         id="cp8">
        <path
           clip-rule="evenodd"
           d="M 7694,9304 H 29929 V 23962 H 7694 Z m 7328,5675 -220,132 79,-244 -157,302 40,32 z"
           id="path7563" />
      </clipPath>
    </defs>
    <defs
       id="defs7575">
      <clipPath
         id="cp9">
        <path
           clip-rule="evenodd"
           d="M 7694,9304 H 29929 V 23962 H 7694 Z m 9218,5675 -220,132 79,-244 -157,302 40,32 z"
           id="path7572" />
      </clipPath>
    </defs>
    <defs
       id="defs7584">
      <clipPath
         id="cp10">
        <path
           clip-rule="evenodd"
           d="M 7694,9304 H 29929 V 23962 H 7694 Z m 10838,5675 -220,132 79,-244 -157,302 40,32 z"
           id="path7581" />
      </clipPath>
    </defs>
    <defs
       id="defs7593">
      <clipPath
         id="cp11">
        <path
           clip-rule="evenodd"
           d="M 7694,9304 H 29929 V 23962 H 7694 Z m 7275,9726 183,-57 -101,164 162,-189 -22,-28 z"
           id="path7590" />
      </clipPath>
    </defs>
    <defs
       id="defs7602">
      <clipPath
         id="cp12">
        <path
           clip-rule="evenodd"
           d="M 7694,9304 H 29929 V 23962 H 7694 Z m 6488,2846 240,90 -240,90 334,-64 v -51 z"
           id="path7599" />
      </clipPath>
    </defs>
    <defs
       id="defs7611">
      <clipPath
         id="cp13">
        <path
           clip-rule="evenodd"
           d="M 7694,9304 H 29929 V 23962 H 7694 Z m 5124,5321 -240,-90 240,-90 -333,65 v 51 z"
           id="path7608" />
      </clipPath>
    </defs>
    <defs
       id="defs7620">
      <clipPath
         id="cp14">
        <path
           clip-rule="evenodd"
           d="M 7694,9304 H 29929 V 23962 H 7694 Z m 19074,4871 -240,-90 240,-90 -333,65 v 51 z"
           id="path7617" />
      </clipPath>
    </defs>
    <defs
       id="defs7629">
      <clipPath
         id="cp15">
        <path
           clip-rule="evenodd"
           d="M 7694,9304 H 29929 V 23962 H 7694 Z m 10531,8613 -90,240 -90,-240 65,334 h 51 z"
           id="path7626" />
      </clipPath>
    </defs>
    <defs
       id="defs7638">
      <clipPath
         id="cp16">
        <path
           clip-rule="evenodd"
           d="M 7694,9304 H 29929 V 23962 H 7694 Z m 10126,7609 90,-240 90,240 -64,-333 h -51 z"
           id="path7635" />
      </clipPath>
    </defs>
    <defs
       id="defs7647">
      <clipPath
         id="cp17">
        <path
           clip-rule="evenodd"
           d="M 7694,9304 H 29929 V 23962 H 7694 Z m 7426,7609 90,-240 90,240 -64,-333 h -51 z"
           id="path7644" />
      </clipPath>
    </defs>
    <defs
       id="defs7656">
      <clipPath
         id="cp18">
        <path
           clip-rule="evenodd"
           d="M 7694,9304 H 29929 V 23962 H 7694 Z m 12248,2846 240,90 -240,90 334,-64 v -51 z"
           id="path7653" />
      </clipPath>
    </defs>
    <defs
       id="defs7665">
      <clipPath
         id="cp19">
        <path
           clip-rule="evenodd"
           d="M 7694,9304 H 29929 V 23962 H 7694 Z m 11289,6671 -240,-90 240,-90 -333,65 v 51 z"
           id="path7662" />
      </clipPath>
    </defs>
    <defs
       id="defs7674">
      <clipPath
         id="cp20">
        <path
           clip-rule="evenodd"
           d="M 7694,9304 H 29929 V 23962 H 7694 Z m 16433,2846 240,90 -240,90 334,-64 v -51 z"
           id="path7671" />
      </clipPath>
    </defs>
    <defs
       id="defs7683">
      <clipPath
         id="cp21">
        <path
           clip-rule="evenodd"
           d="M 7694,9304 H 29929 V 23962 H 7694 Z m 15474,6671 -240,-90 240,-90 -333,65 v 51 z"
           id="path7680" />
      </clipPath>
    </defs>
    <defs
       id="defs7692">
      <clipPath
         id="cp22">
        <path
           clip-rule="evenodd"
           d="M 7694,9304 H 29929 V 23962 H 7694 Z m 11911,11005 74,178 -173,-85 203,143 26,-24 z"
           id="path7689" />
      </clipPath>
    </defs>
    <defs
       id="defs7701">
      <clipPath
         id="cp23">
        <path
           clip-rule="evenodd"
           d="M 7694,9304 H 29929 V 23962 H 7694 Z m 10453,9853 -71,-178 171,87 -201,-146 -26,24 z"
           id="path7698" />
      </clipPath>
    </defs>
  </defs>
  <sodipodi:namedview
     id="namedview7793"
     pagecolor="#505050"
     bordercolor="#eeeeee"
     borderopacity="1"
     inkscape:pageshadow="0"
     inkscape:pageopacity="0"
     inkscape:pagecheckerboard="0"
     inkscape:document-units="pt"
     showgrid="false"
     inkscape:zoom="1.1173884"
     inkscape:cx="747.7257"
     inkscape:cy="421.07115"
     inkscape:window-width="3440"
     inkscape:window-height="1357"
     inkscape:window-x="0"
     inkscape:window-y="0"
     inkscape:window-maximized="1"
     inkscape:current-layer="svg7791" />
  <circle
     cx="16896"
     cy="19538"
     r="127"
     fill="#000000"
     id="circle7259" />
  <circle
     cx="19088"
     cy="19538"
     r="127"
     fill="#000000"
     id="circle7261" />
  <circle
     cx="14003"
     cy="19538"
     r="127"
     fill="#000000"
     id="circle7263" />
  <rect
     x="16740"
     y="18225"
     width="2475"
     height="675"
     fill="#eff8ff"
     stroke="#000000"
     stroke-width="15px"
     id="rect7265" />
  <rect
     x="13950"
     y="18225"
     width="2475"
     height="675"
     fill="#eff8ff"
     stroke="#000000"
     stroke-width="15px"
     id="rect7267" />
  <rect
     x="11520"
     y="20565"
     width="2745"
     height="675"
     fill="#eff8ff"
     stroke="#000000"
     stroke-width="15px"
     id="rect7269" />
  <rect
     x="14805"
     y="20565"
     width="2880"
     height="675"
     fill="#eff8ff"
     stroke="#000000"
     stroke-width="15px"
     id="rect7271" />
  <rect
     x="14760"
     y="23265"
     width="2970"
     height="675"
     fill="#eff8ff"
     stroke="#000000"
     stroke-width="15px"
     id="rect7273" />
  <rect
     x="18360"
     y="20565"
     width="2475"
     height="675"
     fill="#eff8ff"
     stroke="#000000"
     stroke-width="15px"
     id="rect7275" />
  <rect
     x="18360"
     y="23265"
     width="2475"
     height="675"
     fill="#eff8ff"
     stroke="#000000"
     stroke-width="15px"
     id="rect7277" />
  <text
     xml:space="preserve"
     x="16937"
     y="19603"
     fill="#ffffff"
     font-family="Times"
     font-style="normal"
     font-weight="bold"
     font-size="144px"
     text-anchor="end"
     id="text7279"
     style="-inkscape-font-specification:'Times, Bold';font-family:Times;font-weight:bold;font-style:normal;font-stretch:normal;font-variant:normal;font-size:238.02px;font-variant-ligatures:normal;font-variant-caps:normal;font-variant-numeric:normal;font-variant-east-asian:normal;text-anchor:end;fill:#ffffff">2</text>
  <rect
     x="11655"
     y="12060"
     width="675"
     height="4005"
     fill="#eff8ff"
     stroke="#000000"
     stroke-width="15px"
     id="rect7281" />
  <text
     xml:space="preserve"
     x="19042"
     y="19614"
     fill="#ffffff"
     font-family="Times"
     font-style="normal"
     font-weight="bold"
     font-size="144px"
     text-anchor="start"
     id="text7283"
     style="-inkscape-font-specification:'Times, Bold';font-family:Times;font-weight:bold;font-style:normal;font-stretch:normal;font-variant:normal;font-size:238.02px;font-variant-ligatures:normal;font-variant-caps:normal;font-variant-numeric:normal;font-variant-east-asian:normal;text-anchor:start;fill:#ffffff">1</text>
  <text
     xml:space="preserve"
     x="13957"
     y="19614"
     fill="#ffffff"
     font-family="Times"
     font-style="normal"
     font-weight="bold"
     font-size="144px"
     text-anchor="start"
     id="text7285"
     style="-inkscape-font-specification:'Times, Bold';font-family:Times;font-weight:bold;font-style:normal;font-stretch:normal;font-variant:normal;font-size:238.02px;font-variant-ligatures:normal;font-variant-caps:normal;font-variant-numeric:normal;font-variant-east-asian:normal;text-anchor:start;fill:#ffffff">3</text>
  <rect
     x="24480"
     y="11925"
     width="1845"
     height="4320"
     fill="#eff8ff"
     stroke="#000000"
     stroke-width="15px"
     id="rect7287" />
  <rect
     x="14580"
     y="11880"
     width="4005"
     height="675"
     fill="#eff8ff"
     stroke="#000000"
     stroke-width="15px"
     id="rect7289" />
  <rect
     x="14580"
     y="15570"
     width="4050"
     height="675"
     fill="#eff8ff"
     stroke="#000000"
     stroke-width="15px"
     id="rect7291" />
  <rect
     x="20340"
     y="15525"
     width="2475"
     height="675"
     fill="#eff8ff"
     stroke="#000000"
     stroke-width="15px"
     id="rect7293" />
  <rect
     x="20340"
     y="11925"
     width="2475"
     height="675"
     fill="#eff8ff"
     stroke="#000000"
     stroke-width="15px"
     id="rect7295" />
  <polygon
     points="14580,15750 14760,15570 15075,15570 14580,16065 "
     fill="#0000ff"
     id="polygon7297" />
  <polygon
     points="14580,12060 14760,11880 15075,11880 14580,12375 "
     fill="#0000ff"
     id="polygon7299" />
  <polygon
     points="24480,12105 24660,11925 24975,11925 24480,12420 "
     fill="#008f00"
     id="polygon7301" />
  <polygon
     points="25065,22635 25245,22455 25560,22455 25065,22950 "
     fill="#0000ff"
     id="polygon7303" />
  <polygon
     points="25065,23535 25245,23355 25560,23355 25065,23850 "
     fill="#008f00"
     id="polygon7305" />
  <polygon
     points="16740,18405 16920,18225 17235,18225 16740,18720 "
     fill="#0000ff"
     id="polygon7307" />
  <polygon
     points="13950,18405 14130,18225 14445,18225 13950,18720 "
     fill="#0000ff"
     id="polygon7309" />
  <polygon
     points="11540,20745 11720,20565 12035,20565 11540,21060 "
     fill="#008f00"
     id="polygon7311" />
  <polygon
     points="14760,23445 14940,23265 15255,23265 14760,23760 "
     fill="#008f00"
     id="polygon7313" />
  <polygon
     points="18360,23445 18540,23265 18855,23265 18360,23760 "
     fill="#008f00"
     id="polygon7315" />
  <polygon
     points="11675,12240 11855,12060 12170,12060 11675,12555 "
     fill="#0000ff"
     id="polygon7317" />
  <g
     transform="rotate(-45,26610.031,-9700.2357)"
     id="g7321"
     style="fill:none">
    <text
       xml:space="preserve"
       x="0"
       y="0"
       fill="#ffffff"
       font-family="'Helvetica Narrow'"
       font-style="italic"
       font-weight="bold"
       font-size="250px"
       text-anchor="start"
       id="text7319">API</text>
  </g>
  <g
     transform="rotate(-45,22155.807,-11545.236)"
     id="g7325"
     style="fill:none">
    <text
       xml:space="preserve"
       x="0"
       y="0"
       fill="#ffffff"
       font-family="'Helvetica Narrow'"
       font-style="italic"
       font-weight="bold"
       font-size="250px"
       text-anchor="start"
       id="text7323">API</text>
  </g>
  <g
     transform="rotate(-45,27160.127,-23473.093)"
     id="g7329"
     style="fill:none">
    <text
       xml:space="preserve"
       x="0"
       y="0"
       fill="#ffffff"
       font-family="'Helvetica Narrow'"
       font-style="italic"
       font-weight="bold"
       font-size="250px"
       text-anchor="start"
       id="text7327">EXP</text>
  </g>
  <g
     transform="rotate(-45,40163.461,-18914.25)"
     id="g7333"
     style="fill:none">
    <text
       xml:space="preserve"
       x="0"
       y="0"
       fill="#ffffff"
       font-family="'Helvetica Narrow'"
       font-style="italic"
       font-weight="bold"
       font-size="250px"
       text-anchor="start"
       id="text7331">API</text>
  </g>
  <g
     transform="rotate(-45,41249.857,-18464.25)"
     id="g7337"
     style="fill:none">
    <text
       xml:space="preserve"
       x="0"
       y="0"
       fill="#ffffff"
       font-family="'Helvetica Narrow'"
       font-style="italic"
       font-weight="bold"
       font-size="250px"
       text-anchor="start"
       id="text7335">EXP</text>
  </g>
  <g
     transform="rotate(-45,30894.899,-10980.086)"
     id="g7341"
     style="fill:none">
    <text
       xml:space="preserve"
       x="0"
       y="0"
       fill="#ffffff"
       font-family="'Helvetica Narrow'"
       font-style="italic"
       font-weight="bold"
       font-size="250px"
       text-anchor="start"
       id="text7339">API</text>
  </g>
  <g
     transform="rotate(-45,29499.899,-7612.2584)"
     id="g7345"
     style="fill:none">
    <text
       xml:space="preserve"
       x="0"
       y="0"
       fill="#ffffff"
       font-family="'Helvetica Narrow'"
       font-style="italic"
       font-weight="bold"
       font-size="250px"
       text-anchor="start"
       id="text7343">API</text>
  </g>
  <g
     transform="rotate(-45,31119.529,-3533.131)"
     id="g7349"
     style="fill:none">
    <text
       xml:space="preserve"
       x="0"
       y="0"
       fill="#ffffff"
       font-family="'Helvetica Narrow'"
       font-style="italic"
       font-weight="bold"
       font-size="250px"
       text-anchor="start"
       id="text7347">EXP</text>
  </g>
  <g
     transform="rotate(-45,35988.718,-6070.0149)"
     id="g7353"
     style="fill:none">
    <text
       xml:space="preserve"
       x="0"
       y="0"
       fill="#ffffff"
       font-family="'Helvetica Narrow'"
       font-style="italic"
       font-weight="bold"
       font-size="250px"
       text-anchor="start"
       id="text7351">EXP</text>
  </g>
  <g
     transform="rotate(-45,37788.718,-10415.599)"
     id="g7357"
     style="fill:none">
    <text
       xml:space="preserve"
       x="0"
       y="0"
       fill="#ffffff"
       font-family="'Helvetica Narrow'"
       font-style="italic"
       font-weight="bold"
       font-size="250px"
       text-anchor="start"
       id="text7355">EXP</text>
  </g>
  <g
     transform="rotate(-45,20920.586,-7948.5905)"
     id="g7361"
     style="fill:none">
    <text
       xml:space="preserve"
       x="0"
       y="0"
       fill="#ffffff"
       font-family="'Helvetica Narrow'"
       font-style="italic"
       font-weight="bold"
       font-size="250px"
       text-anchor="start"
       id="text7359">API</text>
  </g>
  <text
     xml:space="preserve"
     x="25425"
     y="14085"
     fill="#000000"
     font-family="Times"
     font-style="italic"
     font-weight="normal"
     font-size="250px"
     text-anchor="middle"
     id="text7363">read data;</text>
  <text
     xml:space="preserve"
     x="25425"
     y="13770"
     fill="#000000"
     font-family="Times"
     font-style="italic"
     font-weight="normal"
     font-size="250px"
     text-anchor="middle"
     id="text7365">(from io.ini)</text>
  <text
     xml:space="preserve"
     x="25425"
     y="14700"
     fill="#000000"
     font-family="Times"
     font-style="italic"
     font-weight="normal"
     font-size="250px"
     text-anchor="middle"
     id="text7367">fill MeteoData</text>
  <text
     xml:space="preserve"
     x="25425"
     y="15030"
     fill="#000000"
     font-family="Times"
     font-style="italic"
     font-weight="normal"
     font-size="250px"
     text-anchor="middle"
     id="text7369">and StationData</text>
  <text
     xml:space="preserve"
     x="25425"
     y="14370"
     fill="#000000"
     font-family="Times"
     font-style="italic"
     font-weight="normal"
     font-size="250px"
     text-anchor="middle"
     id="text7371">convert units;</text>
  <text
     xml:space="preserve"
     x="25425"
     y="13455"
     fill="#000000"
     font-family="Times"
     font-style="italic"
     font-weight="normal"
     font-size="250px"
     text-anchor="middle"
     id="text7373">read station list;</text>
  <g
     transform="rotate(30,-10608.485,58352.535)"
     id="g7377"
     style="fill:none">
    <text
       xml:space="preserve"
       x="0"
       y="0"
       fill="#555555"
       font-family="Courier"
       font-style="normal"
       font-weight="bold"
       font-size="250px"
       text-anchor="start"
       id="text7375">6692d179032205</text>
  </g>
  <g
     transform="rotate(30,-11220.872,58552.624)"
     id="g7381"
     style="fill:none">
    <text
       xml:space="preserve"
       x="0"
       y="0"
       fill="#555555"
       font-family="Courier"
       font-style="normal"
       font-weight="bold"
       font-size="250px"
       text-anchor="start"
       id="text7379">b4116a96425a7f</text>
  </g>
  <g
     transform="rotate(30,-11825.17,58648.545)"
     id="g7385"
     style="fill:none">
    <text
       xml:space="preserve"
       x="0"
       y="0"
       fill="#555555"
       font-family="Courier"
       font-style="normal"
       font-weight="bold"
       font-size="250px"
       text-anchor="start"
       id="text7383">ecc2ef51af1740</text>
  </g>
  <g
     transform="rotate(30,-12414.968,58798.581)"
     id="g7389"
     style="fill:none">
    <text
       xml:space="preserve"
       x="0"
       y="0"
       fill="#555555"
       font-family="Courier"
       font-style="normal"
       font-weight="bold"
       font-size="250px"
       text-anchor="start"
       id="text7387">959d3b6d07bce4</text>
  </g>
  <g
     transform="rotate(30,-13086.237,58980.447)"
     id="g7393"
     style="fill:none">
    <text
       xml:space="preserve"
       x="0"
       y="0"
       fill="#555555"
       font-family="Courier"
       font-style="normal"
       font-weight="bold"
       font-size="250px"
       text-anchor="start"
       id="text7391">fa9f2af29814d9</text>
  </g>
  <g
     transform="rotate(30,-13786.506,59054.083)"
     id="g7397"
     style="fill:none">
    <text
       xml:space="preserve"
       x="0"
       y="0"
       fill="#555555"
       font-family="Courier"
       font-style="normal"
       font-weight="bold"
       font-size="250px"
       text-anchor="start"
       id="text7395">82592e77a204a8</text>
  </g>
  <polyline
     points=" 25399,16045 25400,16045 25404,16046 25413,16047 25429,16050 25449,16053 25472,16057  25495,16061 25516,16065 25535,16068 25552,16071 25566,16073 25577,16075 25587,16077  25596,16078 25612,16081 25625,16083 25634,16085 25639,16086 25642,16086 25644,16086  25645,16086 25647,16085 25648,16084 25650,16082 25651,16081 25653,16080 25656,16079  25659,16077 25663,16076 25667,16075 25672,16074 25678,16074 25685,16074 25692,16074  25699,16075 25705,16077 25712,16080 25718,16084 25724,16088 25729,16092 25733,16096  25736,16101 25739,16105 25742,16110 25744,16115 25745,16119 25746,16123 25747,16128  25747,16133 25748,16137 25747,16142 25747,16147 25745,16152 25744,16158 25742,16163  25740,16167 25737,16172 25734,16177 25730,16182 25726,16186 25721,16189 25716,16193  25709,16196 25703,16198 25697,16200 25690,16200 25683,16201 25676,16200 25669,16199  25663,16198 25658,16196 25654,16194 25650,16192 25646,16190 25644,16188 25641,16186  25639,16184 25637,16182 25635,16180 25634,16178 25633,16177 25632,16175 25631,16174  25630,16172 25629,16172 25628,16171 25625,16171 25620,16170 25611,16169 25599,16167  25582,16164 25574,16163 25564,16161 25552,16159 25538,16157 25521,16154 25502,16151  25480,16147 25457,16143 25434,16140 25414,16136 25398,16133 25389,16132 25385,16131  25384,16131"
     fill="#8e8f8e"
     stroke="#000000"
     stroke-width="8px"
     stroke-linejoin="bevel"
     id="polyline7399" />
  <polygon
     points="25238,16006 25242,16003 25245,16001 25250,15998 25256,15995 25262,15992 25269,15989 25276,15987 25283,15984 25291,15982 25300,15981 25309,15979 25318,15979 25326,15978 25334,15979 25342,15979 25350,15981 25357,15983 25364,15985 25369,15988 25374,15992 25378,15996 25383,16001 25386,16006 25389,16012 25391,16018 25393,16024 25395,16030 25396,16038 25397,16045 25397,16053 25397,16059 25397,16066 25397,16073 25396,16080 25395,16087 25394,16094 25393,16100 25392,16106 25390,16112 25389,16118 25387,16125 25385,16131 25382,16136 25380,16142 25377,16147 25373,16153 25370,16159 25365,16164 25361,16168 25356,16171 25349,16174 25342,16176 25334,16178 25327,16178 25321,16178 25315,16177 25308,16176 25301,16174 25295,16172 25289,16170 25283,16168 25277,16165 25270,16161 25264,16158 25259,16155 25255,16152 25249,16148 25244,16144 25240,16140 25236,16137 25233,16134 25230,16131 25227,16128 25225,16126 25223,16123 25221,16121 25219,16118 25218,16115 25217,16112 25216,16110 25215,16107 25215,16105 25215,16104 25215,16102 25215,16101 25216,16101 25217,16100 25218,16100 25222,16101 25227,16102 25234,16103 25241,16105 25251,16106 25262,16108 25273,16110 25283,16112 25291,16114 25298,16115 25304,16115 25308,16115 25311,16115 25312,16114 25313,16113 25315,16112 25316,16109 25317,16107 25318,16104 25319,16101 25320,16098 25321,16094 25322,16089 25323,16085 25324,16081 25325,16076 25326,16070 25327,16065 25327,16061 25328,16057 25328,16053 25328,16048 25327,16045 25326,16042 25325,16040 25324,16039 25321,16037 25317,16036 25312,16034 25306,16033 25298,16032 25288,16030 25277,16028 25266,16026 25256,16025 25248,16024 25240,16023 25235,16022 25231,16021 25229,16021 25228,16020 25227,16019 25228,16018 25228,16017 25229,16016 25230,16014 25232,16013 25233,16011 25235,16008 "
     fill="#8e8f8e"
     stroke="#000000"
     stroke-width="8px"
     stroke-linejoin="bevel"
     id="polygon7401" />
  <polyline
     points=" 16545,12374 16546,12374 16550,12375 16559,12376 16575,12379 16595,12382 16618,12386  16641,12390 16662,12394 16681,12397 16698,12400 16712,12402 16723,12404 16733,12406  16742,12407 16758,12410 16771,12412 16780,12414 16785,12415 16788,12415 16790,12415  16791,12415 16793,12414 16794,12413 16796,12411 16797,12410 16799,12409 16802,12408  16805,12406 16809,12405 16813,12404 16818,12403 16824,12403 16831,12403 16838,12403  16845,12404 16851,12406 16858,12409 16864,12413 16870,12417 16875,12421 16879,12425  16882,12430 16885,12434 16888,12439 16890,12444 16891,12448 16892,12452 16893,12457  16893,12462 16894,12466 16893,12471 16893,12476 16891,12481 16890,12487 16888,12492  16886,12496 16883,12501 16880,12506 16876,12511 16872,12515 16867,12518 16862,12522  16855,12525 16849,12527 16843,12529 16836,12529 16829,12530 16822,12529 16815,12528  16809,12527 16804,12525 16800,12523 16796,12521 16792,12519 16790,12517 16787,12515  16785,12513 16783,12511 16781,12509 16780,12507 16779,12506 16778,12504 16777,12503  16776,12501 16775,12501 16774,12500 16771,12500 16766,12499 16757,12498 16745,12496  16728,12493 16720,12492 16710,12490 16698,12488 16684,12486 16667,12483 16648,12480  16626,12476 16603,12472 16580,12469 16560,12465 16544,12462 16535,12461 16531,12460  16530,12460"
     fill="#8e8f8e"
     stroke="#000000"
     stroke-width="8px"
     stroke-linejoin="bevel"
     id="polyline7403" />
  <polygon
     points="16384,12335 16388,12332 16391,12330 16396,12327 16402,12324 16408,12321 16415,12318 16422,12316 16429,12313 16437,12311 16446,12310 16455,12308 16464,12308 16472,12307 16480,12308 16488,12308 16496,12310 16503,12312 16510,12314 16515,12317 16520,12321 16524,12325 16529,12330 16532,12335 16535,12341 16537,12347 16539,12353 16541,12359 16542,12367 16543,12374 16543,12382 16543,12388 16543,12395 16543,12402 16542,12409 16541,12416 16540,12423 16539,12429 16538,12435 16536,12441 16535,12447 16533,12454 16531,12460 16528,12465 16526,12471 16523,12476 16519,12482 16516,12488 16511,12493 16507,12497 16502,12500 16495,12503 16488,12505 16480,12507 16473,12507 16467,12507 16461,12506 16454,12505 16447,12503 16441,12501 16435,12499 16429,12497 16423,12494 16416,12490 16410,12487 16405,12484 16401,12481 16395,12477 16390,12473 16386,12469 16382,12466 16379,12463 16376,12460 16373,12457 16371,12455 16369,12452 16367,12450 16365,12447 16364,12444 16363,12441 16362,12439 16361,12436 16361,12434 16361,12433 16361,12431 16361,12430 16362,12430 16363,12429 16364,12429 16368,12430 16373,12431 16380,12432 16387,12434 16397,12435 16408,12437 16419,12439 16429,12441 16437,12443 16444,12444 16450,12444 16454,12444 16457,12444 16458,12443 16459,12442 16461,12441 16462,12438 16463,12436 16464,12433 16465,12430 16466,12427 16467,12423 16468,12418 16469,12414 16470,12410 16471,12405 16472,12399 16473,12394 16473,12390 16474,12386 16474,12382 16474,12377 16473,12374 16472,12371 16471,12369 16470,12368 16467,12366 16463,12365 16458,12363 16452,12362 16444,12361 16434,12359 16423,12357 16412,12355 16402,12354 16394,12353 16386,12352 16381,12351 16377,12350 16375,12350 16374,12349 16373,12348 16374,12347 16374,12346 16375,12345 16376,12343 16378,12342 16379,12340 16381,12337 "
     fill="#8e8f8e"
     stroke="#000000"
     stroke-width="8px"
     stroke-linejoin="bevel"
     id="polygon7405" />
  <polyline
     points=" 16545,16056 16546,16056 16550,16057 16559,16058 16575,16061 16595,16064 16618,16068  16641,16072 16662,16076 16681,16079 16698,16082 16712,16084 16723,16086 16733,16088  16742,16089 16758,16092 16771,16094 16780,16096 16785,16097 16788,16097 16790,16097  16791,16097 16793,16096 16794,16095 16796,16093 16797,16092 16799,16091 16802,16090  16805,16088 16809,16087 16813,16086 16818,16085 16824,16085 16831,16085 16838,16085  16845,16086 16851,16088 16858,16091 16864,16095 16870,16099 16875,16103 16879,16107  16882,16112 16885,16116 16888,16121 16890,16126 16891,16130 16892,16134 16893,16139  16893,16144 16894,16148 16893,16153 16893,16158 16891,16163 16890,16169 16888,16174  16886,16178 16883,16183 16880,16188 16876,16193 16872,16197 16867,16200 16862,16204  16855,16207 16849,16209 16843,16211 16836,16211 16829,16212 16822,16211 16815,16210  16809,16209 16804,16207 16800,16205 16796,16203 16792,16201 16790,16199 16787,16197  16785,16195 16783,16193 16781,16191 16780,16189 16779,16188 16778,16186 16777,16185  16776,16183 16775,16183 16774,16182 16771,16182 16766,16181 16757,16180 16745,16178  16728,16175 16720,16174 16710,16172 16698,16170 16684,16168 16667,16165 16648,16162  16626,16158 16603,16154 16580,16151 16560,16147 16544,16144 16535,16143 16531,16142  16530,16142"
     fill="#8e8f8e"
     stroke="#000000"
     stroke-width="8px"
     stroke-linejoin="bevel"
     id="polyline7407" />
  <polygon
     points="16384,16017 16388,16014 16391,16012 16396,16009 16402,16006 16408,16003 16415,16000 16422,15998 16429,15995 16437,15993 16446,15992 16455,15990 16464,15990 16472,15989 16480,15990 16488,15990 16496,15992 16503,15994 16510,15996 16515,15999 16520,16003 16524,16007 16529,16012 16532,16017 16535,16023 16537,16029 16539,16035 16541,16041 16542,16049 16543,16056 16543,16064 16543,16070 16543,16077 16543,16084 16542,16091 16541,16098 16540,16105 16539,16111 16538,16117 16536,16123 16535,16129 16533,16136 16531,16142 16528,16147 16526,16153 16523,16158 16519,16164 16516,16170 16511,16175 16507,16179 16502,16182 16495,16185 16488,16187 16480,16189 16473,16189 16467,16189 16461,16188 16454,16187 16447,16185 16441,16183 16435,16181 16429,16179 16423,16176 16416,16172 16410,16169 16405,16166 16401,16163 16395,16159 16390,16155 16386,16151 16382,16148 16379,16145 16376,16142 16373,16139 16371,16137 16369,16134 16367,16132 16365,16129 16364,16126 16363,16123 16362,16121 16361,16118 16361,16116 16361,16115 16361,16113 16361,16112 16362,16112 16363,16111 16364,16111 16368,16112 16373,16113 16380,16114 16387,16116 16397,16117 16408,16119 16419,16121 16429,16123 16437,16125 16444,16126 16450,16126 16454,16126 16457,16126 16458,16125 16459,16124 16461,16123 16462,16120 16463,16118 16464,16115 16465,16112 16466,16109 16467,16105 16468,16100 16469,16096 16470,16092 16471,16087 16472,16081 16473,16076 16473,16072 16474,16068 16474,16064 16474,16059 16473,16056 16472,16053 16471,16051 16470,16050 16467,16048 16463,16047 16458,16045 16452,16044 16444,16043 16434,16041 16423,16039 16412,16037 16402,16036 16394,16035 16386,16034 16381,16033 16377,16032 16375,16032 16374,16031 16373,16030 16374,16029 16374,16028 16375,16027 16376,16025 16378,16024 16379,16022 16381,16019 "
     fill="#8e8f8e"
     stroke="#000000"
     stroke-width="8px"
     stroke-linejoin="bevel"
     id="polygon7409" />
  <polyline
     points=" 25199,21937 25200,21937 25204,21938 25213,21939 25229,21942 25249,21945 25272,21949  25295,21953 25316,21957 25335,21960 25352,21963 25366,21965 25377,21967 25387,21969  25396,21970 25412,21973 25425,21975 25434,21977 25439,21978 25442,21978 25444,21978  25445,21978 25447,21977 25448,21976 25450,21974 25451,21973 25453,21972 25456,21971  25459,21969 25463,21968 25467,21967 25472,21966 25478,21966 25485,21966 25492,21966  25499,21967 25505,21969 25512,21972 25518,21976 25524,21980 25529,21984 25533,21988  25536,21993 25539,21997 25542,22002 25544,22007 25545,22011 25546,22015 25547,22020  25547,22025 25548,22029 25547,22034 25547,22039 25545,22044 25544,22050 25542,22055  25540,22059 25537,22064 25534,22069 25530,22074 25526,22078 25521,22081 25516,22085  25509,22088 25503,22090 25497,22092 25490,22092 25483,22093 25476,22092 25469,22091  25463,22090 25458,22088 25454,22086 25450,22084 25446,22082 25444,22080 25441,22078  25439,22076 25437,22074 25435,22072 25434,22070 25433,22069 25432,22067 25431,22066  25430,22064 25429,22064 25428,22063 25425,22063 25420,22062 25411,22061 25399,22059  25382,22056 25374,22055 25364,22053 25352,22051 25338,22049 25321,22046 25302,22043  25280,22039 25257,22035 25234,22032 25214,22028 25198,22025 25189,22024 25185,22023  25184,22023"
     fill="#8e8f8e"
     stroke="#000000"
     stroke-width="8px"
     stroke-linejoin="bevel"
     id="polyline7411" />
  <polygon
     points="25038,21898 25042,21895 25045,21893 25050,21890 25056,21887 25062,21884 25069,21881 25076,21879 25083,21876 25091,21874 25100,21873 25109,21871 25118,21871 25126,21870 25134,21871 25142,21871 25150,21873 25157,21875 25164,21877 25169,21880 25174,21884 25178,21888 25183,21893 25186,21898 25189,21904 25191,21910 25193,21916 25195,21922 25196,21930 25197,21937 25197,21945 25197,21951 25197,21958 25197,21965 25196,21972 25195,21979 25194,21986 25193,21992 25192,21998 25190,22004 25189,22010 25187,22017 25185,22023 25182,22028 25180,22034 25177,22039 25173,22045 25170,22051 25165,22056 25161,22060 25156,22063 25149,22066 25142,22068 25134,22070 25127,22070 25121,22070 25115,22069 25108,22068 25101,22066 25095,22064 25089,22062 25083,22060 25077,22057 25070,22053 25064,22050 25059,22047 25055,22044 25049,22040 25044,22036 25040,22032 25036,22029 25033,22026 25030,22023 25027,22020 25025,22018 25023,22015 25021,22013 25019,22010 25018,22007 25017,22004 25016,22002 25015,21999 25015,21997 25015,21996 25015,21994 25015,21993 25016,21993 25017,21992 25018,21992 25022,21993 25027,21994 25034,21995 25041,21997 25051,21998 25062,22000 25073,22002 25083,22004 25091,22006 25098,22007 25104,22007 25108,22007 25111,22007 25112,22006 25113,22005 25115,22004 25116,22001 25117,21999 25118,21996 25119,21993 25120,21990 25121,21986 25122,21981 25123,21977 25124,21973 25125,21968 25126,21962 25127,21957 25127,21953 25128,21949 25128,21945 25128,21940 25127,21937 25126,21934 25125,21932 25124,21931 25121,21929 25117,21928 25112,21926 25106,21925 25098,21924 25088,21922 25077,21920 25066,21918 25056,21917 25048,21916 25040,21915 25035,21914 25031,21913 25029,21913 25028,21912 25027,21911 25028,21910 25028,21909 25029,21908 25030,21906 25032,21905 25033,21903 25035,21900 "
     fill="#8e8f8e"
     stroke="#000000"
     stroke-width="8px"
     stroke-linejoin="bevel"
     id="polygon7413" />
  <text
     xml:space="preserve"
     x="18000"
     y="18675"
     fill="#000000"
     font-family="Times"
     font-style="normal"
     font-weight="bold"
     font-size="250px"
     text-anchor="middle"
     id="text7415">MeteoProcessor</text>
  <text
     xml:space="preserve"
     x="15210"
     y="18630"
     fill="#000000"
     font-family="Times"
     font-style="normal"
     font-weight="bold"
     font-size="250px"
     text-anchor="middle"
     id="text7417">DataGenerator</text>
  <polyline
     points=" 12925,21058 12926,21058 12930,21059 12939,21060 12955,21063 12975,21066 12998,21070  13021,21074 13042,21078 13061,21081 13078,21084 13092,21086 13103,21088 13113,21090  13122,21091 13138,21094 13151,21096 13160,21098 13165,21099 13168,21099 13170,21099  13171,21099 13173,21098 13174,21097 13176,21095 13177,21094 13179,21093 13182,21092  13185,21090 13189,21089 13193,21088 13198,21087 13204,21087 13211,21087 13218,21087  13225,21088 13231,21090 13238,21093 13244,21097 13250,21101 13255,21105 13259,21109  13262,21114 13265,21118 13268,21123 13270,21128 13271,21132 13272,21136 13273,21141  13273,21146 13274,21150 13273,21155 13273,21160 13271,21165 13270,21171 13268,21176  13266,21180 13263,21185 13260,21190 13256,21195 13252,21199 13247,21202 13242,21206  13235,21209 13229,21211 13223,21213 13216,21213 13209,21214 13202,21213 13195,21212  13189,21211 13184,21209 13180,21207 13176,21205 13172,21203 13170,21201 13167,21199  13165,21197 13163,21195 13161,21193 13160,21191 13159,21190 13158,21188 13157,21187  13156,21185 13155,21185 13154,21184 13151,21184 13146,21183 13137,21182 13125,21180  13108,21177 13100,21176 13090,21174 13078,21172 13064,21170 13047,21167 13028,21164  13006,21160 12983,21156 12960,21153 12940,21149 12924,21146 12915,21145 12911,21144  12910,21144"
     fill="#8e8f8e"
     stroke="#000000"
     stroke-width="8px"
     stroke-linejoin="bevel"
     id="polyline7419" />
  <polygon
     points="12764,21019 12768,21016 12771,21014 12776,21011 12782,21008 12788,21005 12795,21002 12802,21000 12809,20997 12817,20995 12826,20994 12835,20992 12844,20992 12852,20991 12860,20992 12868,20992 12876,20994 12883,20996 12890,20998 12895,21001 12900,21005 12904,21009 12909,21014 12912,21019 12915,21025 12917,21031 12919,21037 12921,21043 12922,21051 12923,21058 12923,21066 12923,21072 12923,21079 12923,21086 12922,21093 12921,21100 12920,21107 12919,21113 12918,21119 12916,21125 12915,21131 12913,21138 12911,21144 12908,21149 12906,21155 12903,21160 12899,21166 12896,21172 12891,21177 12887,21181 12882,21184 12875,21187 12868,21189 12860,21191 12853,21191 12847,21191 12841,21190 12834,21189 12827,21187 12821,21185 12815,21183 12809,21181 12803,21178 12796,21174 12790,21171 12785,21168 12781,21165 12775,21161 12770,21157 12766,21153 12762,21150 12759,21147 12756,21144 12753,21141 12751,21139 12749,21136 12747,21134 12745,21131 12744,21128 12743,21125 12742,21123 12741,21120 12741,21118 12741,21117 12741,21115 12741,21114 12742,21114 12743,21113 12744,21113 12748,21114 12753,21115 12760,21116 12767,21118 12777,21119 12788,21121 12799,21123 12809,21125 12817,21127 12824,21128 12830,21128 12834,21128 12837,21128 12838,21127 12839,21126 12841,21125 12842,21122 12843,21120 12844,21117 12845,21114 12846,21111 12847,21107 12848,21102 12849,21098 12850,21094 12851,21089 12852,21083 12853,21078 12853,21074 12854,21070 12854,21066 12854,21061 12853,21058 12852,21055 12851,21053 12850,21052 12847,21050 12843,21049 12838,21047 12832,21046 12824,21045 12814,21043 12803,21041 12792,21039 12782,21038 12774,21037 12766,21036 12761,21035 12757,21034 12755,21034 12754,21033 12753,21032 12754,21031 12754,21030 12755,21029 12756,21027 12758,21026 12759,21024 12761,21021 "
     fill="#8e8f8e"
     stroke="#000000"
     stroke-width="8px"
     stroke-linejoin="bevel"
     id="polygon7421" />
  <text
     xml:space="preserve"
     x="12960"
     y="20970"
     fill="#000000"
     font-family="Times"
     font-style="normal"
     font-weight="bold"
     font-size="250px"
     text-anchor="middle"
     id="text7423">GeneratorAlgorithms</text>
  <polyline
     points=" 16160,23771 16161,23771 16165,23772 16174,23773 16190,23776 16210,23779 16233,23783  16256,23787 16277,23791 16296,23794 16313,23797 16327,23799 16338,23801 16348,23803  16357,23804 16373,23807 16386,23809 16395,23811 16400,23812 16403,23812 16405,23812  16406,23812 16408,23811 16409,23810 16411,23808 16412,23807 16414,23806 16417,23805  16420,23803 16424,23802 16428,23801 16433,23800 16439,23800 16446,23800 16453,23800  16460,23801 16466,23803 16473,23806 16479,23810 16485,23814 16490,23818 16494,23822  16497,23827 16500,23831 16503,23836 16505,23841 16506,23845 16507,23849 16508,23854  16508,23859 16509,23863 16508,23868 16508,23873 16506,23878 16505,23884 16503,23889  16501,23893 16498,23898 16495,23903 16491,23908 16487,23912 16482,23915 16477,23919  16470,23922 16464,23924 16458,23926 16451,23926 16444,23927 16437,23926 16430,23925  16424,23924 16419,23922 16415,23920 16411,23918 16407,23916 16405,23914 16402,23912  16400,23910 16398,23908 16396,23906 16395,23904 16394,23903 16393,23901 16392,23900  16391,23898 16390,23898 16389,23897 16386,23897 16381,23896 16372,23895 16360,23893  16343,23890 16335,23889 16325,23887 16313,23885 16299,23883 16282,23880 16263,23877  16241,23873 16218,23869 16195,23866 16175,23862 16159,23859 16150,23858 16146,23857  16145,23857"
     fill="#8e8f8e"
     stroke="#000000"
     stroke-width="8px"
     stroke-linejoin="bevel"
     id="polyline7425" />
  <polygon
     points="15999,23732 16003,23729 16006,23727 16011,23724 16017,23721 16023,23718 16030,23715 16037,23713 16044,23710 16052,23708 16061,23707 16070,23705 16079,23705 16087,23704 16095,23705 16103,23705 16111,23707 16118,23709 16125,23711 16130,23714 16135,23718 16139,23722 16144,23727 16147,23732 16150,23738 16152,23744 16154,23750 16156,23756 16157,23764 16158,23771 16158,23779 16158,23785 16158,23792 16158,23799 16157,23806 16156,23813 16155,23820 16154,23826 16153,23832 16151,23838 16150,23844 16148,23851 16146,23857 16143,23862 16141,23868 16138,23873 16134,23879 16131,23885 16126,23890 16122,23894 16117,23897 16110,23900 16103,23902 16095,23904 16088,23904 16082,23904 16076,23903 16069,23902 16062,23900 16056,23898 16050,23896 16044,23894 16038,23891 16031,23887 16025,23884 16020,23881 16016,23878 16010,23874 16005,23870 16001,23866 15997,23863 15994,23860 15991,23857 15988,23854 15986,23852 15984,23849 15982,23847 15980,23844 15979,23841 15978,23838 15977,23836 15976,23833 15976,23831 15976,23830 15976,23828 15976,23827 15977,23827 15978,23826 15979,23826 15983,23827 15988,23828 15995,23829 16002,23831 16012,23832 16023,23834 16034,23836 16044,23838 16052,23840 16059,23841 16065,23841 16069,23841 16072,23841 16073,23840 16074,23839 16076,23838 16077,23835 16078,23833 16079,23830 16080,23827 16081,23824 16082,23820 16083,23815 16084,23811 16085,23807 16086,23802 16087,23796 16088,23791 16088,23787 16089,23783 16089,23779 16089,23774 16088,23771 16087,23768 16086,23766 16085,23765 16082,23763 16078,23762 16073,23760 16067,23759 16059,23758 16049,23756 16038,23754 16027,23752 16017,23751 16009,23750 16001,23749 15996,23748 15992,23747 15990,23747 15989,23746 15988,23745 15989,23744 15989,23743 15990,23742 15991,23740 15993,23739 15994,23737 15996,23734 "
     fill="#8e8f8e"
     stroke="#000000"
     stroke-width="8px"
     stroke-linejoin="bevel"
     id="polygon7427" />
  <polyline
     points=" 16425,21870 16425,23220"
     clip-path="url(#cp0)"
     stroke="#000000"
     stroke-width="45px"
     id="polyline7434"
     style="fill:none" />
  <polyline
     points=" 16515,22912 16425,23152 16335,22912"
     stroke="#000000"
     stroke-width="45px"
     stroke-miterlimit="8"
     id="polyline7436"
     style="fill:none" />
  <polyline
     points=" 16200,23220 16200,21870"
     clip-path="url(#cp1)"
     stroke="#000000"
     stroke-width="45px"
     id="polyline7443"
     style="fill:none" />
  <polyline
     points=" 16110,22178 16200,21938 16290,22178"
     stroke="#000000"
     stroke-width="45px"
     stroke-miterlimit="8"
     id="polyline7445"
     style="fill:none" />
  <text
     xml:space="preserve"
     x="16245"
     y="21015"
     fill="#000000"
     font-family="Times"
     font-style="normal"
     font-weight="bold"
     font-size="250px"
     text-anchor="middle"
     id="text7447">Meteo1DInterpolator</text>
  <text
     xml:space="preserve"
     x="16290"
     y="21510"
     fill="#000000"
     font-family="Times"
     font-style="italic"
     font-weight="normal"
     font-size="250px"
     text-anchor="middle"
     id="text7449">interpolate at timestamp</text>
  <text
     xml:space="preserve"
     x="16290"
     y="21735"
     fill="#000000"
     font-family="Times"
     font-style="italic"
     font-weight="normal"
     font-size="250px"
     text-anchor="middle"
     id="text7451">or reaccumulate data buffer</text>
  <text
     xml:space="preserve"
     x="16290"
     y="23670"
     fill="#000000"
     font-family="Times"
     font-style="normal"
     font-weight="bold"
     font-size="250px"
     text-anchor="middle"
     id="text7453">ResamplingAlgorithms</text>
  <polyline
     points=" 19581,23771 19582,23771 19586,23772 19595,23773 19611,23776 19631,23779 19654,23783  19677,23787 19698,23791 19717,23794 19734,23797 19748,23799 19759,23801 19769,23803  19778,23804 19794,23807 19807,23809 19816,23811 19821,23812 19824,23812 19826,23812  19827,23812 19829,23811 19830,23810 19832,23808 19833,23807 19835,23806 19838,23805  19841,23803 19845,23802 19849,23801 19854,23800 19860,23800 19867,23800 19874,23800  19881,23801 19887,23803 19894,23806 19900,23810 19906,23814 19911,23818 19915,23822  19918,23827 19921,23831 19924,23836 19926,23841 19927,23845 19928,23849 19929,23854  19929,23859 19930,23863 19929,23868 19929,23873 19927,23878 19926,23884 19924,23889  19922,23893 19919,23898 19916,23903 19912,23908 19908,23912 19903,23915 19898,23919  19891,23922 19885,23924 19879,23926 19872,23926 19865,23927 19858,23926 19851,23925  19845,23924 19840,23922 19836,23920 19832,23918 19828,23916 19826,23914 19823,23912  19821,23910 19819,23908 19817,23906 19816,23904 19815,23903 19814,23901 19813,23900  19812,23898 19811,23898 19810,23897 19807,23897 19802,23896 19793,23895 19781,23893  19764,23890 19756,23889 19746,23887 19734,23885 19720,23883 19703,23880 19684,23877  19662,23873 19639,23869 19616,23866 19596,23862 19580,23859 19571,23858 19567,23857  19566,23857"
     fill="#8e8f8e"
     stroke="#000000"
     stroke-width="8px"
     stroke-linejoin="bevel"
     id="polyline7455" />
  <polygon
     points="19420,23732 19424,23729 19427,23727 19432,23724 19438,23721 19444,23718 19451,23715 19458,23713 19465,23710 19473,23708 19482,23707 19491,23705 19500,23705 19508,23704 19516,23705 19524,23705 19532,23707 19539,23709 19546,23711 19551,23714 19556,23718 19560,23722 19565,23727 19568,23732 19571,23738 19573,23744 19575,23750 19577,23756 19578,23764 19579,23771 19579,23779 19579,23785 19579,23792 19579,23799 19578,23806 19577,23813 19576,23820 19575,23826 19574,23832 19572,23838 19571,23844 19569,23851 19567,23857 19564,23862 19562,23868 19559,23873 19555,23879 19552,23885 19547,23890 19543,23894 19538,23897 19531,23900 19524,23902 19516,23904 19509,23904 19503,23904 19497,23903 19490,23902 19483,23900 19477,23898 19471,23896 19465,23894 19459,23891 19452,23887 19446,23884 19441,23881 19437,23878 19431,23874 19426,23870 19422,23866 19418,23863 19415,23860 19412,23857 19409,23854 19407,23852 19405,23849 19403,23847 19401,23844 19400,23841 19399,23838 19398,23836 19397,23833 19397,23831 19397,23830 19397,23828 19397,23827 19398,23827 19399,23826 19400,23826 19404,23827 19409,23828 19416,23829 19423,23831 19433,23832 19444,23834 19455,23836 19465,23838 19473,23840 19480,23841 19486,23841 19490,23841 19493,23841 19494,23840 19495,23839 19497,23838 19498,23835 19499,23833 19500,23830 19501,23827 19502,23824 19503,23820 19504,23815 19505,23811 19506,23807 19507,23802 19508,23796 19509,23791 19509,23787 19510,23783 19510,23779 19510,23774 19509,23771 19508,23768 19507,23766 19506,23765 19503,23763 19499,23762 19494,23760 19488,23759 19480,23758 19470,23756 19459,23754 19448,23752 19438,23751 19430,23750 19422,23749 19417,23748 19413,23747 19411,23747 19410,23746 19409,23745 19410,23744 19410,23743 19411,23742 19412,23740 19414,23739 19415,23737 19417,23734 "
     fill="#8e8f8e"
     stroke="#000000"
     stroke-width="8px"
     stroke-linejoin="bevel"
     id="polygon7457" />
  <polyline
     points=" 19485,23220 19485,21645"
     clip-path="url(#cp2)"
     stroke="#000000"
     stroke-width="45px"
     id="polyline7464"
     style="fill:none" />
  <polyline
     points=" 19395,21953 19485,21713 19575,21953"
     stroke="#000000"
     stroke-width="45px"
     stroke-miterlimit="8"
     id="polyline7466"
     style="fill:none" />
  <polyline
     points=" 19710,21645 19710,23220"
     clip-path="url(#cp3)"
     stroke="#000000"
     stroke-width="45px"
     id="polyline7473"
     style="fill:none" />
  <polyline
     points=" 19800,22912 19710,23152 19620,22912"
     stroke="#000000"
     stroke-width="45px"
     stroke-miterlimit="8"
     id="polyline7475"
     style="fill:none" />
  <text
     xml:space="preserve"
     x="19620"
     y="21015"
     fill="#000000"
     font-family="Times"
     font-style="normal"
     font-weight="bold"
     font-size="250px"
     text-anchor="middle"
     id="text7477">ProcessingStack</text>
  <text
     xml:space="preserve"
     x="19620"
     y="23670"
     fill="#000000"
     font-family="Times"
     font-style="normal"
     font-weight="bold"
     font-size="250px"
     text-anchor="middle"
     id="text7479">ProcessingBlock</text>
  <text
     xml:space="preserve"
     x="19620"
     y="21510"
     fill="#000000"
     font-family="Times"
     font-style="italic"
     font-weight="normal"
     font-size="250px"
     text-anchor="middle"
     id="text7481">filter data buffer</text>
  <polyline
     points=" 16515,20520 17955,18945"
     clip-path="url(#cp4)"
     stroke="#000000"
     stroke-width="30px"
     id="polyline7488"
     style="fill:none" />
  <polyline
     points=" 17753,19066 17924,18979 17853,19157"
     stroke="#000000"
     stroke-width="30px"
     stroke-miterlimit="8"
     id="polyline7490"
     style="fill:none" />
  <polyline
     points=" 17730,18990 16290,20520"
     clip-path="url(#cp5)"
     stroke="#000000"
     stroke-width="30px"
     id="polyline7497"
     style="fill:none" />
  <polyline
     points=" 16494,20402 16321,20487 16395,20309"
     stroke="#000000"
     stroke-width="30px"
     stroke-miterlimit="8"
     id="polyline7499"
     style="fill:none" />
  <g
     transform="rotate(-90,13042.5,997.5)"
     id="g7503"
     style="fill:none">
    <text
       xml:space="preserve"
       x="0"
       y="0"
       fill="#000000"
       font-family="Times"
       font-style="normal"
       font-weight="bold"
       font-size="250px"
       text-anchor="middle"
       id="text7501">IOManager</text>
  </g>
  <path
     d="m 8577,13242 363,4 a 363,363 0 0 0 -288,-360 z"
     fill="#000000"
     id="path7505" />
  <path
     d="m 8057,13240 -361,6 a 361,361 0 0 1 287,-360 z"
     fill="#000000"
     id="path7507" />
  <circle
     cx="8316"
     cy="12559"
     r="260"
     fill="#000000"
     id="circle7509" />
  <rect
     x="7696"
     y="13149"
     width="232"
     height="1006"
     rx="120"
     fill="#000000"
     id="rect7511" />
  <rect
     x="8707"
     y="13149"
     width="232"
     height="1006"
     rx="120"
     fill="#000000"
     id="rect7513" />
  <rect
     x="7983"
     y="13940"
     width="305"
     height="1540"
     rx="150"
     fill="#000000"
     id="rect7515" />
  <rect
     x="8347"
     y="13940"
     width="305"
     height="1540"
     rx="150"
     fill="#000000"
     id="rect7517" />
  <rect
     x="7983"
     y="12883"
     width="669"
     height="1244"
     fill="#000000"
     id="rect7519" />
  <rect
     x="7806"
     y="13014"
     width="1040"
     height="281"
     fill="#000000"
     id="rect7521" />
  <text
     xml:space="preserve"
     x="8318"
     y="16110"
     fill="#000000"
     font-family="Times"
     font-style="italic"
     font-weight="bold"
     font-size="240px"
     text-anchor="middle"
     id="text7523"
     style="-inkscape-font-specification:'Times, Bold Italic';font-family:Times;font-weight:bold;font-style:italic;font-stretch:normal;font-variant:normal;font-size:317.359px;font-variant-ligatures:normal;font-variant-caps:normal;font-variant-numeric:normal;font-variant-east-asian:normal;text-anchor:middle;fill:#000000">Caller</text>
  <g
     transform="rotate(-90,12420,2250)"
     id="g7527"
     style="fill:none">
    <text
       xml:space="preserve"
       x="0"
       y="0"
       fill="#000000"
       font-family="Times"
       font-style="italic"
       font-weight="normal"
       font-size="250px"
       text-anchor="end"
       id="text7525">return data for</text>
  </g>
  <g
     transform="rotate(-90,12585,2085)"
     id="g7531"
     style="fill:none">
    <text
       xml:space="preserve"
       x="0"
       y="0"
       fill="#000000"
       font-family="Times"
       font-style="italic"
       font-weight="normal"
       font-size="250px"
       text-anchor="end"
       id="text7529">2010-07-11T08:32</text>
  </g>
  <polyline
     points=" 11430,14535 9270,14535"
     clip-path="url(#cp6)"
     stroke="#000000"
     stroke-width="45px"
     id="polyline7538"
     style="fill:none" />
  <polyline
     points=" 9578,14625 9338,14535 9578,14445"
     stroke="#000000"
     stroke-width="45px"
     stroke-miterlimit="8"
     id="polyline7540"
     style="fill:none" />
  <g
     transform="rotate(-90,11812.5,1642.5)"
     id="g7544"
     style="fill:none">
    <text
       xml:space="preserve"
       x="0"
       y="0"
       fill="#000000"
       font-family="Times"
       font-style="italic"
       font-weight="normal"
       font-size="250px"
       text-anchor="start"
       id="text7542">request data for</text>
  </g>
  <g
     transform="rotate(-90,11992.5,1462.5)"
     id="g7548"
     style="fill:none">
    <text
       xml:space="preserve"
       x="0"
       y="0"
       fill="#000000"
       font-family="Times"
       font-style="italic"
       font-weight="normal"
       font-size="250px"
       text-anchor="start"
       id="text7546">2010-07-11T08:32:00</text>
  </g>
  <polyline
     points=" 9270,13590 11475,13590"
     clip-path="url(#cp7)"
     stroke="#000000"
     stroke-width="45px"
     id="polyline7555"
     style="fill:none" />
  <polyline
     points=" 11167,13500 11407,13590 11167,13680"
     stroke="#000000"
     stroke-width="45px"
     stroke-miterlimit="8"
     id="polyline7557"
     style="fill:none" />
  <polyline
     points=" 21515,16000 21516,16000 21520,16001 21529,16002 21545,16005 21565,16008 21588,16012  21611,16016 21632,16020 21651,16023 21668,16026 21682,16028 21693,16030 21703,16032  21712,16033 21728,16036 21741,16038 21750,16040 21755,16041 21758,16041 21760,16041  21761,16041 21763,16040 21764,16039 21766,16037 21767,16036 21769,16035 21772,16034  21775,16032 21779,16031 21783,16030 21788,16029 21794,16029 21801,16029 21808,16029  21815,16030 21821,16032 21828,16035 21834,16039 21840,16043 21845,16047 21849,16051  21852,16056 21855,16060 21858,16065 21860,16070 21861,16074 21862,16078 21863,16083  21863,16088 21864,16092 21863,16097 21863,16102 21861,16107 21860,16113 21858,16118  21856,16122 21853,16127 21850,16132 21846,16137 21842,16141 21837,16144 21832,16148  21825,16151 21819,16153 21813,16155 21806,16155 21799,16156 21792,16155 21785,16154  21779,16153 21774,16151 21770,16149 21766,16147 21762,16145 21760,16143 21757,16141  21755,16139 21753,16137 21751,16135 21750,16133 21749,16132 21748,16130 21747,16129  21746,16127 21745,16127 21744,16126 21741,16126 21736,16125 21727,16124 21715,16122  21698,16119 21690,16118 21680,16116 21668,16114 21654,16112 21637,16109 21618,16106  21596,16102 21573,16098 21550,16095 21530,16091 21514,16088 21505,16087 21501,16086  21500,16086"
     fill="#8e8f8e"
     stroke="#000000"
     stroke-width="8px"
     stroke-linejoin="bevel"
     id="polyline7559" />
  <polygon
     points="21354,15961 21358,15958 21361,15956 21366,15953 21372,15950 21378,15947 21385,15944 21392,15942 21399,15939 21407,15937 21416,15936 21425,15934 21434,15934 21442,15933 21450,15934 21458,15934 21466,15936 21473,15938 21480,15940 21485,15943 21490,15947 21494,15951 21499,15956 21502,15961 21505,15967 21507,15973 21509,15979 21511,15985 21512,15993 21513,16000 21513,16008 21513,16014 21513,16021 21513,16028 21512,16035 21511,16042 21510,16049 21509,16055 21508,16061 21506,16067 21505,16073 21503,16080 21501,16086 21498,16091 21496,16097 21493,16102 21489,16108 21486,16114 21481,16119 21477,16123 21472,16126 21465,16129 21458,16131 21450,16133 21443,16133 21437,16133 21431,16132 21424,16131 21417,16129 21411,16127 21405,16125 21399,16123 21393,16120 21386,16116 21380,16113 21375,16110 21371,16107 21365,16103 21360,16099 21356,16095 21352,16092 21349,16089 21346,16086 21343,16083 21341,16081 21339,16078 21337,16076 21335,16073 21334,16070 21333,16067 21332,16065 21331,16062 21331,16060 21331,16059 21331,16057 21331,16056 21332,16056 21333,16055 21334,16055 21338,16056 21343,16057 21350,16058 21357,16060 21367,16061 21378,16063 21389,16065 21399,16067 21407,16069 21414,16070 21420,16070 21424,16070 21427,16070 21428,16069 21429,16068 21431,16067 21432,16064 21433,16062 21434,16059 21435,16056 21436,16053 21437,16049 21438,16044 21439,16040 21440,16036 21441,16031 21442,16025 21443,16020 21443,16016 21444,16012 21444,16008 21444,16003 21443,16000 21442,15997 21441,15995 21440,15994 21437,15992 21433,15991 21428,15989 21422,15988 21414,15987 21404,15985 21393,15983 21382,15981 21372,15980 21364,15979 21356,15978 21351,15977 21347,15976 21345,15976 21344,15975 21343,15974 21344,15973 21344,15972 21345,15971 21346,15969 21348,15968 21349,15966 21351,15963 "
     fill="#8e8f8e"
     stroke="#000000"
     stroke-width="8px"
     stroke-linejoin="bevel"
     id="polygon7561" />
  <path
     d="m 14760,12915 a 1631,1631 0 0 1 0,2250"
     clip-path="url(#cp8)"
     stroke="#808080"
     stroke-width="45px"
     stroke-dasharray="60, 60"
     id="path7568"
     style="fill:none" />
  <polyline
     points=" 15022,14979 14802,15111 14881,14867"
     stroke="#808080"
     stroke-width="45px"
     stroke-miterlimit="8"
     id="polyline7570"
     style="fill:none" />
  <path
     d="m 16650,12915 a 1631,1631 0 0 1 0,2250"
     clip-path="url(#cp9)"
     stroke="#808080"
     stroke-width="45px"
     stroke-dasharray="60, 60"
     id="path7577"
     style="fill:none" />
  <polyline
     points=" 16912,14979 16692,15111 16771,14867"
     stroke="#808080"
     stroke-width="45px"
     stroke-miterlimit="8"
     id="polyline7579"
     style="fill:none" />
  <path
     d="m 18270,12915 a 1631,1631 0 0 1 0,2250"
     clip-path="url(#cp10)"
     stroke="#808080"
     stroke-width="45px"
     stroke-dasharray="60, 60"
     id="path7586"
     style="fill:none" />
  <polyline
     points=" 18532,14979 18312,15111 18391,14867"
     stroke="#808080"
     stroke-width="45px"
     stroke-miterlimit="8"
     id="polyline7588"
     style="fill:none" />
  <polyline
     points=" 13163,20520 15188,18945"
     clip-path="url(#cp11)"
     stroke="#000000"
     stroke-width="30px"
     id="polyline7595"
     style="fill:none" />
  <polyline
     points=" 14969,19030 15152,18973 15051,19137"
     stroke="#000000"
     stroke-width="30px"
     stroke-miterlimit="8"
     id="polyline7597"
     style="fill:none" />
  <polyline
     points=" 12510,13635 12915,13635 12915,12240 14490,12240"
     clip-path="url(#cp12)"
     stroke="#000000"
     stroke-width="45px"
     id="polyline7604"
     style="fill:none" />
  <polyline
     points=" 14182,12150 14422,12240 14182,12330"
     stroke="#000000"
     stroke-width="45px"
     stroke-miterlimit="8"
     id="polyline7606"
     style="fill:none" />
  <polyline
     points=" 14445,15885 12915,15885 12915,14535 12510,14535"
     clip-path="url(#cp13)"
     stroke="#000000"
     stroke-width="45px"
     id="polyline7613"
     style="fill:none" />
  <polyline
     points=" 12818,14625 12578,14535 12818,14445"
     stroke="#000000"
     stroke-width="45px"
     stroke-miterlimit="8"
     id="polyline7615"
     style="fill:none" />
  <polyline
     points=" 27630,14085 26460,14085"
     clip-path="url(#cp14)"
     stroke="#000000"
     stroke-width="45px"
     id="polyline7622"
     style="fill:none" />
  <polyline
     points=" 26768,14175 26528,14085 26768,13995"
     stroke="#000000"
     stroke-width="45px"
     stroke-miterlimit="8"
     id="polyline7624"
     style="fill:none" />
  <polyline
     points=" 18135,16650 18135,18225"
     clip-path="url(#cp15)"
     stroke="#000000"
     stroke-width="45px"
     id="polyline7631"
     style="fill:none" />
  <polyline
     points=" 18225,17917 18135,18157 18045,17917"
     stroke="#000000"
     stroke-width="45px"
     stroke-miterlimit="8"
     id="polyline7633"
     style="fill:none" />
  <polyline
     points=" 17910,18180 17910,16605"
     clip-path="url(#cp16)"
     stroke="#000000"
     stroke-width="45px"
     id="polyline7640"
     style="fill:none" />
  <polyline
     points=" 17820,16913 17910,16673 18000,16913"
     stroke="#000000"
     stroke-width="45px"
     stroke-miterlimit="8"
     id="polyline7642"
     style="fill:none" />
  <polyline
     points=" 15210,18180 15210,16605"
     clip-path="url(#cp17)"
     stroke="#000000"
     stroke-width="45px"
     id="polyline7649"
     style="fill:none" />
  <polyline
     points=" 15120,16913 15210,16673 15300,16913"
     stroke="#000000"
     stroke-width="45px"
     stroke-miterlimit="8"
     id="polyline7651"
     style="fill:none" />
  <polyline
     points=" 18675,12240 20250,12240"
     clip-path="url(#cp18)"
     stroke="#000000"
     stroke-width="45px"
     id="polyline7658"
     style="fill:none" />
  <polyline
     points=" 19942,12150 20182,12240 19942,12330"
     stroke="#000000"
     stroke-width="45px"
     stroke-miterlimit="8"
     id="polyline7660"
     style="fill:none" />
  <polyline
     points=" 20250,15885 18675,15885"
     clip-path="url(#cp19)"
     stroke="#000000"
     stroke-width="45px"
     id="polyline7667"
     style="fill:none" />
  <polyline
     points=" 18983,15975 18743,15885 18983,15795"
     stroke="#000000"
     stroke-width="45px"
     stroke-miterlimit="8"
     id="polyline7669"
     style="fill:none" />
  <polyline
     points=" 22860,12240 24435,12240"
     clip-path="url(#cp20)"
     stroke="#000000"
     stroke-width="45px"
     id="polyline7676"
     style="fill:none" />
  <polyline
     points=" 24127,12150 24367,12240 24127,12330"
     stroke="#000000"
     stroke-width="45px"
     stroke-miterlimit="8"
     id="polyline7678"
     style="fill:none" />
  <polyline
     points=" 24390,15885 22860,15885"
     clip-path="url(#cp21)"
     stroke="#000000"
     stroke-width="45px"
     id="polyline7685"
     style="fill:none" />
  <polyline
     points=" 23168,15975 22928,15885 23168,15795"
     stroke="#000000"
     stroke-width="45px"
     stroke-miterlimit="8"
     id="polyline7687"
     style="fill:none" />
  <polyline
     points=" 18270,18990 19710,20520"
     clip-path="url(#cp22)"
     stroke="#000000"
     stroke-width="30px"
     id="polyline7694"
     style="fill:none" />
  <polyline
     points=" 19605,20309 19679,20487 19506,20402"
     stroke="#000000"
     stroke-width="30px"
     stroke-miterlimit="8"
     id="polyline7696"
     style="fill:none" />
  <polyline
     points=" 19485,20520 18045,18945"
     clip-path="url(#cp23)"
     stroke="#000000"
     stroke-width="30px"
     id="polyline7703"
     style="fill:none" />
  <polyline
     points=" 18147,19157 18076,18979 18247,19066"
     stroke="#000000"
     stroke-width="30px"
     stroke-miterlimit="8"
     id="polyline7705"
     style="fill:none" />
  <g
     transform="rotate(-90,15682.5,-3532.5)"
     id="g7709"
     style="fill:none">
    <text
       xml:space="preserve"
       x="0"
       y="0"
       fill="#000000"
       font-family="Times"
       font-style="italic"
       font-weight="normal"
       font-size="250px"
       text-anchor="start"
       id="text7707">request 5000 data points</text>
  </g>
  <g
     transform="rotate(-90,15862.5,-3712.5)"
     id="g7713"
     style="fill:none">
    <text
       xml:space="preserve"
       x="0"
       y="0"
       fill="#000000"
       font-family="Times"
       font-style="italic"
       font-weight="normal"
       font-size="250px"
       text-anchor="start"
       id="text7711">&gt;= 2010-07-10T08:32:00</text>
  </g>
  <g
     transform="rotate(-90,17820,-5670)"
     id="g7717"
     style="fill:none">
    <text
       xml:space="preserve"
       x="0"
       y="0"
       fill="#000000"
       font-family="Times"
       font-style="italic"
       font-weight="normal"
       font-size="250px"
       text-anchor="start"
       id="text7715">request 5000 data points</text>
  </g>
  <g
     transform="rotate(-90,18000,-5850)"
     id="g7721"
     style="fill:none">
    <text
       xml:space="preserve"
       x="0"
       y="0"
       fill="#000000"
       font-family="Times"
       font-style="italic"
       font-weight="normal"
       font-size="250px"
       text-anchor="start"
       id="text7719">&gt;= 2010-07-10T08:32:00</text>
  </g>
  <g
     transform="rotate(-90,19777.5,-3757.5)"
     id="g7725"
     style="fill:none">
    <text
       xml:space="preserve"
       x="0"
       y="0"
       fill="#000000"
       font-family="Times"
       font-style="italic"
       font-weight="normal"
       font-size="250px"
       text-anchor="end"
       id="text7723">return vector of timestamp per station</text>
  </g>
  <g
     transform="rotate(-90,19942.5,-3922.5)"
     id="g7729"
     style="fill:none">
    <text
       xml:space="preserve"
       x="0"
       y="0"
       fill="#000000"
       font-family="Times"
       font-style="italic"
       font-weight="normal"
       font-size="250px"
       text-anchor="end"
       id="text7727">in a vector of stations</text>
  </g>
  <text
     xml:space="preserve"
     x="25335"
     y="12600"
     fill="#000000"
     font-family="Times"
     font-style="normal"
     font-weight="bold"
     font-size="250px"
     text-anchor="middle"
     id="text7731">plugin</text>
  <text
     xml:space="preserve"
     x="16605"
     y="15975"
     fill="#000000"
     font-family="Times"
     font-style="normal"
     font-weight="bold"
     font-size="250px"
     text-anchor="middle"
     id="text7733">TimeSeriesManager</text>
  <text
     xml:space="preserve"
     x="16605"
     y="12285"
     fill="#000000"
     font-family="Times"
     font-style="normal"
     font-weight="bold"
     font-size="250px"
     text-anchor="middle"
     id="text7735">TimeSeriesManager</text>
  <text
     xml:space="preserve"
     x="16605"
     y="12825"
     fill="#000000"
     font-family="Times"
     font-style="italic"
     font-weight="normal"
     font-size="250px"
     text-anchor="middle"
     id="text7737">is data in buffer?</text>
  <text
     xml:space="preserve"
     x="16605"
     y="15480"
     fill="#000000"
     font-family="Times"
     font-style="italic"
     font-weight="normal"
     font-size="250px"
     text-anchor="middle"
     id="text7739">return data from buffer</text>
  <text
     xml:space="preserve"
     x="16605"
     y="16515"
     fill="#000000"
     font-family="Times"
     font-style="italic"
     font-weight="normal"
     font-size="250px"
     text-anchor="middle"
     id="text7741">fill filtered &amp; interpolated buffers</text>
  <text
     xml:space="preserve"
     x="28800"
     y="16290"
     fill="#000000"
     font-family="Times"
     font-style="italic"
     font-weight="bold"
     font-size="240px"
     text-anchor="middle"
     id="text7743"
     style="-inkscape-font-specification:'Times, Bold Italic';font-family:Times;font-weight:bold;font-style:italic;font-stretch:normal;font-variant:normal;font-size:317.359px;font-variant-ligatures:normal;font-variant-caps:normal;font-variant-numeric:normal;font-variant-east-asian:normal;text-anchor:middle;fill:#000000">raw data</text>
  <text
     xml:space="preserve"
     x="25695"
     y="22725"
     fill="#000000"
     font-family="Times"
     font-style="italic"
     font-weight="normal"
     font-size="250px"
     text-anchor="start"
     id="text7745">designed to be called by the user</text>
  <text
     xml:space="preserve"
     x="25695"
     y="23625"
     fill="#000000"
     font-family="Times"
     font-style="italic"
     font-weight="normal"
     font-size="250px"
     text-anchor="start"
     id="text7747">designed to be expanded by the user</text>
  <text
     xml:space="preserve"
     x="25695"
     y="22050"
     fill="#000000"
     font-family="Times"
     font-style="italic"
     font-weight="normal"
     font-size="250px"
     text-anchor="start"
     id="text7749">end user configurable</text>
  <g
     transform="rotate(-90,16515,-2475)"
     id="g7753"
     style="fill:none">
    <text
       xml:space="preserve"
       x="0"
       y="0"
       fill="#808080"
       font-family="Times"
       font-style="italic"
       font-weight="normal"
       font-size="250px"
       text-anchor="middle"
       id="text7751">raw buffer</text>
  </g>
  <g
     transform="rotate(-90,15705,-1665)"
     id="g7757"
     style="fill:none">
    <text
       xml:space="preserve"
       x="0"
       y="0"
       fill="#808080"
       font-family="Times"
       font-style="italic"
       font-weight="normal"
       font-size="250px"
       text-anchor="middle"
       id="text7755">filtered buffer</text>
  </g>
  <g
     transform="rotate(-90,14760,-720)"
     id="g7761"
     style="fill:none">
    <text
       xml:space="preserve"
       x="0"
       y="0"
       fill="#808080"
       font-family="Times"
       font-style="italic"
       font-weight="normal"
       font-size="250px"
       text-anchor="middle"
       id="text7759">points buffer</text>
  </g>
  <text
     xml:space="preserve"
     x="21600"
     y="12330"
     fill="#000000"
     font-family="Times"
     font-style="normal"
     font-weight="bold"
     font-size="250px"
     text-anchor="middle"
     id="text7763">IOHandler</text>
  <text
     xml:space="preserve"
     x="21555"
     y="11790"
     fill="#000000"
     font-family="Times"
     font-style="italic"
     font-weight="normal"
     font-size="250px"
     text-anchor="middle"
     id="text7765">load plugin if necessary</text>
  <text
     xml:space="preserve"
     x="21645"
     y="16470"
     fill="#000000"
     font-family="Times"
     font-style="italic"
     font-weight="normal"
     font-size="250px"
     text-anchor="middle"
     id="text7767">get data chunk</text>
  <text
     xml:space="preserve"
     x="21600"
     y="15840"
     fill="#000000"
     font-family="Times"
     font-style="normal"
     font-weight="bold"
     font-size="250px"
     text-anchor="middle"
     id="text7769">IOHandler</text>
  <text
     xml:space="preserve"
     x="21645"
     y="16740"
     fill="#000000"
     font-family="Times"
     font-style="italic"
     font-weight="normal"
     font-size="250px"
     text-anchor="middle"
     id="text7771">&amp; raw data editing</text>
  <polygon
     points="25696,16112 25712,16133 25703,16158 25676,16162 25660,16141 25669,16116 "
     fill="#ffffff"
     stroke="#000000"
     stroke-width="8px"
     id="polygon7773" />
  <polygon
     points="16842,12441 16858,12462 16849,12487 16822,12491 16806,12470 16815,12445 "
     fill="#ffffff"
     stroke="#000000"
     stroke-width="8px"
     id="polygon7775" />
  <polygon
     points="16842,16123 16858,16144 16849,16169 16822,16173 16806,16152 16815,16127 "
     fill="#ffffff"
     stroke="#000000"
     stroke-width="8px"
     id="polygon7777" />
  <polygon
     points="25496,22004 25512,22025 25503,22050 25476,22054 25460,22033 25469,22008 "
     fill="#ffffff"
     stroke="#000000"
     stroke-width="8px"
     id="polygon7779" />
  <polygon
     points="13222,21125 13238,21146 13229,21171 13202,21175 13186,21154 13195,21129 "
     fill="#ffffff"
     stroke="#000000"
     stroke-width="8px"
     id="polygon7781" />
  <polygon
     points="16457,23838 16473,23859 16464,23884 16437,23888 16421,23867 16430,23842 "
     fill="#ffffff"
     stroke="#000000"
     stroke-width="8px"
     id="polygon7783" />
  <polygon
     points="19878,23838 19894,23859 19885,23884 19858,23888 19842,23867 19851,23842 "
     fill="#ffffff"
     stroke="#000000"
     stroke-width="8px"
     id="polygon7785" />
  <polygon
     points="21812,16067 21828,16088 21819,16113 21792,16117 21776,16096 21785,16071 "
     fill="#ffffff"
     stroke="#000000"
     stroke-width="8px"
     id="polygon7787" />
  <metadata
     id="metadata7854">
    <rdf:RDF>
      <cc:Work
         rdf:about="">
        <dc:title>Reading meteorological timeseries with MeteoIO</dc:title>
        <dc:date>2024-04-26</dc:date>
        <dc:creator>
          <cc:Agent>
            <dc:title>Mathias Bavay</dc:title>
          </cc:Agent>
        </dc:creator>
        <dc:publisher>
          <cc:Agent>
            <dc:title>SLF</dc:title>
          </cc:Agent>
        </dc:publisher>
        <dc:source>https://code.wsl.ch/snow-models/meteoio</dc:source>
        <cc:license
           rdf:resource="http://creativecommons.org/licenses/by-sa/4.0/" />
      </cc:Work>
      <cc:License
         rdf:about="http://creativecommons.org/licenses/by-sa/4.0/">
        <cc:permits
           rdf:resource="http://creativecommons.org/ns#Reproduction" />
        <cc:permits
           rdf:resource="http://creativecommons.org/ns#Distribution" />
        <cc:requires
           rdf:resource="http://creativecommons.org/ns#Notice" />
        <cc:requires
           rdf:resource="http://creativecommons.org/ns#Attribution" />
        <cc:permits
           rdf:resource="http://creativecommons.org/ns#DerivativeWorks" />
        <cc:requires
           rdf:resource="http://creativecommons.org/ns#ShareAlike" />
      </cc:License>
    </rdf:RDF>
  </metadata>
</svg>
