<?xml version="1.0" encoding="UTF-8" standalone="no"?>
<!-- Creator: fig2dev Version 3.2.8b -->

<!-- CreationDate: 2024-05-24 12:02:20 -->

<!-- Magnification: 1.05 -->

<svg
   width="773.55701pt"
   height="653.8584pt"
   viewBox="1722 3724 12277.257 10367.189"
   version="1.1"
   id="svg376"
   sodipodi:docname="distributed_sn.svg"
   inkscape:version="1.1.2 (0a00cf5339, 2022-02-04)"
   xmlns:inkscape="http://www.inkscape.org/namespaces/inkscape"
   xmlns:sodipodi="http://sodipodi.sourceforge.net/DTD/sodipodi-0.dtd"
   xmlns="http://www.w3.org/2000/svg"
   xmlns:svg="http://www.w3.org/2000/svg"
   xmlns:rdf="http://www.w3.org/1999/02/22-rdf-syntax-ns#"
   xmlns:cc="http://creativecommons.org/ns#"
   xmlns:dc="http://purl.org/dc/elements/1.1/">
  <title
     id="title1648">Distributed Snowpack simulations within Alpine3D</title>
  <defs
     id="defs380">
    <defs
       id="defs251">
      <clipPath
         id="cp0">
        <path
           clip-rule="evenodd"
           d="M 1722,3724 H 14165 V 14141 H 1722 Z m 2652,8385 6,-148 107,102 -112,-161 -33,13 z"
           id="path248" />
      </clipPath>
    </defs>
    <defs
       id="defs260">
      <clipPath
         id="cp1">
        <path
           clip-rule="evenodd"
           d="M 1722,3724 H 14165 V 14141 H 1722 Z m 6376,9343 144,35 -122,84 181,-77 -7,-35 z"
           id="path257" />
      </clipPath>
    </defs>
    <defs
       id="defs269">
      <clipPath
         id="cp2">
        <path
           clip-rule="evenodd"
           d="M 1722,3724 H 14165 V 14141 H 1722 Z m 3784,6435 71,-130 50,139 -28,-195 -36,-2 z"
           id="path266" />
      </clipPath>
    </defs>
    <defs
       id="defs278">
      <clipPath
         id="cp3">
        <path
           clip-rule="evenodd"
           d="M 1722,3724 H 14165 V 14141 H 1722 Z m 4256,8814 122,-85 -17,147 62,-186 -31,-19 z"
           id="path275" />
      </clipPath>
    </defs>
  </defs>
  <sodipodi:namedview
     id="namedview378"
     pagecolor="#505050"
     bordercolor="#eeeeee"
     borderopacity="1"
     inkscape:pageshadow="0"
     inkscape:pageopacity="0"
     inkscape:pagecheckerboard="0"
     inkscape:document-units="pt"
     showgrid="false"
     inkscape:zoom="0.88895394"
     inkscape:cx="468.52821"
     inkscape:cy="415.65708"
     inkscape:window-width="1920"
     inkscape:window-height="1005"
     inkscape:window-x="0"
     inkscape:window-y="0"
     inkscape:window-maximized="1"
     inkscape:current-layer="layer1"
     fit-margin-top="0"
     fit-margin-left="0"
     fit-margin-right="0"
     fit-margin-bottom="0" />
  <metadata
     id="metadata1646">
    <rdf:RDF>
      <cc:Work
         rdf:about="">
        <dc:title>Distributed Snowpack simulations within Alpine3D</dc:title>
        <dc:date>2024-05-24</dc:date>
        <dc:creator>
          <cc:Agent>
            <dc:title>Mathias Bavay</dc:title>
          </cc:Agent>
        </dc:creator>
        <dc:publisher>
          <cc:Agent>
            <dc:title>SLF</dc:title>
          </cc:Agent>
        </dc:publisher>
        <dc:source>https://code.wsl.ch/snow-models/alpine3d</dc:source>
        <cc:license
           rdf:resource="http://creativecommons.org/licenses/by-sa/4.0/" />
      </cc:Work>
      <cc:License
         rdf:about="http://creativecommons.org/licenses/by-sa/4.0/">
        <cc:permits
           rdf:resource="http://creativecommons.org/ns#Reproduction" />
        <cc:permits
           rdf:resource="http://creativecommons.org/ns#Distribution" />
        <cc:requires
           rdf:resource="http://creativecommons.org/ns#Notice" />
        <cc:requires
           rdf:resource="http://creativecommons.org/ns#Attribution" />
        <cc:permits
           rdf:resource="http://creativecommons.org/ns#DerivativeWorks" />
        <cc:requires
           rdf:resource="http://creativecommons.org/ns#ShareAlike" />
      </cc:License>
    </rdf:RDF>
  </metadata>
  <g
     inkscape:groupmode="layer"
     id="layer2"
     inkscape:label="grid"
     style="display:inline"
     sodipodi:insensitive="true">
    <polygon
       points="11565,10575 11700,10395 11925,10440 11925,10260 12015,10170 11700,10125 11430,10035 11070,9855 10485,9135 10350,9000 9720,8910 9405,8820 9225,8775 8685,8820 8460,8595 8235,8685 7875,8505 7650,8145 7425,7965 7200,8010 7020,8055 6750,8010 6435,7740 5895,7875 5760,7965 5580,8010 5310,8145 5085,8145 4950,8280 4860,8235 4815,8235 4635,8325 4320,8730 4140,8775 4050,9225 4005,9405 3735,9675 3600,9990 3465,10080 3240,10260 2790,10575 2475,10890 2160,11160 2025,11295 1755,11295 1980,11385 2250,11610 2430,11655 2655,11565 2925,11880 3870,12105 6255,12825 6615,12870 6840,12780 7110,13005 7380,13140 8100,13365 8640,13500 8955,13590 9225,13725 9720,13860 10260,14040 10530,14085 10710,13545 11115,11970 11385,11025 "
       fill="#ccefcc"
       id="polygon2"
       transform="translate(-18.000042,-26.680289)" />
    <polygon
       points="7695,8145 7425,7965 7290,7965 7200,7965 7155,8280 7380,8235 7560,8415 "
       fill="#ccf5f5"
       id="polygon68"
       transform="translate(-18.000042,-26.680289)"
       style="display:inline" />
    <rect
       x="12166.547"
       y="12573.319"
       width="225"
       height="225"
       fill="#ffffff"
       stroke="#000000"
       stroke-width="8px"
       id="rect4"
       transform="translate(1.1582136e-5,-5.3146899e-5)" />
    <rect
       x="12166.547"
       y="12123.319"
       width="225"
       height="225"
       fill="#bfbfff"
       stroke="#000000"
       stroke-width="8px"
       id="rect6"
       transform="translate(1.1582136e-5,-5.3146899e-5)" />
    <rect
       x="12166.547"
       y="11673.319"
       width="225"
       height="225"
       fill="#ccf5f5"
       stroke="#000000"
       stroke-width="8px"
       id="rect8"
       transform="translate(1.1582136e-5,-5.3146899e-5)" />
    <rect
       x="12166.547"
       y="11223.319"
       width="225"
       height="225"
       fill="#ffb2b2"
       stroke="#000000"
       stroke-width="8px"
       id="rect10"
       transform="translate(1.1582136e-5,-5.3146899e-5)" />
    <rect
       x="12166.547"
       y="10773.319"
       width="225"
       height="225"
       fill="#d9d9d9"
       stroke="#000000"
       stroke-width="8px"
       id="rect12"
       transform="translate(1.1582136e-5,-5.3146899e-5)" />
    <rect
       x="12166.547"
       y="8973.3193"
       width="225"
       height="225"
       fill="#ccefcc"
       stroke="#000000"
       stroke-width="8px"
       id="rect14"
       transform="translate(1.1582136e-5,-5.3146899e-5)" />
    <rect
       x="12166.547"
       y="9873.3193"
       width="225"
       height="225"
       fill="#cbd6c8"
       stroke="#000000"
       stroke-width="8px"
       id="rect16"
       transform="translate(1.1582136e-5,-5.3146899e-5)" />
    <rect
       x="12166.547"
       y="9423.3193"
       width="225"
       height="225"
       fill="#b2ddb2"
       stroke="#000000"
       stroke-width="8px"
       id="rect18"
       transform="translate(1.1582136e-5,-5.3146899e-5)" />
    <rect
       x="12166.547"
       y="10323.319"
       width="225"
       height="225"
       fill="#d7dac8"
       stroke="#000000"
       stroke-width="8px"
       id="rect20"
       transform="translate(1.1582136e-5,-5.3146899e-5)" />
    <text
       xml:space="preserve"
       x="12526.547"
       y="10053.319"
       fill="#000000"
       font-family="Times"
       font-style="italic"
       font-weight="normal"
       font-size="144px"
       text-anchor="start"
       id="text22"
       style="font-style:italic;font-variant:normal;font-weight:normal;font-stretch:normal;font-size:222.196px;font-family:Times;-inkscape-font-specification:'Times, Italic';font-variant-ligatures:normal;font-variant-caps:normal;font-variant-numeric:normal;font-variant-east-asian:normal"
       transform="translate(1.1582136e-5,-5.3146899e-5)">wetlands</text>
    <text
       xml:space="preserve"
       x="12526.547"
       y="9603.3193"
       fill="#000000"
       font-family="Times"
       font-style="italic"
       font-weight="normal"
       font-size="144px"
       text-anchor="start"
       id="text24"
       style="font-style:italic;font-variant:normal;font-weight:normal;font-stretch:normal;font-size:222.196px;font-family:Times;-inkscape-font-specification:'Times, Italic';font-variant-ligatures:normal;font-variant-caps:normal;font-variant-numeric:normal;font-variant-east-asian:normal"
       transform="translate(1.1582136e-5,-5.3146899e-5)">coniferous forest</text>
    <text
       xml:space="preserve"
       x="12526.547"
       y="10503.319"
       fill="#000000"
       font-family="Times"
       font-style="italic"
       font-weight="normal"
       font-size="144px"
       text-anchor="start"
       id="text26"
       style="font-style:italic;font-variant:normal;font-weight:normal;font-stretch:normal;font-size:222.196px;font-family:Times;-inkscape-font-specification:'Times, Italic';font-variant-ligatures:normal;font-variant-caps:normal;font-variant-numeric:normal;font-variant-east-asian:normal"
       transform="translate(1.1582136e-5,-5.3146899e-5)">alpine veg.</text>
    <text
       xml:space="preserve"
       x="12526.547"
       y="10953.319"
       fill="#000000"
       font-family="Times"
       font-style="italic"
       font-weight="normal"
       font-size="144px"
       text-anchor="start"
       id="text28"
       style="font-style:italic;font-variant:normal;font-weight:normal;font-stretch:normal;font-size:222.196px;font-family:Times;-inkscape-font-specification:'Times, Italic';font-variant-ligatures:normal;font-variant-caps:normal;font-variant-numeric:normal;font-variant-east-asian:normal"
       transform="translate(1.1582136e-5,-5.3146899e-5)">rock</text>
    <text
       xml:space="preserve"
       x="12526.547"
       y="9153.3193"
       fill="#000000"
       font-family="Times"
       font-style="italic"
       font-weight="normal"
       font-size="144px"
       text-anchor="start"
       id="text30"
       style="font-style:italic;font-variant:normal;font-weight:normal;font-stretch:normal;font-size:222.196px;font-family:Times;-inkscape-font-specification:'Times, Italic';font-variant-ligatures:normal;font-variant-caps:normal;font-variant-numeric:normal;font-variant-east-asian:normal"
       transform="translate(1.1582136e-5,-5.3146899e-5)">pasture</text>
    <text
       xml:space="preserve"
       x="12526.547"
       y="11403.319"
       fill="#000000"
       font-family="Times"
       font-style="italic"
       font-weight="normal"
       font-size="144px"
       text-anchor="start"
       id="text32"
       style="font-style:italic;font-variant:normal;font-weight:normal;font-stretch:normal;font-size:222.196px;font-family:Times;-inkscape-font-specification:'Times, Italic';font-variant-ligatures:normal;font-variant-caps:normal;font-variant-numeric:normal;font-variant-east-asian:normal"
       transform="translate(1.1582136e-5,-5.3146899e-5)">buildings</text>
    <text
       xml:space="preserve"
       x="12526.547"
       y="11853.319"
       fill="#000000"
       font-family="Times"
       font-style="italic"
       font-weight="normal"
       font-size="144px"
       text-anchor="start"
       id="text34"
       style="font-style:italic;font-variant:normal;font-weight:normal;font-stretch:normal;font-size:222.196px;font-family:Times;-inkscape-font-specification:'Times, Italic';font-variant-ligatures:normal;font-variant-caps:normal;font-variant-numeric:normal;font-variant-east-asian:normal"
       transform="translate(1.1582136e-5,-5.3146899e-5)">ice, firn</text>
    <text
       xml:space="preserve"
       x="12526.547"
       y="12303.319"
       fill="#000000"
       font-family="Times"
       font-style="italic"
       font-weight="normal"
       font-size="144px"
       text-anchor="start"
       id="text36"
       style="font-style:italic;font-variant:normal;font-weight:normal;font-stretch:normal;font-size:222.196px;font-family:Times;-inkscape-font-specification:'Times, Italic';font-variant-ligatures:normal;font-variant-caps:normal;font-variant-numeric:normal;font-variant-east-asian:normal"
       transform="translate(1.1582136e-5,-5.3146899e-5)">water</text>
    <text
       xml:space="preserve"
       x="12526.547"
       y="12753.319"
       fill="#000000"
       font-family="Times"
       font-style="italic"
       font-weight="normal"
       font-size="144px"
       text-anchor="start"
       id="text38"
       style="font-style:italic;font-variant:normal;font-weight:normal;font-stretch:normal;font-size:222.196px;font-family:Times;-inkscape-font-specification:'Times, Italic';font-variant-ligatures:normal;font-variant-caps:normal;font-variant-numeric:normal;font-variant-east-asian:normal"
       transform="translate(1.1582136e-5,-5.3146899e-5)">undefined</text>
    <polygon
       points="5538,9860 5421,9982 5630,10031 5767,9899 "
       fill="#ffb2b2"
       id="polygon40"
       transform="translate(-18.000042,-26.680289)" />
    <polygon
       points="8190,12465 7965,12060 7875,11925 7560,11745 7695,11565 7920,11700 7920,11970 8280,12240 8550,12375 8460,12555 "
       fill="#bfbfff"
       id="polygon42"
       transform="translate(-18.000042,-26.680289)" />
    <polyline
       points=" 4815,8235 4950,8280 4770,8550 4680,8730 4950,9090 5130,9180 5040,9405 4950,9405  4815,9495 4635,9450 4410,9630 4095,9630 4050,9720 4005,9990 3780,9990 3600,9990  3735,9675 4005,9405 4185,8730 4365,8685 4500,8505 4635,8370 4680,8280 4770,8235 "
       fill="#d7dac8"
       id="polyline44"
       transform="translate(-18.000042,-26.680289)" />
    <polyline
       points=" 6435,8235 6300,8325 6750,8775 6975,8955 7155,9090 7065,9450 7245,9450 7470,9495  7560,9495 7560,9720 7785,9630 7830,9405 8055,9360 8370,9360 8325,9495 8550,9630  8415,9810 8685,9855 8955,9900 9090,9585 9180,9405 9315,9000 9405,8820 9180,8775  8685,8820 8460,8595 8280,8685 7875,8505 7650,8145 7560,8415 7380,8235 7155,8280  7200,7965 7020,8055 6750,8010 6705,8235 6615,8325 6480,8280"
       fill="#d7dac8"
       id="polyline46"
       transform="translate(-18.000042,-26.680289)" />
    <polygon
       points="6075,9810 5895,9810 5805,9900 5985,9945 5895,10080 5805,10260 6030,10305 6030,10350 5760,10485 5625,10665 5715,10710 5895,10800 5805,10935 6030,10890 5940,11160 6120,11205 6255,11250 6120,11475 6390,11520 6480,11295 6615,10935 6480,10935 6615,10575 6750,10260 6885,10125 7155,9945 7200,9810 7110,9810 6795,9990 6975,9810 6840,9810 6660,9765 6390,9540 6300,9540 6210,9540 "
       fill="#b2ddb2"
       id="polygon48"
       transform="translate(-18.000042,-26.680289)" />
    <polygon
       points="3330,10890 3240,11205 3420,11295 3240,11475 3105,11610 3330,11700 3195,11925 2925,11880 2655,11565 2430,11655 2205,11610 1980,11385 1755,11295 2070,11295 2160,11160 2340,11025 2520,10890 2655,10710 2835,10530 3060,10440 3150,10305 3285,10215 3330,10215 3465,10260 3330,10395 3510,10440 3375,10575 3600,10665 3510,10755 "
       fill="#ffffff"
       id="polygon50"
       transform="translate(-18.000042,-26.680289)" />
    <polygon
       points="6120,12510 5850,12465 5940,12240 5985,12150 6165,12105 6390,12195 6660,12195 6885,12195 7155,11880 7020,12195 6750,12420 6525,12420 6435,12600 "
       fill="#ffffff"
       id="polygon52"
       transform="translate(-18.000042,-26.680289)" />
    <polygon
       points="9315,11070 9225,11205 9135,11385 9405,11430 9315,11610 9225,11745 8955,11700 8865,11835 8595,11790 8505,11925 8775,11970 8685,12150 8550,12330 8415,12555 8325,12735 8235,12915 7965,12825 7830,13005 7695,13230 8325,13410 8415,13230 8730,13275 8820,13095 8550,13005 8640,12780 8865,12375 9045,12060 9135,11880 9405,11970 9495,11790 9675,11475 9765,11295 9495,11250 9540,11115 9675,10980 9360,10935 "
       fill="#bfbfff"
       id="polygon54"
       transform="translate(-18.000042,-26.680289)" />
    <polygon
       points="5046,11195 4905,11340 5139,11419 4995,11565 4861,11731 5104,11804 4995,11970 4725,11880 4545,12060 4095,11925 3915,12105 3555,12015 3375,11970 3735,11610 4005,11700 4185,11520 4320,11385 4455,11250 4185,11160 4365,11025 4535,10864 4770,10935 4924,11005 4815,11115 "
       fill="#bfbfff"
       id="polygon56"
       transform="translate(-18.000042,-26.680289)" />
    <polygon
       points="3465,11520 3285,11430 3375,11340 3420,11295 3645,11340 3825,11205 4050,11295 4230,11160 4410,11250 4320,11385 4140,11520 3915,11430 3735,11610 "
       fill="#ffcccc"
       id="polygon58"
       transform="translate(-18.000042,-26.680289)" />
    <polyline
       points=" 4905,8325 5085,8325 5265,8460 5400,8325 5580,8280 5760,8370 5715,8415 5850,8415  6075,8370 6300,8325 6525,8550 6750,8775 6975,8955 6840,9180 6750,9405 6660,9765  6390,9540 6210,9495 5985,9630 5805,9630 5580,9360 5490,9675 5310,9585 5355,9360  5130,9180 4950,9090 4680,8730 4860,8415"
       fill="#d9d9d9"
       id="polyline60"
       transform="translate(-18.000042,-26.680289)" />
    <polyline
       points=" 7200,9855 6885,10125 6750,10305 6660,10575 6480,10935 6615,10935 6885,11205  6975,10980 7155,10755 6885,10440 7020,10350 7245,10440 7335,10260 7605,10395  7740,10125 7830,9900 7605,9945 7335,9675 7200,9855"
       fill="#d9d9d9"
       id="polyline62"
       transform="translate(-18.000042,-26.680289)" />
    <polyline
       points=" 9315,9090 9180,9405 9090,9540 9000,9900 8685,9900 8595,9900 8730,10080 8640,10260  8955,10620 9180,10845 9225,10710 9315,10575 9585,10665 9810,10710 10080,10755  10170,10485 10215,10260 10440,10350 10575,10125 10305,9945 10350,9765 10440,9585  10665,9765 10800,9630 10845,9540 10395,9000 10080,8955 9855,8910 9495,8865 9360,8820  9315,9045"
       fill="#d9d9d9"
       id="polyline64"
       transform="translate(-18.000042,-26.680289)" />
    <polyline
       points=" 5085,8190 4950,8280 4905,8370 5085,8370 5265,8460 5400,8325 5580,8280 5760,8370  5715,8415 5895,8415 6075,8370 6300,8325 6390,8235 6615,8325 6705,8235 6795,8010  6435,7740 6210,7785 5895,7920 5760,7965 5580,8010 5400,8145 5175,8145"
       fill="#ccf5f5"
       id="polyline66"
       transform="translate(-18.000042,-26.680289)" />
    <polygon
       points="8685,11610 8775,11430 8550,11340 8595,11205 8730,11070 8910,11115 9000,11160 9225,11205 9135,11385 9360,11430 9225,11745 8955,11655 8865,11835 8595,11745 "
       fill="#cbd6c8"
       id="polygon70"
       transform="translate(-18.000042,-26.680289)" />
    <polygon
       points="9720,10800 9810,10710 9855,10710 10080,10755 9990,10890 10215,10845 10125,11025 10080,11160 10035,11340 10305,11160 10170,11340 10080,11655 10035,11925 9900,12060 10215,12015 10170,12150 10080,12420 10305,12510 10170,12960 9945,13680 9900,13905 9540,13815 9225,13725 8955,13635 9000,13365 9135,13140 9405,12510 9495,12240 9675,12150 9720,11925 9765,11745 9900,11520 9990,11430 9675,11475 9765,11295 9855,11160 9585,11115 9675,10980 "
       fill="#b2ddb2"
       id="polygon72"
       transform="translate(-18.000042,-26.680289)" />
    <polyline
       points=" 10845,9585 10665,9720 10485,9585 10350,9900 10575,10125 10485,10350 10440,10485  10710,10440 10620,10620 10800,10620 10710,10755 10935,10710 10890,10890 10845,11025  10755,11205 10620,11610 10530,11880 10890,11745 10800,11970 10755,12195 10575,12600  10485,13005 10215,12960 10035,13365 10395,13545 10710,13545 11025,12240 11430,10935  11610,10485 11700,10395 11880,10395 11970,10260 12015,10125 11700,10170 11475,10080  11025,9855 10845,9585 10710,9720"
       fill="#d7dac8"
       id="polyline74"
       transform="translate(-18.000042,-26.680289)" />
    <polyline
       points=" 1755,11295 1980,11385 2205,11610 2430,11655 2655,11565 2925,11835 6075,12780  6255,12825 6570,12870 6840,12780 7110,13005 7380,13140 7740,13230 8010,13320  8280,13410 8595,13500 8955,13590 9225,13725 9540,13815 9900,13905 10170,13995  10530,14085"
       stroke="#c3c3c3"
       stroke-width="30px"
       stroke-linejoin="round"
       stroke-linecap="round"
       id="polyline76"
       style="fill:none"
       transform="translate(-18.000042,-26.680289)" />
    <polyline
       points=" 2025,11295 2160,11295 2385,11430 2610,11520 2835,11520 3105,11610 3330,11700  3600,11790 5580,12375 5850,12465 6075,12510 6390,12600 6705,12510 6930,12465  7245,12690 7515,12960 7830,13005 8100,13095 8415,13230 8730,13275 9000,13365  9315,13500 9675,13590 9945,13680 10305,13725 10620,13770"
       stroke="#c3c3c3"
       stroke-width="30px"
       stroke-linejoin="round"
       stroke-linecap="round"
       id="polyline78"
       style="fill:none"
       transform="translate(-18.000042,-26.680289)" />
    <polyline
       points=" 2164,11138 2375,11236 2609,11274 2797,11365 3016,11402 3272,11463 3476,11530  3732,11621 5496,12111 5737,12186 5993,12156 6249,12307 6536,12420 6785,12390  7064,12126 7365,12586 7636,12736 7930,12819 8217,12910 8526,13008 8812,13076  9144,13166 9415,13234 9739,13362 10064,13385 10388,13551 10704,13551"
       stroke="#c3c3c3"
       stroke-width="30px"
       stroke-linejoin="round"
       stroke-linecap="round"
       id="polyline80"
       style="fill:none"
       transform="translate(-18.000042,-26.680289)" />
    <polyline
       points=" 2345,11018 2556,11086 2775,11154 3001,11214 3204,11199 3408,11327 3664,11334  3905,11448 4162,11515 4373,11606 4621,11674 4878,11734 5119,11817 5360,11892  5616,11953 5873,12013 6159,12111 6378,12179 6656,12194 6920,12201 7199,11824  7531,12141 7772,12510 8036,12623 8352,12721 8624,12804 8940,12842 9227,12955  9574,12752 9875,12834 10192,12985 10508,13038 10817,13136"
       stroke="#c3c3c3"
       stroke-width="30px"
       stroke-linejoin="round"
       stroke-linecap="round"
       id="polyline82"
       style="fill:none"
       transform="translate(-18.000042,-26.680289)" />
    <polyline
       points=" 2518,10860 2729,10927 2910,10988 3114,10950 3370,10890 3589,11018 3837,11214  4064,11304 4998,11591 5254,11643 5496,11696 5760,11749 6016,11817 6265,11862  6551,11960 6800,12020 7094,11937 7327,11749 7606,12028 7938,12043 8179,12450  8443,12556 8714,12601 9016,12699 9468,12488 9672,12420 9981,12427 10297,12480  10599,12578 10938,12729"
       stroke="#c3c3c3"
       stroke-width="30px"
       stroke-linejoin="round"
       stroke-linecap="round"
       id="polyline84"
       style="fill:none"
       transform="translate(-18.000042,-26.680289)" />
    <polyline
       points=" 2662,10747 2865,10807 3099,10829 3272,10905 3370,10897 3574,11010 3762,11010  4003,11108 4214,11169 4915,11350 5164,11417 5398,11500 5601,11538 5888,11380  6129,11493 6393,11508 6664,11636 6905,11719 7237,11666 7553,11749 7908,11960  8081,12103 8322,12277 8594,12367 8865,12427 9174,12412 9498,12458 9822,12337  10086,12435 10373,12427 10734,12179 11043,12262"
       stroke="#c3c3c3"
       stroke-width="30px"
       stroke-linejoin="round"
       stroke-linecap="round"
       id="polyline86"
       style="fill:none"
       transform="translate(-18.000042,-26.680289)" />
    <polyline
       points=" 2835,10573 3046,10656 3242,10716 3536,10769 3717,10814 3950,10890 4146,10965  5028,11191 5292,11252 5533,11334 5767,11334 5903,11252 6084,11169 6249,11221  6506,11289 6777,11425 7048,11583 7252,11508 7448,11448 7689,11538 7930,11704  8209,11719 8466,11930 8744,11983 9038,12081 9340,12141 9589,12209 9928,12066  10214,12005 10546,11892 10870,11741 11232,11485"
       stroke="#c3c3c3"
       stroke-width="30px"
       stroke-linejoin="round"
       stroke-linecap="round"
       id="polyline88"
       style="fill:none"
       transform="translate(-18.000042,-26.680289)" />
    <polyline
       points=" 7923,11983 8126,11998 8398,12088 8669,12164 8925,12231 9227,12299 9574,12216  9800,12329 10162,12133 10493,12141 10840,11922 11149,11855"
       stroke="#c3c3c3"
       stroke-width="30px"
       stroke-linejoin="round"
       stroke-linecap="round"
       id="polyline90"
       style="fill:none"
       transform="translate(-18.000042,-26.680289)" />
    <polyline
       points=" 3016,10460 3830,10724 4064,10762 4320,10792 4531,10867 4757,10935 4945,11003  5217,11003 5405,11093 5662,11176 5895,11146 6106,11176"
       stroke="#c3c3c3"
       stroke-width="30px"
       stroke-linejoin="round"
       stroke-linecap="round"
       id="polyline92"
       style="fill:none"
       transform="translate(-18.000042,-26.680289)" />
    <polyline
       points=" 3182,10339 3340,10392 3528,10437 3754,10513 4011,10551 4222,10618 4433,10679  4621,10747 4870,10792 5179,10769 5352,10679 5541,10747 5782,10927 6053,10927  6257,10973 6626,10935 6913,11206 7214,11515"
       stroke="#c3c3c3"
       stroke-width="30px"
       stroke-linejoin="round"
       stroke-linecap="round"
       id="polyline94"
       style="fill:none"
       transform="translate(-18.000042,-26.680289)" />
    <polyline
       points=" 3332,10219 3476,10272 3649,10241 3717,10226 3913,10287 4139,10422 4373,10505  4569,10551 4787,10611 4976,10649 5224,10679 5390,10641 5624,10656 5707,10716  5918,10799 6151,10724 6385,10679 6641,10573 6905,10437 7146,10784 7403,11040  7636,10995 7915,11206 8172,11402 8450,11463 8669,11606 8940,11681 9212,11741  9498,11787 9770,11749 10109,11674 10410,11515 10772,11191 11058,11252 11443,10912 "
       stroke="#c3c3c3"
       stroke-width="30px"
       stroke-linejoin="round"
       stroke-linecap="round"
       id="polyline96"
       style="fill:none"
       transform="translate(-18.000042,-26.680289)" />
    <polyline
       points=" 6151,11199 6400,10965 6596,10927 6770,10716 7018,10988 7327,11312 7531,11350  7795,11478 8089,11508 8337,11583 8616,11772 8842,11832 9136,11900 9400,11975  9709,11960 9981,11953 10327,11726 10636,11621 10961,11478 11330,11236"
       stroke="#c3c3c3"
       stroke-width="30px"
       stroke-linejoin="round"
       stroke-linecap="round"
       id="polyline98"
       style="fill:none"
       transform="translate(-18.000042,-26.680289)" />
    <polyline
       points=" 3453,10076 3649,10143 3860,10159 4064,10136 4282,10204 4478,10355 4727,10437  4923,10468 5119,10520 5405,10573 5729,10671 5827,10520 6038,10528 6257,10445  6506,10272 6732,10287 7003,10370 7252,10445 7523,10709 7757,10731 8021,10814  8300,11146 8541,11357 8805,11448 9031,11500 9310,11591 9596,11636 9905,11538  10162,11530 10486,11199 10802,10988 11149,10950 11443,10920"
       stroke="#c3c3c3"
       stroke-width="30px"
       stroke-linejoin="round"
       stroke-linecap="round"
       id="polyline100"
       style="fill:none"
       transform="translate(-18.000042,-26.680289)" />
    <polyline
       points=" 3604,9985 3777,10015 3973,9985 4177,9985 4418,9955 4621,10121 4863,10309 5081,10332  5300,10385 5526,10475 5737,10520 6084,10324 6393,10339 6558,10166 6822,10189  6860,10136 7101,10151 7365,10272 7621,10430 7893,10430 8134,10520 8420,11056  8631,11252 8880,11304 9129,11372 9415,11432 9687,11500 9966,11448 10244,11282  10531,11108 10825,10935 11179,10867 11473,10799"
       stroke="#c3c3c3"
       stroke-width="30px"
       stroke-linejoin="round"
       stroke-linecap="round"
       id="polyline102"
       style="fill:none"
       transform="translate(-18.000042,-26.680289)" />
    <polyline
       points=" 3724,9744 3890,9601 4101,9623 4275,9714 4516,9880 4772,10098 4991,10189 5202,10219  5420,10272 5639,10272 5820,10241 6038,10324 6167,10128 6430,10241 6513,10076  6649,10143 6754,10046 7003,10038 7222,9857 7486,10038 7719,10121 7961,10287 8247,10422  8503,10845 8722,11086 8971,11161 9227,11221 9513,11282 9754,11319 10056,11319  10388,11123 10636,11010 10961,10724 11277,10551 11609,10513"
       stroke="#c3c3c3"
       stroke-width="30px"
       stroke-linejoin="round"
       stroke-linecap="round"
       id="polyline104"
       style="fill:none"
       transform="translate(-18.000042,-26.680289)" />
    <polyline
       points=" 4297,9714 4410,9646 4674,9654 4923,9925 5104,10053 5345,10076 5541,10151 5737,10143  5888,10106 6136,10068 6385,10015 6717,10053 7033,9872 7131,9797 7365,9827 7501,10046 "
       stroke="#c3c3c3"
       stroke-width="30px"
       stroke-linejoin="round"
       stroke-linecap="round"
       id="polyline106"
       style="fill:none"
       transform="translate(-18.000042,-26.680289)" />
    <polyline
       points=" 3868,9571 4146,9503 4433,9495 4614,9427 4810,9518 5051,9797 5232,9948 5458,9993  5631,10030 5918,10083"
       stroke="#c3c3c3"
       stroke-width="30px"
       stroke-linejoin="round"
       stroke-linecap="round"
       id="polyline108"
       style="fill:none"
       transform="translate(-18.000042,-26.680289)" />
    <polyline
       points=" 4109,9638 4350,9631"
       stroke="#c3c3c3"
       stroke-width="30px"
       stroke-linejoin="round"
       stroke-linecap="round"
       id="polyline110"
       style="fill:none"
       transform="translate(-18.000042,-26.680289)" />
    <polyline
       points=" 3981,9420 4146,9495"
       stroke="#c3c3c3"
       stroke-width="30px"
       stroke-linejoin="round"
       stroke-linecap="round"
       id="polyline112"
       style="fill:none"
       transform="translate(-18.000042,-26.680289)" />
    <polyline
       points=" 4109,9051 4275,9073 4516,9322 4682,9390 4953,9405 5179,9691 5360,9812 5571,9865  5797,9910 5993,9963 6280,10000 6589,10038 6792,10000 7003,9812 7214,9691 7380,9729  7569,9940 7832,9932 8081,10166 8330,10339 8579,10490 8850,10799 9099,11003 9558,11116  9852,11176 10124,11131 10425,10845 10704,10747 10953,10747 11315,10543 11598,10543 "
       stroke="#c3c3c3"
       stroke-width="30px"
       stroke-linejoin="round"
       stroke-linecap="round"
       id="polyline114"
       style="fill:none"
       transform="translate(-18.000042,-26.680289)" />
    <polyline
       points=" 7821,9921 8156,10030 8435,10030 8677,10272 8933,10633 9159,10867 9430,10950  9641,10980 9920,11033 10169,10988 10440,10739 10629,10626 10787,10641 11043,10543  11254,10468 11405,10453 11631,10468"
       stroke="#c3c3c3"
       stroke-width="30px"
       stroke-linejoin="round"
       stroke-linecap="round"
       id="polyline116"
       style="fill:none"
       transform="translate(-18.000042,-26.680289)" />
    <polyline
       points=" 4252,8741 4418,8779 4621,8945 4840,9194 5058,9420 5277,9616 5481,9661 5684,9752  5873,9789 6099,9834 6287,9887 6513,9932 6800,9993"
       stroke="#c3c3c3"
       stroke-width="30px"
       stroke-linejoin="round"
       stroke-linecap="round"
       id="polyline118"
       style="fill:none"
       transform="translate(-18.000042,-26.680289)" />
    <polyline
       points=" 8187,9963 8586,9917 8790,10098 9016,10475 9227,10716 9468,10784 9732,10822 9981,10897  10335,10837 10606,10618 10825,10573 11119,10422 11247,10370 11481,10385 11707,10324 "
       stroke="#c3c3c3"
       stroke-width="30px"
       stroke-linejoin="round"
       stroke-linecap="round"
       id="polyline120"
       style="fill:none"
       transform="translate(-18.000042,-26.680289)" />
    <polyline
       points=" 4350,8681 4606,8953"
       stroke="#c3c3c3"
       stroke-width="30px"
       stroke-linejoin="round"
       stroke-linecap="round"
       id="polyline122"
       style="fill:none"
       transform="translate(-18.000042,-26.680289)" />
    <polyline
       points=" 4471,8553 4674,8749 4961,9066 5179,9201 5345,9382 5579,9360 5820,9616 6023,9631  6227,9503 6430,9556 6664,9797 6988,9827"
       stroke="#c3c3c3"
       stroke-width="30px"
       stroke-linejoin="round"
       stroke-linecap="round"
       id="polyline124"
       style="fill:none"
       transform="translate(-18.000042,-26.680289)" />
    <polyline
       points=" 4584,8402 4772,8598 4976,8704 5202,8674 5413,8817 5579,8900 5782,8757 6016,8794  6204,8915 6400,8862 6604,9051 6822,9179 7086,9458 7275,9480 7501,9495 7795,9427  8051,9360 8315,9495 8541,9616 8797,9706 8993,9895 9182,10083 9423,10294 9641,10468  9890,10581 10177,10475 10403,10490 10644,10453 10923,10483 11232,10362 11488,10377  11646,10309 11918,10264"
       stroke="#c3c3c3"
       stroke-width="30px"
       stroke-linejoin="round"
       stroke-linecap="round"
       id="polyline126"
       style="fill:none"
       transform="translate(-18.000042,-26.680289)" />
    <polyline
       points=" 8662,9963 8865,10076 9091,10257 9340,10558 9574,10649 9792,10701 10064,10769  10471,10739"
       stroke="#c3c3c3"
       stroke-width="30px"
       stroke-linejoin="round"
       stroke-linecap="round"
       id="polyline128"
       style="fill:none"
       transform="translate(-18.000042,-26.680289)" />
    <polyline
       points=" 4847,8900 5036,8885 5285,8885 5488,9088 5669,9216 5865,9254 6099,9322 6295,9216  6513,9209 6747,9435 6973,9646 7214,9684 7576,9729 7772,9638 7968,9736 8217,9834  8435,9812 8707,9887 9001,9895"
       stroke="#c3c3c3"
       stroke-width="30px"
       stroke-linejoin="round"
       stroke-linecap="round"
       id="polyline130"
       style="fill:none"
       transform="translate(-18.000042,-26.680289)" />
    <polyline
       points=" 4719,8297 4893,8372 5081,8342 5239,8410 5481,8606 5692,8440 5873,8425 6106,8350  6310,8327 6543,8598 6739,8794 6935,8945 7162,9111 7373,9088 7621,9171 7832,9194  8036,9345 8375,9360 8496,9367 8624,9488 8857,9638 9084,9563 9363,9563 9611,9676  9837,9774 10086,9978 10320,9925 10569,10113 10847,10196 11043,10226 11262,10347  11533,10302 11737,10324 11873,10249 11955,10294"
       stroke="#c3c3c3"
       stroke-width="30px"
       stroke-linejoin="round"
       stroke-linecap="round"
       id="polyline132"
       style="fill:none"
       transform="translate(-18.000042,-26.680289)" />
    <polyline
       points=" 9053,9940 9242,9985 9483,10038 9724,10128 9966,10211 10229,10287 10463,10362  10749,10362 11058,10241 11262,10166 11541,10196 11737,10151 11903,10196 12016,10174 "
       stroke="#c3c3c3"
       stroke-width="30px"
       stroke-linejoin="round"
       stroke-linecap="round"
       id="polyline134"
       style="fill:none"
       transform="translate(-18.000042,-26.680289)" />
    <polyline
       points=" 4870,8252 5043,8289 5134,8259 5337,8350 5601,8297 5797,8365 6001,8191 6174,8259  6378,8236 6611,8334 6837,8674 7033,8719 7275,8741 7478,8937 7689,8990 7908,9058  8149,9020 8352,9028 8564,9073 8812,9133 9046,9209 9302,9051 9528,9103 9754,9239  9996,9382 10237,9488 10471,9601 10697,9752 10938,10015 11172,10174 11232,10076  11368,10128 11511,10083 11669,10159 12008,10181"
       stroke="#c3c3c3"
       stroke-width="30px"
       stroke-linejoin="round"
       stroke-linecap="round"
       id="polyline136"
       style="fill:none"
       transform="translate(-18.000042,-26.680289)" />
    <polyline
       points=" 8398,9367 8842,9367 8948,9337 9197,9405 9445,9329 9679,9397 9913,9563 10184,9669  10388,9774 10636,9917 10870,10083 11036,10241"
       stroke="#c3c3c3"
       stroke-width="30px"
       stroke-linejoin="round"
       stroke-linecap="round"
       id="polyline138"
       style="fill:none"
       transform="translate(-18.000042,-26.680289)" />
    <polyline
       points=" 5081,8191 5270,8154 5413,8123 5571,8169 5865,8048 6084,7973 6280,7995 6513,8176  6717,8244 6913,8432 7146,8297 7373,8244 7584,8440 7795,8794 8028,8749 8217,8779  8435,8832 8654,8839 8865,8930 9129,9028 9400,8824 9566,8900 9852,8930 10079,9103  10312,9277 10553,9405 10742,9608 10991,9932 11217,10083 11481,10128 11767,10166  12001,10174"
       stroke="#c3c3c3"
       stroke-width="30px"
       stroke-linejoin="round"
       stroke-linecap="round"
       id="polyline140"
       style="fill:none"
       transform="translate(-18.000042,-26.680289)" />
    <polyline
       points=" 3536,10762 3724,11003"
       stroke="#c3c3c3"
       stroke-width="30px"
       stroke-linejoin="round"
       stroke-linecap="round"
       id="polyline142"
       style="fill:none"
       transform="translate(-18.000042,-26.680289)" />
    <polyline
       points=" 5081,8191 5383,8123 5564,8010 5805,7958 5955,7875 6182,7792 6423,7731 6626,7882  6777,8003 7018,8048 7237,7973 7440,7965 7674,8131 7870,8493 8081,8591 8285,8674  8458,8606 8692,8817 8903,8794 9174,8794 9363,8802 9574,8885 9815,8915 10086,8975  10380,8998 10621,9284 10832,9556 11051,9865 11277,9978 11518,10091 12008,10159 "
       stroke="#c3c3c3"
       stroke-width="30px"
       stroke-linejoin="round"
       stroke-linecap="round"
       id="polyline144"
       style="fill:none"
       transform="translate(-18.000042,-26.680289)" />
    <polyline
       points=" 10538,14108 10629,13769 10712,13528 10817,13128 11036,12231 11232,11508 11428,10920  11594,10528 11692,10385 11895,10437 11933,10279 12001,10241 12023,10143"
       stroke="#c3c3c3"
       stroke-width="30px"
       stroke-linejoin="round"
       stroke-linecap="round"
       id="polyline146"
       style="fill:none"
       transform="translate(-18.000042,-26.680289)" />
    <polyline
       points=" 10192,14003 10275,13716 10395,13543 10478,13023 10599,12563 10742,12171 10810,11922  10908,11711 10953,11493 11028,11229 11134,10988 11194,10845 11292,10566 11368,10453  11466,10347 11556,10294 11752,10128"
       stroke="#c3c3c3"
       stroke-width="30px"
       stroke-linejoin="round"
       stroke-linecap="round"
       id="polyline148"
       style="fill:none"
       transform="translate(-18.000042,-26.680289)" />
    <polyline
       points=" 9905,13897 9958,13694 10056,13385 10192,12970 10305,12465 10410,12420 10463,12141  10538,11877 10636,11606 10772,11191 10832,10995 10885,10905 10900,10747 11043,10679  11028,10543 11179,10400 11383,10339 11503,10068"
       stroke="#c3c3c3"
       stroke-width="30px"
       stroke-linejoin="round"
       stroke-linecap="round"
       id="polyline150"
       style="fill:none"
       transform="translate(-18.000042,-26.680289)" />
    <polyline
       points=" 9528,13799 9649,13588 9732,13370 9860,12842 9996,12427 10079,12420 10154,12141  10388,11500 10501,11176 10644,11003 10712,10724 10787,10633 10930,10573 11021,10241  11119,10211 11262,9978"
       stroke="#c3c3c3"
       stroke-width="30px"
       stroke-linejoin="round"
       stroke-linecap="round"
       id="polyline152"
       style="fill:none"
       transform="translate(-18.000042,-26.680289)" />
    <polyline
       points=" 9219,13731 9295,13475 9430,13219 9558,12729 9634,12420 9875,12337 9913,12058  10033,11937 10101,11674 10139,11508 10237,11274 10357,11138 10395,10890 10606,10649  10704,10437 10780,10347 10817,10166 10878,10091 10915,9978 10991,9932 11036,9827 "
       stroke="#c3c3c3"
       stroke-width="30px"
       stroke-linejoin="round"
       stroke-linecap="round"
       id="polyline154"
       style="fill:none"
       transform="translate(-18.000042,-26.680289)" />
    <polyline
       points=" 8940,13603 8971,13377 9144,13151 9219,12932 9355,12571 9461,12442 9521,12231  9649,12186 9694,11945 9785,11734 9883,11546 9988,11425 10018,11327 10124,11108  10177,10973 10244,10852 10320,10739 10403,10475 10455,10362 10576,10091 10629,9940  10682,9729 10727,9661 10840,9556"
       stroke="#c3c3c3"
       stroke-width="30px"
       stroke-linejoin="round"
       stroke-linecap="round"
       id="polyline156"
       style="fill:none"
       transform="translate(-18.000042,-26.680289)" />
    <polyline
       points=" 8624,13498 8940,12834 9053,12684 9136,12427 9242,12284 9317,12141 9393,11990  9770,11327 9928,11033 10079,10762 10312,9932 10373,9759 10523,9397 10621,9307 "
       stroke="#c3c3c3"
       stroke-width="30px"
       stroke-linejoin="round"
       stroke-linecap="round"
       id="polyline158"
       style="fill:none"
       transform="translate(-18.000042,-26.680289)" />
    <polyline
       points=" 8292,13415 9506,11259 9551,11101 9679,10988 9717,10814 9845,10701 9883,10581  10154,9661 10290,9262 10365,9020"
       stroke="#c3c3c3"
       stroke-width="30px"
       stroke-linejoin="round"
       stroke-linecap="round"
       id="polyline160"
       style="fill:none"
       transform="translate(-18.000042,-26.680289)" />
    <polyline
       points=" 8006,13309 9400,10927 9438,10777 9589,10641 9611,10437 9724,10128 9815,9804  9905,9556 9973,9375 10071,9118 10131,8998"
       stroke="#c3c3c3"
       stroke-width="30px"
       stroke-linejoin="round"
       stroke-linecap="round"
       id="polyline162"
       style="fill:none"
       transform="translate(-18.000042,-26.680289)" />
    <polyline
       points=" 7719,13234 8285,12254 8368,12073 8473,11937 8888,11304 8971,11169 9061,10988  9159,10875 9197,10701 9340,10543 9408,10287 9513,10023 9596,9661 9656,9382 9747,9247  9852,8945 9950,8953"
       stroke="#c3c3c3"
       stroke-width="30px"
       stroke-linejoin="round"
       stroke-linecap="round"
       id="polyline164"
       style="fill:none"
       transform="translate(-18.000042,-26.680289)" />
    <polyline
       points=" 7388,13143 7780,12488 7885,12028 8126,12005 8239,11704 8413,11470 8548,11357  8729,11078 8812,10777 9023,10483 9046,10226 9151,10076 9280,9993 9347,9578 9445,9337  9498,9103 9551,8862"
       stroke="#c3c3c3"
       stroke-width="30px"
       stroke-linejoin="round"
       stroke-linecap="round"
       id="polyline166"
       style="fill:none"
       transform="translate(-18.000042,-26.680289)" />
    <polyline
       points=" 7094,13015 7207,12691 7357,12616 7501,12118 7606,12020 7697,11862 7900,11953  7930,11696 8172,11380 8285,11123 8405,11018 8503,10829 8556,10468 8662,10287  8744,10038 8857,10061 8986,9880 9099,9540 9197,9397 9287,9066 9378,8817"
       stroke="#c3c3c3"
       stroke-width="30px"
       stroke-linejoin="round"
       stroke-linecap="round"
       id="polyline168"
       style="fill:none"
       transform="translate(-18.000042,-26.680289)" />
    <polyline
       points=" 6845,12797 7064,12133 7154,11892 7327,11757 7569,11772 7697,11538 7825,11463  8021,10807 8134,10520 8315,10324 8405,10038 8420,9819 8564,9593 8729,9352 8805,9096  8880,8953 8895,8809"
       stroke="#c3c3c3"
       stroke-width="30px"
       stroke-linejoin="round"
       stroke-linecap="round"
       id="polyline170"
       style="fill:none"
       transform="translate(-18.000042,-26.680289)" />
    <polyline
       points=" 8654,9963 8782,9714 8842,9623 8955,9345 9053,9186 9151,9005 9174,8794"
       stroke="#c3c3c3"
       stroke-width="30px"
       stroke-linejoin="round"
       stroke-linecap="round"
       id="polyline172"
       style="fill:none"
       transform="translate(-18.000042,-26.680289)" />
    <polyline
       points=" 6619,12865 6656,12518 6785,12367 7033,11998 7131,11704 7290,11696 7440,11440  7546,11342 7636,10988 7772,10716 7878,10422 8104,10166 8164,10038 8232,9834 8330,9525  8352,9352 8488,9360 8586,9058 8677,8817"
       stroke="#c3c3c3"
       stroke-width="30px"
       stroke-linejoin="round"
       stroke-linecap="round"
       id="polyline174"
       style="fill:none"
       transform="translate(-18.000042,-26.680289)" />
    <polyline
       points=" 6257,12804 6551,12397 6664,12201 6792,12013 6913,11726 7033,11583 7199,11508  7297,11267 7410,11025 7621,10407 7712,10136 7817,9910 7915,9940 7968,9729 8051,9345  8292,9345 8360,9005 8435,8824 8473,8651"
       stroke="#c3c3c3"
       stroke-width="30px"
       stroke-linejoin="round"
       stroke-linecap="round"
       id="polyline176"
       style="fill:none"
       transform="translate(-18.000042,-26.680289)" />
    <polyline
       points=" 5971,12752 6551,11968 6649,11621 6883,11206 7146,10792 7260,10453 7501,10046  7584,9932 7697,9895 7674,9744 7765,9638 7840,9412 8058,9337 8270,8666 8330,8651 "
       stroke="#c3c3c3"
       stroke-width="30px"
       stroke-linejoin="round"
       stroke-linecap="round"
       id="polyline178"
       style="fill:none"
       transform="translate(-18.000042,-26.680289)" />
    <polyline
       points=" 5707,12646 5857,12450 5978,12156 6144,12103 6272,11847 6385,11493 6513,11282  6611,10927 6770,10709 6890,10422 6996,10377 7101,10159 7177,9827 7335,9729 7553,9503  7780,9412 7817,9171 7930,9043 8021,8757 8081,8583"
       stroke="#c3c3c3"
       stroke-width="30px"
       stroke-linejoin="round"
       stroke-linecap="round"
       id="polyline180"
       style="fill:none"
       transform="translate(-18.000042,-26.680289)" />
    <polyline
       points=" 7574,9483 7546,9721"
       stroke="#c3c3c3"
       stroke-width="30px"
       stroke-linejoin="round"
       stroke-linecap="round"
       id="polyline182"
       style="fill:none"
       transform="translate(-18.000042,-26.680289)" />
    <polyline
       points=" 7870,8500 7689,8998 7599,9179 7486,9503 7297,9699"
       stroke="#c3c3c3"
       stroke-width="30px"
       stroke-linejoin="round"
       stroke-linecap="round"
       id="polyline184"
       style="fill:none"
       transform="translate(-18.000042,-26.680289)" />
    <polyline
       points=" 7674,8146 7576,8425 7478,8930 7335,9126 7260,9488 7192,9699"
       stroke="#c3c3c3"
       stroke-width="30px"
       stroke-linejoin="round"
       stroke-linecap="round"
       id="polyline186"
       style="fill:none"
       transform="translate(-18.000042,-26.680289)" />
    <polyline
       points=" 5398,12578 5737,12171 6008,11817 6121,11470 6280,11214 6415,10920 6506,10927  6656,10558 6754,10272 6890,10121 7094,9955 7109,9752"
       stroke="#c3c3c3"
       stroke-width="30px"
       stroke-linejoin="round"
       stroke-linecap="round"
       id="polyline188"
       style="fill:none"
       transform="translate(-18.000042,-26.680289)" />
    <polyline
       points=" 5141,12503 5496,12081 5744,11764 5895,11350 5918,11236 6174,11154 6257,10958  6393,10649 6498,10257 6604,10143"
       stroke="#c3c3c3"
       stroke-width="30px"
       stroke-linejoin="round"
       stroke-linecap="round"
       id="polyline190"
       style="fill:none"
       transform="translate(-18.000042,-26.680289)" />
    <polyline
       points=" 7410,7995 7365,8259 7260,8741 7162,9111 7086,9427 6973,9623 6845,9789 6777,10023 "
       stroke="#c3c3c3"
       stroke-width="30px"
       stroke-linejoin="round"
       stroke-linecap="round"
       id="polyline192"
       style="fill:none"
       transform="translate(-18.000042,-26.680289)" />
    <polyline
       points=" 7199,7988 7131,8334 7026,8726 6950,8937 6830,9194 6732,9435 6656,9812 6528,9932  6468,10023"
       stroke="#c3c3c3"
       stroke-width="30px"
       stroke-linejoin="round"
       stroke-linecap="round"
       id="polyline194"
       style="fill:none"
       transform="translate(-18.000042,-26.680289)" />
    <polyline
       points=" 6257,9993 6325,9887 6393,9533 6506,9209 6604,9058 6732,8787 6837,8659 6898,8402  7018,8048"
       stroke="#c3c3c3"
       stroke-width="30px"
       stroke-linejoin="round"
       stroke-linecap="round"
       id="polyline196"
       style="fill:none"
       transform="translate(-18.000042,-26.680289)" />
    <polyline
       points=" 6770,8010 6702,8244 6619,8327 6521,8583 6393,8870 6295,9216 6197,9518 6099,9827  5895,10091 5729,10143 5511,10468 5337,10664"
       stroke="#c3c3c3"
       stroke-width="30px"
       stroke-linejoin="round"
       stroke-linecap="round"
       id="polyline198"
       style="fill:none"
       transform="translate(-18.000042,-26.680289)" />
    <polyline
       points=" 5880,10106 5812,10264 5729,10520 5654,10633"
       stroke="#c3c3c3"
       stroke-width="30px"
       stroke-linejoin="round"
       stroke-linecap="round"
       id="polyline200"
       style="fill:none"
       transform="translate(-18.000042,-26.680289)" />
    <polyline
       points=" 6249,10468 6167,10716 6061,10912 5925,11138 5767,11319 5729,11470 4900,12435 "
       stroke="#c3c3c3"
       stroke-width="30px"
       stroke-linejoin="round"
       stroke-linecap="round"
       id="polyline202"
       style="fill:none"
       transform="translate(-18.000042,-26.680289)" />
    <polyline
       points=" 4629,12352 5677,11176 5782,10942 5940,10769 6031,10513 6295,10332"
       stroke="#c3c3c3"
       stroke-width="30px"
       stroke-linejoin="round"
       stroke-linecap="round"
       id="polyline204"
       style="fill:none"
       transform="translate(-18.000042,-26.680289)" />
    <polyline
       points=" 5707,10701 5526,10754 5420,11108 4373,12277"
       stroke="#c3c3c3"
       stroke-width="30px"
       stroke-linejoin="round"
       stroke-linecap="round"
       id="polyline206"
       style="fill:none"
       transform="translate(-18.000042,-26.680289)" />
    <polyline
       points=" 5292,10686 5217,11018 4116,12194"
       stroke="#c3c3c3"
       stroke-width="30px"
       stroke-linejoin="round"
       stroke-linecap="round"
       id="polyline208"
       style="fill:none"
       transform="translate(-18.000042,-26.680289)" />
    <polyline
       points=" 5066,10792 4953,10980 3875,12126"
       stroke="#c3c3c3"
       stroke-width="30px"
       stroke-linejoin="round"
       stroke-linecap="round"
       id="polyline210"
       style="fill:none"
       transform="translate(-18.000042,-26.680289)" />
    <polyline
       points=" 3649,12051 4742,10942 4885,10799 5141,10520 5307,10370 5420,10287 5548,10128  5646,10030 5903,9789 5993,9623 6114,9299 6212,8907 6302,8334 6430,8236 6528,8154  6589,7837"
       stroke="#c3c3c3"
       stroke-width="30px"
       stroke-linejoin="round"
       stroke-linecap="round"
       id="polyline212"
       style="fill:none"
       transform="translate(-18.000042,-26.680289)" />
    <polyline
       points=" 6389,7735 6280,8010 6174,8259 6053,8380 5993,8794 5895,9269 5805,9593 5677,9736  3370,11975"
       stroke="#c3c3c3"
       stroke-width="30px"
       stroke-linejoin="round"
       stroke-linecap="round"
       id="polyline214"
       style="fill:none"
       transform="translate(-18.000042,-26.680289)" />
    <polyline
       points=" 3174,11907 3498,11538 3664,11327 4018,11108 4335,10784 4584,10566 4719,10460  4855,10309 4991,10181 5111,10061 5262,9925 5496,9654 5571,9345 5677,9216 5767,8757  5880,8417 6001,8191 6069,7973 6204,7777"
       stroke="#c3c3c3"
       stroke-width="30px"
       stroke-linejoin="round"
       stroke-linecap="round"
       id="polyline216"
       style="fill:none"
       transform="translate(-18.000042,-26.680289)" />
    <polyline
       points=" 2940,11847 3106,11621 3280,11478 3430,11327 3574,11025 3792,11018 3943,10890  4086,10747 4365,10498 4486,10347 4606,10121 4802,10106 4908,9917 5058,9789 5172,9676  5315,9638 5345,9367 5503,9111 5571,8877 5669,8463 5797,8350 5888,8033 5981,7860 "
       stroke="#c3c3c3"
       stroke-width="30px"
       stroke-linejoin="round"
       stroke-linecap="round"
       id="polyline218"
       style="fill:none"
       transform="translate(-18.000042,-26.680289)" />
    <polyline
       points=" 5782,7973 5631,8176 5564,8312 5481,8606 5405,8824 5277,8907 5149,9186 5051,9397  4938,9397 4795,9533 4667,9661 4531,9887 4403,9978 4260,10204 4139,10422 3837,10731  3687,10799 3521,10762 3363,10905 3234,11199 3001,11425 2812,11508 2669,11583 "
       stroke="#c3c3c3"
       stroke-width="30px"
       stroke-linejoin="round"
       stroke-linecap="round"
       id="polyline220"
       style="fill:none"
       transform="translate(-18.000042,-26.680289)" />
    <polyline
       points=" 2533,11621 2662,11523 2812,11372 3001,11214 3114,10927 3393,10890 3634,10664  3777,10513 3920,10294 4003,10143 4169,10000 4290,9729 4448,9638 4621,9412 4742,9375  4832,9209 4961,9073 5036,8885 5164,8674 5277,8455 5368,8357 5564,8154 5601,8003 "
       stroke="#c3c3c3"
       stroke-width="30px"
       stroke-linejoin="round"
       stroke-linecap="round"
       id="polyline222"
       style="fill:none"
       transform="translate(-18.000042,-26.680289)" />
    <polyline
       points=" 5352,8123 5104,8259 5074,8372 4983,8696 4878,8915"
       stroke="#c3c3c3"
       stroke-width="30px"
       stroke-linejoin="round"
       stroke-linecap="round"
       id="polyline224"
       style="fill:none"
       transform="translate(-18.000042,-26.680289)" />
    <polyline
       points=" 5066,8199 4976,8274 4878,8395 4757,8583 4659,8749 4599,8975 4478,9299 4395,9503  4320,9623 4071,9631 4003,9970 3868,10159 3687,10226 3543,10422 3280,10716 3076,10814  2955,10973 2752,11154 2624,11274 2420,11440 2224,11613"
       stroke="#c3c3c3"
       stroke-width="30px"
       stroke-linejoin="round"
       stroke-linecap="round"
       id="polyline226"
       style="fill:none"
       transform="translate(-18.000042,-26.680289)" />
    <polyline
       points=" 1961,11387 2156,11297 2375,11236 2533,11086 2729,10935 2873,10799 3038,10649  3227,10520 3363,10385 3483,10264 3649,10136 3807,10000 3883,9586 4199,9480 4275,9058  4403,8757 4357,8681 4342,8689"
       stroke="#c3c3c3"
       stroke-width="30px"
       stroke-linejoin="round"
       stroke-linecap="round"
       id="polyline228"
       style="fill:none"
       transform="translate(-18.000042,-26.680289)" />
    <polyline
       points=" 1765,11312 2028,11304 2172,11146 2330,11025 2518,10860 2684,10731 2827,10558  3023,10453 3174,10324 3340,10211 3476,10061 3604,9993 3739,9669 4003,9420 4169,8772  4342,8719 4455,8546 4599,8410 4674,8282 4840,8214 4945,8282 5089,8176 5262,8138 "
       stroke="#c3c3c3"
       stroke-width="30px"
       stroke-linejoin="round"
       stroke-linecap="round"
       id="polyline230"
       style="fill:none"
       transform="translate(-18.000042,-26.680289)" />
    <polyline
       points=" 5040,13590 4365,11925"
       clip-path="url(#cp0)"
       stroke="#000000"
       stroke-width="30px"
       stroke-linejoin="round"
       id="polyline253"
       style="fill:none"
       transform="translate(-18.000042,-26.680289)" />
    <polyline
       points=" 4374,12109 4380,11961 4487,12063"
       stroke="#000000"
       stroke-width="30px"
       stroke-miterlimit="8"
       id="polyline255"
       style="fill:none"
       transform="translate(-18.000042,-26.680289)" />
    <polyline
       points=" 5580,13590 8280,13095"
       clip-path="url(#cp1)"
       stroke="#000000"
       stroke-width="30px"
       stroke-linejoin="round"
       id="polyline262"
       style="fill:none"
       transform="translate(-18.000042,-26.680289)" />
    <polyline
       points=" 8098,13067 8242,13102 8120,13186"
       stroke="#000000"
       stroke-width="30px"
       stroke-miterlimit="8"
       id="polyline264"
       style="fill:none"
       transform="translate(-18.000042,-26.680289)" />
    <polyline
       points=" 5310,13545 5580,9990"
       clip-path="url(#cp2)"
       stroke="#000000"
       stroke-width="30px"
       stroke-linejoin="round"
       id="polyline271"
       style="fill:none"
       transform="translate(-18.000042,-26.680289)" />
    <polyline
       points=" 5506,10159 5577,10029 5627,10168"
       stroke="#000000"
       stroke-width="30px"
       stroke-miterlimit="8"
       id="polyline273"
       style="fill:none"
       transform="translate(-18.000042,-26.680289)" />
    <polyline
       points=" 5445,13545 6120,12420"
       clip-path="url(#cp3)"
       stroke="#000000"
       stroke-width="30px"
       stroke-linejoin="round"
       id="polyline280"
       style="fill:none"
       transform="translate(-18.000042,-26.680289)" />
    <polyline
       points=" 5978,12538 6100,12453 6083,12600"
       stroke="#000000"
       stroke-width="30px"
       stroke-miterlimit="8"
       id="polyline282"
       style="fill:none"
       transform="translate(-18.000042,-26.680289)" />
    <text
       xml:space="preserve"
       x="5382"
       y="13878.319"
       fill="#000000"
       font-family="Helvetica"
       font-style="normal"
       font-weight="bold"
       font-size="192px"
       text-anchor="middle"
       id="text284"
       style="font-style:normal;font-variant:normal;font-weight:bold;font-stretch:normal;font-size:253.939px;font-family:Helvetica;-inkscape-font-specification:'Helvetica, Bold';font-variant-ligatures:normal;font-variant-caps:normal;font-variant-numeric:normal;font-variant-east-asian:normal"
       transform="translate(1.1582136e-5,-5.3146899e-5)">Skip water, buildings, undefined</text>
  </g>
  <g
     inkscape:groupmode="layer"
     id="layer1"
     inkscape:label="sn_column"
     style="display:inline">
    <path
       style="fill:#ffffff;stroke:none;stroke-width:11.9034px;stroke-linecap:butt;stroke-linejoin:miter;stroke-opacity:1;fill-opacity:0.69999999"
       d="m 7361.9999,10233.32 -1485,-1980.0003 h 3825 l -2088,2142.0003 108,-297 -270,-90 z"
       id="path17650" />
    <g
       id="g17218">
      <polyline
         points=" 9945,4095 10170,4095 10170,6480 9945,6480"
         stroke="#000000"
         stroke-width="30px"
         stroke-linejoin="round"
         id="polyline236"
         style="fill:none"
         transform="translate(-18.000042,-26.680289)" />
      <polyline
         points=" 9945,6525 10170,6525 10170,7200 9945,7200"
         stroke="#000000"
         stroke-width="30px"
         stroke-linejoin="round"
         id="polyline238"
         style="fill:none"
         transform="translate(-18.000042,-26.680289)" />
      <polyline
         points=" 9945,7245 10170,7245 10170,8280 9945,8280"
         stroke="#000000"
         stroke-width="30px"
         stroke-linejoin="round"
         id="polyline240"
         style="fill:none"
         transform="translate(-18.000042,-26.680289)" />
      <text
         xml:space="preserve"
         x="10287"
         y="5328.3198"
         fill="#000000"
         font-family="Helvetica"
         font-style="normal"
         font-weight="bold"
         font-size="216px"
         text-anchor="start"
         id="text242"
         style="font-style:normal;font-variant:normal;font-weight:bold;font-stretch:normal;font-size:253.939px;font-family:Helvetica;-inkscape-font-specification:'Helvetica, Bold';font-variant-ligatures:normal;font-variant-caps:normal;font-variant-numeric:normal;font-variant-east-asian:normal;text-anchor:start;fill:#000000"
         transform="translate(1.1582136e-5,-5.3146899e-5)">Canopy</text>
      <text
         xml:space="preserve"
         x="10287"
         y="7803.3198"
         fill="#000000"
         font-family="Helvetica"
         font-style="normal"
         font-weight="bold"
         font-size="216px"
         text-anchor="start"
         id="text244"
         style="font-style:normal;font-variant:normal;font-weight:bold;font-stretch:normal;font-size:253.939px;font-family:Helvetica;-inkscape-font-specification:'Helvetica, Bold';font-variant-ligatures:normal;font-variant-caps:normal;font-variant-numeric:normal;font-variant-east-asian:normal"
         transform="translate(1.1582136e-5,-5.3146899e-5)">Soil</text>
      <text
         xml:space="preserve"
         x="10287"
         y="6903.3198"
         fill="#000000"
         font-family="Helvetica"
         font-style="normal"
         font-weight="bold"
         font-size="216px"
         text-anchor="start"
         id="text246"
         style="font-style:normal;font-variant:normal;font-weight:bold;font-stretch:normal;font-size:253.939px;font-family:Helvetica;-inkscape-font-specification:'Helvetica, Bold';font-variant-ligatures:normal;font-variant-caps:normal;font-variant-numeric:normal;font-variant-east-asian:normal"
         transform="translate(1.1582136e-5,-5.3146899e-5)">Snow</text>
    </g>
    <g
       id="g17210">
      <polygon
         points="9450,7245 9720,7200 9720,6525 9630,6570 9450,6570 9225,6525 9045,6525 8730,6570 8595,6570 8100,6525 7650,6480 6885,6480 6660,6480 6300,6525 5895,6480 5895,7065 6120,7065 6255,7065 6435,7065 6660,7065 6885,7065 7335,7065 7515,7155 7785,7155 8010,7200 8235,7155 8640,7200 8910,7200 9135,7200 "
         fill="#e1e1e1"
         id="polygon232"
         transform="translate(-18.000042,-26.680289)" />
      <polygon
         points="9720,7200 9720,8280 5895,8280 5895,7065 6210,7065 6390,7065 6705,7065 6975,7065 7200,7065 7515,7155 7830,7155 8010,7200 8190,7200 8460,7200 8730,7200 9090,7200 9405,7200 "
         fill="#b79b73"
         id="polygon234"
         transform="translate(-18.000042,-26.680289)" />
      <polygon
         points="9672,7572 9672,7576 9671,7580 9669,7584 9667,7588 9665,7591 9661,7593 9657,7596 9653,7598 9644,7600 9633,7601 9621,7603 9608,7603 9594,7603 9582,7601 9571,7600 9563,7598 9556,7595 9550,7591 9546,7587 9542,7581 9539,7576 9537,7571 9535,7565 9533,7560 9530,7556 9528,7552 9525,7547 9523,7542 9521,7537 9519,7533 9519,7528 9520,7523 9522,7519 9525,7515 9531,7510 9540,7505 9552,7500 9565,7496 9578,7493 9592,7491 9604,7491 9615,7493 9623,7495 9630,7499 9637,7504 9644,7510 9649,7517 9654,7524 9659,7532 9662,7539 9665,7546 9668,7553 9669,7558 9670,7562 9671,7567 "
         stroke="#000000"
         stroke-width="30px"
         stroke-linejoin="bevel"
         id="polygon286"
         style="fill:none"
         transform="translate(-18.000042,-26.680289)" />
      <polygon
         points="8332,7500 8331,7499 8330,7498 8330,7496 8329,7495 8329,7494 8329,7492 8330,7491 8330,7490 8331,7489 8332,7488 8333,7487 8334,7486 8335,7486 8337,7485 8338,7485 8340,7485 8348,7486 8358,7489 8368,7494 8377,7499 8383,7504 8385,7508 8384,7510 8380,7511 8375,7513 8368,7513 8360,7513 8353,7511 8346,7510 8340,7508 8338,7507 8337,7505 8335,7504 8334,7503 8333,7502 "
         stroke="#000000"
         stroke-width="30px"
         stroke-linejoin="bevel"
         id="polygon288"
         style="fill:none"
         transform="translate(-18.000042,-26.680289)" />
      <polygon
         points="8285,7965 8286,7965 8287,7965 8288,7965 8292,7965 8298,7965 8304,7965 8308,7965 8310,7965 8308,7965 8304,7965 8298,7965 8292,7965 8288,7965 8287,7965 8286,7965 8285,7965 8284,7965 8283,7965 8282,7965 8283,7965 8284,7965 "
         stroke="#000000"
         stroke-width="30px"
         stroke-linejoin="bevel"
         id="polygon290"
         style="fill:none"
         transform="translate(-18.000042,-26.680289)" />
      <polygon
         points="9365,7695 9366,7695 9367,7695 9368,7695 9372,7695 9378,7695 9384,7695 9388,7695 9390,7695 9388,7695 9384,7695 9378,7695 9372,7695 9368,7695 9367,7695 9366,7695 9365,7695 9364,7695 9363,7695 9362,7695 9363,7695 9364,7695 "
         stroke="#000000"
         stroke-width="30px"
         stroke-linejoin="bevel"
         id="polygon292"
         style="fill:none"
         transform="translate(-18.000042,-26.680289)" />
      <polygon
         points="7250,7515 7251,7515 7252,7515 7253,7515 7257,7515 7263,7515 7269,7515 7273,7515 7275,7515 7273,7515 7269,7515 7263,7515 7257,7515 7253,7515 7252,7515 7251,7515 7250,7515 7249,7515 7248,7515 7247,7515 7248,7515 7249,7515 "
         stroke="#000000"
         stroke-width="30px"
         stroke-linejoin="bevel"
         id="polygon294"
         style="fill:none"
         transform="translate(-18.000042,-26.680289)" />
      <polygon
         points="7925,7515 7926,7515 7927,7515 7928,7515 7932,7515 7938,7515 7944,7515 7948,7515 7950,7515 7948,7515 7944,7515 7938,7515 7932,7515 7928,7515 7927,7515 7926,7515 7925,7515 7924,7515 7923,7515 7922,7515 7923,7515 7924,7515 "
         stroke="#000000"
         stroke-width="30px"
         stroke-linejoin="bevel"
         id="polygon296"
         style="fill:none"
         transform="translate(-18.000042,-26.680289)" />
      <polygon
         points="8960,7425 8961,7425 8962,7425 8963,7425 8967,7425 8973,7425 8979,7425 8983,7425 8985,7425 8983,7425 8979,7425 8973,7425 8967,7425 8963,7425 8962,7425 8961,7425 8960,7425 8959,7425 8958,7425 8957,7425 8958,7425 8959,7425 "
         stroke="#000000"
         stroke-width="30px"
         stroke-linejoin="bevel"
         id="polygon298"
         style="fill:none"
         transform="translate(-18.000042,-26.680289)" />
      <polygon
         points="7749,7733 7736,7736 7726,7739 7716,7742 7706,7747 7698,7751 7690,7755 7685,7755 7681,7754 7678,7750 7677,7745 7676,7738 7676,7730 7677,7722 7680,7714 7683,7707 7688,7701 7693,7697 7698,7694 7704,7692 7711,7690 7719,7689 7727,7689 7735,7689 7742,7690 7749,7692 7756,7694 7762,7696 7767,7698 7773,7702 7777,7705 7781,7709 7784,7712 7786,7715 7787,7719 7787,7721 7786,7724 7780,7726 7772,7729 7761,7731 "
         stroke="#000000"
         stroke-width="30px"
         stroke-linejoin="bevel"
         id="polygon300"
         style="fill:none"
         transform="translate(-18.000042,-26.680289)" />
      <polygon
         points="7042,7757 7043,7757 7044,7757 7045,7757 7049,7757 7055,7757 7061,7757 7065,7757 7067,7757 7065,7757 7061,7757 7055,7757 7049,7757 7045,7757 7044,7757 7043,7757 7042,7757 7041,7757 7040,7757 7039,7757 7040,7757 7041,7757 "
         stroke="#000000"
         stroke-width="30px"
         stroke-linejoin="bevel"
         id="polygon302"
         style="fill:none"
         transform="translate(-18.000042,-26.680289)" />
      <polygon
         points="7233,8087 7228,8093 7221,8097 7214,8101 7207,8104 7198,8106 7189,8107 7179,8109 7169,8109 7159,8109 7149,8107 7140,8106 7132,8104 7128,8102 7124,8101 7121,8099 7117,8097 7114,8095 7111,8093 7109,8090 7107,8087 7105,8085 7104,8082 7103,8079 7103,8077 7104,8074 7105,8071 7107,8069 7109,8066 7115,8061 7124,8056 7136,8050 7149,8046 7162,8042 7176,8038 7188,8037 7199,8036 7207,8036 7214,8038 7221,8040 7227,8042 7232,8046 7237,8049 7240,8053 7242,8058 7244,8062 7244,8066 7243,8071 7241,8077 7238,8082 "
         stroke="#000000"
         stroke-width="30px"
         stroke-linejoin="bevel"
         id="polygon304"
         style="fill:none"
         transform="translate(-18.000042,-26.680289)" />
      <polygon
         points="7768,8143 7769,8143 7770,8143 7771,8143 7775,8143 7781,8143 7787,8143 7791,8143 7793,8143 7791,8143 7787,8143 7781,8143 7775,8143 7771,8143 7770,8143 7769,8143 7768,8143 7767,8143 7766,8143 7765,8143 7766,8143 7767,8143 "
         stroke="#000000"
         stroke-width="30px"
         stroke-linejoin="bevel"
         id="polygon306"
         style="fill:none"
         transform="translate(-18.000042,-26.680289)" />
      <polygon
         points="8520,8144 8508,8144 8496,8143 8485,8142 8477,8140 8471,8137 8466,8134 8462,8131 8459,8128 8457,8123 8456,8119 8455,8115 8454,8110 8454,8106 8454,8102 8454,8097 8454,8091 8455,8086 8456,8081 8458,8075 8461,8071 8464,8067 8469,8065 8474,8063 8479,8061 8485,8060 8492,8060 8500,8060 8508,8061 8516,8063 8523,8065 8530,8068 8537,8072 8543,8077 8548,8082 8553,8088 8558,8095 8561,8102 8564,8109 8565,8116 8564,8122 8562,8127 8559,8132 8553,8137 8544,8140 8533,8143 "
         stroke="#000000"
         stroke-width="30px"
         stroke-linejoin="bevel"
         id="polygon308"
         style="fill:none"
         transform="translate(-18.000042,-26.680289)" />
      <polygon
         points="9568,7986 9569,7986 9570,7986 9571,7986 9575,7986 9581,7986 9587,7986 9591,7986 9593,7986 9591,7986 9587,7986 9581,7986 9575,7986 9571,7986 9570,7986 9569,7986 9568,7986 9567,7986 9566,7986 9565,7986 9566,7986 9567,7986 "
         stroke="#000000"
         stroke-width="30px"
         stroke-linejoin="bevel"
         id="polygon310"
         style="fill:none"
         transform="translate(-18.000042,-26.680289)" />
      <polygon
         points="8876,8151 8877,8151 8878,8151 8879,8151 8883,8151 8889,8151 8895,8151 8899,8151 8901,8151 8899,8151 8895,8151 8889,8151 8883,8151 8879,8151 8878,8151 8877,8151 8876,8151 8875,8151 8874,8151 8873,8151 8874,8151 8875,8151 "
         stroke="#000000"
         stroke-width="30px"
         stroke-linejoin="bevel"
         id="polygon312"
         style="fill:none"
         transform="translate(-18.000042,-26.680289)" />
      <polygon
         points="8949,7752 8943,7758 8937,7763 8929,7767 8920,7771 8910,7774 8901,7776 8891,7778 8881,7778 8870,7778 8859,7776 8847,7774 8835,7772 8824,7768 8813,7765 8803,7761 8795,7756 8788,7752 8783,7748 8780,7745 8779,7742 8778,7739 8778,7736 8778,7732 8780,7729 8782,7725 8785,7722 8788,7719 8792,7715 8797,7712 8802,7709 8807,7706 8813,7703 8822,7699 8831,7695 8842,7691 8854,7687 8866,7684 8877,7681 8889,7679 8900,7679 8909,7679 8918,7681 8925,7683 8931,7686 8937,7689 8942,7694 8946,7699 8950,7705 8953,7711 8956,7717 8957,7724 8957,7730 8957,7735 8956,7741 8953,7747 "
         stroke="#000000"
         stroke-width="30px"
         stroke-linejoin="bevel"
         id="polygon314"
         style="fill:none"
         transform="translate(-18.000042,-26.680289)" />
      <polyline
         points=" 5884,7086 5887,7086 5893,7086 5903,7086 5920,7086 5943,7085 5972,7085 6007,7085  6047,7085 6091,7084 6138,7084 6186,7083 6235,7083 6283,7082 6329,7082 6374,7081  6417,7081 6457,7081 6495,7080 6530,7080 6564,7080 6595,7079 6624,7079 6651,7079  6677,7078 6702,7078 6726,7078 6750,7077 6779,7077 6807,7076 6835,7076 6862,7075  6889,7075 6916,7075 6942,7074 6969,7074 6994,7074 7019,7074 7044,7074 7067,7074  7090,7074 7112,7074 7133,7075 7153,7075 7171,7076 7189,7077 7206,7078 7221,7079  7237,7081 7251,7082 7270,7085 7289,7087 7307,7090 7326,7094 7344,7098 7362,7102  7380,7106 7397,7110 7414,7115 7430,7119 7446,7123 7461,7127 7475,7131 7489,7134  7502,7137 7515,7140 7530,7143 7545,7145 7560,7147 7576,7149 7593,7151 7610,7153  7626,7154 7643,7155 7660,7156 7675,7158 7691,7159 7705,7160 7719,7161 7733,7163  7746,7164 7759,7166 7773,7168 7787,7170 7802,7172 7817,7174 7833,7176 7849,7179  7866,7180 7882,7182 7899,7183 7916,7184 7933,7185 7950,7185 7964,7185 7979,7185  7994,7184 8011,7183 8028,7182 8046,7182 8066,7181 8086,7180 8106,7179 8127,7178  8149,7177 8170,7176 8191,7176 8212,7176 8233,7176 8254,7176 8274,7177 8295,7178  8314,7179 8333,7180 8352,7182 8373,7184 8393,7186 8415,7188 8437,7191 8459,7194  8482,7196 8505,7199 8528,7202 8551,7204 8573,7206 8595,7209 8617,7210 8637,7212  8658,7213 8677,7214 8696,7215 8715,7215 8736,7215 8756,7214 8777,7213 8798,7211  8820,7210 8842,7207 8864,7205 8886,7203 8909,7200 8931,7197 8954,7195 8976,7193  8997,7190 9018,7189 9038,7187 9058,7186 9078,7185 9098,7185 9117,7185 9137,7186  9157,7187 9178,7189 9200,7190 9222,7193 9244,7195 9267,7198 9290,7201 9312,7203  9334,7206 9355,7209 9376,7211 9396,7214 9415,7215 9433,7217 9450,7218 9467,7219  9485,7220 9502,7219 9520,7219 9538,7217 9557,7215 9578,7212 9599,7208 9622,7204  9645,7199 9668,7194 9689,7190 9706,7186 9718,7183 9726,7181 9729,7180"
         stroke="#000000"
         stroke-width="30px"
         stroke-linejoin="bevel"
         id="polyline316"
         style="fill:none"
         transform="translate(-18.000042,-26.680289)" />
      <polyline
         points=" 5884,6478 5887,6478 5895,6479 5907,6480 5926,6482 5948,6485 5975,6487 6002,6490  6030,6493 6058,6495 6084,6497 6108,6499 6130,6500 6151,6501 6171,6502 6189,6503  6208,6503 6226,6503 6245,6502 6264,6502 6283,6501 6303,6500 6324,6499 6345,6498  6366,6496 6388,6495 6410,6493 6431,6492 6452,6490 6472,6489 6491,6487 6510,6486  6527,6485 6544,6484 6560,6484 6575,6483 6591,6483 6607,6483 6622,6483 6638,6483  6654,6484 6670,6485 6686,6485 6702,6487 6719,6488 6735,6489 6752,6490 6768,6492  6785,6493 6802,6494 6819,6495 6837,6496 6850,6496 6864,6497 6879,6498 6895,6498  6912,6498 6930,6499 6949,6499 6970,6500 6991,6500 7014,6500 7038,6500 7063,6500  7088,6500 7115,6501 7142,6501 7170,6501 7198,6501 7227,6501 7256,6501 7286,6501  7317,6501 7348,6501 7374,6500 7400,6500 7427,6500 7456,6500 7485,6500 7515,6500  7546,6500 7578,6500 7611,6500 7645,6501 7679,6501 7714,6501 7749,6501 7784,6502  7820,6502 7855,6502 7889,6503 7923,6504 7957,6504 7989,6505 8021,6506 8052,6507  8082,6508 8110,6509 8138,6510 8165,6511 8191,6512 8215,6514 8246,6515 8275,6517  8304,6520 8332,6522 8360,6525 8387,6527 8414,6530 8440,6533 8466,6535 8491,6538  8516,6541 8539,6544 8562,6546 8584,6548 8606,6551 8626,6552 8646,6554 8664,6555  8682,6557 8700,6557 8717,6558 8734,6558 8753,6558 8771,6557 8791,6556 8810,6555  8830,6554 8851,6552 8872,6550 8893,6548 8915,6545 8937,6543 8958,6541 8980,6538  9001,6536 9022,6534 9043,6532 9063,6531 9082,6530 9102,6529 9120,6528 9139,6528  9160,6528 9181,6529 9202,6530 9224,6532 9246,6534 9268,6536 9291,6538 9314,6541  9336,6544 9359,6547 9380,6550 9401,6553 9421,6556 9440,6558 9458,6560 9475,6562  9491,6564 9507,6566 9525,6567 9543,6567 9561,6567 9579,6566 9598,6564 9618,6562  9639,6559 9661,6555 9681,6552 9699,6548 9712,6546 9720,6544 9723,6543 9724,6543 "
         stroke="#000000"
         stroke-width="30px"
         stroke-linejoin="bevel"
         id="polyline318"
         style="fill:none"
         transform="translate(-18.000042,-26.680289)" />
      <polygon
         points="6310,7924 6297,7927 6287,7930 6277,7933 6267,7938 6259,7942 6251,7946 6246,7946 6242,7945 6239,7941 6238,7936 6237,7929 6237,7921 6238,7913 6241,7905 6244,7898 6249,7892 6254,7888 6259,7885 6265,7883 6272,7881 6280,7880 6288,7880 6296,7880 6303,7881 6310,7883 6317,7885 6323,7887 6328,7889 6334,7893 6338,7896 6342,7900 6345,7903 6347,7906 6348,7910 6348,7912 6347,7915 6341,7917 6333,7920 6322,7922 "
         stroke="#000000"
         stroke-width="30px"
         stroke-linejoin="bevel"
         id="polygon320"
         style="fill:none"
         transform="translate(-18.000042,-26.680289)" />
      <polygon
         points="6192,7332 6186,7338 6180,7343 6172,7347 6163,7351 6153,7354 6144,7356 6134,7358 6124,7358 6113,7358 6102,7356 6090,7354 6078,7352 6067,7348 6056,7345 6046,7341 6038,7336 6031,7332 6026,7328 6023,7325 6022,7322 6021,7319 6021,7316 6021,7312 6023,7309 6025,7305 6028,7302 6031,7299 6035,7295 6040,7292 6045,7289 6050,7286 6056,7283 6065,7279 6074,7275 6085,7271 6097,7267 6109,7264 6120,7261 6132,7259 6143,7259 6152,7259 6161,7261 6168,7263 6174,7266 6180,7269 6185,7274 6189,7279 6193,7285 6196,7291 6199,7297 6200,7304 6200,7310 6200,7315 6199,7321 6196,7327 "
         stroke="#000000"
         stroke-width="30px"
         stroke-linejoin="bevel"
         id="polygon322"
         style="fill:none"
         transform="translate(-18.000042,-26.680289)" />
      <polygon
         points="6386,8159 6387,8159 6388,8159 6389,8159 6393,8159 6399,8159 6405,8159 6409,8159 6411,8159 6409,8159 6405,8159 6399,8159 6393,8159 6389,8159 6388,8159 6387,8159 6386,8159 6385,8159 6384,8159 6383,8159 6384,8159 6385,8159 "
         stroke="#000000"
         stroke-width="30px"
         stroke-linejoin="bevel"
         id="polygon324"
         style="fill:none"
         transform="translate(-18.000042,-26.680289)" />
      <polygon
         points="6528,7543 6529,7543 6530,7543 6531,7543 6535,7543 6541,7543 6547,7543 6551,7543 6553,7543 6551,7543 6547,7543 6541,7543 6535,7543 6531,7543 6530,7543 6529,7543 6528,7543 6527,7543 6526,7543 6525,7543 6526,7543 6527,7543 "
         stroke="#000000"
         stroke-width="30px"
         stroke-linejoin="bevel"
         id="polygon326"
         style="fill:none"
         transform="translate(-18.000042,-26.680289)" />
      <polygon
         points="5992,7828 5993,7828 5994,7828 5995,7828 5999,7828 6005,7828 6011,7828 6015,7828 6017,7828 6015,7828 6011,7828 6005,7828 5999,7828 5995,7828 5994,7828 5993,7828 5992,7828 5991,7828 5990,7828 5989,7828 5990,7828 5991,7828 "
         stroke="#000000"
         stroke-width="30px"
         stroke-linejoin="bevel"
         id="polygon328"
         style="fill:none"
         transform="translate(-18.000042,-26.680289)" />
      <polygon
         points="6978,7386 6979,7386 6980,7386 6981,7386 6985,7386 6991,7386 6997,7386 7001,7386 7003,7386 7001,7386 6997,7386 6991,7386 6985,7386 6981,7386 6980,7386 6979,7386 6978,7386 6977,7386 6976,7386 6975,7386 6976,7386 6977,7386 "
         stroke="#000000"
         stroke-width="30px"
         stroke-linejoin="bevel"
         id="polygon330"
         style="fill:none"
         transform="translate(-18.000042,-26.680289)" />
      <polyline
         points=" 7051,6220 7082,6311 7097,6433 7087,6758 7087,6810 7088,6838 7085,6875 7077,6949  7073,7028 7064,7070 7029,7097 6945,7135 6851,7171 6752,7213 6710,7223 6599,7278  6550,7319 6539,7340 6538,7366 6547,7386 6573,7388 6606,7373 6639,7357 6663,7339  6696,7333 6733,7324 6769,7319 6805,7315 6839,7297 6864,7263 6899,7234 6934,7220  6971,7204 7005,7181 7042,7181 7076,7214 7114,7248 7150,7258 7185,7248 7219,7228  7251,7266 7282,7302 7317,7324 7356,7343 7385,7378 7405,7412 7438,7432 7475,7446  7509,7446 7549,7441 7568,7406 7534,7368 7509,7333 7502,7297 7494,7263 7529,7254  7563,7254 7602,7276 7621,7312 7658,7333 7694,7347 7736,7363 7771,7382 7807,7406  7843,7416 7854,7401 7856,7379 7818,7354 7734,7296 7660,7227 7620,7206 7554,7168  7481,7136 7427,7112 7400,7105 7387,7093 7378,7074 7376,7046 7379,6916 7369,6849  7374,6737 7374,6606 7371,6418 7371,6266"
         fill="#987b53"
         stroke="#000000"
         stroke-width="45px"
         stroke-linejoin="round"
         stroke-linecap="round"
         id="polyline332"
         transform="translate(-18.000042,-26.680289)" />
      <polygon
         points="6442,5976 6442,5763 6503,5503 6655,5336 6670,5031 6762,4787 6792,4512 6899,4391 6960,4269 6975,4223 7097,4162 7173,4070 7402,4345 7371,4726 7463,4650 7585,4726 7463,5199 7783,5183 7875,5351 7768,5519 7951,5656 7981,5747 6472,6037 "
         fill="#287828"
         id="polygon334"
         transform="translate(-18.000042,-26.680289)" />
      <polyline
         points=" 7387,4330 7388,4331 7394,4335 7406,4344 7419,4354 7432,4363 7442,4370 7451,4375  7458,4378 7463,4380 7467,4381 7471,4381 7476,4381 7480,4381 7483,4380 7486,4379  7489,4377 7491,4375 7493,4373 7493,4370 7494,4368 7493,4363 7491,4357 7487,4350  7481,4341 7474,4332 7466,4322 7456,4311 7445,4299 7437,4290 7428,4281 7419,4271  7409,4260 7398,4248 7387,4236 7375,4224 7364,4211 7354,4199 7345,4187 7336,4176  7328,4165 7321,4153 7314,4142 7307,4130 7301,4118 7295,4105 7290,4091 7285,4078  7280,4064 7276,4050 7272,4036 7268,4021 7265,4007 7261,3992 7258,3976 7254,3960  7250,3942 7246,3924 7242,3905 7238,3888 7234,3870 7230,3855 7226,3840 7223,3828  7219,3817 7216,3808 7213,3800 7210,3793 7206,3787 7203,3782 7200,3777 7196,3774  7193,3771 7189,3769 7186,3768 7182,3768 7179,3769 7176,3771 7173,3773 7169,3777  7165,3783 7160,3790 7155,3799 7150,3809 7146,3820 7141,3832 7136,3845 7132,3859  7128,3872 7124,3884 7121,3897 7117,3911 7113,3925 7108,3941 7103,3957 7098,3973  7093,3988 7087,4004 7081,4018 7076,4032 7069,4045 7063,4057 7055,4070 7048,4083  7039,4095 7031,4108 7022,4120 7014,4131 7006,4142 6999,4151 6993,4160 6987,4168  6983,4174 6981,4177 6979,4180 6978,4183 6976,4186 6975,4189 6974,4191 6973,4194  6973,4196 6973,4198 6972,4200 6972,4202 6973,4203 6973,4205 6974,4206 6975,4207  6976,4208 6977,4209 6979,4210 6980,4210 6982,4210 6984,4210 6986,4210 6988,4210  6990,4210 6998,4209 7007,4206 7018,4202 7030,4198 7042,4192 7055,4185 7066,4179  7077,4172 7085,4166 7094,4160 7103,4152 7113,4144 7124,4133 7136,4122 7146,4112  7154,4105 7157,4102 7158,4101"
         fill="#287828"
         stroke="#000000"
         stroke-width="45px"
         stroke-linejoin="bevel"
         stroke-linecap="round"
         id="polyline336"
         transform="translate(-18.000042,-26.680289)" />
      <polyline
         points=" 7371,4726 7372,4726 7379,4729 7393,4734 7412,4741 7432,4747 7450,4753 7465,4757  7477,4759 7485,4758 7491,4757 7496,4752 7497,4743 7496,4730 7492,4713 7487,4693  7482,4676 7479,4667 7478,4665 7479,4665 7483,4667 7494,4672 7510,4679 7529,4688  7550,4697 7569,4705 7587,4713 7602,4719 7615,4725 7627,4729 7638,4734 7652,4738  7665,4743 7678,4747 7692,4751 7705,4754 7718,4757 7730,4760 7741,4762 7751,4763  7760,4764 7771,4765 7783,4765 7794,4764 7805,4763 7815,4761 7825,4760 7833,4758  7842,4756 7852,4754 7862,4751 7872,4748 7879,4745 7885,4742 7887,4739 7887,4735  7884,4730 7878,4725 7870,4719 7860,4713 7849,4706 7842,4701 7834,4697 7825,4691  7815,4686 7805,4679 7794,4673 7784,4666 7774,4660 7765,4654 7755,4647 7746,4641  7737,4634 7727,4627 7717,4619 7706,4611 7695,4603 7684,4594 7673,4586 7662,4578  7651,4571 7641,4564 7631,4557 7620,4550 7609,4542 7597,4534 7584,4526 7572,4517  7559,4508 7547,4499 7536,4490 7525,4481 7514,4472 7504,4462 7493,4452 7482,4440  7470,4427 7456,4412 7441,4394 7425,4376 7411,4359 7399,4344 7391,4335 7388,4331  7387,4330"
         fill="#287828"
         stroke="#000000"
         stroke-width="45px"
         stroke-linejoin="bevel"
         stroke-linecap="round"
         id="polyline338"
         transform="translate(-18.000042,-26.680289)" />
      <polyline
         points=" 7570,4726 7570,4727 7571,4731 7574,4740 7579,4755 7585,4773 7591,4792 7597,4810  7603,4827 7608,4841 7613,4854 7618,4866 7623,4878 7628,4890 7634,4902 7640,4914  7647,4927 7654,4940 7662,4953 7670,4967 7678,4979 7685,4991 7693,5003 7700,5013  7707,5023 7714,5033 7721,5043 7729,5053 7737,5063 7745,5073 7753,5083 7762,5093  7770,5103 7779,5112 7787,5121 7795,5130 7803,5138 7811,5146 7820,5154 7829,5163  7839,5172 7849,5181 7859,5190 7869,5199 7879,5208 7889,5217 7898,5224 7907,5232  7915,5239 7925,5247 7934,5256 7944,5264 7954,5272 7963,5281 7971,5289 7979,5296  7985,5303 7990,5309 7994,5315 7997,5320 7999,5324 8000,5329 8001,5333 8001,5337  8000,5341 7999,5345 7997,5348 7995,5352 7992,5354 7989,5356 7986,5358 7978,5361  7968,5363 7957,5364 7945,5364 7933,5363 7923,5361 7915,5359 7906,5356 7897,5353  7888,5349 7877,5344 7867,5338 7856,5332 7844,5326 7834,5320 7822,5313 7810,5306  7797,5298 7784,5290 7770,5282 7758,5274 7746,5267 7736,5260 7727,5254 7719,5249  7712,5244 7706,5240 7701,5236 7696,5233 7693,5231 7690,5230 7689,5231 7689,5232  7689,5234 7690,5239 7693,5245 7696,5252 7700,5262 7705,5271 7709,5281 7713,5291  7717,5300 7721,5311 7725,5323 7727,5333 7728,5342 7727,5349 7724,5353 7721,5355  7717,5357 7711,5357 7703,5356 7695,5354 7686,5351 7676,5347 7666,5343 7657,5340  7648,5335 7637,5330 7626,5325 7614,5319 7602,5312 7591,5305 7580,5299 7569,5292  7559,5285 7549,5278 7540,5270 7529,5261 7517,5250 7504,5238 7490,5225 7477,5212  7468,5204 7464,5200 7463,5199"
         fill="#287828"
         stroke="#000000"
         stroke-width="45px"
         stroke-linejoin="bevel"
         stroke-linecap="round"
         id="polyline340"
         transform="translate(-18.000042,-26.680289)" />
      <polyline
         points=" 7859,5336 7859,5337 7862,5341 7868,5350 7877,5364 7888,5382 7899,5400 7911,5417  7921,5432 7930,5445 7938,5456 7946,5466 7953,5475 7963,5486 7972,5495 7982,5505  7993,5515 8003,5524 8014,5533 8024,5542 8033,5550 8042,5557 8050,5564 8059,5573  8068,5582 8076,5592 8084,5602 8090,5611 8095,5620 8099,5628 8100,5636 8101,5642  8099,5649 8097,5656 8093,5662 8088,5667 8083,5672 8078,5676 8073,5679 8066,5681  8058,5683 8049,5684 8039,5684 8030,5683 8019,5681 8011,5679 8002,5676 7991,5673  7980,5669 7968,5665 7956,5660 7944,5654 7933,5648 7923,5643 7914,5638 7904,5631  7893,5624 7882,5617 7872,5609 7861,5602 7852,5594 7843,5587 7834,5580 7826,5573  7817,5565 7808,5557 7798,5547 7787,5537 7775,5525 7765,5515 7757,5507 7754,5504  7753,5503"
         fill="#287828"
         stroke="#000000"
         stroke-width="45px"
         stroke-linejoin="bevel"
         stroke-linecap="round"
         id="polyline342"
         transform="translate(-18.000042,-26.680289)" />
      <polyline
         points=" 6746,4817 6746,4818 6744,4822 6739,4831 6732,4844 6725,4858 6718,4872 6711,4885  6705,4896 6699,4906 6693,4917 6687,4927 6680,4939 6672,4951 6665,4963 6658,4975  6651,4987 6646,4997 6641,5007 6638,5014 6637,5021 6637,5024 6637,5027 6639,5030  6641,5032 6644,5033 6648,5034 6652,5034 6657,5034 6662,5033 6668,5031 6674,5030  6680,5028 6686,5026 6693,5023 6702,5020 6712,5015 6723,5010 6734,5005 6746,4999  6758,4992 6770,4985 6781,4979 6792,4972 6802,4965 6812,4958 6822,4950 6832,4942  6842,4933 6852,4924 6861,4914 6870,4905 6879,4897 6887,4888 6894,4881 6902,4871  6911,4862 6920,4853 6928,4845 6935,4839 6942,4835 6948,4834 6952,4835 6956,4839  6961,4845 6965,4853 6970,4862 6976,4871 6983,4878 6991,4883 7001,4886 7008,4886  7017,4884 7028,4880 7041,4874 7056,4867 7074,4857 7093,4846 7112,4835 7128,4826  7138,4820 7142,4817 7143,4817"
         fill="#287828"
         stroke="#000000"
         stroke-width="45px"
         stroke-linejoin="bevel"
         stroke-linecap="round"
         id="polyline344"
         transform="translate(-18.000042,-26.680289)" />
      <polyline
         points=" 6685,5031 6683,5035 6679,5042 6673,5053 6664,5069 6654,5086 6644,5105 6634,5122  6625,5138 6616,5153 6609,5166 6601,5178 6594,5190 6586,5201 6579,5213 6571,5225  6562,5237 6553,5250 6544,5263 6534,5276 6524,5290 6513,5303 6503,5316 6492,5329  6482,5342 6472,5354 6462,5365 6452,5376 6442,5387 6431,5398 6420,5409 6409,5421  6397,5433 6385,5444 6373,5456 6361,5468 6349,5479 6337,5490 6326,5500 6315,5510  6304,5520 6294,5529 6283,5539 6271,5550 6259,5560 6247,5571 6236,5582 6225,5593  6214,5603 6205,5612 6196,5621 6189,5629 6182,5637 6177,5643 6174,5649 6171,5654  6168,5659 6166,5663 6165,5668 6165,5672 6165,5676 6166,5680 6167,5683 6169,5686  6171,5689 6173,5691 6176,5693 6180,5694 6187,5697 6195,5698 6204,5700 6214,5701  6225,5701 6236,5701 6247,5700 6256,5699 6266,5698 6276,5697 6287,5694 6299,5691  6311,5687 6324,5682 6337,5676 6350,5668 6360,5663 6370,5656 6382,5649 6394,5641  6407,5632 6420,5623 6433,5613 6446,5604 6459,5594 6471,5585 6482,5575 6493,5567  6503,5558 6513,5549 6523,5540 6534,5531 6544,5521 6554,5512 6564,5503 6573,5494  6581,5485 6589,5477 6597,5470 6604,5463 6614,5452 6625,5442 6635,5433 6644,5424  6653,5416 6660,5411 6666,5408 6670,5407 6673,5408 6674,5411 6675,5416 6675,5423  6673,5432 6671,5441 6668,5451 6665,5460 6661,5470 6657,5481 6653,5492 6648,5503  6643,5514 6639,5525 6635,5535 6633,5544 6631,5551 6629,5558 6628,5564 6628,5571  6628,5577 6629,5582 6630,5587 6632,5590 6635,5593 6638,5595 6643,5596 6649,5596  6656,5594 6665,5592 6674,5588 6683,5583 6692,5578 6701,5572 6708,5567 6715,5561  6723,5555 6731,5548 6739,5540 6747,5532 6755,5524 6763,5516 6770,5508 6777,5501  6786,5491 6795,5481 6804,5471 6814,5461 6822,5453 6830,5447 6837,5444 6843,5442  6848,5444 6852,5447 6856,5453 6859,5462 6863,5471 6865,5482 6868,5493 6871,5503  6873,5514 6877,5525 6880,5535 6884,5546 6888,5555 6893,5563 6897,5568 6902,5572  6906,5574 6911,5574 6917,5572 6923,5568 6930,5563 6936,5557 6943,5551 6950,5544  6956,5538 6962,5532 6970,5524 6978,5516 6989,5505 7000,5494 7010,5484 7017,5477  7020,5474 7021,5473"
         fill="#287828"
         stroke="#000000"
         stroke-width="45px"
         stroke-linejoin="bevel"
         id="polyline346"
         transform="translate(-18.000042,-26.680289)" />
      <polyline
         points=" 6503,5564 6503,5565 6500,5570 6494,5580 6485,5595 6476,5611 6466,5626 6458,5640  6451,5652 6444,5663 6437,5674 6431,5682 6424,5692 6418,5701 6410,5711 6402,5722  6394,5733 6385,5744 6375,5755 6366,5765 6357,5776 6347,5786 6337,5796 6327,5805  6316,5816 6305,5826 6293,5837 6280,5849 6268,5860 6256,5871 6245,5881 6234,5891  6225,5899 6217,5908 6210,5915 6204,5922 6199,5928 6195,5934 6191,5940 6189,5945  6187,5949 6186,5954 6186,5957 6187,5960 6188,5963 6190,5964 6192,5966 6196,5967  6201,5967 6208,5966 6217,5964 6227,5960 6239,5954 6252,5947 6266,5938 6275,5932  6285,5925 6296,5918 6309,5908 6323,5897 6340,5885 6359,5871 6379,5856 6399,5841  6416,5828 6430,5817 6438,5811 6441,5808 6442,5808"
         fill="#287828"
         stroke="#000000"
         stroke-width="45px"
         stroke-linejoin="bevel"
         stroke-linecap="round"
         id="polyline348"
         transform="translate(-18.000042,-26.680289)" />
      <polyline
         points=" 6457,5793 6457,5794 6455,5797 6450,5806 6442,5819 6433,5835 6423,5852 6414,5868  6405,5882 6397,5894 6390,5906 6383,5916 6376,5925 6369,5934 6361,5944 6353,5953  6345,5963 6336,5972 6327,5982 6318,5991 6308,6000 6299,6008 6291,6016 6282,6023  6274,6029 6264,6037 6254,6044 6243,6052 6232,6059 6220,6067 6208,6075 6197,6082  6186,6089 6175,6096 6165,6103 6154,6110 6143,6118 6132,6126 6120,6135 6109,6144  6098,6152 6089,6161 6080,6169 6073,6177 6068,6184 6065,6189 6062,6194 6060,6199  6058,6203 6058,6208 6057,6213 6057,6217 6058,6222 6060,6226 6062,6229 6064,6232  6066,6235 6069,6238 6073,6240 6080,6243 6088,6245 6097,6247 6108,6248 6120,6247  6131,6246 6143,6245 6155,6243 6164,6240 6174,6237 6184,6233 6196,6229 6208,6223  6221,6216 6235,6208 6248,6199 6262,6190 6277,6179 6286,6172 6296,6164 6307,6155  6319,6145 6332,6133 6347,6120 6364,6105 6382,6088 6401,6071 6420,6054 6438,6038  6452,6024 6463,6015 6469,6009 6472,6006"
         fill="#287828"
         stroke="#000000"
         stroke-width="45px"
         stroke-linejoin="bevel"
         stroke-linecap="round"
         id="polyline350"
         transform="translate(-18.000042,-26.680289)" />
      <polyline
         points=" 6990,4177 6990,4178 6988,4182 6985,4192 6980,4207 6974,4226 6967,4245 6960,4264  6954,4282 6947,4298 6941,4312 6934,4326 6927,4340 6920,4352 6913,4365 6905,4378  6896,4392 6886,4407 6876,4422 6865,4438 6853,4453 6841,4469 6829,4484 6818,4499  6806,4513 6794,4527 6782,4541 6771,4552 6760,4564 6749,4576 6737,4589 6725,4601  6712,4614 6699,4627 6686,4640 6673,4653 6660,4665 6647,4677 6635,4688 6624,4699  6612,4709 6602,4719 6592,4728 6578,4740 6565,4752 6552,4764 6539,4776 6527,4788  6514,4799 6502,4810 6491,4821 6480,4830 6471,4839 6463,4848 6455,4855 6444,4866  6433,4877 6424,4888 6415,4899 6408,4909 6403,4919 6399,4927 6396,4934 6395,4939  6395,4945 6395,4950 6397,4955 6399,4960 6402,4964 6405,4968 6408,4971 6412,4973  6416,4975 6422,4976 6428,4977 6435,4976 6444,4975 6453,4974 6462,4971 6472,4968  6482,4965 6491,4962 6501,4958 6511,4954 6523,4950 6535,4945 6549,4939 6562,4932  6575,4926 6588,4919 6602,4911 6613,4905 6625,4897 6638,4889 6653,4878 6671,4866  6690,4853 6711,4839 6730,4825 6746,4813 6757,4806 6761,4803 6762,4802"
         fill="#287828"
         stroke="#000000"
         stroke-width="45px"
         stroke-linejoin="bevel"
         stroke-linecap="round"
         id="polyline352"
         transform="translate(-18.000042,-26.680289)" />
      <polyline
         points=" 6472,6006 6472,6007 6470,6012 6465,6023 6457,6041 6448,6062 6438,6084 6429,6106  6421,6125 6413,6141 6406,6156 6400,6169 6393,6182 6387,6194 6380,6206 6373,6218  6366,6231 6358,6243 6351,6256 6344,6267 6337,6279 6330,6289 6325,6299 6319,6308  6314,6317 6308,6329 6302,6340 6297,6351 6293,6362 6290,6372 6288,6380 6288,6387  6289,6393 6291,6397 6294,6400 6297,6403 6302,6406 6307,6408 6313,6409 6319,6410  6325,6410 6331,6409 6338,6408 6346,6406 6354,6402 6364,6398 6373,6393 6383,6387  6393,6380 6402,6374 6411,6367 6418,6361 6425,6355 6433,6348 6441,6341 6449,6333  6457,6325 6465,6317 6473,6309 6480,6301 6487,6294 6496,6284 6505,6274 6515,6263  6525,6253 6534,6244 6543,6236 6551,6230 6559,6225 6563,6223 6566,6222 6570,6222  6574,6222 6578,6222 6581,6223 6584,6225 6587,6227 6590,6230 6593,6233 6595,6237  6596,6241 6598,6246 6599,6250 6600,6260 6601,6271 6602,6283 6602,6295 6602,6308  6603,6319 6605,6329 6607,6337 6608,6340 6610,6344 6613,6346 6616,6349 6619,6350  6623,6351 6627,6352 6631,6352 6635,6352 6640,6351 6644,6349 6649,6347 6653,6345  6658,6342 6666,6336 6674,6329 6683,6321 6692,6313 6700,6305 6707,6299 6713,6294  6718,6291 6722,6291 6724,6291 6726,6293 6728,6296 6730,6300 6731,6305 6732,6310  6732,6316 6733,6321 6734,6327 6735,6336 6737,6346 6740,6355 6743,6363 6747,6369  6751,6373 6755,6374 6759,6373 6765,6372 6770,6368 6777,6363 6783,6357 6790,6350  6797,6342 6804,6332 6812,6322 6821,6310 6829,6299 6838,6289 6846,6281 6852,6276  6858,6273 6863,6274 6867,6278 6872,6284 6876,6292 6880,6302 6883,6313 6887,6323  6892,6332 6895,6339 6900,6345 6904,6351 6910,6357 6915,6361 6921,6366 6927,6369  6932,6371 6937,6372 6942,6373 6947,6372 6952,6371 6957,6368 6962,6365 6968,6360  6973,6354 6979,6347 6984,6340 6990,6331 6995,6322 7001,6311 7007,6300 7014,6287  7022,6274 7029,6262 7037,6249 7045,6239 7052,6230 7060,6224 7067,6220 7074,6218  7081,6219 7089,6222 7097,6226 7105,6233 7113,6240 7121,6249 7129,6257 7136,6265  7143,6273 7152,6283 7161,6292 7171,6301 7181,6309 7190,6316 7200,6323 7208,6328  7217,6332 7227,6336 7238,6338 7249,6339 7260,6338 7270,6336 7280,6332 7287,6328  7295,6323 7302,6317 7311,6309 7319,6301 7328,6293 7336,6284 7344,6276 7352,6267  7360,6257 7369,6247 7378,6236 7387,6226 7396,6217 7403,6209 7410,6202 7415,6196  7421,6191 7427,6187 7432,6184 7438,6182 7443,6181 7448,6181 7453,6182 7459,6183  7465,6185 7472,6188 7479,6192 7487,6196 7495,6201 7502,6207 7509,6213 7516,6219  7523,6226 7531,6234 7539,6243 7547,6252 7554,6260 7561,6267 7567,6273 7575,6281  7584,6288 7592,6294 7600,6298 7607,6300 7613,6301 7617,6301 7621,6299 7626,6297  7630,6293 7634,6289 7637,6283 7641,6277 7643,6271 7647,6261 7650,6249 7654,6237  7658,6227 7662,6219 7666,6215 7671,6214 7678,6217 7686,6224 7695,6233 7704,6244  7715,6255 7721,6262 7728,6270 7736,6278 7745,6287 7754,6295 7763,6304 7772,6312  7781,6319 7790,6326 7798,6332 7809,6338 7820,6344 7832,6350 7844,6355 7856,6360  7868,6364 7879,6367 7890,6370 7900,6372 7911,6374 7923,6376 7934,6378 7944,6378  7954,6377 7962,6375 7968,6373 7974,6368 7979,6363 7983,6355 7986,6347 7989,6337  7991,6327 7993,6317 7994,6306 7994,6295 7995,6284 7996,6272 7997,6260 7998,6250  7999,6240 8001,6233 8004,6228 8006,6225 8009,6223 8012,6222 8016,6223 8021,6224  8026,6226 8032,6229 8038,6232 8044,6236 8050,6240 8058,6246 8067,6252 8078,6258  8089,6266 8100,6273 8111,6279 8122,6285 8131,6291 8141,6296 8151,6301 8161,6305  8171,6309 8180,6312 8188,6314 8196,6314 8202,6314 8208,6313 8214,6310 8219,6307  8223,6302 8227,6296 8230,6291 8233,6285 8235,6279 8237,6272 8238,6266 8240,6259  8242,6252 8244,6246 8248,6241 8252,6238 8258,6235 8265,6234 8273,6234 8284,6235  8296,6236 8309,6239 8322,6241 8335,6243 8347,6245 8359,6247 8372,6248 8386,6248  8399,6248 8413,6248 8425,6247 8436,6245 8446,6243 8456,6240 8465,6236 8473,6231  8481,6226 8488,6220 8493,6214 8497,6208 8500,6202 8501,6197 8501,6192 8500,6186  8498,6180 8495,6174 8491,6168 8486,6162 8480,6155 8474,6150 8466,6144 8458,6138  8449,6133 8438,6126 8426,6120 8413,6113 8399,6106 8385,6100 8371,6093 8358,6087  8345,6080 8333,6075 8322,6069 8310,6063 8297,6057 8284,6050 8271,6043 8258,6035  8245,6028 8232,6020 8220,6012 8209,6004 8197,5996 8186,5988 8175,5979 8163,5969  8152,5958 8139,5947 8127,5934 8116,5922 8104,5909 8093,5896 8083,5883 8074,5870  8065,5856 8057,5845 8050,5832 8043,5819 8035,5804 8026,5787 8017,5768 8007,5747  7997,5725 7987,5703 7978,5684 7972,5669 7968,5660 7966,5657 7966,5656"
         fill="#287828"
         stroke="#000000"
         stroke-width="45px"
         stroke-linejoin="bevel"
         stroke-linecap="round"
         id="polyline354"
         transform="translate(-18.000042,-26.680289)" />
      <polyline
         points=" 7600,5793 7601,5794 7606,5797 7616,5804 7630,5815 7646,5826 7661,5836 7674,5845  7685,5853 7695,5860 7704,5867 7716,5874 7727,5882 7738,5890 7749,5898 7759,5906  7767,5913 7773,5919 7778,5925 7779,5928 7781,5930 7781,5933 7782,5935 7782,5937  7781,5940 7780,5942 7779,5944 7778,5946 7776,5947 7774,5949 7771,5950 7769,5951  7766,5952 7763,5953 7760,5953 7754,5954 7746,5954 7738,5953 7728,5951 7717,5948  7706,5944 7695,5939 7684,5933 7675,5928 7665,5922 7655,5916 7644,5909 7633,5903  7623,5897 7613,5892 7605,5889 7598,5887 7593,5887 7586,5891 7582,5899 7579,5910  7578,5923 7577,5935 7575,5946 7573,5951 7571,5955 7568,5959 7564,5963 7560,5965  7556,5967 7551,5968 7546,5969 7541,5969 7537,5969 7528,5967 7519,5964 7508,5959  7498,5954 7489,5947 7481,5941 7472,5933 7464,5925 7455,5917 7447,5910 7439,5905  7432,5903 7427,5902 7421,5904 7416,5907 7410,5911 7404,5917 7399,5923 7394,5930  7389,5938 7385,5946 7381,5955 7376,5965 7372,5975 7368,5984 7363,5992 7360,5999  7356,6004 7355,6006 7353,6007 7351,6008 7350,6009 7348,6010 7346,6010 7344,6010  7342,6009 7340,6008 7338,6006 7336,6004 7334,6001 7332,5999 7330,5995 7328,5992  7325,5988 7323,5983 7321,5978 7317,5970 7313,5961 7309,5949 7304,5935 7298,5918  7291,5899 7283,5878 7276,5857 7271,5841 7267,5830 7265,5825 7265,5824"
         fill="#287828"
         stroke="#000000"
         stroke-width="45px"
         stroke-linejoin="bevel"
         stroke-linecap="round"
         id="polyline356"
         transform="translate(-18.000042,-26.680289)" />
    </g>
    <polyline
       points=" 7380,10260 7470,10035 7740,10125 7628,10418 7376,10274"
       stroke="#000000"
       stroke-width="30px"
       stroke-linejoin="round"
       stroke-linecap="round"
       id="polyline372"
       style="fill:none;stroke-width:30.94878837;stroke-miterlimit:4;stroke-dasharray:none"
       transform="translate(-18.000042,-26.680289)" />
    <path
       style="fill:none;stroke:#000000;stroke-width:14.99825886;stroke-linecap:butt;stroke-linejoin:miter;stroke-opacity:1;stroke-miterlimit:4;stroke-dasharray:59.99303544,59.99303544;stroke-dashoffset:0"
       d="m 7357.9999,10247.32 -1481,-1994.0003"
       id="path17961" />
    <path
       style="fill:none;stroke:#000000;stroke-width:14.99825886;stroke-linecap:butt;stroke-linejoin:miter;stroke-opacity:1;stroke-miterlimit:4;stroke-dasharray:59.99303544,59.99303544;stroke-dashoffset:0"
       d="M 7609.9999,10391.32 9701.9998,8253.3197"
       id="path18076" />
    <path
       style="fill:none;stroke:#000000;stroke-width:14.99825886;stroke-linecap:butt;stroke-linejoin:miter;stroke-opacity:1;stroke-miterlimit:4;stroke-dasharray:59.99303544,59.99303544;stroke-dashoffset:0"
       d="M 7451.9998,10008.32 6371.9999,8253.3197"
       id="path18078" />
    <path
       style="fill:none;stroke:#000000;stroke-width:14.99825886;stroke-linecap:butt;stroke-linejoin:miter;stroke-opacity:1;stroke-miterlimit:4;stroke-dasharray:59.99303544,59.99303544;stroke-dashoffset:0"
       d="m 7721.9999,10098.32 1575,-1845.0003"
       id="path18273" />
  </g>
</svg>
