<?xml version="1.0" encoding="UTF-8" standalone="no"?>
<!-- generated by Grace-5.1.25 -->

<svg
   xml:space="preserve"
   width="11.01282in"
   height="7.2774105in"
   viewBox="0 0 792.92003 523.97356"
   version="1.1"
   id="svg670"
   sodipodi:docname="mpi_scaling.svg"
   inkscape:version="1.1.2 (0a00cf5339, 2022-02-04)"
   xmlns:inkscape="http://www.inkscape.org/namespaces/inkscape"
   xmlns:sodipodi="http://sodipodi.sourceforge.net/DTD/sodipodi-0.dtd"
   xmlns="http://www.w3.org/2000/svg"
   xmlns:svg="http://www.w3.org/2000/svg"
   xmlns:rdf="http://www.w3.org/1999/02/22-rdf-syntax-ns#"
   xmlns:cc="http://creativecommons.org/ns#"
   xmlns:dc="http://purl.org/dc/elements/1.1/"><title
   id="title3168">Scaling of parallel Alpine3D simulations with the number of nodes</title><defs
   id="defs674" /><sodipodi:namedview
   id="namedview672"
   pagecolor="#505050"
   bordercolor="#eeeeee"
   borderopacity="1"
   inkscape:pageshadow="0"
   inkscape:pageopacity="0"
   inkscape:pagecheckerboard="0"
   inkscape:document-units="in"
   showgrid="false"
   inkscape:zoom="1.3901515"
   inkscape:cx="549.58038"
   inkscape:cy="336.29428"
   inkscape:window-width="3440"
   inkscape:window-height="1357"
   inkscape:window-x="0"
   inkscape:window-y="0"
   inkscape:window-maximized="1"
   inkscape:current-layer="svg670"
   fit-margin-top="0"
   fit-margin-left="0"
   fit-margin-right="0"
   fit-margin-bottom="0" />
 <g
   style="fill:none;stroke:#808080;stroke-width:0.891;stroke-linecap:butt;stroke-linejoin:miter;stroke-dasharray:none"
   id="g4"
   transform="matrix(1,0,0,-1,-8.041849,549.31061)">
   <path
   d="m 78.376,522.7794 7.1617,-154.934 28.5154,-154.2227 28.5154,-51.4076 28.5155,-25.7037 28.5154,-15.4223 28.5154,-10.2815 57.0308,-12.8519 57.0309,-7.7112 57.0308,-5.1407 114.0617,-6.426 114.0617,-3.8555 114.0616,-2.5704"
   id="path2" />
  </g><g
   style="fill:none;stroke:#0000ff;stroke-width:1.782;stroke-linecap:butt;stroke-linejoin:miter;stroke-dasharray:none"
   id="g8"
   transform="matrix(1,0,0,-1,-8.041849,549.31061)">
   <path
   d="m 82.505,522.7794 3.0327,-125.1527 28.5154,-184.004 28.5154,-50.1952 28.5155,-26.4106 28.5154,-11.5875 28.5154,-14.014 57.0308,-11.0789 57.0309,-8.1293 57.0308,-6.7709 114.0617,-1.8221 114.0617,-6.6372 114.0616,-0.6357"
   id="path6" />
  </g><g
   style="fill:#0000ff;fill-rule:nonzero"
   id="g34"
   transform="matrix(1,0,0,-1,-8.041849,549.31061)">
   <text
   style="font-style:normal;font-weight:normal;font-size:594px;font-family:Times, 'Nimbus Roman No9 L'"
   transform="matrix(0.0207,0,0,-0.0207,82.5377,394.1267)"
   id="text10">¤</text>
   <text
   style="font-style:normal;font-weight:normal;font-size:594px;font-family:Times, 'Nimbus Roman No9 L'"
   transform="matrix(0.0207,0,0,-0.0207,111.0531,210.1227)"
   id="text12">¤</text>
   <text
   style="font-style:normal;font-weight:normal;font-size:594px;font-family:Times, 'Nimbus Roman No9 L'"
   transform="matrix(0.0207,0,0,-0.0207,139.5685,159.9275)"
   id="text14">¤</text>
   <text
   style="font-style:normal;font-weight:normal;font-size:594px;font-family:Times, 'Nimbus Roman No9 L'"
   transform="matrix(0.0207,0,0,-0.0207,168.084,133.5169)"
   id="text16">¤</text>
   <text
   style="font-style:normal;font-weight:normal;font-size:594px;font-family:Times, 'Nimbus Roman No9 L'"
   transform="matrix(0.0207,0,0,-0.0207,196.5994,121.9294)"
   id="text18">¤</text>
   <text
   style="font-style:normal;font-weight:normal;font-size:594px;font-family:Times, 'Nimbus Roman No9 L'"
   transform="matrix(0.0207,0,0,-0.0207,225.1148,107.9154)"
   id="text20">¤</text>
   <text
   style="font-style:normal;font-weight:normal;font-size:594px;font-family:Times, 'Nimbus Roman No9 L'"
   transform="matrix(0.0207,0,0,-0.0207,282.1456,96.8365)"
   id="text22">¤</text>
   <text
   style="font-style:normal;font-weight:normal;font-size:594px;font-family:Times, 'Nimbus Roman No9 L'"
   transform="matrix(0.0207,0,0,-0.0207,339.1765,88.7072)"
   id="text24">¤</text>
   <text
   style="font-style:normal;font-weight:normal;font-size:594px;font-family:Times, 'Nimbus Roman No9 L'"
   transform="matrix(0.0207,0,0,-0.0207,396.2073,81.9363)"
   id="text26">¤</text>
   <text
   style="font-style:normal;font-weight:normal;font-size:594px;font-family:Times, 'Nimbus Roman No9 L'"
   transform="matrix(0.0207,0,0,-0.0207,510.269,80.1142)"
   id="text28">¤</text>
   <text
   style="font-style:normal;font-weight:normal;font-size:594px;font-family:Times, 'Nimbus Roman No9 L'"
   transform="matrix(0.0207,0,0,-0.0207,624.3307,73.477)"
   id="text30">¤</text>
   <text
   style="font-style:normal;font-weight:normal;font-size:594px;font-family:Times, 'Nimbus Roman No9 L'"
   transform="matrix(0.0207,0,0,-0.0207,738.3923,72.8413)"
   id="text32">¤</text>
  </g><g
   style="fill:none;stroke:#000000;stroke-width:0.891;stroke-linecap:butt;stroke-linejoin:miter;stroke-dasharray:none"
   id="g140"
   transform="matrix(1,0,0,-1,-8.041849,549.31061)">
   <path
   d="M 71.28,59.4 H 769.9078"
   id="path36" />
   <path
   d="M 71.28,522.72 H 769.9078"
   id="path38" />
   <path
   d="m 85.5377,59.4 v 5.94"
   id="path40" />
   <path
   d="m 85.5377,522.72 v -5.94"
   id="path42" />
   <path
   d="m 114.0531,59.4 v 5.94"
   id="path44" />
   <path
   d="m 114.0531,522.72 v -5.94"
   id="path46" />
   <path
   d="m 142.5685,59.4 v 5.94"
   id="path48" />
   <path
   d="m 142.5685,522.72 v -5.94"
   id="path50" />
   <path
   d="m 171.084,59.4 v 5.94"
   id="path52" />
   <path
   d="m 171.084,522.72 v -5.94"
   id="path54" />
   <path
   d="m 228.1148,59.4 v 5.94"
   id="path56" />
   <path
   d="m 228.1148,522.72 v -5.94"
   id="path58" />
   <path
   d="m 256.6302,59.4 v 5.94"
   id="path60" />
   <path
   d="m 256.6302,522.72 v -5.94"
   id="path62" />
   <path
   d="m 285.1456,59.4 v 5.94"
   id="path64" />
   <path
   d="m 285.1456,522.72 v -5.94"
   id="path66" />
   <path
   d="m 313.6611,59.4 v 5.94"
   id="path68" />
   <path
   d="m 313.6611,522.72 v -5.94"
   id="path70" />
   <path
   d="m 370.6919,59.4 v 5.94"
   id="path72" />
   <path
   d="m 370.6919,522.72 v -5.94"
   id="path74" />
   <path
   d="m 399.2073,59.4 v 5.94"
   id="path76" />
   <path
   d="m 399.2073,522.72 v -5.94"
   id="path78" />
   <path
   d="m 427.7227,59.4 v 5.94"
   id="path80" />
   <path
   d="m 427.7227,522.72 v -5.94"
   id="path82" />
   <path
   d="m 456.2382,59.4 v 5.94"
   id="path84" />
   <path
   d="m 456.2382,522.72 v -5.94"
   id="path86" />
   <path
   d="m 513.269,59.4 v 5.94"
   id="path88" />
   <path
   d="m 513.269,522.72 v -5.94"
   id="path90" />
   <path
   d="m 541.7844,59.4 v 5.94"
   id="path92" />
   <path
   d="m 541.7844,522.72 v -5.94"
   id="path94" />
   <path
   d="m 570.2998,59.4 v 5.94"
   id="path96" />
   <path
   d="m 570.2998,522.72 v -5.94"
   id="path98" />
   <path
   d="m 598.8152,59.4 v 5.94"
   id="path100" />
   <path
   d="m 598.8152,522.72 v -5.94"
   id="path102" />
   <path
   d="m 655.8461,59.4 v 5.94"
   id="path104" />
   <path
   d="m 655.8461,522.72 v -5.94"
   id="path106" />
   <path
   d="m 684.3615,59.4 v 5.94"
   id="path108" />
   <path
   d="m 684.3615,522.72 v -5.94"
   id="path110" />
   <path
   d="m 712.8769,59.4 v 5.94"
   id="path112" />
   <path
   d="m 712.8769,522.72 v -5.94"
   id="path114" />
   <path
   d="m 741.3923,59.4 v 5.94"
   id="path116" />
   <path
   d="m 741.3923,522.72 v -5.94"
   id="path118" />
   <path
   d="M 199.5994,59.4 V 71.28"
   id="path120" />
   <path
   d="M 199.5994,522.72 V 510.84"
   id="path122" />
   <path
   d="M 342.1765,59.4 V 71.28"
   id="path124" />
   <path
   d="M 342.1765,522.72 V 510.84"
   id="path126" />
   <path
   d="M 484.7536,59.4 V 71.28"
   id="path128" />
   <path
   d="M 484.7536,522.72 V 510.84"
   id="path130" />
   <path
   d="M 627.3307,59.4 V 71.28"
   id="path132" />
   <path
   d="M 627.3307,522.72 V 510.84"
   id="path134" />
   <path
   d="M 769.9078,59.4 V 71.28"
   id="path136" />
   <path
   d="M 769.9078,522.72 V 510.84"
   id="path138" />
  </g><g
   style="fill:#000000;fill-rule:nonzero"
   id="g154"
   transform="matrix(1,0,0,-1,-8.041849,549.31061)">
   <text
   style="font-style:normal;font-weight:normal;font-size:594px;font-family:Times, 'Nimbus Roman No9 L'"
   transform="matrix(0.028,0,0,-0.028,191.5994,42.46)"
   id="text142">10</text>
   <text
   style="font-style:normal;font-weight:normal;font-size:594px;font-family:Times, 'Nimbus Roman No9 L'"
   transform="matrix(0.028,0,0,-0.028,334.1765,42.46)"
   id="text144">20</text>
   <text
   style="font-style:normal;font-weight:normal;font-size:594px;font-family:Times, 'Nimbus Roman No9 L'"
   transform="matrix(0.028,0,0,-0.028,476.7536,42.46)"
   id="text146">30</text>
   <text
   style="font-style:normal;font-weight:normal;font-size:594px;font-family:Times, 'Nimbus Roman No9 L'"
   transform="matrix(0.028,0,0,-0.028,619.3307,42.46)"
   id="text148">40</text>
   <text
   style="font-style:normal;font-weight:normal;font-size:594px;font-family:Times, 'Nimbus Roman No9 L'"
   transform="matrix(0.028,0,0,-0.028,761.9078,42.46)"
   id="text150">50</text>
   <text
   style="font-style:normal;font-weight:normal;font-size:594px;font-family:Times, 'Nimbus Roman No9 L'"
   transform="matrix(0.028,0,0,-0.028,363.0939,25.52)"
   id="text152">Number of nodes</text>
  </g><g
   style="fill:none;stroke:#000000;stroke-width:0.891;stroke-linecap:butt;stroke-linejoin:miter;stroke-dasharray:none"
   id="g220"
   transform="matrix(1,0,0,-1,-8.041849,549.31061)">
   <path
   d="M 71.28,59.4 V 522.72"
   id="path156" />
   <path
   d="m 71.28,74.844 h 5.94"
   id="path158" />
   <path
   d="m 71.28,90.288 h 5.94"
   id="path160" />
   <path
   d="m 71.28,105.732 h 5.94"
   id="path162" />
   <path
   d="m 71.28,121.176 h 5.94"
   id="path164" />
   <path
   d="m 71.28,152.064 h 5.94"
   id="path166" />
   <path
   d="m 71.28,167.508 h 5.94"
   id="path168" />
   <path
   d="m 71.28,182.952 h 5.94"
   id="path170" />
   <path
   d="m 71.28,198.396 h 5.94"
   id="path172" />
   <path
   d="m 71.28,229.284 h 5.94"
   id="path174" />
   <path
   d="m 71.28,244.728 h 5.94"
   id="path176" />
   <path
   d="m 71.28,260.172 h 5.94"
   id="path178" />
   <path
   d="m 71.28,275.616 h 5.94"
   id="path180" />
   <path
   d="m 71.28,306.504 h 5.94"
   id="path182" />
   <path
   d="m 71.28,321.948 h 5.94"
   id="path184" />
   <path
   d="m 71.28,337.392 h 5.94"
   id="path186" />
   <path
   d="m 71.28,352.836 h 5.94"
   id="path188" />
   <path
   d="m 71.28,383.724 h 5.94"
   id="path190" />
   <path
   d="m 71.28,399.168 h 5.94"
   id="path192" />
   <path
   d="m 71.28,414.612 h 5.94"
   id="path194" />
   <path
   d="m 71.28,430.056 h 5.94"
   id="path196" />
   <path
   d="m 71.28,460.944 h 5.94"
   id="path198" />
   <path
   d="m 71.28,476.388 h 5.94"
   id="path200" />
   <path
   d="m 71.28,491.832 h 5.94"
   id="path202" />
   <path
   d="m 71.28,507.276 h 5.94"
   id="path204" />
   <path
   d="M 71.28,59.4 H 83.16"
   id="path206" />
   <path
   d="M 71.28,136.62 H 83.16"
   id="path208" />
   <path
   d="M 71.28,213.84 H 83.16"
   id="path210" />
   <path
   d="M 71.28,291.06 H 83.16"
   id="path212" />
   <path
   d="M 71.28,368.28 H 83.16"
   id="path214" />
   <path
   d="M 71.28,445.5 H 83.16"
   id="path216" />
   <path
   d="M 71.28,522.72 H 83.16"
   id="path218" />
  </g><g
   style="fill:#000000;fill-rule:nonzero"
   id="g238"
   transform="matrix(1,0,0,-1,-8.041849,549.31061)">
   <text
   style="font-style:normal;font-weight:normal;font-size:594px;font-family:Times, 'Nimbus Roman No9 L'"
   transform="matrix(0.028,0,0,-0.028,57.34,53.9)"
   id="text222">0 </text>
   <text
   style="font-style:normal;font-weight:normal;font-size:594px;font-family:Times, 'Nimbus Roman No9 L'"
   transform="matrix(0.028,0,0,-0.028,36.34,131.12)"
   id="text224">50 k</text>
   <text
   style="font-style:normal;font-weight:normal;font-size:594px;font-family:Times, 'Nimbus Roman No9 L'"
   transform="matrix(0.028,0,0,-0.028,28.34,208.34)"
   id="text226">100 k</text>
   <text
   style="font-style:normal;font-weight:normal;font-size:594px;font-family:Times, 'Nimbus Roman No9 L'"
   transform="matrix(0.028,0,0,-0.028,28.34,285.56)"
   id="text228">150 k</text>
   <text
   style="font-style:normal;font-weight:normal;font-size:594px;font-family:Times, 'Nimbus Roman No9 L'"
   transform="matrix(0.028,0,0,-0.028,28.34,362.78)"
   id="text230">200 k</text>
   <text
   style="font-style:normal;font-weight:normal;font-size:594px;font-family:Times, 'Nimbus Roman No9 L'"
   transform="matrix(0.028,0,0,-0.028,28.34,440)"
   id="text232">250 k</text>
   <text
   style="font-style:normal;font-weight:normal;font-size:594px;font-family:Times, 'Nimbus Roman No9 L'"
   transform="matrix(0.028,0,0,-0.028,28.34,517.22)"
   id="text234">300 k</text>
   <text
   style="font-style:normal;font-weight:normal;font-size:594px;font-family:Times, 'Nimbus Roman No9 L'"
   transform="matrix(0,0.028,0.028,0,19.4,253.06)"
   id="text236">run time [s]</text>
  </g><g
   style="fill:none;stroke:#000000;stroke-width:0.891;stroke-linecap:butt;stroke-linejoin:miter;stroke-dasharray:none"
   id="g340"
   transform="matrix(1,0,0,-1,-8.041849,549.31061)">
   <path
   d="m 85.5377,59.4 v 5.94"
   id="path240" />
   <path
   d="m 85.5377,522.72 v -5.94"
   id="path242" />
   <path
   d="m 114.0531,59.4 v 5.94"
   id="path244" />
   <path
   d="m 114.0531,522.72 v -5.94"
   id="path246" />
   <path
   d="m 142.5685,59.4 v 5.94"
   id="path248" />
   <path
   d="m 142.5685,522.72 v -5.94"
   id="path250" />
   <path
   d="m 171.084,59.4 v 5.94"
   id="path252" />
   <path
   d="m 171.084,522.72 v -5.94"
   id="path254" />
   <path
   d="m 228.1148,59.4 v 5.94"
   id="path256" />
   <path
   d="m 228.1148,522.72 v -5.94"
   id="path258" />
   <path
   d="m 256.6302,59.4 v 5.94"
   id="path260" />
   <path
   d="m 256.6302,522.72 v -5.94"
   id="path262" />
   <path
   d="m 285.1456,59.4 v 5.94"
   id="path264" />
   <path
   d="m 285.1456,522.72 v -5.94"
   id="path266" />
   <path
   d="m 313.6611,59.4 v 5.94"
   id="path268" />
   <path
   d="m 313.6611,522.72 v -5.94"
   id="path270" />
   <path
   d="m 370.6919,59.4 v 5.94"
   id="path272" />
   <path
   d="m 370.6919,522.72 v -5.94"
   id="path274" />
   <path
   d="m 399.2073,59.4 v 5.94"
   id="path276" />
   <path
   d="m 399.2073,522.72 v -5.94"
   id="path278" />
   <path
   d="m 427.7227,59.4 v 5.94"
   id="path280" />
   <path
   d="m 427.7227,522.72 v -5.94"
   id="path282" />
   <path
   d="m 456.2382,59.4 v 5.94"
   id="path284" />
   <path
   d="m 456.2382,522.72 v -5.94"
   id="path286" />
   <path
   d="m 513.269,59.4 v 5.94"
   id="path288" />
   <path
   d="m 513.269,522.72 v -5.94"
   id="path290" />
   <path
   d="m 541.7844,59.4 v 5.94"
   id="path292" />
   <path
   d="m 541.7844,522.72 v -5.94"
   id="path294" />
   <path
   d="m 570.2998,59.4 v 5.94"
   id="path296" />
   <path
   d="m 570.2998,522.72 v -5.94"
   id="path298" />
   <path
   d="m 598.8152,59.4 v 5.94"
   id="path300" />
   <path
   d="m 598.8152,522.72 v -5.94"
   id="path302" />
   <path
   d="m 655.8461,59.4 v 5.94"
   id="path304" />
   <path
   d="m 655.8461,522.72 v -5.94"
   id="path306" />
   <path
   d="m 684.3615,59.4 v 5.94"
   id="path308" />
   <path
   d="m 684.3615,522.72 v -5.94"
   id="path310" />
   <path
   d="m 712.8769,59.4 v 5.94"
   id="path312" />
   <path
   d="m 712.8769,522.72 v -5.94"
   id="path314" />
   <path
   d="m 741.3923,59.4 v 5.94"
   id="path316" />
   <path
   d="m 741.3923,522.72 v -5.94"
   id="path318" />
   <path
   d="M 199.5994,59.4 V 71.28"
   id="path320" />
   <path
   d="M 199.5994,522.72 V 510.84"
   id="path322" />
   <path
   d="M 342.1765,59.4 V 71.28"
   id="path324" />
   <path
   d="M 342.1765,522.72 V 510.84"
   id="path326" />
   <path
   d="M 484.7536,59.4 V 71.28"
   id="path328" />
   <path
   d="M 484.7536,522.72 V 510.84"
   id="path330" />
   <path
   d="M 627.3307,59.4 V 71.28"
   id="path332" />
   <path
   d="M 627.3307,522.72 V 510.84"
   id="path334" />
   <path
   d="M 769.9078,59.4 V 71.28"
   id="path336" />
   <path
   d="M 769.9078,522.72 V 510.84"
   id="path338" />
  </g><g
   style="fill:#000000;fill-rule:nonzero"
   id="g354"
   transform="matrix(1,0,0,-1,-8.041849,549.31061)">
   <text
   style="font-style:italic;font-weight:bold;font-size:594px;font-family:Times, 'Nimbus Roman No9 L'"
   transform="matrix(0.0224,0,0,-0.0224,186.5994,525.69)"
   id="text342">1850</text>
   <text
   style="font-style:italic;font-weight:bold;font-size:594px;font-family:Times, 'Nimbus Roman No9 L'"
   transform="matrix(0.0224,0,0,-0.0224,332.6765,525.69)"
   id="text344">925</text>
   <text
   style="font-style:italic;font-weight:bold;font-size:594px;font-family:Times, 'Nimbus Roman No9 L'"
   transform="matrix(0.0224,0,0,-0.0224,466.2536,525.69)"
   id="text346">616.67</text>
   <text
   style="font-style:italic;font-weight:bold;font-size:594px;font-family:Times, 'Nimbus Roman No9 L'"
   transform="matrix(0.0224,0,0,-0.0224,612.8307,525.69)"
   id="text348">462.5</text>
   <text
   style="font-style:italic;font-weight:bold;font-size:594px;font-family:Times, 'Nimbus Roman No9 L'"
   transform="matrix(0.0224,0,0,-0.0224,760.4078,525.69)"
   id="text350">370</text>
   <text
   style="font-style:italic;font-weight:bold;font-size:594px;font-family:Times, 'Nimbus Roman No9 L'"
   transform="matrix(0.0224,0,0,-0.0224,352.5939,540.01)"
   id="text352">number of cells per node</text>
  </g><g
   style="fill:none;stroke:#000000;stroke-width:0.891;stroke-linecap:butt;stroke-linejoin:miter;stroke-dasharray:none"
   id="g414"
   transform="matrix(1,0,0,-1,-8.041849,549.31061)">
   <path
   d="M 769.9078,59.4 V 522.72"
   id="path356" />
   <path
   d="m 769.9078,76.0795 h -5.94"
   id="path358" />
   <path
   d="m 769.9078,92.759 h -5.94"
   id="path360" />
   <path
   d="m 769.9078,109.4386 h -5.94"
   id="path362" />
   <path
   d="m 769.9078,142.7976 h -5.94"
   id="path364" />
   <path
   d="m 769.9078,159.4771 h -5.94"
   id="path366" />
   <path
   d="m 769.9078,176.1566 h -5.94"
   id="path368" />
   <path
   d="m 769.9078,209.5157 h -5.94"
   id="path370" />
   <path
   d="m 769.9078,226.1952 h -5.94"
   id="path372" />
   <path
   d="m 769.9078,242.8747 h -5.94"
   id="path374" />
   <path
   d="m 769.9078,276.2338 h -5.94"
   id="path376" />
   <path
   d="m 769.9078,292.9133 h -5.94"
   id="path378" />
   <path
   d="m 769.9078,309.5928 h -5.94"
   id="path380" />
   <path
   d="m 769.9078,342.9518 h -5.94"
   id="path382" />
   <path
   d="m 769.9078,359.6314 h -5.94"
   id="path384" />
   <path
   d="m 769.9078,376.3109 h -5.94"
   id="path386" />
   <path
   d="m 769.9078,409.6699 h -5.94"
   id="path388" />
   <path
   d="m 769.9078,426.3494 h -5.94"
   id="path390" />
   <path
   d="m 769.9078,443.029 h -5.94"
   id="path392" />
   <path
   d="m 769.9078,476.388 h -5.94"
   id="path394" />
   <path
   d="m 769.9078,493.0675 h -5.94"
   id="path396" />
   <path
   d="m 769.9078,509.747 h -5.94"
   id="path398" />
   <path
   d="m 769.9078,59.4 h -11.88"
   id="path400" />
   <path
   d="m 769.9078,126.1181 h -11.88"
   id="path402" />
   <path
   d="m 769.9078,192.8362 h -11.88"
   id="path404" />
   <path
   d="m 769.9078,259.5542 h -11.88"
   id="path406" />
   <path
   d="m 769.9078,326.2723 h -11.88"
   id="path408" />
   <path
   d="m 769.9078,392.9904 h -11.88"
   id="path410" />
   <path
   d="m 769.9078,459.7085 h -11.88"
   id="path412" />
  </g><g
   style="fill:#000000;fill-rule:nonzero"
   id="g432"
   transform="matrix(1,0,0,-1,-8.041849,549.31061)">
   <text
   style="font-style:italic;font-weight:bold;font-size:594px;font-family:Times, 'Nimbus Roman No9 L'"
   transform="matrix(0.0224,0,0,-0.0224,772.8778,54.9)"
   id="text416">0</text>
   <text
   style="font-style:italic;font-weight:bold;font-size:594px;font-family:Times, 'Nimbus Roman No9 L'"
   transform="matrix(0.0224,0,0,-0.0224,772.8778,121.6181)"
   id="text418">12</text>
   <text
   style="font-style:italic;font-weight:bold;font-size:594px;font-family:Times, 'Nimbus Roman No9 L'"
   transform="matrix(0.0224,0,0,-0.0224,772.8778,188.3362)"
   id="text420">24</text>
   <text
   style="font-style:italic;font-weight:bold;font-size:594px;font-family:Times, 'Nimbus Roman No9 L'"
   transform="matrix(0.0224,0,0,-0.0224,772.8778,255.0542)"
   id="text422">36</text>
   <text
   style="font-style:italic;font-weight:bold;font-size:594px;font-family:Times, 'Nimbus Roman No9 L'"
   transform="matrix(0.0224,0,0,-0.0224,772.8778,321.7723)"
   id="text424">48</text>
   <text
   style="font-style:italic;font-weight:bold;font-size:594px;font-family:Times, 'Nimbus Roman No9 L'"
   transform="matrix(0.0224,0,0,-0.0224,772.8778,388.4904)"
   id="text426">60</text>
   <text
   style="font-style:italic;font-weight:bold;font-size:594px;font-family:Times, 'Nimbus Roman No9 L'"
   transform="matrix(0.0224,0,0,-0.0224,772.8778,455.2085)"
   id="text428">72</text>
   <text
   style="font-style:italic;font-weight:bold;font-size:594px;font-family:Times, 'Nimbus Roman No9 L'"
   transform="matrix(0,0.0224,0.0224,0,798.8478,257.56)"
   id="text430">run time [h]</text>
  </g><g
   style="fill:none;stroke:#000000;stroke-width:0.891;stroke-linecap:butt;stroke-linejoin:miter;stroke-dasharray:none"
   id="g436"
   transform="matrix(1,0,0,-1,-8.041849,549.31061)">
   <path
   d="M 71.28,59.4 V 522.72 H 769.9078 V 59.4 Z"
   id="path434" />
  </g><g
   style="fill:#ffffff;fill-rule:nonzero"
   id="g440"
   transform="matrix(1,0,0,-1,-8.041849,549.31061)">
   <path
   d="M 100.98,493.02 V 454.2 H 213.5 v 38.82 z"
   id="path438" />
  </g><g
   style="fill:#000000;fill-rule:nonzero"
   id="g444"
   transform="matrix(1,0,0,-1,-8.041849,549.31061)">
   <text
   style="font-style:normal;font-weight:normal;font-size:594px;font-family:Times, 'Nimbus Roman No9 L'"
   transform="matrix(0.021,0,0,-0.021,145.56,478.08)"
   id="text442">ideal scaling</text>
  </g><g
   style="fill:none;stroke:#808080;stroke-width:0.891;stroke-linecap:butt;stroke-linejoin:miter;stroke-dasharray:none"
   id="g448"
   transform="matrix(1,0,0,-1,-8.041849,549.31061)">
   <path
   d="m 109.92,481.08 h 23.76"
   id="path446" />
  </g><g
   style="fill:#000000;fill-rule:nonzero"
   id="g452"
   transform="matrix(1,0,0,-1,-8.041849,549.31061)">
   <text
   style="font-style:normal;font-weight:normal;font-size:594px;font-family:Times, 'Nimbus Roman No9 L'"
   transform="matrix(0.021,0,0,-0.021,146.56,460.14)"
   id="text450">measured</text>
  </g><g
   style="fill:none;stroke:#0000ff;stroke-width:1.782;stroke-linecap:butt;stroke-linejoin:miter;stroke-dasharray:none"
   id="g456"
   transform="matrix(1,0,0,-1,-8.041849,549.31061)">
   <path
   d="m 109.92,464.64 h 23.76"
   id="path454" />
  </g><g
   style="fill:#0000ff;fill-rule:nonzero"
   id="g462"
   transform="matrix(1,0,0,-1,-8.041849,549.31061)">
   <text
   style="font-style:normal;font-weight:normal;font-size:594px;font-family:Times, 'Nimbus Roman No9 L'"
   transform="matrix(0.0207,0,0,-0.0207,106.92,461.14)"
   id="text458">¤</text>
   <text
   style="font-style:normal;font-weight:normal;font-size:594px;font-family:Times, 'Nimbus Roman No9 L'"
   transform="matrix(0.0207,0,0,-0.0207,130.68,461.14)"
   id="text460">¤</text>
  </g><g
   style="fill:none;stroke:#404040;stroke-width:1.782;stroke-linecap:butt;stroke-linejoin:miter;stroke-dasharray:none"
   id="g466"
   transform="matrix(1,0,0,-1,-8.041849,549.31061)">
   <path
   d="m 386.1,504.8986 58.5641,-57.018 58.5641,-44.4298 34.2577,-22.2761 24.3063,-16.5692 18.8535,-9.1474 15.4043,-13.4967 24.3063,-13.5508 18.8534,-12.5243 15.4044,-13.0779 24.3063,-4.1046 18.8534,-18.1239 15.4044,-2.084"
   id="path464" />
  </g><g
   style="fill:#404040;fill-rule:nonzero"
   id="g494"
   transform="matrix(1,0,0,-1,-8.041849,549.31061)">
   <text
   style="font-style:normal;font-weight:normal;font-size:594px;font-family:Times, 'Nimbus Roman No9 L'"
   transform="matrix(0.014,0,0,-0.014,384.1,502.3986)"
   id="text468">¤</text>
   <text
   style="font-style:normal;font-weight:normal;font-size:594px;font-family:Times, 'Nimbus Roman No9 L'"
   transform="matrix(0.014,0,0,-0.014,442.6641,445.3806)"
   id="text470">¤</text>
   <text
   style="font-style:normal;font-weight:normal;font-size:594px;font-family:Times, 'Nimbus Roman No9 L'"
   transform="matrix(0.014,0,0,-0.014,501.2282,400.9508)"
   id="text472">¤</text>
   <text
   style="font-style:normal;font-weight:normal;font-size:594px;font-family:Times, 'Nimbus Roman No9 L'"
   transform="matrix(0.014,0,0,-0.014,535.4859,378.6747)"
   id="text474">¤</text>
   <text
   style="font-style:normal;font-weight:normal;font-size:594px;font-family:Times, 'Nimbus Roman No9 L'"
   transform="matrix(0.014,0,0,-0.014,559.7922,362.1055)"
   id="text476">¤</text>
   <text
   style="font-style:normal;font-weight:normal;font-size:594px;font-family:Times, 'Nimbus Roman No9 L'"
   transform="matrix(0.014,0,0,-0.014,578.6457,352.9581)"
   id="text478">¤</text>
   <text
   style="font-style:normal;font-weight:normal;font-size:594px;font-family:Times, 'Nimbus Roman No9 L'"
   transform="matrix(0.014,0,0,-0.014,594.05,339.4614)"
   id="text480">¤</text>
   <text
   style="font-style:normal;font-weight:normal;font-size:594px;font-family:Times, 'Nimbus Roman No9 L'"
   transform="matrix(0.014,0,0,-0.014,618.3563,325.9106)"
   id="text482">¤</text>
   <text
   style="font-style:normal;font-weight:normal;font-size:594px;font-family:Times, 'Nimbus Roman No9 L'"
   transform="matrix(0.014,0,0,-0.014,637.2097,313.3863)"
   id="text484">¤</text>
   <text
   style="font-style:normal;font-weight:normal;font-size:594px;font-family:Times, 'Nimbus Roman No9 L'"
   transform="matrix(0.014,0,0,-0.014,652.6141,300.3084)"
   id="text486">¤</text>
   <text
   style="font-style:normal;font-weight:normal;font-size:594px;font-family:Times, 'Nimbus Roman No9 L'"
   transform="matrix(0.014,0,0,-0.014,676.9204,296.2038)"
   id="text488">¤</text>
   <text
   style="font-style:normal;font-weight:normal;font-size:594px;font-family:Times, 'Nimbus Roman No9 L'"
   transform="matrix(0.014,0,0,-0.014,695.7738,278.0799)"
   id="text490">¤</text>
   <text
   style="font-style:normal;font-weight:normal;font-size:594px;font-family:Times, 'Nimbus Roman No9 L'"
   transform="matrix(0.014,0,0,-0.014,711.1782,275.9959)"
   id="text492">¤</text>
  </g><g
   style="fill:none;stroke:#404040;stroke-width:0.891;stroke-linecap:butt;stroke-linejoin:miter;stroke-dasharray:none"
   id="g498"
   transform="matrix(1,0,0,-1,-8.041849,549.31061)">
   <path
   d="m 386.1,481.9606 58.5641,-39.215 58.5641,-39.2151 34.2577,-22.9394 24.3063,-16.2757 18.8535,-12.6244 15.4043,-10.3149 24.3063,-16.2758 18.8534,-12.6244 15.4044,-10.3149 24.3063,-16.2758 18.8534,-12.6244 8.9906,-6.0202"
   id="path496" />
  </g><g
   style="fill:none;stroke:#000000;stroke-width:0.891;stroke-linecap:butt;stroke-linejoin:miter;stroke-dasharray:none"
   id="g504"
   transform="matrix(1,0,0,-1,-8.041849,549.31061)">
   <path
   d="M 386.1,267.3 H 724.68"
   id="path500" />
   <path
   d="M 386.1,504.9 H 724.68"
   id="path502" />
  </g><g
   style="fill:none;stroke:#808080;stroke-width:0.891;stroke-linecap:butt;stroke-linejoin:miter;stroke-dasharray:none"
   id="g566"
   transform="matrix(1,0,0,-1,-8.041849,549.31061)">
   <path
   d="m 444.6641,267.3 v 5.94"
   id="path506" />
   <path
   d="m 444.6641,504.9 v -5.94"
   id="path508" />
   <path
   d="m 478.9219,267.3 v 5.94"
   id="path510" />
   <path
   d="m 478.9219,504.9 v -5.94"
   id="path512" />
   <path
   d="m 503.2282,267.3 v 5.94"
   id="path514" />
   <path
   d="m 503.2282,504.9 v -5.94"
   id="path516" />
   <path
   d="m 522.0816,267.3 v 5.94"
   id="path518" />
   <path
   d="m 522.0816,504.9 v -5.94"
   id="path520" />
   <path
   d="m 537.4859,267.3 v 5.94"
   id="path522" />
   <path
   d="m 537.4859,504.9 v -5.94"
   id="path524" />
   <path
   d="m 550.5102,267.3 v 5.94"
   id="path526" />
   <path
   d="m 550.5102,504.9 v -5.94"
   id="path528" />
   <path
   d="m 561.7922,267.3 v 5.94"
   id="path530" />
   <path
   d="m 561.7922,504.9 v -5.94"
   id="path532" />
   <path
   d="m 571.7437,267.3 v 5.94"
   id="path534" />
   <path
   d="m 571.7437,504.9 v -5.94"
   id="path536" />
   <path
   d="m 580.6457,267.3 v 5.94"
   id="path538" />
   <path
   d="m 580.6457,504.9 v -5.94"
   id="path540" />
   <path
   d="m 639.2097,267.3 v 5.94"
   id="path542" />
   <path
   d="m 639.2097,504.9 v -5.94"
   id="path544" />
   <path
   d="m 673.4675,267.3 v 5.94"
   id="path546" />
   <path
   d="m 673.4675,504.9 v -5.94"
   id="path548" />
   <path
   d="m 697.7738,267.3 v 5.94"
   id="path550" />
   <path
   d="m 697.7738,504.9 v -5.94"
   id="path552" />
   <path
   d="m 716.6272,267.3 v 5.94"
   id="path554" />
   <path
   d="m 716.6272,504.9 v -5.94"
   id="path556" />
   <path
   d="m 386.1,267.3 v 11.88"
   id="path558" />
   <path
   d="M 386.1,504.9 V 493.02"
   id="path560" />
   <path
   d="m 580.6457,267.3 v 11.88"
   id="path562" />
   <path
   d="M 580.6457,504.9 V 493.02"
   id="path564" />
  </g><g
   style="fill:#808080;fill-rule:nonzero"
   id="g574"
   transform="matrix(1,0,0,-1,-8.041849,549.31061)">
   <text
   style="font-style:italic;font-weight:normal;font-size:594px;font-family:Times, 'Nimbus Roman No9 L'"
   transform="matrix(0.0224,0,0,-0.0224,383.6,252.36)"
   id="text568">1</text>
   <text
   style="font-style:italic;font-weight:normal;font-size:594px;font-family:Times, 'Nimbus Roman No9 L'"
   transform="matrix(0.0224,0,0,-0.0224,573.6457,252.36)"
   id="text570">10</text>
   <text
   style="font-style:italic;font-weight:normal;font-size:594px;font-family:Times, 'Nimbus Roman No9 L'"
   transform="matrix(0.0224,0,0,-0.0224,511.39,237.42)"
   id="text572">Number of cores</text>
  </g><g
   style="fill:none;stroke:#000000;stroke-width:0.891;stroke-linecap:butt;stroke-linejoin:miter;stroke-dasharray:none"
   id="g580"
   transform="matrix(1,0,0,-1,-8.041849,549.31061)">
   <path
   d="M 386.1,267.3 V 504.9"
   id="path576" />
   <path
   d="M 724.68,267.3 V 504.9"
   id="path578" />
  </g><g
   style="fill:none;stroke:#808080;stroke-width:0.891;stroke-linecap:butt;stroke-linejoin:miter;stroke-dasharray:none"
   id="g654"
   transform="matrix(1,0,0,-1,-8.041849,549.31061)">
   <path
   d="m 386.1,267.3 h 5.94"
   id="path582" />
   <path
   d="m 724.68,267.3 h -5.94"
   id="path584" />
   <path
   d="m 386.1,273.2608 h 5.94"
   id="path586" />
   <path
   d="m 724.68,273.2608 h -5.94"
   id="path588" />
   <path
   d="m 386.1,312.4759 h 5.94"
   id="path590" />
   <path
   d="m 724.68,312.4759 h -5.94"
   id="path592" />
   <path
   d="m 386.1,335.4152 h 5.94"
   id="path594" />
   <path
   d="m 724.68,335.4152 h -5.94"
   id="path596" />
   <path
   d="m 386.1,351.691 h 5.94"
   id="path598" />
   <path
   d="m 724.68,351.691 h -5.94"
   id="path600" />
   <path
   d="m 386.1,364.3154 h 5.94"
   id="path602" />
   <path
   d="m 724.68,364.3154 h -5.94"
   id="path604" />
   <path
   d="m 386.1,374.6303 h 5.94"
   id="path606" />
   <path
   d="m 724.68,374.6303 h -5.94"
   id="path608" />
   <path
   d="m 386.1,383.3515 h 5.94"
   id="path610" />
   <path
   d="m 724.68,383.3515 h -5.94"
   id="path612" />
   <path
   d="m 386.1,390.9061 h 5.94"
   id="path614" />
   <path
   d="m 724.68,390.9061 h -5.94"
   id="path616" />
   <path
   d="m 386.1,397.5697 h 5.94"
   id="path618" />
   <path
   d="m 724.68,397.5697 h -5.94"
   id="path620" />
   <path
   d="m 386.1,403.5305 h 5.94"
   id="path622" />
   <path
   d="m 724.68,403.5305 h -5.94"
   id="path624" />
   <path
   d="m 386.1,442.7456 h 5.94"
   id="path626" />
   <path
   d="m 724.68,442.7456 h -5.94"
   id="path628" />
   <path
   d="m 386.1,465.6849 h 5.94"
   id="path630" />
   <path
   d="m 724.68,465.6849 h -5.94"
   id="path632" />
   <path
   d="m 386.1,481.9606 h 5.94"
   id="path634" />
   <path
   d="m 724.68,481.9606 h -5.94"
   id="path636" />
   <path
   d="m 386.1,494.5851 h 5.94"
   id="path638" />
   <path
   d="m 724.68,494.5851 h -5.94"
   id="path640" />
   <path
   d="m 386.1,504.9 h 5.94"
   id="path642" />
   <path
   d="m 724.68,504.9 h -5.94"
   id="path644" />
   <path
   d="m 386.1,273.2608 h 11.88"
   id="path646" />
   <path
   d="M 724.68,273.2608 H 712.8"
   id="path648" />
   <path
   d="m 386.1,403.5305 h 11.88"
   id="path650" />
   <path
   d="M 724.68,403.5305 H 712.8"
   id="path652" />
  </g><g
   style="fill:#808080;fill-rule:nonzero"
   id="g662"
   transform="matrix(1,0,0,-1,-8.041849,549.31061)">
   <text
   style="font-style:italic;font-weight:normal;font-size:594px;font-family:Times, 'Nimbus Roman No9 L'"
   transform="matrix(0.0224,0,0,-0.0224,357.16,268.7608)"
   id="text656">10 k</text>
   <text
   style="font-style:italic;font-weight:normal;font-size:594px;font-family:Times, 'Nimbus Roman No9 L'"
   transform="matrix(0.0224,0,0,-0.0224,351.16,399.0305)"
   id="text658">100 k</text>
   <text
   style="font-style:italic;font-weight:normal;font-size:594px;font-family:Times, 'Nimbus Roman No9 L'"
   transform="matrix(0,0.0224,0.0224,0,343.22,354.6)"
   id="text660">run time [s]</text>
  </g><g
   style="fill:none;stroke:#808080;stroke-width:0.891;stroke-linecap:butt;stroke-linejoin:miter;stroke-dasharray:none"
   id="g666"
   transform="matrix(1,0,0,-1,-8.041849,549.31061)">
   <path
   d="M 386.1,267.3 V 504.9 H 724.68 V 267.3 Z"
   id="path664" />
  </g>
<metadata
   id="metadata3166"><rdf:RDF><cc:Work
       rdf:about=""><dc:title>Scaling of parallel Alpine3D simulations with the number of nodes</dc:title><dc:date>2024-05-24</dc:date><dc:creator><cc:Agent><dc:title>Mathias Bavay</dc:title></cc:Agent></dc:creator><dc:identifier>slf</dc:identifier><dc:source>https://code.wsl.ch/snow-models/alpine3d</dc:source><cc:license
         rdf:resource="http://creativecommons.org/licenses/by-sa/4.0/" /></cc:Work><cc:License
       rdf:about="http://creativecommons.org/licenses/by-sa/4.0/"><cc:permits
         rdf:resource="http://creativecommons.org/ns#Reproduction" /><cc:permits
         rdf:resource="http://creativecommons.org/ns#Distribution" /><cc:requires
         rdf:resource="http://creativecommons.org/ns#Notice" /><cc:requires
         rdf:resource="http://creativecommons.org/ns#Attribution" /><cc:permits
         rdf:resource="http://creativecommons.org/ns#DerivativeWorks" /><cc:requires
         rdf:resource="http://creativecommons.org/ns#ShareAlike" /></cc:License></rdf:RDF></metadata></svg>
