<?xml version="1.0" encoding="UTF-8" standalone="no"?>
<!-- Creator: fig2dev Version 3.2.8b -->

<!-- CreationDate: 2024-05-24 14:22:33 -->

<!-- Magnification: 1.05 -->

<svg
   width="576.56317pt"
   height="306.5733pt"
   viewBox="5180 1414 9148.5181 4862.5105"
   version="1.1"
   id="svg310"
   sodipodi:docname="soil.svg"
   inkscape:version="1.1.2 (0a00cf5339, 2022-02-04)"
   xmlns:inkscape="http://www.inkscape.org/namespaces/inkscape"
   xmlns:sodipodi="http://sodipodi.sourceforge.net/DTD/sodipodi-0.dtd"
   xmlns="http://www.w3.org/2000/svg"
   xmlns:svg="http://www.w3.org/2000/svg"
   xmlns:rdf="http://www.w3.org/1999/02/22-rdf-syntax-ns#"
   xmlns:cc="http://creativecommons.org/ns#"
   xmlns:dc="http://purl.org/dc/elements/1.1/">
  <title
     id="title4798">Soil simulations with Snowpack and Alpine3D</title>
  <defs
     id="defs314">
    <defs
       id="defs49">
      <clipPath
         id="cp0">
        <path
           clip-rule="evenodd"
           d="m 5180,1414 h 9568 V 6315 H 5180 Z m 9309,4549 180,67 -180,68 244,-50 v -36 z"
           id="path46" />
      </clipPath>
    </defs>
    <defs
       id="defs58">
      <clipPath
         id="cp1">
        <path
           clip-rule="evenodd"
           d="m 5180,1414 h 9568 V 6315 H 5180 Z m 9309,4549 180,67 -180,68 244,-50 v -36 z m -1101,-2947 67,-180 68,180 -50,-244 h -36 z"
           id="path55" />
      </clipPath>
    </defs>
    <defs
       id="defs79">
      <clipPath
         id="cp2">
        <path
           clip-rule="evenodd"
           d="m 5180,1414 h 9568 V 6315 H 5180 Z m 3230,244 -116,43 82,-93 -105,100 7,11 z m 4978,1358 67,-180 68,180 -50,-244 h -36 z"
           id="path76" />
      </clipPath>
    </defs>
    <defs
       id="defs296">
      <clipPath
         id="cp3">
        <path
           clip-rule="evenodd"
           d="m 5180,1414 h 9568 V 6315 H 5180 Z m 5170,3446 -45,-135 -45,135 38,7 h 14 z m -90,-3420 45,135 45,-135 -38,-7 h -14 z"
           id="path293" />
      </clipPath>
    </defs>
  </defs>
  <sodipodi:namedview
     id="namedview312"
     pagecolor="#505050"
     bordercolor="#eeeeee"
     borderopacity="1"
     inkscape:pageshadow="0"
     inkscape:pageopacity="0"
     inkscape:pagecheckerboard="0"
     inkscape:document-units="pt"
     showgrid="false"
     fit-margin-top="0"
     fit-margin-left="0"
     fit-margin-right="0"
     fit-margin-bottom="0"
     inkscape:zoom="1.5631068"
     inkscape:cx="369.13665"
     inkscape:cy="204.40062"
     inkscape:window-width="3440"
     inkscape:window-height="1357"
     inkscape:window-x="0"
     inkscape:window-y="0"
     inkscape:window-maximized="1"
     inkscape:current-layer="g70" />
  <polyline
     points=" 6648,1785 6423,1785 6423,4170 6648,4170"
     stroke="#000000"
     stroke-width="30px"
     stroke-linejoin="round"
     id="polyline40"
     style="fill:none"
     transform="translate(-386.48144,-22.502488)" />
  <polyline
     points=" 6648,4215 6423,4215 6423,4890 6648,4890"
     stroke="#000000"
     stroke-width="30px"
     stroke-linejoin="round"
     id="polyline42"
     style="fill:none"
     transform="translate(-386.48144,-22.502488)" />
  <polyline
     points=" 6648,4935 6423,4935 6423,5970 6648,5970"
     stroke="#000000"
     stroke-width="30px"
     stroke-linejoin="round"
     id="polyline44"
     style="fill:none"
     transform="translate(-386.48144,-22.502488)" />
  <g
     transform="translate(5901.5186,4597.4975)"
     id="g66"
     style="fill:none">
    <text
       xml:space="preserve"
       x="0"
       y="0"
       fill="#000000"
       font-family="Helvetica"
       font-style="normal"
       font-weight="bold"
       font-size="216px"
       text-anchor="end"
       id="text64">Snow</text>
  </g>
  <g
     transform="translate(5901.5186,3022.4975)"
     id="g70"
     style="fill:none">
    <text
       xml:space="preserve"
       x="0"
       y="0"
       fill="#000000"
       font-family="Helvetica"
       font-style="normal"
       font-weight="bold"
       font-size="216px"
       text-anchor="end"
       id="text68"
       style="font-style:normal;font-variant:normal;font-weight:bold;font-stretch:normal;font-size:222.143px;font-family:Times, Symbol;-inkscape-font-specification:'Times, Symbol, Bold';font-variant-ligatures:normal;font-variant-caps:normal;font-variant-numeric:normal;font-variant-east-asian:normal;text-anchor:end;fill:#000000">Canopy</text>
  </g>
  <g
     transform="translate(5901.5186,5497.4975)"
     id="g74"
     style="fill:none">
    <text
       xml:space="preserve"
       x="0"
       y="0"
       fill="#000000"
       font-family="Helvetica"
       font-style="normal"
       font-weight="bold"
       font-size="216px"
       text-anchor="end"
       id="text72">Soil</text>
  </g>
  <path
     d="M 9630,1935 A 922,922 0 0 0 8280,1710"
     clip-path="url(#cp2)"
     stroke="#000000"
     stroke-width="8px"
     id="path81"
     style="fill:none"
     transform="translate(-386.48144,-22.502488)" />
  <polyline
     points=" 10620,4230 11520,2970"
     stroke="#000000"
     stroke-width="8px"
     id="polyline85"
     style="fill:none"
     transform="translate(-386.48144,-22.502488)" />
  <polyline
     points=" 10620,4860 11520,4320"
     stroke="#000000"
     stroke-width="8px"
     id="polyline87"
     style="fill:none"
     transform="translate(-386.48144,-22.502488)" />
  <polyline
     points=" 10620,5985 11610,5985"
     stroke="#000000"
     stroke-width="8px"
     id="polyline125"
     style="fill:none"
     transform="translate(-386.48144,-22.502488)" />
  <g
     id="g1373"
     transform="translate(-386.48144,-22.502488)">
    <rect
       x="11655"
       y="5355"
       width="1710"
       height="315"
       fill="#897456"
       id="rect6" />
    <rect
       x="11655"
       y="5130"
       width="1710"
       height="225"
       fill="#9b8361"
       id="rect8" />
    <rect
       x="11655"
       y="4770"
       width="1710"
       height="135"
       fill="#b79b73"
       id="rect10" />
    <rect
       x="11655"
       y="4500"
       width="1710"
       height="135"
       fill="#bea581"
       id="rect12" />
    <rect
       x="11655"
       y="4905"
       width="1710"
       height="225"
       fill="#9b8361"
       id="rect14" />
    <rect
       x="11655"
       y="5670"
       width="1710"
       height="315"
       fill="#897456"
       id="rect16" />
    <rect
       x="11655"
       y="4635"
       width="1710"
       height="135"
       fill="#b79b73"
       id="rect18" />
    <rect
       x="11655"
       y="4320"
       width="1710"
       height="90"
       fill="#e2d7c7"
       id="rect20" />
    <rect
       x="11655"
       y="4410"
       width="1710"
       height="90"
       fill="#d3c3ab"
       id="rect22" />
    <rect
       x="11655"
       y="3420"
       width="1710"
       height="450"
       fill="#ffb2b2"
       id="rect24" />
    <rect
       x="11655"
       y="2970"
       width="1710"
       height="90"
       fill="#99ff99"
       id="rect26" />
    <rect
       x="11655"
       y="3060"
       width="1710"
       height="135"
       fill="#4cff4c"
       id="rect28" />
    <rect
       x="11655"
       y="3195"
       width="1710"
       height="45"
       fill="#00f200"
       id="rect30" />
    <rect
       x="11655"
       y="3870"
       width="1710"
       height="90"
       fill="#cfcbe6"
       id="rect32" />
    <rect
       x="11655"
       y="3240"
       width="1710"
       height="180"
       fill="#cfcbe6"
       id="rect34" />
    <rect
       x="11655"
       y="4185"
       width="1710"
       height="135"
       fill="#cfcbe6"
       id="rect36" />
    <rect
       x="11655"
       y="3960"
       width="1710"
       height="225"
       fill="#c74c4c"
       id="rect38" />
    <polyline
       points=" 11655,5985 13365,5985"
       stroke="#000000"
       stroke-width="8px"
       id="polyline89"
       style="fill:none" />
    <polyline
       points=" 11655,5670 13365,5670"
       stroke="#000000"
       stroke-width="8px"
       id="polyline91"
       style="fill:none" />
    <polyline
       points=" 11655,4635 13365,4635"
       stroke="#000000"
       stroke-width="8px"
       id="polyline93"
       style="fill:none" />
    <polyline
       points=" 11655,4770 13365,4770"
       stroke="#000000"
       stroke-width="8px"
       id="polyline95"
       style="fill:none" />
    <polyline
       points=" 11655,5130 13365,5130"
       stroke="#000000"
       stroke-width="8px"
       id="polyline97"
       style="fill:none" />
    <polyline
       points=" 11655,5355 13365,5355"
       stroke="#000000"
       stroke-width="8px"
       id="polyline99"
       style="fill:none" />
    <polyline
       points=" 11655,4500 13365,4500"
       stroke="#000000"
       stroke-width="8px"
       id="polyline101"
       style="fill:none" />
    <polyline
       points=" 11655,4905 13365,4905"
       stroke="#000000"
       stroke-width="8px"
       id="polyline103"
       style="fill:none" />
    <polyline
       points=" 11655,4410 13365,4410"
       stroke="#000000"
       stroke-width="8px"
       id="polyline105"
       style="fill:none" />
    <polyline
       points=" 11655,3240 13365,3240"
       stroke="#000000"
       stroke-width="8px"
       id="polyline107"
       style="fill:none" />
    <polyline
       points=" 11655,3195 13365,3195"
       stroke="#000000"
       stroke-width="8px"
       id="polyline109"
       style="fill:none" />
    <polyline
       points=" 11655,3060 13365,3060"
       stroke="#000000"
       stroke-width="8px"
       id="polyline111"
       style="fill:none" />
    <polyline
       points=" 11655,3420 13365,3420"
       stroke="#000000"
       stroke-width="8px"
       id="polyline113"
       style="fill:none" />
    <polyline
       points=" 11655,3870 13365,3870"
       stroke="#000000"
       stroke-width="8px"
       id="polyline115"
       style="fill:none" />
    <polyline
       points=" 11655,4185 13365,4185"
       stroke="#000000"
       stroke-width="8px"
       id="polyline117"
       style="fill:none" />
    <polyline
       points=" 11655,3960 13365,3960"
       stroke="#000000"
       stroke-width="8px"
       id="polyline119"
       style="fill:none" />
    <polyline
       points=" 11655,4320 13365,4320"
       stroke="#000000"
       stroke-width="15px"
       id="polyline121"
       style="fill:none" />
    <polyline
       points=" 11655,2970 13365,2970"
       stroke="#8c8c8c"
       stroke-width="8px"
       id="polyline123"
       style="fill:none" />
    <polygon
       points="11750,4365 11749,4365 11748,4365 11747,4365 11748,4365 11749,4365 11750,4365 11751,4365 11752,4365 11753,4365 11757,4365 11763,4365 11769,4365 11773,4365 11775,4365 11773,4365 11769,4365 11763,4365 11757,4365 11753,4365 11752,4365 11751,4365 "
       stroke="#000000"
       stroke-width="30px"
       stroke-linejoin="bevel"
       id="polygon171"
       style="fill:none" />
    <polygon
       points="12155,4410 12154,4410 12153,4410 12152,4410 12153,4410 12154,4410 12155,4410 12156,4410 12157,4410 12158,4410 12162,4410 12168,4410 12174,4410 12178,4410 12180,4410 12178,4410 12174,4410 12168,4410 12162,4410 12158,4410 12157,4410 12156,4410 "
       stroke="#000000"
       stroke-width="30px"
       stroke-linejoin="bevel"
       id="polygon173"
       style="fill:none" />
    <polygon
       points="12604,4347 12603,4347 12602,4347 12601,4347 12602,4347 12603,4347 12604,4347 12605,4347 12606,4347 12607,4347 12611,4347 12617,4347 12623,4347 12627,4347 12629,4347 12627,4347 12623,4347 12617,4347 12611,4347 12607,4347 12606,4347 12605,4347 "
       stroke="#000000"
       stroke-width="30px"
       stroke-linejoin="bevel"
       id="polygon175"
       style="fill:none" />
    <polygon
       points="13003,4343 13002,4343 13001,4343 13000,4343 13001,4343 13002,4343 13003,4343 13004,4343 13005,4343 13006,4343 13010,4343 13016,4343 13022,4343 13026,4343 13028,4343 13026,4343 13022,4343 13016,4343 13010,4343 13006,4343 13005,4343 13004,4343 "
       stroke="#000000"
       stroke-width="30px"
       stroke-linejoin="bevel"
       id="polygon177"
       style="fill:none" />
    <polygon
       points="12912,4451 12911,4451 12910,4451 12909,4451 12910,4451 12911,4451 12912,4451 12913,4451 12914,4451 12915,4451 12919,4451 12925,4451 12931,4451 12935,4451 12937,4451 12935,4451 12931,4451 12925,4451 12919,4451 12915,4451 12914,4451 12913,4451 "
       stroke="#000000"
       stroke-width="30px"
       stroke-linejoin="bevel"
       id="polygon179"
       style="fill:none" />
    <polygon
       points="11953,4452 11952,4452 11951,4452 11950,4452 11951,4452 11952,4452 11953,4452 11954,4452 11955,4452 11956,4452 11960,4452 11966,4452 11972,4452 11976,4452 11978,4452 11976,4452 11972,4452 11966,4452 11960,4452 11956,4452 11955,4452 11954,4452 "
       stroke="#000000"
       stroke-width="30px"
       stroke-linejoin="bevel"
       id="polygon181"
       style="fill:none" />
    <polygon
       points="12153,4570 12151,4569 12150,4567 12148,4566 12147,4565 12146,4564 12145,4562 12144,4561 12143,4560 12143,4558 12142,4557 12142,4556 12142,4554 12143,4553 12143,4552 12144,4551 12145,4550 12146,4549 12147,4548 12148,4548 12150,4547 12151,4547 12153,4547 12161,4548 12171,4551 12181,4556 12190,4561 12196,4566 12198,4570 12197,4572 12193,4573 12188,4575 12181,4575 12173,4575 12166,4573 12159,4572 "
       stroke="#000000"
       stroke-width="30px"
       stroke-linejoin="bevel"
       id="polygon183"
       style="fill:none" />
    <polygon
       points="13175,4582 13177,4581 13178,4579 13180,4578 13181,4577 13182,4576 13183,4574 13184,4573 13185,4572 13185,4570 13186,4569 13186,4568 13186,4566 13185,4565 13185,4564 13184,4563 13183,4562 13182,4561 13181,4560 13180,4560 13178,4559 13177,4559 13175,4559 13167,4560 13157,4563 13147,4568 13138,4573 13132,4578 13130,4582 13131,4584 13135,4585 13140,4587 13147,4587 13155,4587 13162,4585 13169,4584 "
       stroke="#000000"
       stroke-width="30px"
       stroke-linejoin="bevel"
       id="polygon185"
       style="fill:none" />
    <polygon
       points="11875,4705 11877,4704 11878,4702 11880,4701 11881,4700 11882,4699 11883,4697 11884,4696 11885,4695 11885,4693 11886,4692 11886,4691 11886,4689 11885,4688 11885,4687 11884,4686 11883,4685 11882,4684 11881,4683 11880,4683 11878,4682 11877,4682 11875,4682 11867,4683 11857,4686 11847,4691 11838,4696 11832,4701 11830,4705 11831,4707 11835,4708 11840,4710 11847,4710 11855,4710 11862,4708 11869,4707 "
       stroke="#000000"
       stroke-width="30px"
       stroke-linejoin="bevel"
       id="polygon187"
       style="fill:none" />
    <polygon
       points="12797,4562 12797,4564 12796,4567 12790,4569 12782,4572 12771,4574 12759,4576 12746,4579 12736,4582 12726,4585 12716,4590 12708,4594 12700,4598 12695,4598 12691,4597 12688,4593 12687,4588 12686,4581 12686,4573 12687,4565 12690,4557 12693,4550 12698,4544 12703,4540 12708,4537 12714,4535 12721,4533 12729,4532 12737,4532 12745,4532 12752,4533 12759,4535 12766,4537 12772,4539 12777,4541 12783,4545 12787,4548 12791,4552 12794,4555 12796,4558 "
       stroke="#000000"
       stroke-width="30px"
       stroke-linejoin="bevel"
       id="polygon189"
       style="fill:none" />
    <polygon
       points="13010,4696 13010,4698 13009,4701 13003,4703 12995,4706 12984,4708 12972,4710 12959,4713 12949,4716 12939,4719 12929,4724 12921,4728 12913,4732 12908,4732 12904,4731 12901,4727 12900,4722 12899,4715 12899,4707 12900,4699 12903,4691 12906,4684 12911,4678 12916,4674 12921,4671 12927,4669 12934,4667 12942,4666 12950,4666 12958,4666 12965,4667 12972,4669 12979,4671 12985,4673 12990,4675 12996,4679 13000,4682 13004,4686 13007,4689 13009,4692 "
       stroke="#000000"
       stroke-width="30px"
       stroke-linejoin="bevel"
       id="polygon191"
       style="fill:none" />
    <polygon
       points="11981,4884 11980,4884 11979,4884 11978,4884 11979,4884 11980,4884 11981,4884 11982,4884 11983,4884 11984,4884 11988,4884 11994,4884 12000,4884 12004,4884 12006,4884 12004,4884 12000,4884 11994,4884 11988,4884 11984,4884 11983,4884 11982,4884 "
       stroke="#000000"
       stroke-width="30px"
       stroke-linejoin="bevel"
       id="polygon193"
       style="fill:none" />
    <polygon
       points="12181,4799 12180,4799 12179,4799 12178,4799 12179,4799 12180,4799 12181,4799 12182,4799 12183,4799 12184,4799 12188,4799 12194,4799 12200,4799 12204,4799 12206,4799 12204,4799 12200,4799 12194,4799 12188,4799 12184,4799 12183,4799 12182,4799 "
       stroke="#000000"
       stroke-width="30px"
       stroke-linejoin="bevel"
       id="polygon195"
       style="fill:none" />
    <polygon
       points="12391,4878 12390,4878 12389,4878 12388,4878 12389,4878 12390,4878 12391,4878 12392,4878 12393,4878 12394,4878 12398,4878 12404,4878 12410,4878 12414,4878 12416,4878 12414,4878 12410,4878 12404,4878 12398,4878 12394,4878 12393,4878 12392,4878 "
       stroke="#000000"
       stroke-width="30px"
       stroke-linejoin="bevel"
       id="polygon197"
       style="fill:none" />
    <polygon
       points="12491,4812 12490,4812 12489,4812 12488,4812 12489,4812 12490,4812 12491,4812 12492,4812 12493,4812 12494,4812 12498,4812 12504,4812 12510,4812 12514,4812 12516,4812 12514,4812 12510,4812 12504,4812 12498,4812 12494,4812 12493,4812 12492,4812 "
       stroke="#000000"
       stroke-width="30px"
       stroke-linejoin="bevel"
       id="polygon199"
       style="fill:none" />
    <polygon
       points="12646,4846 12645,4846 12644,4846 12643,4846 12644,4846 12645,4846 12646,4846 12647,4846 12648,4846 12649,4846 12653,4846 12659,4846 12665,4846 12669,4846 12671,4846 12669,4846 12665,4846 12659,4846 12653,4846 12649,4846 12648,4846 12647,4846 "
       stroke="#000000"
       stroke-width="30px"
       stroke-linejoin="bevel"
       id="polygon201"
       style="fill:none" />
    <polygon
       points="13029,4810 13028,4810 13027,4810 13026,4810 13027,4810 13028,4810 13029,4810 13030,4810 13031,4810 13032,4810 13036,4810 13042,4810 13048,4810 13052,4810 13054,4810 13052,4810 13048,4810 13042,4810 13036,4810 13032,4810 13031,4810 13030,4810 "
       stroke="#000000"
       stroke-width="30px"
       stroke-linejoin="bevel"
       id="polygon203"
       style="fill:none" />
    <polygon
       points="12899,4863 12898,4863 12897,4863 12896,4863 12897,4863 12898,4863 12899,4863 12900,4863 12901,4863 12902,4863 12906,4863 12912,4863 12918,4863 12922,4863 12924,4863 12922,4863 12918,4863 12912,4863 12906,4863 12902,4863 12901,4863 12900,4863 "
       stroke="#000000"
       stroke-width="30px"
       stroke-linejoin="bevel"
       id="polygon205"
       style="fill:none" />
    <polygon
       points="13225,4859 13224,4859 13223,4859 13222,4859 13223,4859 13224,4859 13225,4859 13226,4859 13227,4859 13228,4859 13232,4859 13238,4859 13244,4859 13248,4859 13250,4859 13248,4859 13244,4859 13238,4859 13232,4859 13228,4859 13227,4859 13226,4859 "
       stroke="#000000"
       stroke-width="30px"
       stroke-linejoin="bevel"
       id="polygon207"
       style="fill:none" />
    <polygon
       points="11882,4990 11881,4990 11880,4990 11879,4990 11880,4990 11881,4990 11882,4990 11883,4990 11884,4990 11885,4990 11889,4990 11895,4990 11901,4990 11905,4990 11907,4990 11905,4990 11901,4990 11895,4990 11889,4990 11885,4990 11884,4990 11883,4990 "
       stroke="#000000"
       stroke-width="30px"
       stroke-linejoin="bevel"
       id="polygon209"
       style="fill:none" />
    <polygon
       points="12301,4973 12300,4973 12299,4973 12298,4973 12299,4973 12300,4973 12301,4973 12302,4973 12303,4973 12304,4973 12308,4973 12314,4973 12320,4973 12324,4973 12326,4973 12324,4973 12320,4973 12314,4973 12308,4973 12304,4973 12303,4973 12302,4973 "
       stroke="#000000"
       stroke-width="30px"
       stroke-linejoin="bevel"
       id="polygon211"
       style="fill:none" />
    <polygon
       points="12948,4984 12947,4984 12946,4984 12945,4984 12946,4984 12947,4984 12948,4984 12949,4984 12950,4984 12951,4984 12955,4984 12961,4984 12967,4984 12971,4984 12973,4984 12971,4984 12967,4984 12961,4984 12955,4984 12951,4984 12950,4984 12949,4984 "
       stroke="#000000"
       stroke-width="30px"
       stroke-linejoin="bevel"
       id="polygon213"
       style="fill:none" />
    <polygon
       points="13231,5075 13230,5075 13229,5075 13228,5075 13229,5075 13230,5075 13231,5075 13232,5075 13233,5075 13234,5075 13238,5075 13244,5075 13250,5075 13254,5075 13256,5075 13254,5075 13250,5075 13244,5075 13238,5075 13234,5075 13233,5075 13232,5075 "
       stroke="#000000"
       stroke-width="30px"
       stroke-linejoin="bevel"
       id="polygon215"
       style="fill:none" />
    <polygon
       points="13003,5246 13002,5246 13001,5246 13000,5246 13001,5246 13002,5246 13003,5246 13004,5246 13005,5246 13006,5246 13010,5246 13016,5246 13022,5246 13026,5246 13028,5246 13026,5246 13022,5246 13016,5246 13010,5246 13006,5246 13005,5246 13004,5246 "
       stroke="#000000"
       stroke-width="30px"
       stroke-linejoin="bevel"
       id="polygon217"
       style="fill:none" />
    <polygon
       points="11918,5207 11917,5207 11916,5207 11915,5207 11916,5207 11917,5207 11918,5207 11919,5207 11920,5207 11921,5207 11925,5207 11931,5207 11937,5207 11941,5207 11943,5207 11941,5207 11937,5207 11931,5207 11925,5207 11921,5207 11920,5207 11919,5207 "
       stroke="#000000"
       stroke-width="30px"
       stroke-linejoin="bevel"
       id="polygon219"
       style="fill:none" />
    <polygon
       points="11727,5320 11726,5320 11725,5320 11724,5320 11725,5320 11726,5320 11727,5320 11728,5320 11729,5320 11730,5320 11734,5320 11740,5320 11746,5320 11750,5320 11752,5320 11750,5320 11746,5320 11740,5320 11734,5320 11730,5320 11729,5320 11728,5320 "
       stroke="#000000"
       stroke-width="30px"
       stroke-linejoin="bevel"
       id="polygon221"
       style="fill:none" />
    <polygon
       points="11872,5416 11871,5416 11870,5416 11869,5416 11870,5416 11871,5416 11872,5416 11873,5416 11874,5416 11875,5416 11879,5416 11885,5416 11891,5416 11895,5416 11897,5416 11895,5416 11891,5416 11885,5416 11879,5416 11875,5416 11874,5416 11873,5416 "
       stroke="#000000"
       stroke-width="30px"
       stroke-linejoin="bevel"
       id="polygon223"
       style="fill:none" />
    <polygon
       points="12146,5601 12145,5601 12144,5601 12143,5601 12144,5601 12145,5601 12146,5601 12147,5601 12148,5601 12149,5601 12153,5601 12159,5601 12165,5601 12169,5601 12171,5601 12169,5601 12165,5601 12159,5601 12153,5601 12149,5601 12148,5601 12147,5601 "
       stroke="#000000"
       stroke-width="30px"
       stroke-linejoin="bevel"
       id="polygon225"
       style="fill:none" />
    <polygon
       points="12393,5556 12392,5556 12391,5556 12390,5556 12391,5556 12392,5556 12393,5556 12394,5556 12395,5556 12396,5556 12400,5556 12406,5556 12412,5556 12416,5556 12418,5556 12416,5556 12412,5556 12406,5556 12400,5556 12396,5556 12395,5556 12394,5556 "
       stroke="#000000"
       stroke-width="30px"
       stroke-linejoin="bevel"
       id="polygon227"
       style="fill:none" />
    <polygon
       points="12995,5573 12994,5573 12993,5573 12992,5573 12993,5573 12994,5573 12995,5573 12996,5573 12997,5573 12998,5573 13002,5573 13008,5573 13014,5573 13018,5573 13020,5573 13018,5573 13014,5573 13008,5573 13002,5573 12998,5573 12997,5573 12996,5573 "
       stroke="#000000"
       stroke-width="30px"
       stroke-linejoin="bevel"
       id="polygon229"
       style="fill:none" />
    <polygon
       points="12512,5795 12511,5795 12510,5795 12509,5795 12510,5795 12511,5795 12512,5795 12513,5795 12514,5795 12515,5795 12519,5795 12525,5795 12531,5795 12535,5795 12537,5795 12535,5795 12531,5795 12525,5795 12519,5795 12515,5795 12514,5795 12513,5795 "
       stroke="#000000"
       stroke-width="30px"
       stroke-linejoin="bevel"
       id="polygon231"
       style="fill:none" />
    <polygon
       points="11961,5904 11960,5904 11959,5904 11958,5904 11959,5904 11960,5904 11961,5904 11962,5904 11963,5904 11964,5904 11968,5904 11974,5904 11980,5904 11984,5904 11986,5904 11984,5904 11980,5904 11974,5904 11968,5904 11964,5904 11963,5904 11962,5904 "
       stroke="#000000"
       stroke-width="30px"
       stroke-linejoin="bevel"
       id="polygon233"
       style="fill:none" />
    <polygon
       points="12335,4373 12334,4373 12333,4373 12332,4373 12333,4373 12334,4373 12335,4373 12336,4373 12337,4373 12338,4373 12342,4373 12348,4373 12354,4373 12358,4373 12360,4373 12358,4373 12354,4373 12348,4373 12342,4373 12338,4373 12337,4373 12336,4373 "
       stroke="#000000"
       stroke-width="30px"
       stroke-linejoin="bevel"
       id="polygon235"
       style="fill:none" />
    <polygon
       points="12544,4468 12543,4468 12542,4468 12541,4468 12542,4468 12543,4468 12544,4468 12545,4468 12546,4468 12547,4468 12551,4468 12557,4468 12563,4468 12567,4468 12569,4468 12567,4468 12563,4468 12557,4468 12551,4468 12547,4468 12546,4468 12545,4468 "
       stroke="#00008f"
       stroke-width="30px"
       stroke-linejoin="bevel"
       id="polygon237"
       style="fill:none" />
    <polygon
       points="11930,4365 11929,4365 11928,4365 11927,4365 11928,4365 11929,4365 11930,4365 11931,4365 11932,4365 11933,4365 11937,4365 11943,4365 11949,4365 11953,4365 11955,4365 11953,4365 11949,4365 11943,4365 11937,4365 11933,4365 11932,4365 11931,4365 "
       stroke="#00008f"
       stroke-width="30px"
       stroke-linejoin="bevel"
       id="polygon239"
       style="fill:none" />
    <polygon
       points="12795,4365 12794,4365 12793,4365 12792,4365 12793,4365 12794,4365 12795,4365 12796,4365 12797,4365 12798,4365 12802,4365 12808,4365 12814,4365 12818,4365 12820,4365 12818,4365 12814,4365 12808,4365 12802,4365 12798,4365 12797,4365 12796,4365 "
       stroke="#00008f"
       stroke-width="30px"
       stroke-linejoin="bevel"
       id="polygon241"
       style="fill:none" />
    <polygon
       points="13159,4386 13158,4386 13157,4386 13156,4386 13157,4386 13158,4386 13159,4386 13160,4386 13161,4386 13162,4386 13166,4386 13172,4386 13178,4386 13182,4386 13184,4386 13182,4386 13178,4386 13172,4386 13166,4386 13162,4386 13161,4386 13160,4386 "
       stroke="#00008f"
       stroke-width="30px"
       stroke-linejoin="bevel"
       id="polygon243"
       style="fill:none" />
    <polygon
       points="12422,4726 12420,4725 12419,4723 12417,4722 12416,4721 12415,4720 12414,4718 12413,4717 12412,4716 12412,4714 12411,4713 12411,4712 12411,4710 12412,4709 12412,4708 12413,4707 12414,4706 12415,4705 12416,4704 12417,4704 12419,4703 12420,4703 12422,4703 12430,4704 12440,4707 12450,4712 12459,4717 12465,4722 12467,4726 12466,4728 12462,4729 12457,4731 12450,4731 12442,4731 12435,4729 12428,4728 "
       stroke="#00008f"
       stroke-width="30px"
       stroke-linejoin="bevel"
       id="polygon245"
       style="fill:none" />
    <polygon
       points="11864,4837 11863,4837 11862,4837 11861,4837 11862,4837 11863,4837 11864,4837 11865,4837 11866,4837 11867,4837 11871,4837 11877,4837 11883,4837 11887,4837 11889,4837 11887,4837 11883,4837 11877,4837 11871,4837 11867,4837 11866,4837 11865,4837 "
       stroke="#00008f"
       stroke-width="30px"
       stroke-linejoin="bevel"
       id="polygon247"
       style="fill:none" />
    <polygon
       points="12486,4867 12485,4867 12484,4867 12483,4867 12484,4867 12485,4867 12486,4867 12487,4867 12488,4867 12489,4867 12493,4867 12499,4867 12505,4867 12509,4867 12511,4867 12509,4867 12505,4867 12499,4867 12493,4867 12489,4867 12488,4867 12487,4867 "
       stroke="#00008f"
       stroke-width="30px"
       stroke-linejoin="bevel"
       id="polygon249"
       style="fill:none" />
    <polygon
       points="12569,5076 12568,5076 12567,5076 12566,5076 12567,5076 12568,5076 12569,5076 12570,5076 12571,5076 12572,5076 12576,5076 12582,5076 12588,5076 12592,5076 12594,5076 12592,5076 12588,5076 12582,5076 12576,5076 12572,5076 12571,5076 12570,5076 "
       stroke="#00008f"
       stroke-width="30px"
       stroke-linejoin="bevel"
       id="polygon251"
       style="fill:none" />
    <polygon
       points="12138,5058 12137,5058 12136,5058 12135,5058 12136,5058 12137,5058 12138,5058 12139,5058 12140,5058 12141,5058 12145,5058 12151,5058 12157,5058 12161,5058 12163,5058 12161,5058 12157,5058 12151,5058 12145,5058 12141,5058 12140,5058 12139,5058 "
       stroke="#00b0b0"
       stroke-width="30px"
       stroke-linejoin="bevel"
       id="polygon253"
       style="fill:none" />
    <polygon
       points="12323,5316 12322,5316 12321,5316 12320,5316 12321,5316 12322,5316 12323,5316 12324,5316 12325,5316 12326,5316 12330,5316 12336,5316 12342,5316 12346,5316 12348,5316 12346,5316 12342,5316 12336,5316 12330,5316 12326,5316 12325,5316 12324,5316 "
       stroke="#00b0b0"
       stroke-width="30px"
       stroke-linejoin="bevel"
       id="polygon255"
       style="fill:none" />
    <polygon
       points="12566,5442 12565,5442 12564,5442 12563,5442 12564,5442 12565,5442 12566,5442 12567,5442 12568,5442 12569,5442 12573,5442 12579,5442 12585,5442 12589,5442 12591,5442 12589,5442 12585,5442 12579,5442 12573,5442 12569,5442 12568,5442 12567,5442 "
       stroke="#00b0b0"
       stroke-width="30px"
       stroke-linejoin="bevel"
       id="polygon257"
       style="fill:none" />
  </g>
  <text
     xml:space="preserve"
     x="9288.5186"
     y="2092.4976"
     fill="#000000"
     font-family="Times, Symbol"
     font-style="normal"
     font-weight="normal"
     font-size="216px"
     text-anchor="middle"
     id="text263"
     style="font-style:normal;font-variant:normal;font-weight:normal;font-stretch:normal;font-size:222.143px;font-family:Times, Symbol;-inkscape-font-specification:'Times, Symbol, Normal';font-variant-ligatures:normal;font-variant-caps:normal;font-variant-numeric:normal;font-variant-east-asian:normal;text-anchor:middle;fill:#000000">α</text>
  <g
     id="g1292"
     transform="translate(-386.48144,-22.502488)">
    <polyline
       points=" 13410,6030 14715,6030"
       clip-path="url(#cp0)"
       stroke="#000000"
       stroke-width="30px"
       stroke-linejoin="round"
       id="polyline51"
       style="fill:none" />
    <polyline
       points=" 14489,5963 14669,6030 14489,6098"
       stroke="#000000"
       stroke-width="30px"
       stroke-miterlimit="8"
       id="polyline53"
       style="fill:none" />
    <polyline
       points=" 13455,2790 13455,6075"
       clip-path="url(#cp1)"
       stroke="#000000"
       stroke-width="30px"
       stroke-linejoin="round"
       id="polyline60"
       style="fill:none" />
    <polyline
       points=" 13388,3016 13455,2836 13523,3016"
       stroke="#000000"
       stroke-width="30px"
       stroke-miterlimit="8"
       id="polyline62"
       style="fill:none" />
    <polyline
       points=" 14265,2970 14261,2971 14253,2974 14238,2978 14217,2986 14187,2995 14151,3007  14110,3021 14065,3036 14019,3052 13972,3068 13927,3084 13885,3099 13846,3114  13811,3128 13780,3141 13753,3153 13731,3164 13713,3174 13699,3184 13689,3193  13683,3202 13680,3210 13680,3218 13684,3226 13691,3234 13701,3242 13714,3250  13731,3259 13750,3267 13772,3276 13796,3284 13823,3293 13851,3302 13881,3312  13911,3321 13943,3331 13974,3341 14005,3351 14036,3361 14065,3372 14093,3382  14120,3393 14145,3404 14168,3416 14190,3428 14210,3440 14228,3453 14245,3467  14260,3482 14274,3498 14287,3514 14299,3532 14310,3550 14319,3569 14328,3588  14335,3608 14342,3629 14348,3650 14353,3670 14357,3691 14361,3712 14364,3733  14367,3753 14370,3773 14372,3793 14375,3813 14378,3833 14380,3852 14384,3872  14387,3893 14391,3914 14395,3935 14399,3958 14404,3981 14408,4004 14413,4028  14418,4053 14424,4078 14429,4103 14434,4128 14439,4153 14444,4179 14449,4204  14454,4229 14459,4253 14463,4277 14467,4302 14471,4326 14475,4350 14478,4373  14482,4395 14485,4419 14488,4443 14491,4468 14494,4493 14497,4520 14499,4546  14502,4574 14505,4601 14507,4629 14509,4658 14512,4686 14514,4714 14516,4741  14517,4769 14519,4795 14521,4822 14522,4847 14523,4872 14525,4896 14526,4920  14527,4942 14528,4965 14528,4989 14529,5013 14530,5038 14531,5062 14531,5087  14532,5111 14532,5137 14533,5162 14533,5187 14534,5213 14534,5238 14534,5264  14534,5288 14535,5313 14535,5337 14535,5360 14535,5383 14535,5406 14535,5427  14535,5448 14535,5469 14535,5490 14535,5511 14535,5531 14535,5553 14535,5575  14535,5598 14535,5622 14535,5648 14535,5676 14535,5705 14535,5737 14535,5769  14535,5803 14535,5837 14535,5869 14535,5900 14535,5926 14535,5948 14535,5965  14535,5976 14535,5982 14535,5985"
       stroke="#00008f"
       stroke-width="30px"
       stroke-linejoin="bevel"
       id="polyline259"
       style="fill:none" />
    <text
       xml:space="preserve"
       x="14400"
       y="6300"
       fill="#000000"
       font-family="Times"
       font-style="italic"
       font-weight="normal"
       font-size="216px"
       text-anchor="end"
       id="text265">T</text>
  </g>
  <g
     id="g1414"
     transform="translate(-386.48144,-22.502488)">
    <polygon
       points="8877,4890 9057,4890 9327,4890 9597,4890 9957,4890 10272,4890 10587,4890 10587,5970 6762,5970 6762,4755 7077,4755 7257,4755 7572,4755 7842,4755 8067,4755 8382,4845 8697,4845 "
       fill="#b79b73"
       id="polygon2" />
    <polygon
       points="8652,4845 8877,4890 9102,4845 9507,4890 9777,4890 10002,4890 10317,4935 10587,4890 10587,4215 10497,4260 10317,4260 10092,4215 9912,4215 9597,4260 9462,4260 8967,4215 8517,4170 7752,4170 7527,4170 7167,4215 6762,4170 6762,4755 6987,4755 7122,4755 7302,4755 7527,4755 7752,4755 8202,4755 8382,4845 "
       fill="#e1e1e1"
       id="polygon4" />
    <polyline
       points=" 8410,1658 8294,1701 8376,1608"
       stroke="#000000"
       stroke-width="8px"
       stroke-miterlimit="8"
       id="polyline83"
       style="fill:none" />
    <polygon
       points="10529,5229 10532,5236 10535,5243 10536,5248 10537,5252 10538,5257 10539,5262 10539,5266 10538,5270 10536,5274 10534,5278 10532,5281 10528,5283 10524,5286 10520,5288 10511,5290 10500,5291 10488,5293 10475,5293 10461,5293 10449,5291 10438,5290 10430,5288 10423,5285 10417,5281 10413,5277 10409,5271 10406,5266 10404,5261 10402,5255 10400,5250 10397,5246 10395,5242 10392,5237 10390,5232 10388,5227 10386,5223 10386,5218 10387,5213 10389,5209 10392,5205 10398,5200 10407,5195 10419,5190 10432,5186 10445,5183 10459,5181 10471,5181 10482,5183 10490,5185 10497,5189 10504,5194 10511,5200 10516,5207 10521,5214 10526,5222 "
       stroke="#000000"
       stroke-width="30px"
       stroke-linejoin="bevel"
       id="polygon127"
       style="fill:none" />
    <polygon
       points="9207,5198 9205,5197 9204,5195 9202,5194 9201,5193 9200,5192 9199,5190 9198,5189 9197,5188 9197,5186 9196,5185 9196,5184 9196,5182 9197,5181 9197,5180 9198,5179 9199,5178 9200,5177 9201,5176 9202,5176 9204,5175 9205,5175 9207,5175 9215,5176 9225,5179 9235,5184 9244,5189 9250,5194 9252,5198 9251,5200 9247,5201 9242,5203 9235,5203 9227,5203 9220,5201 9213,5200 "
       stroke="#000000"
       stroke-width="30px"
       stroke-linejoin="bevel"
       id="polygon129"
       style="fill:none" />
    <polygon
       points="9152,5655 9151,5655 9150,5655 9149,5655 9150,5655 9151,5655 9152,5655 9153,5655 9154,5655 9155,5655 9159,5655 9165,5655 9171,5655 9175,5655 9177,5655 9175,5655 9171,5655 9165,5655 9159,5655 9155,5655 9154,5655 9153,5655 "
       stroke="#000000"
       stroke-width="30px"
       stroke-linejoin="bevel"
       id="polygon131"
       style="fill:none" />
    <polygon
       points="10232,5385 10231,5385 10230,5385 10229,5385 10230,5385 10231,5385 10232,5385 10233,5385 10234,5385 10235,5385 10239,5385 10245,5385 10251,5385 10255,5385 10257,5385 10255,5385 10251,5385 10245,5385 10239,5385 10235,5385 10234,5385 10233,5385 "
       stroke="#000000"
       stroke-width="30px"
       stroke-linejoin="bevel"
       id="polygon133"
       style="fill:none" />
    <polygon
       points="8117,5205 8116,5205 8115,5205 8114,5205 8115,5205 8116,5205 8117,5205 8118,5205 8119,5205 8120,5205 8124,5205 8130,5205 8136,5205 8140,5205 8142,5205 8140,5205 8136,5205 8130,5205 8124,5205 8120,5205 8119,5205 8118,5205 "
       stroke="#000000"
       stroke-width="30px"
       stroke-linejoin="bevel"
       id="polygon135"
       style="fill:none" />
    <polygon
       points="8792,5205 8791,5205 8790,5205 8789,5205 8790,5205 8791,5205 8792,5205 8793,5205 8794,5205 8795,5205 8799,5205 8805,5205 8811,5205 8815,5205 8817,5205 8815,5205 8811,5205 8805,5205 8799,5205 8795,5205 8794,5205 8793,5205 "
       stroke="#000000"
       stroke-width="30px"
       stroke-linejoin="bevel"
       id="polygon137"
       style="fill:none" />
    <polygon
       points="9827,5115 9826,5115 9825,5115 9824,5115 9825,5115 9826,5115 9827,5115 9828,5115 9829,5115 9830,5115 9834,5115 9840,5115 9846,5115 9850,5115 9852,5115 9850,5115 9846,5115 9840,5115 9834,5115 9830,5115 9829,5115 9828,5115 "
       stroke="#000000"
       stroke-width="30px"
       stroke-linejoin="bevel"
       id="polygon139"
       style="fill:none" />
    <polygon
       points="8654,5409 8654,5411 8653,5414 8647,5416 8639,5419 8628,5421 8616,5423 8603,5426 8593,5429 8583,5432 8573,5437 8565,5441 8557,5445 8552,5445 8548,5444 8545,5440 8544,5435 8543,5428 8543,5420 8544,5412 8547,5404 8550,5397 8555,5391 8560,5387 8565,5384 8571,5382 8578,5380 8586,5379 8594,5379 8602,5379 8609,5380 8616,5382 8623,5384 8629,5386 8634,5388 8640,5392 8644,5395 8648,5399 8651,5402 8653,5405 "
       stroke="#000000"
       stroke-width="30px"
       stroke-linejoin="bevel"
       id="polygon141"
       style="fill:none" />
    <polygon
       points="7909,5447 7908,5447 7907,5447 7906,5447 7907,5447 7908,5447 7909,5447 7910,5447 7911,5447 7912,5447 7916,5447 7922,5447 7928,5447 7932,5447 7934,5447 7932,5447 7928,5447 7922,5447 7916,5447 7912,5447 7911,5447 7910,5447 "
       stroke="#000000"
       stroke-width="30px"
       stroke-linejoin="bevel"
       id="polygon143"
       style="fill:none" />
    <polygon
       points="8109,5748 8111,5752 8111,5756 8110,5761 8108,5767 8105,5772 8100,5777 8095,5783 8088,5787 8081,5791 8074,5794 8065,5796 8056,5797 8046,5799 8036,5799 8026,5799 8016,5797 8007,5796 7999,5794 7995,5792 7991,5791 7988,5789 7984,5787 7981,5785 7978,5783 7976,5780 7974,5777 7972,5775 7971,5772 7970,5769 7970,5767 7971,5764 7972,5761 7974,5759 7976,5756 7982,5751 7991,5746 8003,5740 8016,5736 8029,5732 8043,5728 8055,5727 8066,5726 8074,5726 8081,5728 8088,5730 8094,5732 8099,5736 8104,5739 8107,5743 "
       stroke="#000000"
       stroke-width="30px"
       stroke-linejoin="bevel"
       id="polygon145"
       style="fill:none" />
    <polygon
       points="8635,5833 8634,5833 8633,5833 8632,5833 8633,5833 8634,5833 8635,5833 8636,5833 8637,5833 8638,5833 8642,5833 8648,5833 8654,5833 8658,5833 8660,5833 8658,5833 8654,5833 8648,5833 8642,5833 8638,5833 8637,5833 8636,5833 "
       stroke="#000000"
       stroke-width="30px"
       stroke-linejoin="bevel"
       id="polygon147"
       style="fill:none" />
    <polygon
       points="9431,5812 9429,5817 9426,5822 9420,5827 9411,5830 9400,5833 9387,5834 9375,5834 9363,5833 9352,5832 9344,5830 9338,5827 9333,5824 9329,5821 9326,5818 9324,5813 9323,5809 9322,5805 9321,5800 9321,5796 9321,5792 9321,5787 9321,5781 9322,5776 9323,5771 9325,5765 9328,5761 9331,5757 9336,5755 9341,5753 9346,5751 9352,5750 9359,5750 9367,5750 9375,5751 9383,5753 9390,5755 9397,5758 9404,5762 9410,5767 9415,5772 9420,5778 9425,5785 9428,5792 9431,5799 9432,5806 "
       stroke="#000000"
       stroke-width="30px"
       stroke-linejoin="bevel"
       id="polygon149"
       style="fill:none" />
    <polygon
       points="10435,5676 10434,5676 10433,5676 10432,5676 10433,5676 10434,5676 10435,5676 10436,5676 10437,5676 10438,5676 10442,5676 10448,5676 10454,5676 10458,5676 10460,5676 10458,5676 10454,5676 10448,5676 10442,5676 10438,5676 10437,5676 10436,5676 "
       stroke="#000000"
       stroke-width="30px"
       stroke-linejoin="bevel"
       id="polygon151"
       style="fill:none" />
    <polygon
       points="9743,5841 9742,5841 9741,5841 9740,5841 9741,5841 9742,5841 9743,5841 9744,5841 9745,5841 9746,5841 9750,5841 9756,5841 9762,5841 9766,5841 9768,5841 9766,5841 9762,5841 9756,5841 9750,5841 9746,5841 9745,5841 9744,5841 "
       stroke="#000000"
       stroke-width="30px"
       stroke-linejoin="bevel"
       id="polygon153"
       style="fill:none" />
    <polygon
       points="9823,5407 9824,5414 9824,5420 9824,5425 9823,5431 9820,5437 9816,5442 9810,5448 9804,5453 9796,5457 9787,5461 9777,5464 9768,5466 9758,5468 9748,5468 9737,5468 9726,5466 9714,5464 9702,5462 9691,5458 9680,5455 9670,5451 9662,5446 9655,5442 9650,5438 9647,5435 9646,5432 9645,5429 9645,5426 9645,5422 9647,5419 9649,5415 9652,5412 9655,5409 9659,5405 9664,5402 9669,5399 9674,5396 9680,5393 9689,5389 9698,5385 9709,5381 9721,5377 9733,5374 9744,5371 9756,5369 9767,5369 9776,5369 9785,5371 9792,5373 9798,5376 9804,5379 9809,5384 9813,5389 9817,5395 9820,5401 "
       stroke="#000000"
       stroke-width="30px"
       stroke-linejoin="bevel"
       id="polygon155"
       style="fill:none" />
    <polyline
       points=" 6751,4776 6754,4776 6760,4776 6770,4776 6787,4776 6810,4775 6839,4775 6874,4775  6914,4775 6958,4774 7005,4774 7053,4773 7102,4773 7150,4772 7196,4772 7241,4771  7284,4771 7324,4771 7362,4770 7397,4770 7431,4770 7462,4769 7491,4769 7518,4769  7544,4768 7569,4768 7593,4768 7617,4767 7646,4767 7674,4766 7702,4766 7729,4765  7756,4765 7783,4765 7809,4764 7836,4764 7861,4764 7886,4764 7911,4764 7934,4764  7957,4764 7979,4764 8000,4765 8020,4765 8038,4766 8056,4767 8073,4768 8088,4769  8104,4771 8118,4772 8137,4775 8156,4777 8174,4780 8193,4784 8211,4788 8229,4792  8247,4796 8264,4800 8281,4805 8297,4809 8313,4813 8328,4817 8342,4821 8356,4824  8369,4827 8382,4830 8397,4833 8412,4835 8427,4837 8443,4839 8460,4841 8477,4843  8493,4844 8510,4845 8527,4846 8542,4848 8558,4849 8572,4850 8586,4851 8600,4853  8613,4854 8626,4856 8640,4858 8654,4860 8669,4862 8684,4864 8700,4866 8716,4869  8733,4870 8749,4872 8766,4873 8783,4874 8800,4875 8817,4875 8831,4875 8846,4875  8861,4874 8878,4873 8895,4872 8913,4872 8933,4871 8953,4870 8973,4869 8994,4868  9016,4867 9037,4866 9058,4866 9079,4866 9100,4866 9121,4866 9141,4867 9162,4868  9181,4869 9200,4870 9219,4872 9240,4874 9260,4876 9282,4878 9304,4881 9326,4884  9349,4886 9372,4889 9395,4892 9418,4894 9440,4896 9462,4899 9484,4900 9504,4902  9525,4903 9544,4904 9563,4905 9582,4905 9603,4905 9623,4904 9644,4903 9665,4901  9687,4900 9709,4897 9731,4895 9753,4893 9776,4890 9798,4887 9821,4885 9843,4883  9864,4880 9885,4879 9905,4877 9925,4876 9945,4875 9965,4875 9984,4875 10004,4876  10024,4877 10045,4879 10067,4880 10089,4883 10111,4885 10134,4888 10157,4891  10179,4893 10201,4896 10222,4899 10243,4901 10263,4904 10282,4905 10300,4907  10317,4908 10334,4909 10352,4910 10369,4909 10387,4909 10405,4907 10424,4905  10445,4902 10466,4898 10489,4894 10512,4889 10535,4884 10556,4880 10573,4876  10585,4873 10593,4871 10596,4870"
       stroke="#000000"
       stroke-width="30px"
       stroke-linejoin="bevel"
       id="polyline157"
       style="fill:none" />
    <polygon
       points="7215,5600 7215,5602 7214,5605 7208,5607 7200,5610 7189,5612 7177,5614 7164,5617 7154,5620 7144,5623 7134,5628 7126,5632 7118,5636 7113,5636 7109,5635 7106,5631 7105,5626 7104,5619 7104,5611 7105,5603 7108,5595 7111,5588 7116,5582 7121,5578 7126,5575 7132,5573 7139,5571 7147,5570 7155,5570 7163,5570 7170,5571 7177,5573 7184,5575 7190,5577 7195,5579 7201,5583 7205,5586 7209,5590 7212,5593 7214,5596 "
       stroke="#000000"
       stroke-width="30px"
       stroke-linejoin="bevel"
       id="polygon159"
       style="fill:none" />
    <polygon
       points="7066,4987 7067,4994 7067,5000 7067,5005 7066,5011 7063,5017 7059,5022 7053,5028 7047,5033 7039,5037 7030,5041 7020,5044 7011,5046 7001,5048 6991,5048 6980,5048 6969,5046 6957,5044 6945,5042 6934,5038 6923,5035 6913,5031 6905,5026 6898,5022 6893,5018 6890,5015 6889,5012 6888,5009 6888,5006 6888,5002 6890,4999 6892,4995 6895,4992 6898,4989 6902,4985 6907,4982 6912,4979 6917,4976 6923,4973 6932,4969 6941,4965 6952,4961 6964,4957 6976,4954 6987,4951 6999,4949 7010,4949 7019,4949 7028,4951 7035,4953 7041,4956 7047,4959 7052,4964 7056,4969 7060,4975 7063,4981 "
       stroke="#000000"
       stroke-width="30px"
       stroke-linejoin="bevel"
       id="polygon161"
       style="fill:none" />
    <polygon
       points="7253,5849 7252,5849 7251,5849 7250,5849 7251,5849 7252,5849 7253,5849 7254,5849 7255,5849 7256,5849 7260,5849 7266,5849 7272,5849 7276,5849 7278,5849 7276,5849 7272,5849 7266,5849 7260,5849 7256,5849 7255,5849 7254,5849 "
       stroke="#000000"
       stroke-width="30px"
       stroke-linejoin="bevel"
       id="polygon163"
       style="fill:none" />
    <polygon
       points="7395,5233 7394,5233 7393,5233 7392,5233 7393,5233 7394,5233 7395,5233 7396,5233 7397,5233 7398,5233 7402,5233 7408,5233 7414,5233 7418,5233 7420,5233 7418,5233 7414,5233 7408,5233 7402,5233 7398,5233 7397,5233 7396,5233 "
       stroke="#000000"
       stroke-width="30px"
       stroke-linejoin="bevel"
       id="polygon165"
       style="fill:none" />
    <polygon
       points="6859,5518 6858,5518 6857,5518 6856,5518 6857,5518 6858,5518 6859,5518 6860,5518 6861,5518 6862,5518 6866,5518 6872,5518 6878,5518 6882,5518 6884,5518 6882,5518 6878,5518 6872,5518 6866,5518 6862,5518 6861,5518 6860,5518 "
       stroke="#000000"
       stroke-width="30px"
       stroke-linejoin="bevel"
       id="polygon167"
       style="fill:none" />
    <polygon
       points="7845,5076 7844,5076 7843,5076 7842,5076 7843,5076 7844,5076 7845,5076 7846,5076 7847,5076 7848,5076 7852,5076 7858,5076 7864,5076 7868,5076 7870,5076 7868,5076 7864,5076 7858,5076 7852,5076 7848,5076 7847,5076 7846,5076 "
       stroke="#000000"
       stroke-width="30px"
       stroke-linejoin="bevel"
       id="polygon169"
       style="fill:none" />
    <polyline
       points=" 6751,4168 6754,4168 6762,4169 6774,4170 6793,4172 6815,4175 6842,4177 6869,4180  6897,4183 6925,4185 6951,4187 6975,4189 6997,4190 7018,4191 7038,4192 7056,4193  7075,4193 7093,4193 7112,4192 7131,4192 7150,4191 7170,4190 7191,4189 7212,4188  7233,4186 7255,4185 7277,4183 7298,4182 7319,4180 7339,4179 7358,4177 7377,4176  7394,4175 7411,4174 7427,4174 7442,4173 7458,4173 7474,4173 7489,4173 7505,4173  7521,4174 7537,4175 7553,4175 7569,4177 7586,4178 7602,4179 7619,4180 7635,4182  7652,4183 7669,4184 7686,4185 7704,4186 7717,4186 7731,4187 7746,4188 7762,4188  7779,4188 7797,4189 7816,4189 7837,4190 7858,4190 7881,4190 7905,4190 7930,4190  7955,4190 7982,4191 8009,4191 8037,4191 8065,4191 8094,4191 8123,4191 8153,4191  8184,4191 8215,4191 8241,4190 8267,4190 8294,4190 8323,4190 8352,4190 8382,4190  8413,4190 8445,4190 8478,4190 8512,4191 8546,4191 8581,4191 8616,4191 8651,4192  8687,4192 8722,4192 8756,4193 8790,4194 8824,4194 8856,4195 8888,4196 8919,4197  8949,4198 8977,4199 9005,4200 9032,4201 9058,4202 9082,4204 9113,4205 9142,4207  9171,4210 9199,4212 9227,4215 9254,4217 9281,4220 9307,4223 9333,4225 9358,4228  9383,4231 9406,4234 9429,4236 9451,4238 9473,4241 9493,4242 9513,4244 9531,4245  9549,4247 9567,4247 9584,4248 9601,4248 9620,4248 9638,4247 9658,4246 9677,4245  9697,4244 9718,4242 9739,4240 9760,4238 9782,4235 9804,4233 9825,4231 9847,4228  9868,4226 9889,4224 9910,4222 9930,4221 9949,4220 9969,4219 9987,4218 10006,4218  10027,4218 10048,4219 10069,4220 10091,4222 10113,4224 10135,4226 10158,4228  10181,4231 10203,4234 10226,4237 10247,4240 10268,4243 10288,4246 10307,4248  10325,4250 10342,4252 10358,4254 10374,4256 10392,4257 10410,4257 10428,4257  10446,4256 10465,4254 10485,4252 10506,4249 10528,4245 10548,4242 10566,4238  10579,4236 10587,4234 10590,4233 10591,4233"
       stroke="#8c8c8c"
       stroke-width="30px"
       stroke-linejoin="bevel"
       id="polyline261"
       style="fill:none" />
    <polyline
       points=" 7918,3910 7949,4001 7964,4123 7954,4448 7954,4500 7955,4528 7952,4565 7944,4639  7940,4718 7931,4760 7896,4787 7812,4825 7718,4861 7619,4903 7577,4913 7466,4968  7417,5009 7406,5030 7405,5056 7414,5076 7440,5078 7473,5063 7506,5047 7530,5029  7563,5023 7600,5014 7636,5009 7672,5005 7706,4987 7731,4953 7766,4924 7801,4910  7838,4894 7872,4871 7909,4871 7943,4904 7981,4938 8017,4948 8052,4938 8086,4918  8118,4956 8149,4992 8184,5014 8223,5033 8252,5068 8272,5102 8305,5122 8342,5136  8376,5136 8416,5131 8435,5096 8401,5058 8376,5023 8369,4987 8361,4953 8396,4944  8430,4944 8469,4966 8488,5002 8525,5023 8561,5037 8603,5053 8638,5072 8674,5096  8710,5106 8721,5091 8723,5069 8685,5044 8601,4986 8527,4917 8487,4896 8421,4858  8348,4826 8294,4802 8267,4795 8254,4783 8245,4764 8243,4736 8246,4606 8236,4539  8241,4427 8241,4296 8238,4108 8238,3956"
       fill="#987b53"
       stroke="#000000"
       stroke-width="45px"
       stroke-linejoin="round"
       stroke-linecap="round"
       id="polyline267" />
    <polygon
       points="8650,2873 8742,3041 8635,3209 8818,3346 8848,3437 7339,3727 7309,3666 7309,3453 7370,3193 7522,3026 7537,2721 7629,2477 7659,2202 7766,2081 7827,1959 7842,1913 7964,1852 8040,1760 8269,2035 8238,2416 8330,2340 8452,2416 8330,2889 "
       fill="#287828"
       id="polygon269" />
    <polyline
       points=" 8254,2020 8255,2021 8261,2025 8273,2034 8286,2044 8299,2053 8309,2060 8318,2065  8325,2068 8330,2070 8334,2071 8338,2071 8343,2071 8347,2071 8350,2070 8353,2069  8356,2067 8358,2065 8360,2063 8360,2060 8361,2058 8360,2053 8358,2047 8354,2040  8348,2031 8341,2022 8333,2012 8323,2001 8312,1989 8304,1980 8295,1971 8286,1961  8276,1950 8265,1938 8254,1926 8242,1914 8231,1901 8221,1889 8212,1877 8203,1866  8195,1855 8188,1843 8181,1832 8174,1820 8168,1808 8162,1795 8157,1781 8152,1768  8147,1754 8143,1740 8139,1726 8135,1711 8132,1697 8128,1682 8125,1666 8121,1650  8117,1632 8113,1614 8109,1595 8105,1578 8101,1560 8097,1545 8093,1530 8090,1518  8086,1507 8083,1498 8080,1490 8077,1483 8073,1477 8070,1472 8067,1467 8063,1464  8060,1461 8056,1459 8053,1458 8049,1458 8046,1459 8043,1461 8040,1463 8036,1467  8032,1473 8027,1480 8022,1489 8017,1499 8013,1510 8008,1522 8003,1535 7999,1549  7995,1562 7991,1574 7988,1587 7984,1601 7980,1615 7975,1631 7970,1647 7965,1663  7960,1678 7954,1694 7948,1708 7943,1722 7936,1735 7930,1747 7922,1760 7915,1773  7906,1785 7898,1798 7889,1810 7881,1821 7873,1832 7866,1841 7860,1850 7854,1858  7850,1864 7848,1867 7846,1870 7845,1873 7843,1876 7842,1879 7841,1881 7840,1884  7840,1886 7840,1888 7839,1890 7839,1892 7840,1893 7840,1895 7841,1896 7842,1897  7843,1898 7844,1899 7846,1900 7847,1900 7849,1900 7851,1900 7853,1900 7855,1900  7857,1900 7865,1899 7874,1896 7885,1892 7897,1888 7909,1882 7922,1875 7933,1869  7944,1862 7952,1856 7961,1850 7970,1842 7980,1834 7991,1823 8003,1812 8013,1802  8021,1795 8024,1792 8025,1791"
       fill="#287828"
       stroke="#000000"
       stroke-width="45px"
       stroke-linejoin="bevel"
       stroke-linecap="round"
       id="polyline271" />
    <polyline
       points=" 8238,2416 8239,2416 8246,2419 8260,2424 8279,2431 8299,2437 8317,2443 8332,2447  8344,2449 8352,2448 8358,2447 8363,2442 8364,2433 8363,2420 8359,2403 8354,2383  8349,2366 8346,2357 8345,2355 8346,2355 8350,2357 8361,2362 8377,2369 8396,2378  8417,2387 8436,2395 8454,2403 8469,2409 8482,2415 8494,2419 8505,2424 8519,2428  8532,2433 8545,2437 8559,2441 8572,2444 8585,2447 8597,2450 8608,2452 8618,2453  8627,2454 8638,2455 8650,2455 8661,2454 8672,2453 8682,2451 8692,2450 8700,2448  8709,2446 8719,2444 8729,2441 8739,2438 8746,2435 8752,2432 8754,2429 8754,2425  8751,2420 8745,2415 8737,2409 8727,2403 8716,2396 8709,2391 8701,2387 8692,2381  8682,2376 8672,2369 8661,2363 8651,2356 8641,2350 8632,2344 8622,2337 8613,2331  8604,2324 8594,2317 8584,2309 8573,2301 8562,2293 8551,2284 8540,2276 8529,2268  8518,2261 8508,2254 8498,2247 8487,2240 8476,2232 8464,2224 8451,2216 8439,2207  8426,2198 8414,2189 8403,2180 8392,2171 8381,2162 8371,2152 8360,2142 8349,2130  8337,2117 8323,2102 8308,2084 8292,2066 8278,2049 8266,2034 8258,2025 8255,2021  8254,2020"
       fill="#287828"
       stroke="#000000"
       stroke-width="45px"
       stroke-linejoin="bevel"
       stroke-linecap="round"
       id="polyline273" />
    <polyline
       points=" 8437,2416 8437,2417 8438,2421 8441,2430 8446,2445 8452,2463 8458,2482 8464,2500  8470,2517 8475,2531 8480,2544 8485,2556 8490,2568 8495,2580 8501,2592 8507,2604  8514,2617 8521,2630 8529,2643 8537,2657 8545,2669 8552,2681 8560,2693 8567,2703  8574,2713 8581,2723 8588,2733 8596,2743 8604,2753 8612,2763 8620,2773 8629,2783  8637,2793 8646,2802 8654,2811 8662,2820 8670,2828 8678,2836 8687,2844 8696,2853  8706,2862 8716,2871 8726,2880 8736,2889 8746,2898 8756,2907 8765,2914 8774,2922  8782,2929 8792,2937 8801,2946 8811,2954 8821,2962 8830,2971 8838,2979 8846,2986  8852,2993 8857,2999 8861,3005 8864,3010 8866,3014 8867,3019 8868,3023 8868,3027  8867,3031 8866,3035 8864,3038 8862,3042 8859,3044 8856,3046 8853,3048 8845,3051  8835,3053 8824,3054 8812,3054 8800,3053 8790,3051 8782,3049 8773,3046 8764,3043  8755,3039 8744,3034 8734,3028 8723,3022 8711,3016 8701,3010 8689,3003 8677,2996  8664,2988 8651,2980 8637,2972 8625,2964 8613,2957 8603,2950 8594,2944 8586,2939  8579,2934 8573,2930 8568,2926 8563,2923 8560,2921 8557,2920 8556,2921 8556,2922  8556,2924 8557,2929 8560,2935 8563,2942 8567,2952 8572,2961 8576,2971 8580,2981  8584,2990 8588,3001 8592,3013 8594,3023 8595,3032 8594,3039 8591,3043 8588,3045  8584,3047 8578,3047 8570,3046 8562,3044 8553,3041 8543,3037 8533,3033 8524,3030  8515,3025 8504,3020 8493,3015 8481,3009 8469,3002 8458,2995 8447,2989 8436,2982  8426,2975 8416,2968 8407,2960 8396,2951 8384,2940 8371,2928 8357,2915 8344,2902  8335,2894 8331,2890 8330,2889"
       fill="#287828"
       stroke="#000000"
       stroke-width="45px"
       stroke-linejoin="bevel"
       stroke-linecap="round"
       id="polyline275" />
    <polyline
       points=" 8726,3026 8726,3027 8729,3031 8735,3040 8744,3054 8755,3072 8766,3090 8778,3107  8788,3122 8797,3135 8805,3146 8813,3156 8820,3165 8830,3176 8839,3185 8849,3195  8860,3205 8870,3214 8881,3223 8891,3232 8900,3240 8909,3247 8917,3254 8926,3263  8935,3272 8943,3282 8951,3292 8957,3301 8962,3310 8966,3318 8967,3326 8968,3332  8966,3339 8964,3346 8960,3352 8955,3357 8950,3362 8945,3366 8940,3369 8933,3371  8925,3373 8916,3374 8906,3374 8897,3373 8886,3371 8878,3369 8869,3366 8858,3363  8847,3359 8835,3355 8823,3350 8811,3344 8800,3338 8790,3333 8781,3328 8771,3321  8760,3314 8749,3307 8739,3299 8728,3292 8719,3284 8710,3277 8701,3270 8693,3263  8684,3255 8675,3247 8665,3237 8654,3227 8642,3215 8632,3205 8624,3197 8621,3194  8620,3193"
       fill="#287828"
       stroke="#000000"
       stroke-width="45px"
       stroke-linejoin="bevel"
       stroke-linecap="round"
       id="polyline277" />
    <polyline
       points=" 7613,2507 7613,2508 7611,2512 7606,2521 7599,2534 7592,2548 7585,2562 7578,2575  7572,2586 7566,2596 7560,2607 7554,2617 7547,2629 7539,2641 7532,2653 7525,2665  7518,2677 7513,2687 7508,2697 7505,2704 7504,2711 7504,2714 7504,2717 7506,2720  7508,2722 7511,2723 7515,2724 7519,2724 7524,2724 7529,2723 7535,2721 7541,2720  7547,2718 7553,2716 7560,2713 7569,2710 7579,2705 7590,2700 7601,2695 7613,2689  7625,2682 7637,2675 7648,2669 7659,2662 7669,2655 7679,2648 7689,2640 7699,2632  7709,2623 7719,2614 7728,2604 7737,2595 7746,2587 7754,2578 7761,2571 7769,2561  7778,2552 7787,2543 7795,2535 7802,2529 7809,2525 7815,2524 7819,2525 7823,2529  7828,2535 7832,2543 7837,2552 7843,2561 7850,2568 7858,2573 7868,2576 7875,2576  7884,2574 7895,2570 7908,2564 7923,2557 7941,2547 7960,2536 7979,2525 7995,2516  8005,2510 8009,2507 8010,2507"
       fill="#287828"
       stroke="#000000"
       stroke-width="45px"
       stroke-linejoin="bevel"
       stroke-linecap="round"
       id="polyline279" />
    <polyline
       points=" 7552,2721 7550,2725 7546,2732 7540,2743 7531,2759 7521,2776 7511,2795 7501,2812  7492,2828 7483,2843 7476,2856 7468,2868 7461,2880 7453,2891 7446,2903 7438,2915  7429,2927 7420,2940 7411,2953 7401,2966 7391,2980 7380,2993 7370,3006 7359,3019  7349,3032 7339,3044 7329,3055 7319,3066 7309,3077 7298,3088 7287,3099 7276,3111  7264,3123 7252,3134 7240,3146 7228,3158 7216,3169 7204,3180 7193,3190 7182,3200  7171,3210 7161,3219 7150,3229 7138,3240 7126,3250 7114,3261 7103,3272 7092,3283  7081,3293 7072,3302 7063,3311 7056,3319 7049,3327 7044,3333 7041,3339 7038,3344  7035,3349 7033,3353 7032,3358 7032,3362 7032,3366 7033,3370 7034,3373 7036,3376  7038,3379 7040,3381 7043,3383 7047,3384 7054,3387 7062,3388 7071,3390 7081,3391  7092,3391 7103,3391 7114,3390 7123,3389 7133,3388 7143,3387 7154,3384 7166,3381  7178,3377 7191,3372 7204,3366 7217,3358 7227,3353 7237,3346 7249,3339 7261,3331  7274,3322 7287,3313 7300,3303 7313,3294 7326,3284 7338,3275 7349,3265 7360,3257  7370,3248 7380,3239 7390,3230 7401,3221 7411,3211 7421,3202 7431,3193 7440,3184  7448,3175 7456,3167 7464,3160 7471,3153 7481,3142 7492,3132 7502,3123 7511,3114  7520,3106 7527,3101 7533,3098 7537,3097 7540,3098 7541,3101 7542,3106 7542,3113  7540,3122 7538,3131 7535,3141 7532,3150 7528,3160 7524,3171 7520,3182 7515,3193  7510,3204 7506,3215 7502,3225 7500,3234 7498,3241 7496,3248 7495,3254 7495,3261  7495,3267 7496,3272 7497,3277 7499,3280 7502,3283 7505,3285 7510,3286 7516,3286  7523,3284 7532,3282 7541,3278 7550,3273 7559,3268 7568,3262 7575,3257 7582,3251  7590,3245 7598,3238 7606,3230 7614,3222 7622,3214 7630,3206 7637,3198 7644,3191  7653,3181 7662,3171 7671,3161 7681,3151 7689,3143 7697,3137 7704,3134 7710,3132  7715,3134 7719,3137 7723,3143 7726,3152 7730,3161 7732,3172 7735,3183 7738,3193  7740,3204 7744,3215 7747,3225 7751,3236 7755,3245 7760,3253 7764,3258 7769,3262  7773,3264 7778,3264 7784,3262 7790,3258 7797,3253 7803,3247 7810,3241 7817,3234  7823,3228 7829,3222 7837,3214 7845,3206 7856,3195 7867,3184 7877,3174 7884,3167  7887,3164 7888,3163"
       fill="#287828"
       stroke="#000000"
       stroke-width="45px"
       stroke-linejoin="bevel"
       id="polyline281" />
    <polyline
       points=" 7370,3254 7370,3255 7367,3260 7361,3270 7352,3285 7343,3301 7333,3316 7325,3330  7318,3342 7311,3353 7304,3364 7298,3372 7291,3382 7285,3391 7277,3401 7269,3412  7261,3423 7252,3434 7242,3445 7233,3455 7224,3466 7214,3476 7204,3486 7194,3495  7183,3506 7172,3516 7160,3527 7147,3539 7135,3550 7123,3561 7112,3571 7101,3581  7092,3589 7084,3598 7077,3605 7071,3612 7066,3618 7062,3624 7058,3630 7056,3635  7054,3639 7053,3644 7053,3647 7054,3650 7055,3653 7057,3654 7059,3656 7063,3657  7068,3657 7075,3656 7084,3654 7094,3650 7106,3644 7119,3637 7133,3628 7142,3622  7152,3615 7163,3608 7176,3598 7190,3587 7207,3575 7226,3561 7246,3546 7266,3531  7283,3518 7297,3507 7305,3501 7308,3498 7309,3498"
       fill="#287828"
       stroke="#000000"
       stroke-width="45px"
       stroke-linejoin="bevel"
       stroke-linecap="round"
       id="polyline283" />
    <polyline
       points=" 7324,3483 7324,3484 7322,3487 7317,3496 7309,3509 7300,3525 7290,3542 7281,3558  7272,3572 7264,3584 7257,3596 7250,3606 7243,3615 7236,3624 7228,3634 7220,3643  7212,3653 7203,3662 7194,3672 7185,3681 7175,3690 7166,3698 7158,3706 7149,3713  7141,3719 7131,3727 7121,3734 7110,3742 7099,3749 7087,3757 7075,3765 7064,3772  7053,3779 7042,3786 7032,3793 7021,3800 7010,3808 6999,3816 6987,3825 6976,3834  6965,3842 6956,3851 6947,3859 6940,3867 6935,3874 6932,3879 6929,3884 6927,3889  6925,3893 6925,3898 6924,3903 6924,3907 6925,3912 6927,3916 6929,3919 6931,3922  6933,3925 6936,3928 6940,3930 6947,3933 6955,3935 6964,3937 6975,3938 6987,3937  6998,3936 7010,3935 7022,3933 7031,3930 7041,3927 7051,3923 7063,3919 7075,3913  7088,3906 7102,3898 7115,3889 7129,3880 7144,3869 7153,3862 7163,3854 7174,3845  7186,3835 7199,3823 7214,3810 7231,3795 7249,3778 7268,3761 7287,3744 7305,3728  7319,3714 7330,3705 7336,3699 7339,3696"
       fill="#287828"
       stroke="#000000"
       stroke-width="45px"
       stroke-linejoin="bevel"
       stroke-linecap="round"
       id="polyline285" />
    <polyline
       points=" 7857,1867 7857,1868 7855,1872 7852,1882 7847,1897 7841,1916 7834,1935 7827,1954  7821,1972 7814,1988 7808,2002 7801,2016 7794,2030 7787,2042 7780,2055 7772,2068  7763,2082 7753,2097 7743,2112 7732,2128 7720,2143 7708,2159 7696,2174 7685,2189  7673,2203 7661,2217 7649,2231 7638,2242 7627,2254 7616,2266 7604,2279 7592,2291  7579,2304 7566,2317 7553,2330 7540,2343 7527,2355 7514,2367 7502,2378 7491,2389  7479,2399 7469,2409 7459,2418 7445,2430 7432,2442 7419,2454 7406,2466 7394,2478  7381,2489 7369,2500 7358,2511 7347,2520 7338,2529 7330,2538 7322,2545 7311,2556  7300,2567 7291,2578 7282,2589 7275,2599 7270,2609 7266,2617 7263,2624 7262,2629  7262,2635 7262,2640 7264,2645 7266,2650 7269,2654 7272,2658 7275,2661 7279,2663  7283,2665 7289,2666 7295,2667 7302,2666 7311,2665 7320,2664 7329,2661 7339,2658  7349,2655 7358,2652 7368,2648 7378,2644 7390,2640 7402,2635 7416,2629 7429,2622  7442,2616 7455,2609 7469,2601 7480,2595 7492,2587 7505,2579 7520,2568 7538,2556  7557,2543 7578,2529 7597,2515 7613,2503 7624,2496 7628,2493 7629,2492"
       fill="#287828"
       stroke="#000000"
       stroke-width="45px"
       stroke-linejoin="bevel"
       stroke-linecap="round"
       id="polyline287" />
    <polyline
       points=" 7339,3696 7339,3697 7337,3702 7332,3713 7324,3731 7315,3752 7305,3774 7296,3796  7288,3815 7280,3831 7273,3846 7267,3859 7260,3872 7254,3884 7247,3896 7240,3908  7233,3921 7225,3933 7218,3946 7211,3957 7204,3969 7197,3979 7192,3989 7186,3998  7181,4007 7175,4019 7169,4030 7164,4041 7160,4052 7157,4062 7155,4070 7155,4077  7156,4083 7158,4087 7161,4090 7164,4093 7169,4096 7174,4098 7180,4099 7186,4100  7192,4100 7198,4099 7205,4098 7213,4096 7221,4092 7231,4088 7240,4083 7250,4077  7260,4070 7269,4064 7278,4057 7285,4051 7292,4045 7300,4038 7308,4031 7316,4023  7324,4015 7332,4007 7340,3999 7347,3991 7354,3984 7363,3974 7372,3964 7382,3953  7392,3943 7401,3934 7410,3926 7418,3920 7426,3915 7430,3913 7433,3912 7437,3912  7441,3912 7445,3912 7448,3913 7451,3915 7454,3917 7457,3920 7460,3923 7462,3927  7463,3931 7465,3936 7466,3940 7467,3950 7468,3961 7469,3973 7469,3985 7469,3998  7470,4009 7472,4019 7474,4027 7475,4030 7477,4034 7480,4036 7483,4039 7486,4040  7490,4041 7494,4042 7498,4042 7502,4042 7507,4041 7511,4039 7516,4037 7520,4035  7525,4032 7533,4026 7541,4019 7550,4011 7559,4003 7567,3995 7574,3989 7580,3984  7585,3981 7589,3981 7591,3981 7593,3983 7595,3986 7597,3990 7598,3995 7599,4000  7599,4006 7600,4011 7601,4017 7602,4026 7604,4036 7607,4045 7610,4053 7614,4059  7618,4063 7622,4064 7626,4063 7632,4062 7637,4058 7644,4053 7650,4047 7657,4040  7664,4032 7671,4022 7679,4012 7688,4000 7696,3989 7705,3979 7713,3971 7719,3966  7725,3963 7730,3964 7734,3968 7739,3974 7743,3982 7747,3992 7750,4003 7754,4013  7759,4022 7762,4029 7767,4035 7771,4041 7777,4047 7782,4051 7788,4056 7794,4059  7799,4061 7804,4062 7809,4063 7814,4062 7819,4061 7824,4058 7829,4055 7835,4050  7840,4044 7846,4037 7851,4030 7857,4021 7862,4012 7868,4001 7874,3990 7881,3977  7889,3964 7896,3952 7904,3939 7912,3929 7919,3920 7927,3914 7934,3910 7941,3908  7948,3909 7956,3912 7964,3916 7972,3923 7980,3930 7988,3939 7996,3947 8003,3955  8010,3963 8019,3973 8028,3982 8038,3991 8048,3999 8057,4006 8067,4013 8075,4018  8084,4022 8094,4026 8105,4028 8116,4029 8127,4028 8137,4026 8147,4022 8154,4018  8162,4013 8169,4007 8178,3999 8186,3991 8195,3983 8203,3974 8211,3966 8219,3957  8227,3947 8236,3937 8245,3926 8254,3916 8263,3907 8270,3899 8277,3892 8282,3886  8288,3881 8294,3877 8299,3874 8305,3872 8310,3871 8315,3871 8320,3872 8326,3873  8332,3875 8339,3878 8346,3882 8354,3886 8362,3891 8369,3897 8376,3903 8383,3909  8390,3916 8398,3924 8406,3933 8414,3942 8421,3950 8428,3957 8434,3963 8442,3971  8451,3978 8459,3984 8467,3988 8474,3990 8480,3991 8484,3991 8488,3989 8493,3987  8497,3983 8501,3979 8504,3973 8508,3967 8510,3961 8514,3951 8517,3939 8521,3927  8525,3917 8529,3909 8533,3905 8538,3904 8545,3907 8553,3914 8562,3923 8571,3934  8582,3945 8588,3952 8595,3960 8603,3968 8612,3977 8621,3985 8630,3994 8639,4002  8648,4009 8657,4016 8665,4022 8676,4028 8687,4034 8699,4040 8711,4045 8723,4050  8735,4054 8746,4057 8757,4060 8767,4062 8778,4064 8790,4066 8801,4068 8811,4068  8821,4067 8829,4065 8835,4063 8841,4058 8846,4053 8850,4045 8853,4037 8856,4027  8858,4017 8860,4007 8861,3996 8861,3985 8862,3974 8863,3962 8864,3950 8865,3940  8866,3930 8868,3923 8871,3918 8873,3915 8876,3913 8879,3912 8883,3913 8888,3914  8893,3916 8899,3919 8905,3922 8911,3926 8917,3930 8925,3936 8934,3942 8945,3948  8956,3956 8967,3963 8978,3969 8989,3975 8998,3981 9008,3986 9018,3991 9028,3995  9038,3999 9047,4002 9055,4004 9063,4004 9069,4004 9075,4003 9081,4000 9086,3997  9090,3992 9094,3986 9097,3981 9100,3975 9102,3969 9104,3962 9105,3956 9107,3949  9109,3942 9111,3936 9115,3931 9119,3928 9125,3925 9132,3924 9140,3924 9151,3925  9163,3926 9176,3929 9189,3931 9202,3933 9214,3935 9226,3937 9239,3938 9253,3938  9266,3938 9280,3938 9292,3937 9303,3935 9313,3933 9323,3930 9332,3926 9340,3921  9348,3916 9355,3910 9360,3904 9364,3898 9367,3892 9368,3887 9368,3882 9367,3876  9365,3870 9362,3864 9358,3858 9353,3852 9347,3845 9341,3840 9333,3834 9325,3828  9316,3823 9305,3816 9293,3810 9280,3803 9266,3796 9252,3790 9238,3783 9225,3777  9212,3770 9200,3765 9189,3759 9177,3753 9164,3747 9151,3740 9138,3733 9125,3725  9112,3718 9099,3710 9087,3702 9076,3694 9064,3686 9053,3678 9042,3669 9030,3659  9019,3648 9006,3637 8994,3624 8983,3612 8971,3599 8960,3586 8950,3573 8941,3560  8932,3546 8924,3535 8917,3522 8910,3509 8902,3494 8893,3477 8884,3458 8874,3437  8864,3415 8854,3393 8845,3374 8839,3359 8835,3350 8833,3347 8833,3346"
       fill="#287828"
       stroke="#000000"
       stroke-width="45px"
       stroke-linejoin="bevel"
       stroke-linecap="round"
       id="polyline289" />
    <polyline
       points=" 8467,3483 8468,3484 8473,3487 8483,3494 8497,3505 8513,3516 8528,3526 8541,3535  8552,3543 8562,3550 8571,3557 8583,3564 8594,3572 8605,3580 8616,3588 8626,3596  8634,3603 8640,3609 8645,3615 8646,3618 8648,3620 8648,3623 8649,3625 8649,3627  8648,3630 8647,3632 8646,3634 8645,3636 8643,3637 8641,3639 8638,3640 8636,3641  8633,3642 8630,3643 8627,3643 8621,3644 8613,3644 8605,3643 8595,3641 8584,3638  8573,3634 8562,3629 8551,3623 8542,3618 8532,3612 8522,3606 8511,3599 8500,3593  8490,3587 8480,3582 8472,3579 8465,3577 8460,3577 8453,3581 8449,3589 8446,3600  8445,3613 8444,3625 8442,3636 8440,3641 8438,3645 8435,3649 8431,3653 8427,3655  8423,3657 8418,3658 8413,3659 8408,3659 8404,3659 8395,3657 8386,3654 8375,3649  8365,3644 8356,3637 8348,3631 8339,3623 8331,3615 8322,3607 8314,3600 8306,3595  8299,3593 8294,3592 8288,3594 8283,3597 8277,3601 8271,3607 8266,3613 8261,3620  8256,3628 8252,3636 8248,3645 8243,3655 8239,3665 8235,3674 8230,3682 8227,3689  8223,3694 8222,3696 8220,3697 8218,3698 8217,3699 8215,3700 8213,3700 8211,3700  8209,3699 8207,3698 8205,3696 8203,3694 8201,3691 8199,3689 8197,3685 8195,3682  8192,3678 8190,3673 8188,3668 8184,3660 8180,3651 8176,3639 8171,3625 8165,3608  8158,3589 8150,3568 8143,3547 8138,3531 8134,3520 8132,3515 8132,3514"
       fill="#287828"
       stroke="#000000"
       stroke-width="45px"
       stroke-linejoin="bevel"
       stroke-linecap="round"
       id="polyline291" />
  </g>
  <polyline
     points=" 10305,1440 10305,4860"
     clip-path="url(#cp3)"
     stroke="#000000"
     stroke-width="8px"
     id="polyline298"
     style="fill:none"
     transform="translate(-386.48144,-22.502488)" />
  <polyline
     points=" 10350,4860 10305,4725 10260,4860"
     stroke="#000000"
     stroke-width="8px"
     stroke-miterlimit="8"
     id="polyline300"
     style="fill:none"
     transform="translate(-386.48144,-22.502488)" />
  <polyline
     points=" 10260,1440 10305,1575 10350,1440"
     stroke="#000000"
     stroke-width="8px"
     stroke-miterlimit="8"
     id="polyline302"
     style="fill:none"
     transform="translate(-386.48144,-22.502488)" />
  <g
     transform="rotate(-90,6590.508,-3598.0105)"
     id="g306"
     style="fill:none">
    <text
       xml:space="preserve"
       x="0"
       y="0"
       fill="#000000"
       font-family="Times"
       font-style="italic"
       font-weight="normal"
       font-size="216px"
       text-anchor="middle"
       id="text304">Height</text>
  </g>
  <metadata
     id="metadata4796">
    <rdf:RDF>
      <cc:Work
         rdf:about="">
        <dc:title>Soil simulations with Snowpack and Alpine3D</dc:title>
        <dc:date>2024-05-24</dc:date>
        <dc:creator>
          <cc:Agent>
            <dc:title>Mathias Bavay</dc:title>
          </cc:Agent>
        </dc:creator>
        <dc:publisher>
          <cc:Agent>
            <dc:title>SLF</dc:title>
          </cc:Agent>
        </dc:publisher>
        <dc:source>https://code.wsl.ch/snow-models/alpine3d</dc:source>
        <cc:license
           rdf:resource="http://creativecommons.org/licenses/by-sa/4.0/" />
      </cc:Work>
      <cc:License
         rdf:about="http://creativecommons.org/licenses/by-sa/4.0/">
        <cc:permits
           rdf:resource="http://creativecommons.org/ns#Reproduction" />
        <cc:permits
           rdf:resource="http://creativecommons.org/ns#Distribution" />
        <cc:requires
           rdf:resource="http://creativecommons.org/ns#Notice" />
        <cc:requires
           rdf:resource="http://creativecommons.org/ns#Attribution" />
        <cc:permits
           rdf:resource="http://creativecommons.org/ns#DerivativeWorks" />
        <cc:requires
           rdf:resource="http://creativecommons.org/ns#ShareAlike" />
      </cc:License>
    </rdf:RDF>
  </metadata>
</svg>
