<?xml version="1.0" encoding="UTF-8" standalone="no"?>
<!-- Creator: fig2dev Version 3.2.8b -->

<!-- CreationDate: 2024-04-24 22:48:53 -->

<!-- Magnification: 1.05 -->

<svg
   width="311pt"
   height="257pt"
   viewBox="2386 2689 5549.2693 4585.7305"
   version="1.1"
   id="svg92"
   sodipodi:docname="snowpack_column.svg"
   inkscape:version="1.1.2 (0a00cf5339, 2022-02-04)"
   xmlns:inkscape="http://www.inkscape.org/namespaces/inkscape"
   xmlns:sodipodi="http://sodipodi.sourceforge.net/DTD/sodipodi-0.dtd"
   xmlns="http://www.w3.org/2000/svg"
   xmlns:svg="http://www.w3.org/2000/svg"
   xmlns:rdf="http://www.w3.org/1999/02/22-rdf-syntax-ns#"
   xmlns:cc="http://creativecommons.org/ns#"
   xmlns:dc="http://purl.org/dc/elements/1.1/">
  <title
     id="title977">The Canopy / Snow / Soil column of the Snowpack model</title>
  <defs
     id="defs96" />
  <sodipodi:namedview
     id="namedview94"
     pagecolor="#ffffff"
     bordercolor="#666666"
     borderopacity="1.0"
     inkscape:pageshadow="2"
     inkscape:pageopacity="0.0"
     inkscape:pagecheckerboard="0"
     inkscape:document-units="pt"
     showgrid="false"
     scale-x="17.843305"
     inkscape:zoom="1.3060345"
     inkscape:cx="230.85149"
     inkscape:cy="193.33333"
     inkscape:window-width="1920"
     inkscape:window-height="1005"
     inkscape:window-x="0"
     inkscape:window-y="0"
     inkscape:window-maximized="1"
     inkscape:current-layer="svg92" />
  <polygon
     points="2790,6030 2970,6030 3195,6030 3420,6030 3870,6030 4050,6120 4320,6120 4545,6165 4770,6120 5175,6165 5445,6165 5670,6165 5985,6210 6255,6165 6255,5490 6165,5535 5985,5535 5760,5490 5580,5490 5265,5535 5130,5535 4635,5490 4185,5445 3420,5445 3195,5445 2835,5490 2430,5445 2430,6030 2655,6030 "
     fill="#e1e1e1"
     id="polygon2" />
  <polygon
     points="6255,6165 6255,7245 2430,7245 2430,6030 2745,6030 2925,6030 3240,6030 3510,6030 3735,6030 4050,6120 4365,6120 4545,6165 4725,6165 4995,6165 5265,6165 5625,6165 5940,6165 "
     fill="#b79b73"
     id="polygon4" />
  <polyline
     points=" 6480,3060 6705,3060 6705,5445 6480,5445"
     stroke="#000000"
     stroke-width="30px"
     stroke-linejoin="round"
     id="polyline6"
     style="fill:none" />
  <polyline
     points=" 6480,5490 6705,5490 6705,6165 6480,6165"
     stroke="#000000"
     stroke-width="30px"
     stroke-linejoin="round"
     id="polyline8"
     style="fill:none" />
  <polyline
     points=" 6480,6210 6705,6210 6705,7245 6480,7245"
     stroke="#000000"
     stroke-width="30px"
     stroke-linejoin="round"
     id="polyline10"
     style="fill:none" />
  <text
     xml:space="preserve"
     x="6840"
     y="4320"
     fill="#000000"
     font-family="Helvetica"
     font-style="normal"
     font-weight="bold"
     font-size="216px"
     text-anchor="start"
     id="text12"
     style="-inkscape-font-specification:'Helvetica, Bold';font-family:Helvetica;font-weight:bold;font-style:normal;font-stretch:normal;font-variant:normal;font-size:285.49295957px;font-variant-ligatures:normal;font-variant-caps:normal;font-variant-numeric:normal;font-variant-east-asian:normal">Canopy</text>
  <text
     xml:space="preserve"
     x="6840"
     y="6795"
     fill="#000000"
     font-family="Helvetica"
     font-style="normal"
     font-weight="bold"
     font-size="216px"
     text-anchor="start"
     id="text14"
     style="-inkscape-font-specification:'Helvetica, Bold';font-family:Helvetica;font-weight:bold;font-style:normal;font-stretch:normal;font-variant:normal;font-size:285.49295957px;font-variant-ligatures:normal;font-variant-caps:normal;font-variant-numeric:normal;font-variant-east-asian:normal">Soil</text>
  <text
     xml:space="preserve"
     x="6840"
     y="5895"
     fill="#000000"
     font-family="Helvetica"
     font-style="normal"
     font-weight="bold"
     font-size="216px"
     text-anchor="start"
     id="text16"
     style="-inkscape-font-specification:'Helvetica, Bold';font-family:Helvetica;font-weight:bold;font-style:normal;font-stretch:normal;font-variant:normal;font-size:285.49295957px;font-variant-ligatures:normal;font-variant-caps:normal;font-variant-numeric:normal;font-variant-east-asian:normal">Snow</text>
  <polygon
     points="6091,6560 6085,6556 6081,6552 6077,6546 6074,6541 6072,6536 6070,6530 6068,6525 6065,6521 6063,6517 6060,6512 6058,6507 6056,6502 6054,6498 6054,6493 6055,6488 6057,6484 6060,6480 6066,6475 6075,6470 6087,6465 6100,6461 6113,6458 6127,6456 6139,6456 6150,6458 6158,6460 6165,6464 6172,6469 6179,6475 6184,6482 6189,6489 6194,6497 6197,6504 6200,6511 6203,6518 6204,6523 6205,6527 6206,6532 6207,6537 6207,6541 6206,6545 6204,6549 6202,6553 6200,6556 6196,6558 6192,6561 6188,6563 6179,6565 6168,6566 6156,6568 6143,6568 6129,6568 6117,6566 6106,6565 6098,6563 "
     stroke="#000000"
     stroke-width="30px"
     stroke-linejoin="bevel"
     id="polygon18"
     style="fill:none" />
  <polygon
     points="4883,6451 4893,6454 4903,6459 4912,6464 4918,6469 4920,6473 4919,6475 4915,6476 4910,6478 4903,6478 4895,6478 4888,6476 4881,6475 4875,6473 4873,6472 4872,6470 4870,6469 4869,6468 4868,6467 4867,6465 4866,6464 4865,6463 4865,6461 4864,6460 4864,6459 4864,6457 4865,6456 4865,6455 4866,6454 4867,6453 4868,6452 4869,6451 4870,6451 4872,6450 4873,6450 4875,6450 "
     stroke="#000000"
     stroke-width="30px"
     stroke-linejoin="bevel"
     id="polygon20"
     style="fill:none" />
  <polygon
     points="4819,6930 4818,6930 4817,6930 4818,6930 4819,6930 4820,6930 4821,6930 4822,6930 4823,6930 4827,6930 4833,6930 4839,6930 4843,6930 4845,6930 4843,6930 4839,6930 4833,6930 4827,6930 4823,6930 4822,6930 4821,6930 4820,6930 "
     stroke="#000000"
     stroke-width="30px"
     stroke-linejoin="bevel"
     id="polygon22"
     style="fill:none" />
  <polygon
     points="5899,6660 5898,6660 5897,6660 5898,6660 5899,6660 5900,6660 5901,6660 5902,6660 5903,6660 5907,6660 5913,6660 5919,6660 5923,6660 5925,6660 5923,6660 5919,6660 5913,6660 5907,6660 5903,6660 5902,6660 5901,6660 5900,6660 "
     stroke="#000000"
     stroke-width="30px"
     stroke-linejoin="bevel"
     id="polygon24"
     style="fill:none" />
  <polygon
     points="3784,6480 3783,6480 3782,6480 3783,6480 3784,6480 3785,6480 3786,6480 3787,6480 3788,6480 3792,6480 3798,6480 3804,6480 3808,6480 3810,6480 3808,6480 3804,6480 3798,6480 3792,6480 3788,6480 3787,6480 3786,6480 3785,6480 "
     stroke="#000000"
     stroke-width="30px"
     stroke-linejoin="bevel"
     id="polygon26"
     style="fill:none" />
  <polygon
     points="4459,6480 4458,6480 4457,6480 4458,6480 4459,6480 4460,6480 4461,6480 4462,6480 4463,6480 4467,6480 4473,6480 4479,6480 4483,6480 4485,6480 4483,6480 4479,6480 4473,6480 4467,6480 4463,6480 4462,6480 4461,6480 4460,6480 "
     stroke="#000000"
     stroke-width="30px"
     stroke-linejoin="bevel"
     id="polygon28"
     style="fill:none" />
  <polygon
     points="5494,6390 5493,6390 5492,6390 5493,6390 5494,6390 5495,6390 5496,6390 5497,6390 5498,6390 5502,6390 5508,6390 5514,6390 5518,6390 5520,6390 5518,6390 5514,6390 5508,6390 5502,6390 5498,6390 5497,6390 5496,6390 5495,6390 "
     stroke="#000000"
     stroke-width="30px"
     stroke-linejoin="bevel"
     id="polygon30"
     style="fill:none" />
  <polygon
     points="4228,6662 4233,6659 4239,6657 4246,6655 4254,6654 4262,6654 4270,6654 4277,6655 4284,6657 4291,6659 4297,6661 4302,6663 4308,6667 4312,6670 4316,6674 4319,6677 4321,6680 4322,6684 4322,6686 4321,6689 4315,6691 4307,6694 4296,6696 4284,6698 4271,6701 4261,6704 4251,6707 4241,6712 4233,6716 4225,6720 4220,6720 4216,6719 4213,6715 4212,6710 4211,6703 4211,6695 4212,6687 4215,6679 4218,6672 4223,6666 "
     stroke="#000000"
     stroke-width="30px"
     stroke-linejoin="bevel"
     id="polygon32"
     style="fill:none" />
  <polygon
     points="3576,6722 3575,6722 3574,6722 3575,6722 3576,6722 3577,6722 3578,6722 3579,6722 3580,6722 3584,6722 3590,6722 3596,6722 3600,6722 3602,6722 3600,6722 3596,6722 3590,6722 3584,6722 3580,6722 3579,6722 3578,6722 3577,6722 "
     stroke="#000000"
     stroke-width="30px"
     stroke-linejoin="bevel"
     id="polygon34"
     style="fill:none" />
  <polygon
     points="3649,7060 3646,7058 3644,7055 3642,7052 3640,7050 3639,7047 3638,7044 3638,7042 3639,7039 3640,7036 3642,7034 3644,7031 3650,7026 3659,7021 3671,7015 3684,7011 3697,7007 3711,7003 3723,7002 3734,7001 3742,7001 3749,7003 3756,7005 3762,7007 3767,7011 3772,7014 3775,7018 3777,7023 3779,7027 3779,7031 3778,7036 3776,7042 3773,7047 3768,7052 3763,7058 3756,7062 3749,7066 3742,7069 3733,7071 3724,7072 3714,7074 3704,7074 3694,7074 3684,7072 3675,7071 3667,7069 3663,7067 3659,7066 3656,7064 3652,7062 "
     stroke="#000000"
     stroke-width="30px"
     stroke-linejoin="bevel"
     id="polygon36"
     style="fill:none" />
  <polygon
     points="4302,7108 4301,7108 4300,7108 4301,7108 4302,7108 4303,7108 4304,7108 4305,7108 4306,7108 4310,7108 4316,7108 4322,7108 4326,7108 4328,7108 4326,7108 4322,7108 4316,7108 4310,7108 4306,7108 4305,7108 4304,7108 4303,7108 "
     stroke="#000000"
     stroke-width="30px"
     stroke-linejoin="bevel"
     id="polygon38"
     style="fill:none" />
  <polygon
     points="4990,7051 4991,7046 4993,7040 4996,7036 4999,7032 5004,7030 5009,7028 5014,7026 5020,7025 5027,7025 5035,7025 5043,7026 5051,7028 5058,7030 5065,7033 5072,7037 5078,7042 5083,7047 5088,7053 5093,7060 5096,7067 5099,7074 5100,7081 5099,7087 5097,7092 5094,7097 5088,7102 5079,7105 5068,7108 5055,7109 5043,7109 5031,7108 5020,7107 5012,7105 5006,7102 5001,7099 4997,7096 4994,7093 4992,7088 4991,7084 4990,7080 4989,7075 4989,7071 4989,7067 4989,7062 4989,7056 "
     stroke="#000000"
     stroke-width="30px"
     stroke-linejoin="bevel"
     id="polygon40"
     style="fill:none" />
  <polygon
     points="6102,6951 6101,6951 6100,6951 6101,6951 6102,6951 6103,6951 6104,6951 6105,6951 6106,6951 6110,6951 6116,6951 6122,6951 6126,6951 6128,6951 6126,6951 6122,6951 6116,6951 6110,6951 6106,6951 6105,6951 6104,6951 6103,6951 "
     stroke="#000000"
     stroke-width="30px"
     stroke-linejoin="bevel"
     id="polygon42"
     style="fill:none" />
  <polygon
     points="5410,7116 5409,7116 5408,7116 5409,7116 5410,7116 5411,7116 5412,7116 5413,7116 5414,7116 5418,7116 5424,7116 5430,7116 5434,7116 5436,7116 5434,7116 5430,7116 5424,7116 5418,7116 5414,7116 5413,7116 5412,7116 5411,7116 "
     stroke="#000000"
     stroke-width="30px"
     stroke-linejoin="bevel"
     id="polygon44"
     style="fill:none" />
  <polygon
     points="5323,6717 5318,6713 5315,6710 5314,6707 5313,6704 5313,6701 5313,6697 5315,6694 5317,6690 5320,6687 5323,6684 5327,6680 5332,6677 5337,6674 5342,6671 5348,6668 5357,6664 5366,6660 5377,6656 5389,6652 5401,6649 5412,6646 5424,6644 5435,6644 5444,6644 5453,6646 5460,6648 5466,6651 5472,6654 5477,6659 5481,6664 5485,6670 5488,6676 5491,6682 5492,6689 5492,6695 5492,6700 5491,6706 5488,6712 5484,6717 5478,6723 5472,6728 5464,6732 5455,6736 5445,6739 5436,6741 5426,6743 5416,6743 5405,6743 5394,6741 5382,6739 5370,6737 5359,6733 5348,6730 5338,6726 5330,6721 "
     stroke="#000000"
     stroke-width="30px"
     stroke-linejoin="bevel"
     id="polygon46"
     style="fill:none" />
  <polyline
     points=" 2419,6051 2422,6051 2428,6051 2438,6051 2455,6051 2478,6050 2507,6050 2542,6050  2582,6050 2626,6049 2673,6049 2721,6048 2770,6048 2818,6047 2864,6047 2909,6046  2952,6046 2992,6046 3030,6045 3065,6045 3099,6045 3130,6044 3159,6044 3186,6044  3212,6043 3237,6043 3261,6043 3285,6042 3314,6042 3342,6041 3370,6041 3397,6040  3424,6040 3451,6040 3477,6039 3504,6039 3529,6039 3554,6039 3579,6039 3602,6039  3625,6039 3647,6039 3668,6040 3688,6040 3706,6041 3724,6042 3741,6043 3756,6044  3772,6046 3786,6047 3805,6050 3824,6052 3842,6055 3861,6059 3879,6063 3897,6067  3915,6071 3932,6075 3949,6080 3965,6084 3981,6088 3996,6092 4010,6096 4024,6099  4037,6102 4050,6105 4065,6108 4080,6110 4095,6112 4111,6114 4128,6116 4145,6118  4161,6119 4178,6120 4195,6121 4210,6123 4226,6124 4240,6125 4254,6126 4268,6128  4281,6129 4294,6131 4308,6133 4322,6135 4337,6137 4352,6139 4368,6141 4384,6144  4401,6145 4417,6147 4434,6148 4451,6149 4468,6150 4485,6150 4499,6150 4514,6150  4529,6149 4546,6148 4563,6147 4581,6147 4601,6146 4621,6145 4641,6144 4662,6143  4684,6142 4705,6141 4726,6141 4747,6141 4768,6141 4789,6141 4809,6142 4830,6143  4849,6144 4868,6145 4887,6147 4908,6149 4928,6151 4950,6153 4972,6156 4994,6159  5017,6161 5040,6164 5063,6167 5086,6169 5108,6171 5130,6174 5152,6175 5172,6177  5193,6178 5212,6179 5231,6180 5250,6180 5271,6180 5291,6179 5312,6178 5333,6176  5355,6175 5377,6172 5399,6170 5421,6168 5444,6165 5466,6162 5489,6160 5511,6158  5532,6155 5553,6154 5573,6152 5593,6151 5613,6150 5633,6150 5652,6150 5672,6151  5692,6152 5713,6154 5735,6155 5757,6158 5779,6160 5802,6163 5825,6166 5847,6168  5869,6171 5890,6174 5911,6176 5931,6179 5950,6180 5968,6182 5985,6183 6002,6184  6020,6185 6037,6184 6055,6184 6073,6182 6092,6180 6113,6177 6134,6173 6157,6169  6180,6164 6203,6159 6224,6155 6241,6151 6253,6148 6261,6146 6264,6145"
     stroke="#000000"
     stroke-width="30px"
     stroke-linejoin="bevel"
     id="polyline48"
     style="fill:none" />
  <polyline
     points=" 2419,5443 2422,5443 2430,5444 2442,5445 2461,5447 2483,5450 2510,5452 2537,5455  2565,5458 2593,5460 2619,5462 2643,5464 2665,5465 2686,5466 2706,5467 2724,5468  2743,5468 2761,5468 2780,5467 2799,5467 2818,5466 2838,5465 2859,5464 2880,5463  2901,5461 2923,5460 2945,5458 2966,5457 2987,5455 3007,5454 3026,5452 3045,5451  3062,5450 3079,5449 3095,5449 3110,5448 3126,5448 3142,5448 3157,5448 3173,5448  3189,5449 3205,5450 3221,5450 3237,5452 3254,5453 3270,5454 3287,5455 3303,5457  3320,5458 3337,5459 3354,5460 3372,5461 3385,5461 3399,5462 3414,5463 3430,5463  3447,5463 3465,5464 3484,5464 3505,5465 3526,5465 3549,5465 3573,5465 3598,5465  3623,5465 3650,5466 3677,5466 3705,5466 3733,5466 3762,5466 3791,5466 3821,5466  3852,5466 3883,5466 3909,5465 3935,5465 3962,5465 3991,5465 4020,5465 4050,5465  4081,5465 4113,5465 4146,5465 4180,5466 4214,5466 4249,5466 4284,5466 4319,5467  4355,5467 4390,5467 4424,5468 4458,5469 4492,5469 4524,5470 4556,5471 4587,5472  4617,5473 4645,5474 4673,5475 4700,5476 4726,5477 4750,5479 4781,5480 4810,5482  4839,5485 4867,5487 4895,5490 4922,5492 4949,5495 4975,5498 5001,5500 5026,5503  5051,5506 5074,5509 5097,5511 5119,5513 5141,5516 5161,5517 5181,5519 5199,5520  5217,5522 5235,5522 5252,5523 5269,5523 5288,5523 5306,5522 5326,5521 5345,5520  5365,5519 5386,5517 5407,5515 5428,5513 5450,5510 5472,5508 5493,5506 5515,5503  5536,5501 5557,5499 5578,5497 5598,5496 5617,5495 5637,5494 5655,5493 5674,5493  5695,5493 5716,5494 5737,5495 5759,5497 5781,5499 5803,5501 5826,5503 5849,5506  5871,5509 5894,5512 5915,5515 5936,5518 5956,5521 5975,5523 5993,5525 6010,5527  6026,5529 6042,5531 6060,5532 6078,5532 6096,5532 6114,5531 6133,5529 6153,5527  6174,5524 6196,5520 6216,5517 6234,5513 6247,5511 6255,5509 6258,5508 6259,5508 "
     stroke="#000000"
     stroke-width="30px"
     stroke-linejoin="bevel"
     id="polyline50"
     style="fill:none" />
  <polygon
     points="2789,6853 2794,6850 2800,6848 2807,6846 2815,6845 2823,6845 2831,6845 2838,6846 2845,6848 2852,6850 2858,6852 2863,6854 2869,6858 2873,6861 2877,6865 2880,6868 2882,6871 2883,6875 2883,6877 2882,6880 2876,6882 2868,6885 2857,6887 2845,6889 2832,6892 2822,6895 2812,6898 2802,6903 2794,6907 2786,6911 2781,6911 2777,6910 2774,6906 2773,6901 2772,6894 2772,6886 2773,6878 2776,6870 2779,6863 2784,6857 "
     stroke="#000000"
     stroke-width="30px"
     stroke-linejoin="bevel"
     id="polygon52"
     style="fill:none" />
  <polygon
     points="2566,6297 2561,6293 2558,6290 2557,6287 2556,6284 2556,6281 2556,6277 2558,6274 2560,6270 2563,6267 2566,6264 2570,6260 2575,6257 2580,6254 2585,6251 2591,6248 2600,6244 2609,6240 2620,6236 2632,6232 2644,6229 2655,6226 2667,6224 2678,6224 2687,6224 2696,6226 2703,6228 2709,6231 2715,6234 2720,6239 2724,6244 2728,6250 2731,6256 2734,6262 2735,6269 2735,6275 2735,6280 2734,6286 2731,6292 2727,6297 2721,6303 2715,6308 2707,6312 2698,6316 2688,6319 2679,6321 2669,6323 2659,6323 2648,6323 2637,6321 2625,6319 2613,6317 2602,6313 2591,6310 2581,6306 2573,6301 "
     stroke="#000000"
     stroke-width="30px"
     stroke-linejoin="bevel"
     id="polygon54"
     style="fill:none" />
  <polygon
     points="2920,7124 2919,7124 2918,7124 2919,7124 2920,7124 2921,7124 2922,7124 2923,7124 2924,7124 2928,7124 2934,7124 2940,7124 2944,7124 2946,7124 2944,7124 2940,7124 2934,7124 2928,7124 2924,7124 2923,7124 2922,7124 2921,7124 "
     stroke="#000000"
     stroke-width="30px"
     stroke-linejoin="bevel"
     id="polygon56"
     style="fill:none" />
  <polygon
     points="3062,6508 3061,6508 3060,6508 3061,6508 3062,6508 3063,6508 3064,6508 3065,6508 3066,6508 3070,6508 3076,6508 3082,6508 3086,6508 3088,6508 3086,6508 3082,6508 3076,6508 3070,6508 3066,6508 3065,6508 3064,6508 3063,6508 "
     stroke="#000000"
     stroke-width="30px"
     stroke-linejoin="bevel"
     id="polygon58"
     style="fill:none" />
  <polygon
     points="2526,6793 2525,6793 2524,6793 2525,6793 2526,6793 2527,6793 2528,6793 2529,6793 2530,6793 2534,6793 2540,6793 2546,6793 2550,6793 2552,6793 2550,6793 2546,6793 2540,6793 2534,6793 2530,6793 2529,6793 2528,6793 2527,6793 "
     stroke="#000000"
     stroke-width="30px"
     stroke-linejoin="bevel"
     id="polygon60"
     style="fill:none" />
  <polygon
     points="3512,6351 3511,6351 3510,6351 3511,6351 3512,6351 3513,6351 3514,6351 3515,6351 3516,6351 3520,6351 3526,6351 3532,6351 3536,6351 3538,6351 3536,6351 3532,6351 3526,6351 3520,6351 3516,6351 3515,6351 3514,6351 3513,6351 "
     stroke="#000000"
     stroke-width="30px"
     stroke-linejoin="bevel"
     id="polygon62"
     style="fill:none" />
  <polyline
     points=" 3586,5185 3617,5276 3632,5398 3622,5723 3622,5775 3623,5803 3620,5840 3612,5914  3608,5993 3599,6035 3564,6062 3480,6100 3386,6136 3287,6178 3245,6188 3134,6243  3085,6284 3074,6305 3073,6331 3082,6351 3108,6353 3141,6338 3174,6322 3198,6304  3231,6298 3268,6289 3304,6284 3340,6280 3374,6262 3399,6228 3434,6199 3469,6185  3506,6169 3540,6146 3577,6146 3611,6179 3649,6213 3685,6223 3720,6213 3754,6193  3786,6231 3817,6267 3852,6289 3891,6308 3920,6343 3940,6377 3973,6397 4010,6411  4044,6411 4084,6406 4103,6371 4069,6333 4044,6298 4037,6262 4029,6228 4064,6219  4098,6219 4137,6241 4156,6277 4193,6298 4229,6312 4271,6328 4306,6347 4342,6371  4378,6381 4389,6366 4391,6344 4353,6319 4269,6261 4195,6192 4155,6171 4089,6133  4016,6101 3962,6077 3935,6070 3922,6058 3913,6039 3911,6011 3914,5881 3904,5814  3909,5702 3909,5571 3906,5383 3906,5231"
     fill="#987b53"
     stroke="#000000"
     stroke-width="45px"
     stroke-linejoin="round"
     stroke-linecap="round"
     id="polyline64" />
  <polygon
     points="4318,4148 4410,4316 4303,4484 4486,4621 4516,4712 3007,5002 2977,4941 2977,4728 3038,4468 3190,4301 3205,3996 3297,3752 3327,3477 3434,3356 3495,3234 3510,3188 3632,3127 3708,3035 3937,3310 3906,3691 3998,3615 4120,3691 3998,4164 "
     fill="#287828"
     id="polygon66" />
  <polyline
     points=" 3922,3295 3923,3296 3929,3300 3941,3309 3954,3319 3967,3328 3977,3335 3986,3340  3993,3343 3998,3345 4002,3346 4006,3346 4011,3346 4015,3346 4018,3345 4021,3344  4024,3342 4026,3340 4028,3338 4028,3335 4029,3333 4028,3328 4026,3322 4022,3315  4016,3306 4009,3297 4001,3287 3991,3276 3980,3264 3972,3255 3963,3246 3954,3236  3944,3225 3933,3213 3922,3201 3910,3189 3899,3176 3889,3164 3880,3152 3871,3141  3863,3130 3856,3118 3849,3107 3842,3095 3836,3083 3830,3070 3825,3056 3820,3043  3815,3029 3811,3015 3807,3001 3803,2986 3800,2972 3796,2957 3793,2941 3789,2925  3785,2907 3781,2889 3777,2870 3773,2853 3769,2835 3765,2820 3761,2805 3758,2793  3754,2782 3751,2773 3748,2765 3745,2758 3741,2752 3738,2747 3735,2742 3731,2739  3728,2736 3724,2734 3721,2733 3717,2733 3714,2734 3711,2736 3708,2738 3704,2742  3700,2748 3695,2755 3690,2764 3685,2774 3681,2785 3676,2797 3671,2810 3667,2824  3663,2837 3659,2849 3656,2862 3652,2876 3648,2890 3643,2906 3638,2922 3633,2938  3628,2953 3622,2969 3616,2983 3611,2997 3604,3010 3598,3022 3590,3035 3583,3048  3574,3060 3566,3073 3557,3085 3549,3096 3541,3107 3534,3116 3528,3125 3522,3133  3518,3139 3516,3142 3514,3145 3513,3148 3511,3151 3510,3154 3509,3156 3508,3159  3508,3161 3508,3163 3507,3165 3507,3167 3508,3168 3508,3170 3509,3171 3510,3172  3511,3173 3512,3174 3514,3175 3515,3175 3517,3175 3519,3175 3521,3175 3523,3175  3525,3175 3533,3174 3542,3171 3553,3167 3565,3163 3577,3157 3590,3150 3601,3144  3612,3137 3620,3131 3629,3125 3638,3117 3648,3109 3659,3098 3671,3087 3681,3077  3689,3070 3692,3067 3693,3066"
     fill="#287828"
     stroke="#000000"
     stroke-width="45px"
     stroke-linejoin="bevel"
     stroke-linecap="round"
     id="polyline68" />
  <polyline
     points=" 3906,3691 3907,3691 3914,3694 3928,3699 3947,3706 3967,3712 3985,3718 4000,3722  4012,3724 4020,3723 4026,3722 4031,3717 4032,3708 4031,3695 4027,3678 4022,3658  4017,3641 4014,3632 4013,3630 4014,3630 4018,3632 4029,3637 4045,3644 4064,3653  4085,3662 4104,3670 4122,3678 4137,3684 4150,3690 4162,3694 4173,3699 4187,3703  4200,3708 4213,3712 4227,3716 4240,3719 4253,3722 4265,3725 4276,3727 4286,3728  4295,3729 4306,3730 4318,3730 4329,3729 4340,3728 4350,3726 4360,3725 4368,3723  4377,3721 4387,3719 4397,3716 4407,3713 4414,3710 4420,3707 4422,3704 4422,3700  4419,3695 4413,3690 4405,3684 4395,3678 4384,3671 4377,3666 4369,3662 4360,3656  4350,3651 4340,3644 4329,3638 4319,3631 4309,3625 4300,3619 4290,3612 4281,3606  4272,3599 4262,3592 4252,3584 4241,3576 4230,3568 4219,3559 4208,3551 4197,3543  4186,3536 4176,3529 4166,3522 4155,3515 4144,3507 4132,3499 4119,3491 4107,3482  4094,3473 4082,3464 4071,3455 4060,3446 4049,3437 4039,3427 4028,3417 4017,3405  4005,3392 3991,3377 3976,3359 3960,3341 3946,3324 3934,3309 3926,3300 3923,3296  3922,3295"
     fill="#287828"
     stroke="#000000"
     stroke-width="45px"
     stroke-linejoin="bevel"
     stroke-linecap="round"
     id="polyline70" />
  <polyline
     points=" 4105,3691 4105,3692 4106,3696 4109,3705 4114,3720 4120,3738 4126,3757 4132,3775  4138,3792 4143,3806 4148,3819 4153,3831 4158,3843 4163,3855 4169,3867 4175,3879  4182,3892 4189,3905 4197,3918 4205,3932 4213,3944 4220,3956 4228,3968 4235,3978  4242,3988 4249,3998 4256,4008 4264,4018 4272,4028 4280,4038 4288,4048 4297,4058  4305,4068 4314,4077 4322,4086 4330,4095 4338,4103 4346,4111 4355,4119 4364,4128  4374,4137 4384,4146 4394,4155 4404,4164 4414,4173 4424,4182 4433,4189 4442,4197  4450,4204 4460,4212 4469,4221 4479,4229 4489,4237 4498,4246 4506,4254 4514,4261  4520,4268 4525,4274 4529,4280 4532,4285 4534,4289 4535,4294 4536,4298 4536,4302  4535,4306 4534,4310 4532,4313 4530,4317 4527,4319 4524,4321 4521,4323 4513,4326  4503,4328 4492,4329 4480,4329 4468,4328 4458,4326 4450,4324 4441,4321 4432,4318  4423,4314 4412,4309 4402,4303 4391,4297 4379,4291 4369,4285 4357,4278 4345,4271  4332,4263 4319,4255 4305,4247 4293,4239 4281,4232 4271,4225 4262,4219 4254,4214  4247,4209 4241,4205 4236,4201 4231,4198 4228,4196 4225,4195 4224,4196 4224,4197  4224,4199 4225,4204 4228,4210 4231,4217 4235,4227 4240,4236 4244,4246 4248,4256  4252,4265 4256,4276 4260,4288 4262,4298 4263,4307 4262,4314 4259,4318 4256,4320  4252,4322 4246,4322 4238,4321 4230,4319 4221,4316 4211,4312 4201,4308 4192,4305  4183,4300 4172,4295 4161,4290 4149,4284 4137,4277 4126,4270 4115,4264 4104,4257  4094,4250 4084,4243 4075,4235 4064,4226 4052,4215 4039,4203 4025,4190 4012,4177  4003,4169 3999,4165 3998,4164"
     fill="#287828"
     stroke="#000000"
     stroke-width="45px"
     stroke-linejoin="bevel"
     stroke-linecap="round"
     id="polyline72" />
  <polyline
     points=" 4394,4301 4394,4302 4397,4306 4403,4315 4412,4329 4423,4347 4434,4365 4446,4382  4456,4397 4465,4410 4473,4421 4481,4431 4488,4440 4498,4451 4507,4460 4517,4470  4528,4480 4538,4489 4549,4498 4559,4507 4568,4515 4577,4522 4585,4529 4594,4538  4603,4547 4611,4557 4619,4567 4625,4576 4630,4585 4634,4593 4635,4601 4636,4607  4634,4614 4632,4621 4628,4627 4623,4632 4618,4637 4613,4641 4608,4644 4601,4646  4593,4648 4584,4649 4574,4649 4565,4648 4554,4646 4546,4644 4537,4641 4526,4638  4515,4634 4503,4630 4491,4625 4479,4619 4468,4613 4458,4608 4449,4603 4439,4596  4428,4589 4417,4582 4407,4574 4396,4567 4387,4559 4378,4552 4369,4545 4361,4538  4352,4530 4343,4522 4333,4512 4322,4502 4310,4490 4300,4480 4292,4472 4289,4469  4288,4468"
     fill="#287828"
     stroke="#000000"
     stroke-width="45px"
     stroke-linejoin="bevel"
     stroke-linecap="round"
     id="polyline74" />
  <polyline
     points=" 3281,3782 3281,3783 3279,3787 3274,3796 3267,3809 3260,3823 3253,3837 3246,3850  3240,3861 3234,3871 3228,3882 3222,3892 3215,3904 3207,3916 3200,3928 3193,3940  3186,3952 3181,3962 3176,3972 3173,3979 3172,3986 3172,3989 3172,3992 3174,3995  3176,3997 3179,3998 3183,3999 3187,3999 3192,3999 3197,3998 3203,3996 3209,3995  3215,3993 3221,3991 3228,3988 3237,3985 3247,3980 3258,3975 3269,3970 3281,3964  3293,3957 3305,3950 3316,3944 3327,3937 3337,3930 3347,3923 3357,3915 3367,3907  3377,3898 3387,3889 3396,3879 3405,3870 3414,3862 3422,3853 3429,3846 3437,3836  3446,3827 3455,3818 3463,3810 3470,3804 3477,3800 3483,3799 3487,3800 3491,3804  3496,3810 3500,3818 3505,3827 3511,3836 3518,3843 3526,3848 3536,3851 3543,3851  3552,3849 3563,3845 3576,3839 3591,3832 3609,3822 3628,3811 3647,3800 3663,3791  3673,3785 3677,3782 3678,3782"
     fill="#287828"
     stroke="#000000"
     stroke-width="45px"
     stroke-linejoin="bevel"
     stroke-linecap="round"
     id="polyline76" />
  <polyline
     points=" 3220,3996 3218,4000 3214,4007 3208,4018 3199,4034 3189,4051 3179,4070 3169,4087  3160,4103 3151,4118 3144,4131 3136,4143 3129,4155 3121,4166 3114,4178 3106,4190  3097,4202 3088,4215 3079,4228 3069,4241 3059,4255 3048,4268 3038,4281 3027,4294  3017,4307 3007,4319 2997,4330 2987,4341 2977,4352 2966,4363 2955,4374 2944,4386  2932,4398 2920,4409 2908,4421 2896,4433 2884,4444 2872,4455 2861,4465 2850,4475  2839,4485 2829,4494 2818,4504 2806,4515 2794,4525 2782,4536 2771,4547 2760,4558  2749,4568 2740,4577 2731,4586 2724,4594 2717,4602 2712,4608 2709,4614 2706,4619  2703,4624 2701,4628 2700,4633 2700,4637 2700,4641 2701,4645 2702,4648 2704,4651  2706,4654 2708,4656 2711,4658 2715,4659 2722,4662 2730,4663 2739,4665 2749,4666  2760,4666 2771,4666 2782,4665 2791,4664 2801,4663 2811,4662 2822,4659 2834,4656  2846,4652 2859,4647 2872,4641 2885,4633 2895,4628 2905,4621 2917,4614 2929,4606  2942,4597 2955,4588 2968,4578 2981,4569 2994,4559 3006,4550 3017,4540 3028,4532  3038,4523 3048,4514 3058,4505 3069,4496 3079,4486 3089,4477 3099,4468 3108,4459  3116,4450 3124,4442 3132,4435 3139,4428 3149,4417 3160,4407 3170,4398 3179,4389  3188,4381 3195,4376 3201,4373 3205,4372 3208,4373 3209,4376 3210,4381 3210,4388  3208,4397 3206,4406 3203,4416 3200,4425 3196,4435 3192,4446 3188,4457 3183,4468  3178,4479 3174,4490 3170,4500 3168,4509 3166,4516 3164,4523 3163,4529 3163,4536  3163,4542 3164,4547 3165,4552 3167,4555 3170,4558 3173,4560 3178,4561 3184,4561  3191,4559 3200,4557 3209,4553 3218,4548 3227,4543 3236,4537 3243,4532 3250,4526  3258,4520 3266,4513 3274,4505 3282,4497 3290,4489 3298,4481 3305,4473 3312,4466  3321,4456 3330,4446 3339,4436 3349,4426 3357,4418 3365,4412 3372,4409 3378,4407  3383,4409 3387,4412 3391,4418 3394,4427 3398,4436 3400,4447 3403,4458 3406,4468  3408,4479 3412,4490 3415,4500 3419,4511 3423,4520 3428,4528 3432,4533 3437,4537  3441,4539 3446,4539 3452,4537 3458,4533 3465,4528 3471,4522 3478,4516 3485,4509  3491,4503 3497,4497 3505,4489 3513,4481 3524,4470 3535,4459 3545,4449 3552,4442  3555,4439 3556,4438"
     fill="#287828"
     stroke="#000000"
     stroke-width="45px"
     stroke-linejoin="bevel"
     id="polyline78" />
  <polyline
     points=" 3038,4529 3038,4530 3035,4535 3029,4545 3020,4560 3011,4576 3001,4591 2993,4605  2986,4617 2979,4628 2972,4639 2966,4647 2959,4657 2953,4666 2945,4676 2937,4687  2929,4698 2920,4709 2910,4720 2901,4730 2892,4741 2882,4751 2872,4761 2862,4770  2851,4781 2840,4791 2828,4802 2815,4814 2803,4825 2791,4836 2780,4846 2769,4856  2760,4864 2752,4873 2745,4880 2739,4887 2734,4893 2730,4899 2726,4905 2724,4910  2722,4914 2721,4919 2721,4922 2722,4925 2723,4928 2725,4929 2727,4931 2731,4932  2736,4932 2743,4931 2752,4929 2762,4925 2774,4919 2787,4912 2801,4903 2810,4897  2820,4890 2831,4883 2844,4873 2858,4862 2875,4850 2894,4836 2914,4821 2934,4806  2951,4793 2965,4782 2973,4776 2976,4773 2977,4773"
     fill="#287828"
     stroke="#000000"
     stroke-width="45px"
     stroke-linejoin="bevel"
     stroke-linecap="round"
     id="polyline80" />
  <polyline
     points=" 2992,4758 2992,4759 2990,4762 2985,4771 2977,4784 2968,4800 2958,4817 2949,4833  2940,4847 2932,4859 2925,4871 2918,4881 2911,4890 2904,4899 2896,4909 2888,4918  2880,4928 2871,4937 2862,4947 2853,4956 2843,4965 2834,4973 2826,4981 2817,4988  2809,4994 2799,5002 2789,5009 2778,5017 2767,5024 2755,5032 2743,5040 2732,5047  2721,5054 2710,5061 2700,5068 2689,5075 2678,5083 2667,5091 2655,5100 2644,5109  2633,5117 2624,5126 2615,5134 2608,5142 2603,5149 2600,5154 2597,5159 2595,5164  2593,5168 2593,5173 2592,5178 2592,5182 2593,5187 2595,5191 2597,5194 2599,5197  2601,5200 2604,5203 2608,5205 2615,5208 2623,5210 2632,5212 2643,5213 2655,5212  2666,5211 2678,5210 2690,5208 2699,5205 2709,5202 2719,5198 2731,5194 2743,5188  2756,5181 2770,5173 2783,5164 2797,5155 2812,5144 2821,5137 2831,5129 2842,5120  2854,5110 2867,5098 2882,5085 2899,5070 2917,5053 2936,5036 2955,5019 2973,5003  2987,4989 2998,4980 3004,4974 3007,4971"
     fill="#287828"
     stroke="#000000"
     stroke-width="45px"
     stroke-linejoin="bevel"
     stroke-linecap="round"
     id="polyline82" />
  <polyline
     points=" 3525,3142 3525,3143 3523,3147 3520,3157 3515,3172 3509,3191 3502,3210 3495,3229  3489,3247 3482,3263 3476,3277 3469,3291 3462,3305 3455,3317 3448,3330 3440,3343  3431,3357 3421,3372 3411,3387 3400,3403 3388,3418 3376,3434 3364,3449 3353,3464  3341,3478 3329,3492 3317,3506 3306,3517 3295,3529 3284,3541 3272,3554 3260,3566  3247,3579 3234,3592 3221,3605 3208,3618 3195,3630 3182,3642 3170,3653 3159,3664  3147,3674 3137,3684 3127,3693 3113,3705 3100,3717 3087,3729 3074,3741 3062,3753  3049,3764 3037,3775 3026,3786 3015,3795 3006,3804 2998,3813 2990,3820 2979,3831  2968,3842 2959,3853 2950,3864 2943,3874 2938,3884 2934,3892 2931,3899 2930,3904  2930,3910 2930,3915 2932,3920 2934,3925 2937,3929 2940,3933 2943,3936 2947,3938  2951,3940 2957,3941 2963,3942 2970,3941 2979,3940 2988,3939 2997,3936 3007,3933  3017,3930 3026,3927 3036,3923 3046,3919 3058,3915 3070,3910 3084,3904 3097,3897  3110,3891 3123,3884 3137,3876 3148,3870 3160,3862 3173,3854 3188,3843 3206,3831  3225,3818 3246,3804 3265,3790 3281,3778 3292,3771 3296,3768 3297,3767"
     fill="#287828"
     stroke="#000000"
     stroke-width="45px"
     stroke-linejoin="bevel"
     stroke-linecap="round"
     id="polyline84" />
  <polyline
     points=" 3007,4971 3007,4972 3005,4977 3000,4988 2992,5006 2983,5027 2973,5049 2964,5071  2956,5090 2948,5106 2941,5121 2935,5134 2928,5147 2922,5159 2915,5171 2908,5183  2901,5196 2893,5208 2886,5221 2879,5232 2872,5244 2865,5254 2860,5264 2854,5273  2849,5282 2843,5294 2837,5305 2832,5316 2828,5327 2825,5337 2823,5345 2823,5352  2824,5358 2826,5362 2829,5365 2832,5368 2837,5371 2842,5373 2848,5374 2854,5375  2860,5375 2866,5374 2873,5373 2881,5371 2889,5367 2899,5363 2908,5358 2918,5352  2928,5345 2937,5339 2946,5332 2953,5326 2960,5320 2968,5313 2976,5306 2984,5298  2992,5290 3000,5282 3008,5274 3015,5266 3022,5259 3031,5249 3040,5239 3050,5228  3060,5218 3069,5209 3078,5201 3086,5195 3094,5190 3098,5188 3101,5187 3105,5187  3109,5187 3113,5187 3116,5188 3119,5190 3122,5192 3125,5195 3128,5198 3130,5202  3131,5206 3133,5211 3134,5215 3135,5225 3136,5236 3137,5248 3137,5260 3137,5273  3138,5284 3140,5294 3142,5302 3143,5305 3145,5309 3148,5311 3151,5314 3154,5315  3158,5316 3162,5317 3166,5317 3170,5317 3175,5316 3179,5314 3184,5312 3188,5310  3193,5307 3201,5301 3209,5294 3218,5286 3227,5278 3235,5270 3242,5264 3248,5259  3253,5256 3257,5256 3259,5256 3261,5258 3263,5261 3265,5265 3266,5270 3267,5275  3267,5281 3268,5286 3269,5292 3270,5301 3272,5311 3275,5320 3278,5328 3282,5334  3286,5338 3290,5339 3294,5338 3300,5337 3305,5333 3312,5328 3318,5322 3325,5315  3332,5307 3339,5297 3347,5287 3356,5275 3364,5264 3373,5254 3381,5246 3387,5241  3393,5238 3398,5239 3402,5243 3407,5249 3411,5257 3415,5267 3418,5278 3422,5288  3427,5297 3430,5304 3435,5310 3439,5316 3445,5322 3450,5326 3456,5331 3462,5334  3467,5336 3472,5337 3477,5338 3482,5337 3487,5336 3492,5333 3497,5330 3503,5325  3508,5319 3514,5312 3519,5305 3525,5296 3530,5287 3536,5276 3542,5265 3549,5252  3557,5239 3564,5227 3572,5214 3580,5204 3587,5195 3595,5189 3602,5185 3609,5183  3616,5184 3624,5187 3632,5191 3640,5198 3648,5205 3656,5214 3664,5222 3671,5230  3678,5238 3687,5248 3696,5257 3706,5266 3716,5274 3725,5281 3735,5288 3743,5293  3752,5297 3762,5301 3773,5303 3784,5304 3795,5303 3805,5301 3815,5297 3822,5293  3830,5288 3837,5282 3846,5274 3854,5266 3863,5258 3871,5249 3879,5241 3887,5232  3895,5222 3904,5212 3913,5201 3922,5191 3931,5182 3938,5174 3945,5167 3950,5161  3956,5156 3962,5152 3967,5149 3973,5147 3978,5146 3983,5146 3988,5147 3994,5148  4000,5150 4007,5153 4014,5157 4022,5161 4030,5166 4037,5172 4044,5178 4051,5184  4058,5191 4066,5199 4074,5208 4082,5217 4089,5225 4096,5232 4102,5238 4110,5246  4119,5253 4127,5259 4135,5263 4142,5265 4148,5266 4152,5266 4156,5264 4161,5262  4165,5258 4169,5254 4172,5248 4176,5242 4178,5236 4182,5226 4185,5214 4189,5202  4193,5192 4197,5184 4201,5180 4206,5179 4213,5182 4221,5189 4230,5198 4239,5209  4250,5220 4256,5227 4263,5235 4271,5243 4280,5252 4289,5260 4298,5269 4307,5277  4316,5284 4325,5291 4333,5297 4344,5303 4355,5309 4367,5315 4379,5320 4391,5325  4403,5329 4414,5332 4425,5335 4435,5337 4446,5339 4458,5341 4469,5343 4479,5343  4489,5342 4497,5340 4503,5338 4509,5333 4514,5328 4518,5320 4521,5312 4524,5302  4526,5292 4528,5282 4529,5271 4529,5260 4530,5249 4531,5237 4532,5225 4533,5215  4534,5205 4536,5198 4539,5193 4541,5190 4544,5188 4547,5187 4551,5188 4556,5189  4561,5191 4567,5194 4573,5197 4579,5201 4585,5205 4593,5211 4602,5217 4613,5223  4624,5231 4635,5238 4646,5244 4657,5250 4666,5256 4676,5261 4686,5266 4696,5270  4706,5274 4715,5277 4723,5279 4731,5279 4737,5279 4743,5278 4749,5275 4754,5272  4758,5267 4762,5261 4765,5256 4768,5250 4770,5244 4772,5237 4773,5231 4775,5224  4777,5217 4779,5211 4783,5206 4787,5203 4793,5200 4800,5199 4808,5199 4819,5200  4831,5201 4844,5204 4857,5206 4870,5208 4882,5210 4894,5212 4907,5213 4921,5213  4934,5213 4948,5213 4960,5212 4971,5210 4981,5208 4991,5205 5000,5201 5008,5196  5016,5191 5023,5185 5028,5179 5032,5173 5035,5167 5036,5162 5036,5157 5035,5151  5033,5145 5030,5139 5026,5133 5021,5127 5015,5120 5009,5115 5001,5109 4993,5103  4984,5098 4973,5091 4961,5085 4948,5078 4934,5071 4920,5065 4906,5058 4893,5052  4880,5045 4868,5040 4857,5034 4845,5028 4832,5022 4819,5015 4806,5008 4793,5000  4780,4993 4767,4985 4755,4977 4744,4969 4732,4961 4721,4953 4710,4944 4698,4934  4687,4923 4674,4912 4662,4899 4651,4887 4639,4874 4628,4861 4618,4848 4609,4835  4600,4821 4592,4810 4585,4797 4578,4784 4570,4769 4561,4752 4552,4733 4542,4712  4532,4690 4522,4668 4513,4649 4507,4634 4503,4625 4501,4622 4501,4621"
     fill="#287828"
     stroke="#000000"
     stroke-width="45px"
     stroke-linejoin="bevel"
     stroke-linecap="round"
     id="polyline86" />
  <polyline
     points=" 4135,4758 4136,4759 4141,4762 4151,4769 4165,4780 4181,4791 4196,4801 4209,4810  4220,4818 4230,4825 4239,4832 4251,4839 4262,4847 4273,4855 4284,4863 4294,4871  4302,4878 4308,4884 4313,4890 4314,4893 4316,4895 4316,4898 4317,4900 4317,4902  4316,4905 4315,4907 4314,4909 4313,4911 4311,4912 4309,4914 4306,4915 4304,4916  4301,4917 4298,4918 4295,4918 4289,4919 4281,4919 4273,4918 4263,4916 4252,4913  4241,4909 4230,4904 4219,4898 4210,4893 4200,4887 4190,4881 4179,4874 4168,4868  4158,4862 4148,4857 4140,4854 4133,4852 4128,4852 4121,4856 4117,4864 4114,4875  4113,4888 4112,4900 4110,4911 4108,4916 4106,4920 4103,4924 4099,4928 4095,4930  4091,4932 4086,4933 4081,4934 4076,4934 4072,4934 4063,4932 4054,4929 4043,4924  4033,4919 4024,4912 4016,4906 4007,4898 3999,4890 3990,4882 3982,4875 3974,4870  3967,4868 3962,4867 3956,4869 3951,4872 3945,4876 3939,4882 3934,4888 3929,4895  3924,4903 3920,4911 3916,4920 3911,4930 3907,4940 3903,4949 3898,4957 3895,4964  3891,4969 3890,4971 3888,4972 3886,4973 3885,4974 3883,4975 3881,4975 3879,4975  3877,4974 3875,4973 3873,4971 3871,4969 3869,4966 3867,4964 3865,4960 3863,4957  3860,4953 3858,4948 3856,4943 3852,4935 3848,4926 3844,4914 3839,4900 3833,4883  3826,4864 3818,4843 3811,4822 3806,4806 3802,4795 3800,4790 3800,4789"
     fill="#287828"
     stroke="#000000"
     stroke-width="45px"
     stroke-linejoin="bevel"
     stroke-linecap="round"
     id="polyline88" />
  <metadata
     id="metadata975">
    <rdf:RDF>
      <cc:Work
         rdf:about="">
        <dc:title>The Canopy / Snow / Soil column of the Snowpack model</dc:title>
        <dc:date>2024-04-24</dc:date>
        <dc:creator>
          <cc:Agent>
            <dc:title>Mathias Bavay</dc:title>
          </cc:Agent>
        </dc:creator>
        <dc:publisher>
          <cc:Agent>
            <dc:title>SLF</dc:title>
          </cc:Agent>
        </dc:publisher>
        <dc:source>https://code.wsl.ch/snow-models/snowpack</dc:source>
        <cc:license
           rdf:resource="http://creativecommons.org/licenses/by-sa/4.0/" />
      </cc:Work>
      <cc:License
         rdf:about="http://creativecommons.org/licenses/by-sa/4.0/">
        <cc:permits
           rdf:resource="http://creativecommons.org/ns#Reproduction" />
        <cc:permits
           rdf:resource="http://creativecommons.org/ns#Distribution" />
        <cc:requires
           rdf:resource="http://creativecommons.org/ns#Notice" />
        <cc:requires
           rdf:resource="http://creativecommons.org/ns#Attribution" />
        <cc:permits
           rdf:resource="http://creativecommons.org/ns#DerivativeWorks" />
        <cc:requires
           rdf:resource="http://creativecommons.org/ns#ShareAlike" />
      </cc:License>
    </rdf:RDF>
  </metadata>
</svg>
